<svg width="54" height="54" viewBox="0 0 54 54" fill="none" xmlns="http://www.w3.org/2000/svg">
<path d="M16.3333 24.3333C16.3333 23.6261 16.6143 22.9478 17.1144 22.4477C17.6145 21.9476 18.2928 21.6667 19 21.6667H35C35.7072 21.6667 36.3855 21.9476 36.8856 22.4477C37.3857 22.9478 37.6667 23.6261 37.6667 24.3333C37.6667 25.0406 37.3857 25.7188 36.8856 26.2189C36.3855 26.719 35.7072 27 35 27H19C18.2928 27 17.6145 26.719 17.1144 26.2189C16.6143 25.7188 16.3333 25.0406 16.3333 24.3333ZM19 32.3333C18.2928 32.3333 17.6145 32.6143 17.1144 33.1144C16.6143 33.6145 16.3333 34.2927 16.3333 35C16.3333 35.7072 16.6143 36.3855 17.1144 36.8856C17.6145 37.3857 18.2928 37.6667 19 37.6667H29.6667C30.3739 37.6667 31.0522 37.3857 31.5523 36.8856C32.0524 36.3855 32.3333 35.7072 32.3333 35C32.3333 34.2927 32.0524 33.6145 31.5523 33.1144C31.0522 32.6143 30.3739 32.3333 29.6667 32.3333H19ZM0.333328 27C0.334665 21.1536 2.25728 15.4696 5.80528 10.8229C9.35329 6.17618 14.33 2.8242 19.9696 1.28286C25.6092 -0.258486 31.599 0.0962259 37.0172 2.2924C42.4354 4.48858 46.9818 8.4045 49.9566 13.4375C52.9314 18.4705 54.1697 24.3416 53.481 30.1473C52.7923 35.953 50.2148 41.3715 46.1451 45.5689C42.0753 49.7663 36.739 52.5099 30.9574 53.3775C25.1757 54.2451 19.2691 53.1886 14.1467 50.3707L3.77866 53.528C3.31621 53.6689 2.82417 53.6814 2.35516 53.5642C1.88615 53.447 1.45782 53.2045 1.11598 52.8627C0.774146 52.5208 0.531664 52.0925 0.414473 51.6235C0.297282 51.1545 0.30979 50.6624 0.450661 50.2L3.60799 39.816C1.45308 35.8885 0.326595 31.4798 0.333328 27ZM27 5.66666C23.213 5.66634 19.4942 6.6741 16.2255 8.58642C12.9568 10.4987 10.2561 13.2467 8.40068 16.5481C6.5453 19.8494 5.60215 23.5851 5.66811 27.3716C5.73407 31.158 6.80676 34.8586 8.77599 38.0933C8.97147 38.4147 9.09677 38.7737 9.14364 39.1469C9.19052 39.5201 9.15793 39.899 9.04799 40.2587L7.00533 46.9733L13.7093 44.9307C14.0702 44.8207 14.4502 44.7886 14.8244 44.8364C15.1986 44.8842 15.5584 45.0109 15.88 45.208C18.6916 46.9246 21.8626 47.9667 25.1444 48.2528C28.4261 48.5388 31.7296 48.0609 34.7958 46.8566C37.862 45.6523 40.6076 43.7542 42.8175 41.3112C45.0274 38.8682 46.6415 35.9466 47.5333 32.7754C48.4252 29.6042 48.5705 26.2695 47.9579 23.0328C47.3453 19.796 45.9914 16.7451 44.0024 14.1191C42.0133 11.4932 39.4432 9.36349 36.4934 7.89703C33.5436 6.43058 30.2942 5.66718 27 5.66666Z" fill="#F7FBFC"/>
</svg>
