<svg width="48" height="48" viewBox="0 0 48 48" fill="none" xmlns="http://www.w3.org/2000/svg">
<g clip-path="url(#clip0_109_28)">
<path d="M17.6 22.3963C17.6 21.972 17.7686 21.565 18.0686 21.265C18.3687 20.9649 18.7757 20.7963 19.2 20.7963H28.8C29.2244 20.7963 29.6313 20.9649 29.9314 21.265C30.2314 21.565 30.4 21.972 30.4 22.3963C30.4 22.8207 30.2314 23.2276 29.9314 23.5277C29.6313 23.8278 29.2244 23.9963 28.8 23.9963H19.2C18.7757 23.9963 18.3687 23.8278 18.0686 23.5277C17.7686 23.2276 17.6 22.8207 17.6 22.3963ZM19.2 27.1963C18.7757 27.1963 18.3687 27.3649 18.0686 27.665C17.7686 27.965 17.6 28.372 17.6 28.7963C17.6 29.2207 17.7686 29.6276 18.0686 29.9277C18.3687 30.2278 18.7757 30.3963 19.2 30.3963H25.6C26.0244 30.3963 26.4313 30.2278 26.7314 29.9277C27.0314 29.6276 27.2 29.2207 27.2 28.7963C27.2 28.372 27.0314 27.965 26.7314 27.665C26.4313 27.3649 26.0244 27.1963 25.6 27.1963H19.2ZM8.00002 23.9963C8.00082 20.4885 9.15439 17.0781 11.2832 14.2901C13.412 11.5021 16.398 9.49087 19.7818 8.56606C23.1655 7.64126 26.7594 7.85409 30.0103 9.17179C33.2613 10.4895 35.9891 12.839 37.7739 15.8588C39.5588 18.8786 40.3018 22.4013 39.8886 25.8847C39.4754 29.3682 37.9289 32.6193 35.487 35.1377C33.0452 37.6561 29.8434 39.3022 26.3744 39.8228C22.9054 40.3434 19.3615 39.7095 16.288 38.0187L10.0672 39.9131C9.78975 39.9976 9.49452 40.0051 9.21311 39.9348C8.93171 39.8645 8.67471 39.719 8.46961 39.5139C8.26451 39.3088 8.11902 39.0518 8.0487 38.7704C7.97839 38.489 7.9859 38.1938 8.07042 37.9163L9.96482 31.6859C8.67187 29.3294 7.99598 26.6842 8.00002 23.9963ZM24 11.1963C21.7278 11.1962 19.4965 11.8008 17.5353 12.9482C15.5741 14.0956 13.9537 15.7444 12.8404 17.7252C11.7272 19.706 11.1613 21.9474 11.2009 24.2193C11.2405 26.4911 11.8841 28.7115 13.0656 30.6523C13.1829 30.8451 13.2581 31.0606 13.2862 31.2845C13.3143 31.5084 13.2948 31.7357 13.2288 31.9515L12.0032 35.9803L16.0256 34.7547C16.2421 34.6888 16.4702 34.6695 16.6947 34.6982C16.9192 34.7269 17.135 34.8028 17.328 34.9211C19.015 35.9511 20.9176 36.5764 22.8866 36.748C24.8557 36.9196 26.8378 36.6329 28.6775 35.9103C30.5172 35.1877 32.1646 34.0489 33.4905 32.5831C34.8164 31.1173 35.7849 29.3643 36.32 27.4616C36.8551 25.5589 36.9423 23.5581 36.5747 21.616C36.2072 19.674 35.3948 17.8434 34.2014 16.2678C33.008 14.6922 31.4659 13.4144 29.696 12.5346C27.9262 11.6547 25.9765 11.1967 24 11.1963Z" fill="#F7FBFC"/>
</g>
<defs>
<clipPath id="clip0_109_28">
<rect width="32" height="32" fill="white" transform="translate(8 8)"/>
</clipPath>
</defs>
</svg>
