<svg width="128" height="128" viewBox="0 0 128 128" fill="none" xmlns="http://www.w3.org/2000/svg">
<path d="M28.5 100C28.5 100 31.5 103 38.5 107.5C48.5368 112.5 55.544 113.5 64 113.5C97 114.867 120 85.516 120 61.5C120 34.5 95.5 8 62 9.52871C33.888 9.52871 8 32 8 61.5C8.04727 70.7242 12.6925 84.4923 18.264 91.844L10 111.633L28.5 100ZM16.8505 107.483C16.8425 107.483 10 111.633 10 111.633L11.7261 107.5L18.264 91.844C11.6494 83.1064 8.04785 72.4588 8 61.5C8 34.988 29.456 9.49998 64 9.49998C98.544 9.49998 120 34.988 120 61.5C119 86.5 98 113.5 64 113.5C54.04 113.5 48.5368 112.5 38.5 107.5C31.5 103 28.5 100 28.5 100L16.8505 107.483Z" fill="black"/>
<path d="M28.5 100C28.5 100 31.5 103 38.5 107.5M28.5 100L10 111.633M28.5 100L16.8505 107.483C16.8425 107.483 10 111.633 10 111.633M38.5 107.5C48.5368 112.5 55.544 113.5 64 113.5M38.5 107.5C48.5368 112.5 54.04 113.5 64 113.5M64 113.5C97 114.867 120 85.516 120 61.5M64 113.5C98 113.5 119 86.5 120 61.5M120 61.5C120 34.5 95.5 8 62 9.52871C33.888 9.52871 8 32 8 61.5M120 61.5C120 34.988 98.544 9.49998 64 9.49998C29.456 9.49998 8 34.988 8 61.5M8 61.5C8.04727 70.7242 12.6925 84.4923 18.264 91.844M8 61.5C8.04785 72.4588 11.6494 83.1064 18.264 91.844M18.264 91.844L10 111.633M18.264 91.844L11.7261 107.5L10 111.633" stroke="#F7FBFC" stroke-width="5"/>
</svg>
