<svg width="32" height="32" viewBox="0 0 32 32" fill="none" xmlns="http://www.w3.org/2000/svg">
<g clip-path="url(#clip0_109_28)">
<g clip-path="url(#clip1_109_28)">
<path d="M9.60001 14.3963C9.60001 13.972 9.76858 13.565 10.0686 13.265C10.3687 12.9649 10.7757 12.7963 11.2 12.7963H20.8C21.2244 12.7963 21.6313 12.9649 21.9314 13.265C22.2314 13.565 22.4 13.972 22.4 14.3963C22.4 14.8207 22.2314 15.2276 21.9314 15.5277C21.6313 15.8278 21.2244 15.9963 20.8 15.9963H11.2C10.7757 15.9963 10.3687 15.8278 10.0686 15.5277C9.76858 15.2276 9.60001 14.8207 9.60001 14.3963ZM11.2 19.1963C10.7757 19.1963 10.3687 19.3649 10.0686 19.665C9.76858 19.965 9.60001 20.372 9.60001 20.7963C9.60001 21.2207 9.76858 21.6276 10.0686 21.9277C10.3687 22.2278 10.7757 22.3963 11.2 22.3963H17.6C18.0244 22.3963 18.4313 22.2278 18.7314 21.9277C19.0314 21.6276 19.2 21.2207 19.2 20.7963C19.2 20.372 19.0314 19.965 18.7314 19.665C18.4313 19.3649 18.0244 19.1963 17.6 19.1963H11.2ZM1.80035e-05 15.9963C0.00082049 12.4885 1.15439 9.07813 3.28319 6.29009C5.41199 3.50205 8.39804 1.49087 11.7818 0.566065C15.1655 -0.358741 18.7594 -0.145914 22.0103 1.17179C25.2613 2.4895 27.9891 4.83905 29.7739 7.85885C31.5588 10.8786 32.3018 14.4013 31.8886 17.8847C31.4754 21.3682 29.9289 24.6193 27.487 27.1377C25.0452 29.6561 21.8434 31.3022 18.3744 31.8228C14.9054 32.3434 11.3615 31.7095 8.28801 30.0187L2.06722 31.9131C1.78975 31.9976 1.49452 32.0051 1.21311 31.9348C0.931709 31.8645 0.674711 31.719 0.46961 31.5139C0.264509 31.3088 0.119019 31.0518 0.048705 30.7704C-0.0216095 30.489 -0.0141043 30.1938 0.0704178 29.9163L1.96482 23.6859C0.671872 21.3294 -0.0040218 18.6842 1.80035e-05 15.9963ZM16 3.19634C13.7278 3.19615 11.4965 3.80081 9.5353 4.9482C7.57409 6.09559 5.95365 7.74437 4.84042 9.72518C3.7272 11.706 3.16131 13.9474 3.20089 16.2193C3.24046 18.4911 3.88407 20.7115 5.06561 22.6523C5.1829 22.8451 5.25808 23.0606 5.2862 23.2845C5.31433 23.5084 5.29477 23.7357 5.22881 23.9515L4.00322 27.9803L8.02561 26.7547C8.24212 26.6888 8.47016 26.6695 8.69467 26.6982C8.91918 26.7269 9.13504 26.8028 9.32801 26.9211C11.015 27.9511 12.9176 28.5764 14.8866 28.748C16.8557 28.9196 18.8378 28.6329 20.6775 27.9103C22.5172 27.1877 24.1646 26.0489 25.4905 24.5831C26.8164 23.1173 27.7849 21.3643 28.32 19.4616C28.8551 17.5589 28.9423 15.5581 28.5747 13.616C28.2072 11.674 27.3948 9.8434 26.2014 8.26782C25.008 6.69224 23.4659 5.41444 21.696 4.53457C19.9262 3.65469 17.9765 3.19665 16 3.19634Z" fill="#F7FBFC"/>
</g>
</g>
<defs>
<clipPath id="clip0_109_28">
<rect width="32" height="32" fill="white"/>
</clipPath>
<clipPath id="clip1_109_28">
<rect width="32" height="32" fill="white"/>
</clipPath>
</defs>
</svg>
