<svg width="48" height="48" viewBox="0 0 48 48" fill="none" xmlns="http://www.w3.org/2000/svg">
<path d="M19 32.96C16.7853 34.8453 14.76 36 11 36C12.3333 34.6667 14.0267 32.8667 14.7347 30.0707C12.4227 28.152 11 25.5427 11 22.6667C11 16.776 16.9693 12 24.3333 12C31.1333 12 36.744 16.072 37.564 21.3333" stroke="#F7FBFC" stroke-width="2.66667" stroke-linecap="round" stroke-linejoin="round"/>
<path d="M29.6667 34.5187C25.248 34.5187 21.6667 31.8653 21.6667 28.592C21.6667 25.32 25.248 22.6667 29.6667 22.6667C34.0853 22.6667 37.6667 25.32 37.6667 28.592C37.6667 30.1907 36.8133 31.64 35.4267 32.7053C35.8493 34.2587 36.8667 35.2587 37.6667 36C35.2667 36 34.0453 35.2747 32.6107 34.104C31.6987 34.3707 30.7067 34.5187 29.6667 34.5187Z" stroke="#F7FBFC" stroke-width="2.66667" stroke-linecap="round" stroke-linejoin="round"/>
</svg>
