<svg width="337" height="337" viewBox="0 0 337 337" fill="none" xmlns="http://www.w3.org/2000/svg">
<path fill-rule="evenodd" clip-rule="evenodd" d="M168.5 337C261.56 337 337 261.56 337 168.5C337 75.44 261.56 0 168.5 0C75.44 0 0 75.44 0 168.5C0 261.56 75.44 337 168.5 337ZM168.5 277C228.423 277 277 228.423 277 168.5C277 108.577 228.423 60 168.5 60C108.577 60 60 108.577 60 168.5C60 228.423 108.577 277 168.5 277Z" fill="#0178CE"/>
<path d="M49.3525 287.647C28.4462 266.741 13.4089 240.702 5.75066 212.145L63.6438 196.62C68.5778 215.018 78.2661 231.795 91.7356 245.264L49.3525 287.647Z" fill="#26C4F7"/>
<path fill-rule="evenodd" clip-rule="evenodd" d="M157.376 38.0104H160.224V32.7727H157.376V38.0104ZM156.748 39.2612H160.852C161.199 39.2612 161.479 38.9814 161.479 38.6359V32.1476C161.479 31.8021 161.199 31.522 160.852 31.522H156.748C156.402 31.522 156.121 31.8021 156.121 32.1476V38.6359C156.121 38.9814 156.402 39.2612 156.748 39.2612ZM173.777 38.0104H176.626V32.7727H173.777V38.0104ZM173.15 39.2612H177.253C177.6 39.2612 177.881 38.9814 177.881 38.6359V32.1476C177.881 31.8021 177.6 31.522 177.253 31.522H173.15C172.803 31.522 172.522 31.8021 172.522 32.1476V38.6359C172.522 38.9814 172.803 39.2612 173.15 39.2612ZM168.09 36.2935C167.744 36.2935 167.463 36.5734 167.463 36.9189V38.1751C167.463 38.5206 167.744 38.8005 168.09 38.8005C168.437 38.8005 168.718 38.5206 168.718 38.1751V36.9189C168.718 36.5734 168.437 36.2935 168.09 36.2935ZM181.746 28.7391H152.257V26.2555H181.746V28.7391ZM180.184 41.6024H170.703V32.1474C170.703 31.8022 170.422 31.5221 170.076 31.5221H163.927C163.58 31.5221 163.299 31.8022 163.299 32.1474V41.6024H153.838V29.9904H180.184V41.6024ZM164.554 41.6024H169.448V32.7731H164.554V41.6024ZM155.174 19.251H178.769L181.398 25.0044H152.597L155.174 19.251ZM183 25.6112C182.999 25.6025 182.999 25.5938 182.998 25.5851C182.997 25.5681 182.995 25.5514 182.992 25.5349C182.991 25.5282 182.991 25.5213 182.989 25.5146C182.98 25.4661 182.966 25.4197 182.946 25.3757C182.945 25.3742 182.945 25.3724 182.944 25.3708L179.744 18.366C179.642 18.1431 179.419 18 179.173 18H154.766C154.519 18 154.294 18.1451 154.194 18.3705L151.056 25.3753C151.056 25.3762 151.056 25.3773 151.055 25.3786C151.045 25.4012 151.036 25.4246 151.029 25.4485C151.029 25.4498 151.029 25.451 151.028 25.4523C151.022 25.4735 151.017 25.4952 151.013 25.5175C151.011 25.5246 151.01 25.5318 151.009 25.5389C151.007 25.555 151.005 25.5713 151.004 25.588C151.004 25.5965 151.003 25.6052 151.003 25.6137C151.003 25.6193 151.002 25.6246 151.002 25.6302V29.365C151.002 29.7105 151.283 29.9904 151.629 29.9904H152.583V42.2281C152.583 42.5736 152.864 42.8537 153.21 42.8537H180.811C181.158 42.8537 181.439 42.5736 181.439 42.2281V29.9904H182.373C182.719 29.9904 183 29.7105 183 29.365V25.6302C183 25.6239 182.999 25.6177 182.999 25.6114L183 25.6112Z" fill="white"/>
<rect x="152" y="26" width="30" height="3" fill="white"/>
<path d="M86.6178 276.001C86.2663 276.033 85.9983 276.322 86 276.667V293.334C86 293.702 86.3051 294 86.6818 294H88.4503C88.7725 295.703 90.3054 297 92.1362 297C93.9673 297 95.5002 295.703 95.8224 294H106.178C106.5 295.703 108.033 297 109.864 297C111.695 297 113.227 295.703 113.55 294H115.318C115.695 294 116 293.702 116 293.334V286.667C116.001 286.546 115.967 286.427 115.904 286.323L112.836 281.323C112.712 281.122 112.49 281 112.25 281H107.136V276.667C107.136 276.299 106.831 276.001 106.455 276.001H86.6818C86.6604 276 86.6392 276 86.6178 276.001ZM87.3635 277.334H105.773V292.667H95.8224C95.5002 290.964 93.9673 289.667 92.1362 289.667C90.3054 289.667 88.7725 290.964 88.4503 292.667H87.3635V277.334ZM107.136 282.334H111.866L112.484 283.334H108.5C108.479 283.333 108.457 283.333 108.436 283.334C108.085 283.366 107.817 283.656 107.818 284.001V286.667C107.818 287.035 108.124 287.334 108.5 287.334H114.636V288.334H112.932C112.91 288.333 112.889 288.333 112.868 288.334C112.517 288.366 112.248 288.655 112.25 289V290.511C111.601 289.987 110.766 289.667 109.864 289.667C108.791 289.667 107.821 290.111 107.136 290.823L107.136 282.334ZM109.182 284.667H113.294L114.115 286H109.182L109.182 284.667ZM113.614 289.667H114.636V290.334H113.614V289.667ZM92.1362 291C93.4624 291 94.5228 292.037 94.5228 293.334C94.5228 294.63 93.4624 295.667 92.1362 295.667C90.8103 295.667 89.7499 294.63 89.7499 293.334C89.7499 292.037 90.8103 291 92.1362 291ZM109.864 291C111.19 291 112.25 292.037 112.25 293.334C112.25 294.63 111.19 295.667 109.864 295.667C108.537 295.667 107.477 294.63 107.477 293.334C107.477 292.037 108.537 291 109.864 291ZM113.187 291.667H114.636V292.667H113.55C113.482 292.31 113.353 291.98 113.187 291.667ZM92.1361 292.334C91.5713 292.334 91.1136 292.781 91.1136 293.334C91.1136 293.886 91.5713 294.333 92.1361 294.333C92.7011 294.333 93.1589 293.886 93.1589 293.334C93.1589 292.781 92.7011 292.334 92.1361 292.334ZM109.864 292.334C109.299 292.334 108.841 292.781 108.841 293.334C108.841 293.886 109.298 294.333 109.864 294.333C110.428 294.333 110.886 293.886 110.886 293.334C110.886 292.781 110.428 292.334 109.864 292.334Z" fill="white"/>
<path d="M108.5 284H113.5L115 286.5H108.5V284Z" fill="white"/>
<rect x="87" y="287" width="19" height="2" fill="white"/>
<path d="M281.379 232.458H292.621V221.625H281.379V232.458ZM280.828 220H293.172C293.782 220 294.276 220.485 294.276 221.083V234.083H279.724V221.083C279.724 220.485 280.218 220 280.828 220ZM285.345 221.625V224.333H288.655V221.625H285.345ZM283.69 220H290.31V225.417C290.31 225.716 290.063 225.958 289.759 225.958H284.241C283.937 225.958 283.69 225.716 283.69 225.417V220ZM287.552 244.375H299.345V234.083H287.552V244.375ZM285.897 232.458H299.897C300.506 232.458 301 232.943 301 233.542V246H285.897V232.458ZM292.069 234.083V236.25H295.379V234.083H292.069ZM290.414 232.458H297.034V237.333C297.034 237.632 296.787 237.875 296.483 237.875H290.966C290.661 237.875 290.414 237.632 290.414 237.333V232.458ZM274.655 244.375H285.897V234.083H274.655V244.375ZM274.103 232.458H287.552V246H273V233.542C273 232.943 273.494 232.458 274.103 232.458ZM278.621 234.083V236.25H281.931V234.083H278.621ZM276.966 232.458H283.586V237.333C283.586 237.632 283.339 237.875 283.034 237.875H277.517C277.213 237.875 276.966 237.632 276.966 237.333V232.458Z" fill="white"/>
<path d="M155 315.214H180V317H155V315.214ZM156.786 304.5H160.357C161.343 304.5 162.143 305.227 162.143 306.123V313.428H155V306.123C155 305.227 155.8 304.5 156.786 304.5ZM160.357 311.643V306.286H156.786V311.643H160.357ZM165.714 298.25H169.286C170.272 298.25 171.071 299.005 171.071 299.936V313.429H163.929V299.936C163.929 299.005 164.728 298.25 165.714 298.25ZM169.286 311.643V300.036H165.714V311.643H169.286ZM174.643 292H178.214C179.2 292 180 292.738 180 293.648V313.429H172.857V293.648C172.857 292.738 173.657 292 174.643 292V292ZM178.214 311.643V293.786H174.643V311.643H178.214Z" fill="white"/>
<g clip-path="url(#clip0_0_1)">
<path fill-rule="evenodd" clip-rule="evenodd" d="M276.661 106.634L281.297 113.711L283.29 112.406L278.654 105.329L276.661 106.634ZM275.418 106.014C275.187 106.165 275.123 106.475 275.274 106.706L280.677 114.954C280.828 115.185 281.138 115.25 281.369 115.099L284.533 113.026C284.764 112.875 284.828 112.565 284.677 112.334L279.274 104.086C279.123 103.855 278.813 103.79 278.582 103.941L275.418 106.014Z" fill="white"/>
<path fill-rule="evenodd" clip-rule="evenodd" d="M286.842 102.461C286.336 102.241 285.586 102.084 284.448 102.311C283.405 102.52 282.392 103.385 281.597 104.303C281.21 104.749 280.897 105.182 280.68 105.504C280.627 105.582 280.579 105.654 280.539 105.718L283.489 110.354L284.437 109.643C284.887 109.305 285.435 109.123 285.997 109.123H293.535C293.612 109.123 293.688 109.1 293.753 109.059L301.197 104.242L300.705 103.947C300.104 103.587 299.376 103.507 298.711 103.728L294.393 105.168C294.341 105.456 294.239 105.707 294.096 105.923C293.885 106.239 293.608 106.443 293.349 106.572C293.093 106.7 292.844 106.761 292.664 106.791C292.572 106.806 292.495 106.814 292.438 106.818C292.409 106.82 292.386 106.821 292.368 106.822L292.345 106.823L292.337 106.823L292.333 106.823L292.332 106.823C292.332 106.823 292.331 106.823 292.331 106.229V106.823H288.831C288.499 106.823 288.231 106.554 288.231 106.223C288.231 105.891 288.499 105.623 288.831 105.623H292.327C292.327 105.623 292.327 105.623 292.328 105.623C292.331 105.623 292.34 105.622 292.352 105.621C292.377 105.62 292.417 105.616 292.466 105.608C292.568 105.591 292.694 105.558 292.812 105.499C292.929 105.44 293.027 105.363 293.097 105.257C293.165 105.155 293.231 104.993 293.231 104.723C293.231 104.337 293.095 104.056 292.919 103.843C292.752 103.641 292.51 103.507 292.18 103.426C291.843 103.342 291.453 103.323 291.032 103.323H288.149L287.998 103.222C287.877 103.141 287.773 103.059 287.668 102.976C287.448 102.803 287.226 102.627 286.842 102.461ZM294.311 103.93L298.332 102.59C299.329 102.258 300.421 102.377 301.323 102.918L302.227 103.461C302.798 103.803 302.812 104.626 302.253 104.988L294.405 110.066C294.146 110.234 293.844 110.323 293.535 110.323H285.997C285.694 110.323 285.4 110.421 285.157 110.603L283.172 112.092L279.13 105.739L279.31 105.425L279.831 105.723C279.31 105.425 279.31 105.425 279.31 105.425L279.311 105.423L279.312 105.421L279.318 105.411L279.338 105.378C279.354 105.349 279.379 105.308 279.411 105.257C279.474 105.154 279.566 105.008 279.685 104.833C279.921 104.482 280.264 104.009 280.69 103.517C281.519 102.56 282.756 101.426 284.213 101.134C285.576 100.862 286.576 101.038 287.319 101.36C287.859 101.593 288.306 101.944 288.532 102.123H291.032C291.472 102.123 291.983 102.141 292.468 102.261C292.96 102.382 293.463 102.618 293.844 103.079C294.036 103.311 294.204 103.594 294.311 103.93Z" fill="white"/>
<path d="M289.5 87H295V89.5H289.5V91.5L285 88.5L289.5 85V87Z" fill="white"/>
<path d="M290.5 97.5L285 97.5L285 95L290.5 95L290.5 93L295 96L290.5 99.5L290.5 97.5Z" fill="white"/>
</g>
<path d="M48.5 86C41.0563 86 35 92.056 35 99.5C35 106.943 41.0558 113 48.5 113C55.9432 113 62 106.943 62 99.5C62 92.056 55.9437 86 48.5 86V86ZM50.4738 110.921C50.0196 110.999 49.5578 111.054 49.0869 111.077V105.296H54.3629C54.0439 106.306 53.6393 107.243 53.1546 108.077C52.3803 109.406 51.4635 110.37 50.4736 110.921L50.4738 110.921ZM43.8453 108.076C43.3598 107.243 42.9556 106.306 42.637 105.296H47.913V111.077C47.4423 111.053 46.9803 110.999 46.5265 110.92C45.5361 110.369 44.619 109.406 43.8453 108.076L43.8453 108.076ZM36.9224 100.087H40.6208C40.6571 101.485 40.8244 102.842 41.1095 104.123H37.8717C37.3272 102.875 36.9943 101.515 36.9224 100.087H36.9224ZM46.526 88.0792C46.98 88.0007 47.442 87.9459 47.9125 87.9222V93.3367H42.7573C43.0555 92.466 43.4193 91.6552 43.845 90.9235C44.6187 89.5936 45.5359 88.63 46.5258 88.0791L46.526 88.0792ZM53.1544 90.9236C53.5799 91.6553 53.9436 92.4663 54.2421 93.3368H49.0869V87.9223C49.5578 87.946 50.0192 88.0008 50.4738 88.0793C51.4637 88.6301 52.3805 89.5938 53.1546 90.9237L53.1544 90.9236ZM54.5944 94.5107C54.9534 95.8829 55.1624 97.3703 55.2046 98.9131H49.0866V94.5107H54.5944ZM47.913 94.5107V98.9131H41.795C41.8373 97.3703 42.0462 95.8832 42.405 94.5107H47.913ZM40.6209 98.9131H36.9223C37.001 97.3438 37.3938 95.8563 38.0377 94.5107H41.1938C40.8556 95.8964 40.6605 97.3813 40.6209 98.9131H40.6209ZM41.7948 100.087H47.9128V104.123H42.3119C42.0097 102.853 41.834 101.493 41.7952 100.087H41.7948ZM49.0868 104.122V100.087H55.2048C55.1667 101.493 54.9906 102.853 54.6882 104.123H49.0873L49.0868 104.122ZM56.3783 100.087H60.0768C60.0053 101.515 59.672 102.875 59.1274 104.123H55.8898C56.1749 102.842 56.342 101.485 56.3783 100.087H56.3783ZM56.3783 98.9131C56.3384 97.3813 56.1438 95.8964 55.8057 94.5107H58.9617C59.6056 95.856 59.9982 97.344 60.0767 98.9131H56.3783ZM58.311 93.3366H55.4772C55.1324 92.2475 54.6945 91.2361 54.169 90.333C53.8608 89.8033 53.5293 89.3264 53.1791 88.8973C55.2987 89.8368 57.0849 91.3924 58.311 93.3366V93.3366ZM43.8205 88.8975C43.4709 89.3263 43.1388 89.8036 42.8305 90.3333C42.3051 91.2363 41.8669 92.2477 41.5224 93.3369H38.6886C39.9144 91.3923 41.7009 89.8365 43.8205 88.8976V88.8975ZM38.4673 105.296H41.412C41.772 106.524 42.2467 107.663 42.8306 108.667C43.1388 109.196 43.4703 109.673 43.8205 110.102C41.5688 109.104 39.6938 107.411 38.4674 105.296H38.4673ZM53.1789 110.102C53.5289 109.673 53.8606 109.196 54.1688 108.666C54.7527 107.663 55.2272 106.525 55.5873 105.296H58.5321C57.3055 107.411 55.43 109.104 53.179 110.102H53.1789Z" fill="white"/>
<path d="M229.75 300V277C229.75 276.31 230.31 275.75 231 275.75H240.209C240.527 275.75 240.832 275.871 241.064 276.088L247.855 282.455C248.107 282.691 248.25 283.021 248.25 283.366V300C248.25 300.69 247.69 301.25 247 301.25H239H231C230.31 301.25 229.75 300.69 229.75 300Z" stroke="white" stroke-width="1.5"/>
<path d="M239.5 281C239.101 281 238.778 281.324 238.778 281.723V282.445C235.591 282.445 233 285.036 233 288.222C233 291.409 235.591 294 238.778 294C241.964 294 244.555 291.409 244.555 288.222H245.278C245.676 288.222 246 287.899 246 287.5C246 283.917 243.084 281 239.5 281ZM238.778 292.556C236.389 292.556 234.444 290.612 234.444 288.223C234.444 285.834 236.389 283.889 238.778 283.889V287.5C238.778 287.899 239.101 288.223 239.5 288.223H243.111C243.111 290.612 241.167 292.556 238.778 292.556Z" fill="white"/>
<rect x="233" y="296" width="12" height="1.4" fill="white"/>
<path d="M49.5401 249.974C49.1033 249.742 48.6666 249.514 48.2298 249.282C47.1781 248.726 46.1233 248.171 45.0715 247.615C43.8028 246.944 42.5342 246.275 41.2625 245.604C40.1632 245.021 39.0609 244.442 37.9616 243.859C37.4297 243.58 36.9038 243.28 36.3661 243.016C36.3572 243.013 36.3512 243.007 36.3453 243.004C36.4938 243.259 36.6394 243.518 36.788 243.773V242.383V239.061V235.029V231.559C36.788 230.997 36.8028 230.433 36.788 229.871V229.848C36.3423 230.103 35.8937 230.362 35.448 230.617C35.8848 230.849 36.3215 231.078 36.7583 231.309C37.81 231.865 38.8648 232.421 39.9166 232.979C41.1853 233.651 42.4539 234.322 43.7256 234.991C44.8249 235.573 45.9272 236.155 47.0265 236.735C47.5584 237.017 48.0843 237.314 48.622 237.578C48.6309 237.581 48.6369 237.587 48.6428 237.59C48.4943 237.335 48.3487 237.076 48.2001 236.821V238.208V241.527V245.556V249.023C48.2001 249.585 48.1882 250.149 48.2001 250.711V250.735C48.2001 251.201 48.6101 251.647 49.0915 251.626C49.5758 251.605 49.9828 251.234 49.9828 250.735V249.347V246.028V241.999V238.532C49.9828 237.971 49.9947 237.406 49.9828 236.845V236.821C49.9828 236.518 49.8164 236.197 49.5401 236.051C49.1033 235.82 48.6666 235.591 48.2298 235.359C47.1781 234.803 46.1233 234.248 45.0715 233.689C43.8028 233.018 42.5341 232.346 41.2625 231.678C40.1632 231.095 39.0609 230.513 37.9616 229.934C37.4297 229.651 36.9009 229.363 36.3661 229.09C36.3571 229.087 36.3512 229.081 36.3453 229.078C35.754 228.766 35.0053 229.149 35.0053 229.848V231.238V234.56V238.592V242.062C35.0053 242.624 34.9934 243.188 35.0053 243.75V243.773C35.0053 244.076 35.1717 244.397 35.448 244.543C35.8847 244.775 36.3215 245.003 36.7582 245.235C37.81 245.791 38.8648 246.346 39.9166 246.902C41.1853 247.573 42.4539 248.242 43.7256 248.913C44.8249 249.496 45.9272 250.075 47.0265 250.657C47.5583 250.94 48.0872 251.225 48.622 251.501C48.6309 251.504 48.6369 251.51 48.6428 251.513C49.0558 251.73 49.6322 251.632 49.861 251.192C50.0779 250.782 49.9828 250.206 49.5401 249.974L49.5401 249.974Z" fill="white"/>
<path d="M61.8376 243.006C61.4009 243.238 60.9641 243.467 60.5274 243.699C59.4756 244.254 58.4208 244.81 57.369 245.365C56.1003 246.037 54.8317 246.705 53.56 247.377C52.4607 247.959 51.3584 248.539 50.2591 249.121C49.7273 249.4 49.1865 249.671 48.6636 249.965C48.6577 249.968 48.6487 249.974 48.6428 249.977C49.0885 250.232 49.5371 250.491 49.9828 250.746V249.359V246.04V242.011V238.544C49.9828 237.982 49.9976 237.418 49.9828 236.856V236.832C49.8342 237.088 49.6886 237.346 49.5401 237.602C49.9768 237.37 50.4136 237.141 50.8503 236.91C51.9021 236.354 52.9569 235.798 54.0087 235.24C55.2774 234.568 56.546 233.897 57.8177 233.228C58.917 232.646 60.0193 232.064 61.1186 231.484C61.6504 231.202 62.1912 230.935 62.7141 230.64C62.72 230.637 62.729 230.632 62.7349 230.629C62.2892 230.373 61.8406 230.115 61.3949 229.859V231.25V234.571V238.603V242.073C61.3949 242.635 61.383 243.2 61.3949 243.761V243.785C61.3949 244.251 61.8049 244.697 62.2862 244.676C62.7705 244.655 63.1776 244.284 63.1776 243.785V242.394V239.073V235.041V231.57C63.1776 231.009 63.1895 230.444 63.1776 229.883V229.859C63.1776 229.161 62.4259 228.778 61.8376 229.09C61.4008 229.321 60.9641 229.55 60.5273 229.782C59.4756 230.337 58.4208 230.893 57.369 231.452C56.1003 232.123 54.8316 232.795 53.56 233.463C52.4607 234.045 51.3584 234.628 50.2591 235.207C49.7272 235.489 49.1865 235.757 48.6636 236.051C48.6576 236.054 48.6487 236.06 48.6428 236.063C48.3694 236.208 48.2001 236.529 48.2001 236.832V238.22V241.539V245.567V249.035C48.2001 249.596 48.1882 250.161 48.2001 250.722V250.746C48.2001 251.444 48.9518 251.828 49.5401 251.516C49.9768 251.284 50.4136 251.055 50.8503 250.823C51.9021 250.268 52.9568 249.712 54.0087 249.157C55.2774 248.485 56.546 247.817 57.8176 247.145C58.9169 246.563 60.0192 245.983 61.1186 245.401C61.6504 245.122 62.1912 244.851 62.7141 244.557C62.72 244.554 62.7289 244.548 62.7349 244.545C63.1479 244.328 63.3083 243.719 63.0558 243.327C62.7854 242.905 62.2803 242.772 61.8376 243.006L61.8376 243.006Z" fill="white"/>
<path d="M61.8375 229.081C61.4007 229.312 60.964 229.541 60.5272 229.773C59.4755 230.328 58.4207 230.884 57.3689 231.443C56.1002 232.114 54.8315 232.786 53.5599 233.454C52.4606 234.036 51.3583 234.619 50.259 235.198C49.7271 235.48 49.1864 235.748 48.6635 236.042C48.6575 236.045 48.6486 236.051 48.6427 236.054H49.5429C49.1062 235.822 48.6694 235.593 48.2326 235.362C47.1809 234.806 46.1261 234.25 45.0743 233.692C43.8056 233.02 42.537 232.349 41.2653 231.68C40.166 231.098 39.0637 230.516 37.9644 229.936C37.4325 229.654 36.9066 229.36 36.3689 229.092C36.36 229.089 36.354 229.084 36.3481 229.081V230.62C36.7848 230.388 37.2216 230.159 37.6584 229.927C38.7101 229.372 39.7649 228.816 40.8167 228.261C42.0854 227.589 43.354 226.921 44.6257 226.249C45.725 225.667 46.8273 225.087 47.9266 224.505C48.4585 224.223 48.9992 223.955 49.5221 223.661C49.5281 223.658 49.537 223.652 49.5429 223.649H48.6427C49.0794 223.881 49.5162 224.11 49.9529 224.342C51.0047 224.897 52.0595 225.453 53.1113 226.008C54.38 226.68 55.6486 227.348 56.9203 228.02C58.0196 228.602 59.1218 229.182 60.2212 229.764C60.753 230.046 61.2819 230.334 61.8167 230.608C61.8256 230.611 61.8316 230.617 61.8375 230.62C62.2505 230.837 62.8269 230.738 63.0557 230.299C63.2726 229.886 63.1775 229.312 62.7348 229.081C62.2921 228.846 61.8524 228.614 61.4096 228.379C60.3549 227.821 59.3001 227.265 58.2424 226.707C56.9678 226.035 55.6961 225.361 54.4215 224.689C53.3251 224.11 52.2288 223.53 51.1295 222.951C50.6036 222.675 50.0866 222.384 49.5548 222.119C49.2398 221.962 48.9309 221.959 48.6189 222.119C48.5594 222.149 48.503 222.182 48.4465 222.211C48.1732 222.357 47.8999 222.5 47.6295 222.645C46.6371 223.168 45.6477 223.694 44.6554 224.217C43.3837 224.888 42.1121 225.56 40.8404 226.231C39.6965 226.834 38.5526 227.441 37.4087 228.044C36.7818 228.373 36.1579 228.703 35.531 229.036C35.5013 229.051 35.4716 229.066 35.4448 229.084C34.8655 229.39 34.8655 230.317 35.4448 230.623C35.8875 230.857 36.3273 231.089 36.77 231.324C37.8247 231.882 38.8795 232.438 39.9372 232.997C41.2119 233.671 42.4835 234.342 43.7581 235.017C44.8545 235.596 45.9508 236.176 47.0502 236.755C47.5761 237.031 48.093 237.323 48.6248 237.587C48.9398 237.744 49.2488 237.747 49.5608 237.587C49.6202 237.557 49.6767 237.525 49.7331 237.495C50.0064 237.349 50.2798 237.207 50.5502 237.061C51.5425 236.538 52.5319 236.012 53.5243 235.489C54.7959 234.818 56.0675 234.146 57.3392 233.475C58.4831 232.869 59.627 232.266 60.7709 231.66C61.3978 231.33 62.0217 230.997 62.6486 230.667C62.6783 230.652 62.7081 230.637 62.7348 230.62C63.1478 230.403 63.3082 229.794 63.0557 229.401C62.7853 228.983 62.2802 228.849 61.8375 229.081V229.081Z" fill="white"/>
<path d="M42.944 234.114C43.3807 233.882 43.8175 233.653 44.2542 233.421C45.306 232.866 46.3608 232.31 47.4126 231.752C48.6813 231.08 49.9499 230.409 51.2216 229.74C52.3209 229.158 53.4232 228.575 54.5225 227.996C55.0543 227.714 55.5951 227.446 56.118 227.152C56.1239 227.149 56.1329 227.143 56.1388 227.14C56.5518 226.924 56.7123 226.314 56.4597 225.922C56.1893 225.503 55.6813 225.37 55.2415 225.601C54.8047 225.833 54.368 226.062 53.9312 226.294C52.8795 226.849 51.8247 227.405 50.7729 227.963C49.5042 228.635 48.2356 229.306 46.9639 229.975C45.8646 230.557 44.7623 231.14 43.663 231.719C43.1311 232.001 42.5904 232.269 42.0675 232.563C42.0615 232.566 42.0526 232.572 42.0467 232.575C41.6337 232.791 41.4732 233.401 41.7258 233.793C41.9932 234.212 42.5013 234.345 42.944 234.114V234.114Z" fill="white"/>
<path d="M37.773 171.641H20.0888C19.7395 171.641 19.4572 171.924 19.4572 172.273V174.799C19.4572 175.149 19.7395 175.431 20.0888 175.431H37.773C38.1224 175.431 38.4046 175.149 38.4046 174.799V172.273C38.4046 171.924 38.1224 171.641 37.773 171.641Z" fill="white"/>
<path d="M20.7204 166.589H21.9835V167.852H20.7204V166.589Z" fill="white"/>
<path d="M23.2467 166.589H24.5099V167.852H23.2467V166.589Z" fill="white"/>
<path d="M25.773 166.589H27.0361V167.852H25.773V166.589Z" fill="white"/>
<path d="M20.7204 164.063H21.9835V165.326H20.7204V164.063Z" fill="white"/>
<path d="M23.2467 164.063H24.5099V165.326H23.2467V164.063Z" fill="white"/>
<path d="M25.773 164.063H27.0361V165.326H25.773V164.063Z" fill="white"/>
<path d="M36.5099 164.063H28.9309C28.5816 164.063 28.2994 164.345 28.2994 164.694V167.22C28.2994 167.57 28.5816 167.852 28.9309 167.852H36.5099C36.8592 167.852 37.1415 167.57 37.1415 167.22V164.694C37.1415 164.345 36.8592 164.063 36.5099 164.063ZM35.8783 166.589H29.5625V165.326H35.8783V166.589Z" fill="white"/>
<path d="M24.5099 156.484H27.0362V157.747H24.5099V156.484Z" fill="white"/>
<path d="M24.5099 159.01H27.0362V160.273H24.5099V159.01Z" fill="white"/>
<path fill-rule="evenodd" clip-rule="evenodd" d="M41 177V170.053C41 169.703 40.7178 169.421 40.3684 169.421H39.7368V159.947C39.7368 159.598 39.4546 159.316 39.1053 159.316H37.2105V158.053H40.3684C40.7178 158.053 41 157.77 41 157.421V153.632C41 153.282 40.7178 153 40.3684 153H32.7895C32.4401 153 32.1579 153.282 32.1579 153.632V157.421C32.1579 157.77 32.4401 158.053 32.7895 158.053H35.9474V159.316H29.6316V154.895C29.6316 154.545 29.3493 154.263 29 154.263H22.6842C22.3349 154.263 22.0526 154.545 22.0526 154.895V159.316H18.8947C18.5454 159.316 18.2632 159.598 18.2632 159.947V169.421H17.6316C17.2822 169.421 17 169.703 17 170.053V177H18.2632V170.684H39.7368V177H41ZM39.7369 154.263H33.4211V156.789H39.7369V154.263ZM28.3685 161.842V155.526H23.3159V161.842H28.3685ZM19.5264 160.579H22.0527V161.842H20.7895V163.105H30.8948V161.842H29.6317V160.579H38.4738V169.421H19.5264V160.579Z" fill="white"/>
<path d="M17 177H41V177.4C41 177.952 40.5523 178.4 40 178.4H18C17.4477 178.4 17 177.952 17 177.4V177Z" fill="white"/>
<g clip-path="url(#clip1_0_1)">
<path d="M291.287 174.715L291.333 174.736L291.287 174.715C290.759 175.882 290.856 177.238 291.546 178.318L291.588 178.291L291.546 178.318C292.237 179.397 293.426 180.055 294.708 180.064H294.708H319.263C320.616 180.064 321.866 179.343 322.543 178.171C323.219 177 323.219 175.556 322.543 174.384C321.866 173.213 320.616 172.491 319.263 172.491H319.263H315.577V164.534C315.577 164.379 315.515 164.23 315.406 164.121C315.296 164.012 315.148 163.95 314.993 163.95H305.918C305.596 163.95 305.334 164.211 305.334 164.534V172.491H304.367V164.534C304.367 164.379 304.305 164.23 304.196 164.121C304.086 164.012 303.938 163.95 303.783 163.95H294.708C294.386 163.95 294.124 164.211 294.124 164.534V172.541C292.876 172.746 291.81 173.561 291.287 174.715ZM292.44 177.587L292.44 177.587C291.972 176.777 291.972 175.778 292.44 174.968L292.44 174.968C292.908 174.158 293.772 173.659 294.708 173.659H319.263C320.199 173.659 321.064 174.158 321.531 174.968L321.571 174.946L321.531 174.968C321.999 175.778 321.999 176.777 321.531 177.587L321.573 177.611L321.531 177.587C321.064 178.398 320.199 178.897 319.263 178.897H294.708C293.772 178.897 292.908 178.398 292.44 177.587ZM306.502 165.118H314.409V172.491H306.502V165.118ZM295.292 165.118H303.199V172.491H295.292V165.118Z" fill="white" stroke="white" stroke-width="0.1"/>
<path d="M294.261 176.463L294.261 176.463C294.186 176.282 294.227 176.074 294.366 175.936C294.504 175.797 294.712 175.756 294.893 175.831L294.893 175.831C295.074 175.906 295.192 176.082 295.192 176.278C295.192 176.406 295.141 176.529 295.05 176.62C294.959 176.71 294.836 176.761 294.708 176.761C294.512 176.761 294.336 176.644 294.261 176.463ZM294.708 174.626C294.27 174.626 293.85 174.8 293.54 175.11C293.23 175.419 293.056 175.84 293.056 176.278C293.056 176.715 293.23 177.136 293.54 177.445C293.85 177.755 294.27 177.929 294.708 177.929C295.146 177.929 295.566 177.755 295.876 177.445C296.185 177.136 296.359 176.715 296.359 176.278C296.359 175.84 296.185 175.419 295.876 175.11C295.566 174.8 295.146 174.626 294.708 174.626Z" fill="white" stroke="white" stroke-width="0.1"/>
<path d="M299.065 176.463L299.065 176.463C298.99 176.282 299.032 176.074 299.17 175.936C299.309 175.797 299.516 175.756 299.697 175.831L299.697 175.831C299.878 175.906 299.996 176.082 299.996 176.278C299.996 176.406 299.945 176.529 299.854 176.62C299.764 176.71 299.641 176.761 299.512 176.761C299.317 176.761 299.14 176.644 299.065 176.463ZM299.512 174.626C299.074 174.626 298.654 174.8 298.344 175.11C298.035 175.419 297.861 175.84 297.861 176.278C297.861 176.715 298.035 177.136 298.344 177.445C298.654 177.755 299.074 177.929 299.512 177.929C299.95 177.929 300.37 177.755 300.68 177.445C300.99 177.136 301.164 176.715 301.164 176.278C301.164 175.84 300.99 175.419 300.68 175.11C300.37 174.8 299.95 174.626 299.512 174.626Z" fill="white" stroke="white" stroke-width="0.1"/>
<path d="M303.87 176.463L303.87 176.463C303.795 176.282 303.836 176.074 303.974 175.936C304.113 175.797 304.321 175.756 304.502 175.831L304.502 175.831C304.682 175.906 304.8 176.082 304.8 176.278C304.8 176.406 304.749 176.529 304.659 176.62C304.568 176.71 304.445 176.761 304.317 176.761C304.121 176.761 303.944 176.644 303.87 176.463ZM304.317 174.626C303.879 174.626 303.458 174.8 303.149 175.11C302.839 175.419 302.665 175.84 302.665 176.278C302.665 176.715 302.839 177.136 303.149 177.445C303.458 177.755 303.879 177.929 304.317 177.929C304.754 177.929 305.175 177.755 305.484 177.445C305.794 177.136 305.968 176.715 305.968 176.278C305.968 175.84 305.794 175.419 305.484 175.11C305.175 174.8 304.754 174.626 304.317 174.626Z" fill="white" stroke="white" stroke-width="0.1"/>
<path d="M309.208 176.463L309.208 176.463C309.133 176.282 309.174 176.074 309.313 175.936C309.451 175.797 309.659 175.756 309.84 175.831L309.84 175.831C310.021 175.906 310.138 176.082 310.138 176.278C310.138 176.406 310.087 176.529 309.997 176.62C309.906 176.71 309.783 176.761 309.655 176.761C309.459 176.761 309.283 176.644 309.208 176.463ZM309.655 174.626C309.217 174.626 308.796 174.8 308.487 175.11C308.177 175.419 308.003 175.84 308.003 176.278C308.003 176.715 308.177 177.136 308.487 177.445C308.797 177.755 309.217 177.929 309.655 177.929C310.093 177.929 310.513 177.755 310.822 177.445C311.132 177.136 311.306 176.715 311.306 176.278C311.306 175.84 311.132 175.419 310.822 175.11C310.513 174.8 310.093 174.626 309.655 174.626Z" fill="white" stroke="white" stroke-width="0.1"/>
<path d="M314.012 176.463L314.012 176.463C313.937 176.282 313.979 176.074 314.117 175.936C314.255 175.797 314.463 175.756 314.644 175.831L314.644 175.831C314.825 175.906 314.943 176.082 314.943 176.278C314.943 176.406 314.892 176.529 314.801 176.62C314.711 176.71 314.587 176.761 314.459 176.761C314.263 176.761 314.087 176.644 314.012 176.463ZM314.459 174.626C314.021 174.626 313.601 174.8 313.291 175.11C312.982 175.419 312.808 175.84 312.808 176.278C312.808 176.715 312.982 177.136 313.291 177.445C313.601 177.755 314.021 177.929 314.459 177.929C314.897 177.929 315.317 177.755 315.627 177.445C315.937 177.136 316.111 176.715 316.111 176.278C316.111 175.84 315.937 175.419 315.627 175.11C315.317 174.8 314.897 174.626 314.459 174.626Z" fill="white" stroke="white" stroke-width="0.1"/>
<path d="M318.817 176.463L318.816 176.463C318.742 176.282 318.783 176.074 318.921 175.936C319.06 175.797 319.268 175.756 319.448 175.831L319.448 175.831C319.629 175.906 319.747 176.082 319.747 176.278C319.747 176.406 319.696 176.529 319.605 176.62C319.515 176.71 319.392 176.761 319.263 176.761C319.068 176.761 318.891 176.644 318.817 176.463ZM319.263 174.626C318.825 174.626 318.405 174.8 318.096 175.11C317.786 175.419 317.612 175.84 317.612 176.278C317.612 176.715 317.786 177.136 318.096 177.445C318.405 177.755 318.825 177.929 319.263 177.929C319.701 177.929 320.122 177.755 320.431 177.445C320.741 177.136 320.915 176.715 320.915 176.278C320.915 175.84 320.741 175.419 320.431 175.11C320.121 174.8 319.701 174.626 319.263 174.626Z" fill="white" stroke="white" stroke-width="0.1"/>
<path d="M296.481 166.911L296.481 166.911C296.186 167.422 296.186 168.051 296.481 168.562L296.481 168.562C296.776 169.073 297.321 169.388 297.911 169.388H300.58C301.17 169.388 301.715 169.073 302.01 168.562L302.01 168.562C302.305 168.051 302.305 167.422 302.01 166.911L302.01 166.911C301.715 166.4 301.17 166.085 300.58 166.085H297.911C297.321 166.085 296.776 166.4 296.481 166.911ZM300.58 168.22H297.911C297.644 168.22 297.427 168.004 297.427 167.737C297.427 167.469 297.644 167.253 297.911 167.253H300.58C300.847 167.253 301.064 167.469 301.064 167.737C301.064 168.004 300.847 168.22 300.58 168.22Z" fill="white" stroke="white" stroke-width="0.1"/>
<path d="M307.691 166.911L307.691 166.911C307.396 167.422 307.396 168.051 307.691 168.562L307.691 168.562C307.986 169.073 308.531 169.388 309.121 169.388H311.79C312.38 169.388 312.925 169.073 313.22 168.562L313.22 168.562C313.515 168.051 313.515 167.422 313.22 166.911L313.22 166.911C312.925 166.4 312.38 166.085 311.79 166.085H309.121C308.531 166.085 307.986 166.4 307.691 166.911ZM311.79 168.22H309.121C308.854 168.22 308.637 168.004 308.637 167.737C308.637 167.469 308.854 167.253 309.121 167.253H311.79C312.057 167.253 312.274 167.469 312.274 167.737C312.274 168.004 312.057 168.22 311.79 168.22Z" fill="white" stroke="white" stroke-width="0.1"/>
<path d="M298 157.5L298 152L300.5 152L300.5 157.5L302.5 157.5L299.5 162L296 157.5L298 157.5Z" fill="white"/>
</g>
<path d="M223.093 62.215H248.907C249.233 62.215 249.5 61.948 249.5 61.6176V43.8139C249.5 43.4882 249.233 43.2212 248.907 43.2212H223.093C222.767 43.2212 222.5 43.4882 222.5 43.8139V61.6176C222.5 61.9483 222.762 62.2153 223.093 62.2153V62.215ZM223.685 61.0249V48.2637H248.314V61.0249H223.685ZM248.314 44.4062V47.078H223.685V44.4062H248.314Z" fill="white"/>
<path d="M231.783 41.3367C231.506 41.3367 231.258 41.1375 231.2 40.8606L229.82 34.1667C229.766 33.9044 229.893 33.6323 230.136 33.5157C230.379 33.3992 230.665 33.4575 230.845 33.6567L233.327 36.4888L235.475 32.3206C235.572 32.1264 235.776 32 235.999 32C236.223 32 236.427 32.1264 236.524 32.3206L238.676 36.4888L241.153 33.6567C241.333 33.4575 241.62 33.3992 241.862 33.5205C242.1 33.637 242.236 33.9044 242.178 34.1714L240.799 40.8606C240.74 41.1375 240.497 41.3367 240.216 41.3367H231.783Z" fill="white"/>
<path d="M235.82 49.891H226.96C226.634 49.891 226.367 50.1581 226.367 50.4884V58.5961C226.367 58.9218 226.634 59.1888 226.96 59.1888H235.82C236.146 59.1888 236.413 58.9218 236.413 58.5961V50.4837C236.413 50.1533 236.145 49.891 235.82 49.891V49.891ZM235.227 57.9988H227.557V51.0763H235.227V57.9988Z" fill="white"/>
<path d="M245.039 53.9419H239.001C238.676 53.9419 238.409 54.2089 238.409 54.5346C238.409 54.8602 238.676 55.1272 239.001 55.1272H245.04C245.365 55.1272 245.632 54.8602 245.632 54.5346C245.632 54.2089 245.37 53.9419 245.039 53.9419H245.039Z" fill="white"/>
<path d="M245.039 50.9397H239.001C238.676 50.9397 238.409 51.2067 238.409 51.5324C238.409 51.858 238.676 52.125 239.001 52.125H245.04C245.365 52.125 245.632 51.858 245.632 51.5324C245.632 51.2071 245.37 50.9397 245.039 50.9397H245.039Z" fill="white"/>
<path d="M245.039 56.9495H239.001C238.676 56.9495 238.409 57.2118 238.409 57.5422C238.409 57.8678 238.676 58.1348 239.001 58.1348H245.04C245.365 58.1348 245.632 57.8678 245.632 57.5422C245.632 57.2118 245.37 56.9495 245.039 56.9495H245.039Z" fill="white"/>
<g clip-path="url(#clip2_0_1)">
<path d="M108.923 34.5H89.2308C88.9044 34.5005 88.5917 34.6302 88.361 34.861C88.1302 35.0918 88.0005 35.4044 88 35.7308V65.2692C88.0005 65.5956 88.1302 65.9083 88.361 66.139C88.5918 66.3698 88.9044 66.4995 89.2308 66.5H108.923C109.249 66.4995 109.562 66.3698 109.793 66.139C110.024 65.9082 110.153 65.5956 110.154 65.2692V35.7308C110.153 35.4044 110.024 35.0917 109.793 34.861C109.562 34.6302 109.249 34.5005 108.923 34.5V34.5ZM89.2308 65.2693V35.7308H108.923L108.924 65.2693H89.2308ZM107.692 36.3462H102.154C101.948 36.3462 101.756 36.4489 101.642 36.6201L100.594 38.1923H97.5599L96.5121 36.6201C96.3978 36.4489 96.2058 36.3462 96 36.3462H90.4616C90.2984 36.3462 90.1418 36.411 90.0264 36.5264C89.911 36.6418 89.8462 36.7984 89.8462 36.9615V64.0385C89.8462 64.2017 89.911 64.3583 90.0264 64.4737C90.1418 64.589 90.2984 64.6539 90.4616 64.6539H107.692C107.856 64.6539 108.012 64.589 108.128 64.4737C108.243 64.3583 108.308 64.2017 108.308 64.0385V36.9615C108.308 36.7984 108.243 36.6418 108.128 36.5264C108.012 36.411 107.856 36.3462 107.692 36.3462H107.692ZM107.077 63.4231H91.0769V37.5769H95.6706L96.7186 39.1491C96.8329 39.3203 97.0249 39.423 97.2307 39.423H100.923C101.129 39.423 101.321 39.3203 101.435 39.1491L102.483 37.5769H107.077L107.077 63.4231ZM98.4615 36.9615C98.4615 36.7126 98.6115 36.4882 98.8415 36.3931C99.0714 36.2978 99.336 36.3503 99.5121 36.5264C99.6882 36.7025 99.7407 36.967 99.6453 37.197C99.5503 37.4269 99.3258 37.5769 99.0769 37.5769C98.7371 37.5769 98.4615 37.3014 98.4615 36.9615ZM102.769 47.4231H100.308C100.145 47.4231 99.9879 47.4879 99.8725 47.6033L99.077 48.3989L98.2814 47.6033C98.166 47.4879 98.0094 47.4231 97.8462 47.4231H95.3847C95.2215 47.4231 95.0649 47.4879 94.9495 47.6033C94.8341 47.7187 94.7693 47.8753 94.7693 48.0385V50.5C94.7693 50.6632 94.8341 50.8198 94.9495 50.9352C95.0649 51.0506 95.2215 51.1154 95.3847 51.1154H96.6154V54.1923C96.6154 54.3555 96.6803 54.5121 96.7957 54.6275C96.9111 54.7429 97.0676 54.8077 97.2308 54.8077H100.923C101.086 54.8077 101.243 54.7429 101.358 54.6275C101.474 54.5121 101.539 54.3555 101.539 54.1923V51.1154H102.769C102.932 51.1154 103.089 51.0506 103.204 50.9352C103.32 50.8198 103.385 50.6632 103.385 50.5V48.0385C103.385 47.8753 103.32 47.7187 103.204 47.6033C103.089 47.4879 102.932 47.4231 102.769 47.4231H102.769ZM102.154 49.8846H100.923C100.76 49.8846 100.603 49.9495 100.488 50.0648C100.373 50.1802 100.308 50.3368 100.308 50.5V53.5769H97.8461V50.5C97.8461 50.3368 97.7813 50.1802 97.6659 50.0648C97.5505 49.9495 97.3939 49.8846 97.2308 49.8846H96V48.6539H97.5912L98.6418 49.7044C98.8822 49.9446 99.2717 49.9446 99.5121 49.7044L100.563 48.6539H102.154L102.154 49.8846ZM96 44.3462V41.8846C96 41.7214 95.9352 41.5648 95.8198 41.4495C95.7044 41.3341 95.5478 41.2692 95.3846 41.2692H92.9231C92.7599 41.2692 92.6033 41.3341 92.4879 41.4495C92.3725 41.5648 92.3077 41.7214 92.3077 41.8846V44.3462C92.3077 44.5093 92.3725 44.6659 92.4879 44.7813C92.6033 44.8967 92.7599 44.9615 92.9231 44.9615H95.3846C95.5478 44.9615 95.7044 44.8967 95.8198 44.7813C95.9352 44.6659 96 44.5093 96 44.3462ZM94.7692 43.7308H93.5385V42.5H94.7692V43.7308ZM97.2308 42.5C97.2308 42.3368 97.2956 42.1802 97.411 42.0648C97.5264 41.9495 97.683 41.8846 97.8461 41.8846H100.923C101.263 41.8846 101.538 42.1602 101.538 42.5C101.538 42.8398 101.263 43.1154 100.923 43.1154H97.8461C97.683 43.1154 97.5264 43.0506 97.411 42.9352C97.2956 42.8198 97.2308 42.6632 97.2308 42.5ZM97.8461 43.7308H104.615C104.955 43.7308 105.231 44.0063 105.231 44.3462C105.231 44.686 104.955 44.9615 104.615 44.9615H97.8461C97.5063 44.9615 97.2308 44.686 97.2308 44.3462C97.2308 44.0063 97.5063 43.7308 97.8461 43.7308ZM102.769 57.2693H95.3846C95.2214 57.2693 95.0648 57.3341 94.9494 57.4495C94.8341 57.5649 94.7692 57.7215 94.7692 57.8846V60.3462C94.7692 60.5094 94.8341 60.666 94.9494 60.7813C95.0648 60.8967 95.2214 60.9616 95.3846 60.9616H102.769C102.932 60.9616 103.089 60.8967 103.204 60.7813C103.32 60.666 103.385 60.5094 103.385 60.3462V57.8846C103.385 57.7215 103.32 57.5649 103.204 57.4495C103.089 57.3341 102.932 57.2693 102.769 57.2693ZM102.154 59.7308H96V58.5H102.154V59.7308Z" fill="white"/>
</g>
<defs>
<clipPath id="clip0_0_1">
<rect width="32" height="32" fill="white" transform="translate(273 83)"/>
</clipPath>
<clipPath id="clip1_0_1">
<rect width="32" height="32" fill="white" transform="translate(291 150)"/>
</clipPath>
<clipPath id="clip2_0_1">
<rect width="32" height="32" fill="white" transform="translate(83 34)"/>
</clipPath>
</defs>
</svg>
