<svg width="104" height="27" viewBox="0 0 104 27" fill="none" xmlns="http://www.w3.org/2000/svg">
<path fill-rule="evenodd" clip-rule="evenodd" d="M5.30283 26.9541H0V0H5.30283V26.9541Z" fill="#E1F7FE"/>
<path fill-rule="evenodd" clip-rule="evenodd" d="M12.5253 21.499H0V27H12.5253V21.499Z" fill="#E1F7FE"/>
<path fill-rule="evenodd" clip-rule="evenodd" d="M26.7878 5.18038H10.6968V0.0462646H26.7878V5.18038Z" fill="#E1F7FE"/>
<path fill-rule="evenodd" clip-rule="evenodd" d="M21.3936 9.12255H26.7877V0.0462646H21.3936V9.12255Z" fill="#E1F7FE"/>
<path fill-rule="evenodd" clip-rule="evenodd" d="M26.7878 16.2734H10.6968V10.6809H26.7878V16.2734Z" fill="#F7FBFC"/>
<path fill-rule="evenodd" clip-rule="evenodd" d="M21.3936 27H26.7877V10.6809H21.3936V27Z" fill="#F7FBFC"/>
<path fill-rule="evenodd" clip-rule="evenodd" d="M14.0796 21.499H26.7878V27H14.0796V21.499Z" fill="#F7FBFC"/>
<path d="M51.4749 11.988V1.77677H58.2246V4.03895H54.213V5.98693H57.6515V8.24911H54.213V11.988H51.4749Z" fill="#F1F8FA"/>
<path d="M64.2442 12.1765C62.7902 12.1765 61.7077 11.7628 60.9967 10.9354C60.2962 10.0976 59.946 8.80418 59.946 7.05518V1.77677H62.6841V7.36937C62.6841 8.28053 62.8062 8.92462 63.0503 9.30165C63.305 9.6682 63.7029 9.85148 64.2442 9.85148C64.7854 9.85148 65.1834 9.6682 65.4381 9.30165C65.7035 8.92462 65.8361 8.28053 65.8361 7.36937V1.77677H68.4787V7.05518C68.4787 8.80418 68.1338 10.0976 67.444 10.9354C66.7541 11.7628 65.6875 12.1765 64.2442 12.1765Z" fill="#F1F8FA"/>
<path d="M73.8293 12.1765C73.1713 12.1765 72.4921 12.0613 71.7916 11.8309C71.1018 11.59 70.4757 11.2182 69.9132 10.7155L71.4733 8.86178C71.8447 9.15502 72.2427 9.3959 72.6672 9.58442C73.1023 9.76246 73.5109 9.85148 73.893 9.85148C74.3069 9.85148 74.604 9.78864 74.7845 9.66296C74.9755 9.53729 75.071 9.35925 75.071 9.12884C75.071 9.00316 75.0392 8.89843 74.9755 8.81465C74.9118 8.73087 74.8163 8.65232 74.6889 8.57901C74.5722 8.5057 74.4289 8.43762 74.2591 8.37478C74.0893 8.30147 73.893 8.22292 73.6701 8.13914L72.3807 7.60501C72.1047 7.50028 71.8394 7.36414 71.5847 7.19657C71.33 7.01852 71.1071 6.8143 70.9161 6.58389C70.7251 6.34301 70.5712 6.07071 70.4544 5.767C70.3483 5.46328 70.2952 5.12814 70.2952 4.76159C70.2952 4.32172 70.3908 3.91327 70.5818 3.53624C70.7728 3.14874 71.0381 2.8136 71.3777 2.53083C71.7174 2.23758 72.1206 2.00718 72.5876 1.83961C73.0652 1.67204 73.5852 1.58826 74.1477 1.58826C74.742 1.58826 75.3416 1.69822 75.9466 1.91816C76.5621 2.13809 77.1087 2.4837 77.5862 2.95499L76.2172 4.65162C75.867 4.41074 75.5274 4.22746 75.1984 4.10178C74.88 3.97611 74.5298 3.91327 74.1477 3.91327C73.8081 3.91327 73.5428 3.97087 73.3517 4.08608C73.1607 4.20128 73.0652 4.37408 73.0652 4.60449C73.0652 4.84537 73.1978 5.03389 73.4632 5.17003C73.7391 5.29571 74.1159 5.44757 74.5934 5.62561L75.8511 6.11261C76.4984 6.36396 76.9972 6.71481 77.3475 7.16515C77.6977 7.61549 77.8728 8.19674 77.8728 8.90891C77.8728 9.3383 77.7826 9.75199 77.6022 10.15C77.4218 10.5479 77.1564 10.8988 76.8062 11.2025C76.4666 11.4957 76.0474 11.7314 75.5486 11.9094C75.0498 12.0875 74.4767 12.1765 73.8293 12.1765Z" fill="#F1F8FA"/>
<path d="M79.5356 11.988V1.77677H82.2737V11.988H79.5356Z" fill="#F1F8FA"/>
<path d="M88.9344 12.1765C88.2127 12.1765 87.5548 12.0561 86.9604 11.8152C86.3767 11.5743 85.8726 11.2287 85.4481 10.7783C85.0342 10.3175 84.7105 9.75722 84.477 9.09742C84.2436 8.42715 84.1268 7.67309 84.1268 6.83525C84.1268 5.9974 84.2436 5.25382 84.477 4.60449C84.7105 3.94469 85.0342 3.39485 85.4481 2.95499C85.8726 2.50465 86.3767 2.16427 86.9604 1.93387C87.5548 1.70346 88.2127 1.58826 88.9344 1.58826C89.6455 1.58826 90.2982 1.70346 90.8925 1.93387C91.4868 2.16427 91.9909 2.50465 92.4048 2.95499C92.8293 3.40533 93.1583 3.95516 93.3918 4.60449C93.6253 5.25382 93.742 5.9974 93.742 6.83525C93.742 7.67309 93.6253 8.42715 93.3918 9.09742C93.1583 9.75722 92.8293 10.3175 92.4048 10.7783C91.9909 11.2287 91.4868 11.5743 90.8925 11.8152C90.2982 12.0561 89.6455 12.1765 88.9344 12.1765ZM88.9344 9.85148C89.5606 9.85148 90.0488 9.58442 90.399 9.05029C90.7598 8.5057 90.9403 7.76735 90.9403 6.83525C90.9403 5.90315 90.7598 5.18574 90.399 4.68304C90.0488 4.16986 89.5606 3.91327 88.9344 3.91327C88.3083 3.91327 87.8148 4.16986 87.4539 4.68304C87.1037 5.18574 86.9286 5.90315 86.9286 6.83525C86.9286 7.76735 87.1037 8.5057 87.4539 9.05029C87.8148 9.58442 88.3083 9.85148 88.9344 9.85148Z" fill="#F1F8FA"/>
<path d="M95.5948 11.988V1.77677H98.3965L100.689 6.33254L101.676 8.62614H101.74C101.708 8.35384 101.671 8.05535 101.628 7.73069C101.586 7.40603 101.549 7.07613 101.517 6.74099C101.485 6.39538 101.453 6.05501 101.421 5.71987C101.4 5.37426 101.389 5.04436 101.389 4.73017V1.77677H104V11.988H101.198L98.906 7.4165L97.919 5.13862H97.8553C97.919 5.72511 97.9933 6.36396 98.0782 7.05518C98.1631 7.7464 98.2055 8.4062 98.2055 9.03458V11.988H95.5948Z" fill="#F1F8FA"/>
<path d="M34.6667 11.988V1.77677H37.3959V9.7258H41.2992V11.988H34.6667Z" fill="#E1F7FE"/>
<path d="M45.8689 12.1765C45.213 12.1765 44.536 12.0613 43.8379 11.8309C43.1503 11.59 42.5262 11.2182 41.9656 10.7155L43.5205 8.86178C43.8908 9.15502 44.2874 9.3959 44.7106 9.58442C45.1443 9.76246 45.5515 9.85148 45.9323 9.85148C46.3449 9.85148 46.641 9.78864 46.8209 9.66296C47.0113 9.53729 47.1065 9.35925 47.1065 9.12884C47.1065 9.00316 47.0747 8.89843 47.0113 8.81465C46.9478 8.73087 46.8526 8.65232 46.7257 8.57901C46.6093 8.5057 46.4665 8.43762 46.2973 8.37478C46.128 8.30147 45.9323 8.22292 45.7102 8.13914L44.425 7.60501C44.1499 7.50028 43.8855 7.36414 43.6316 7.19657C43.3777 7.01852 43.1556 6.8143 42.9652 6.58389C42.7748 6.34301 42.6214 6.07071 42.505 5.767C42.3993 5.46328 42.3464 5.12814 42.3464 4.76159C42.3464 4.32172 42.4416 3.91327 42.632 3.53624C42.8224 3.14874 43.0868 2.8136 43.4253 2.53083C43.7638 2.23758 44.1658 2.00718 44.6312 1.83961C45.1072 1.67204 45.6256 1.58826 46.1862 1.58826C46.7786 1.58826 47.3762 1.69822 47.9792 1.91816C48.5927 2.13809 49.1375 2.4837 49.6135 2.95499L48.2489 4.65162C47.8998 4.41074 47.5613 4.22746 47.2334 4.10178C46.9161 3.97611 46.567 3.91327 46.1862 3.91327C45.8477 3.91327 45.5832 3.97087 45.3928 4.08608C45.2024 4.20128 45.1072 4.37408 45.1072 4.60449C45.1072 4.84537 45.2395 5.03389 45.5039 5.17003C45.7789 5.29571 46.1545 5.44757 46.6305 5.62561L47.884 6.11261C48.5292 6.36396 49.0264 6.71481 49.3755 7.16515C49.7245 7.61549 49.8991 8.19674 49.8991 8.90891C49.8991 9.3383 49.8092 9.75199 49.6293 10.15C49.4495 10.5479 49.1851 10.8988 48.836 11.2025C48.4975 11.4957 48.0797 11.7314 47.5825 11.9094C47.0853 12.0875 46.5141 12.1765 45.8689 12.1765Z" fill="#E1F7FE"/>
<path d="M36.4856 18.917V20.4163H38.9214V21.8099H36.4856V23.4359H39.2405V24.8823H34.6667V17.4706H39.2405V18.917H36.4856Z" fill="#F1F8FA"/>
<path d="M44.2292 24.8823L42.6763 22.0845H42.2402V24.8823H40.4213V17.4706H43.474C44.0626 17.4706 44.5625 17.5726 44.9738 17.7768C45.3921 17.9809 45.7041 18.2624 45.9098 18.6214C46.1154 18.9733 46.2182 19.3675 46.2182 19.8039C46.2182 20.2966 46.0764 20.7365 45.7928 21.1237C45.5162 21.5108 45.1049 21.7853 44.5589 21.9472L46.2821 24.8823H44.2292ZM42.2402 20.8069H43.3676C43.7009 20.8069 43.9491 20.726 44.1122 20.5641C44.2824 20.4022 44.3675 20.1734 44.3675 19.8778C44.3675 19.5963 44.2824 19.3746 44.1122 19.2127C43.9491 19.0508 43.7009 18.9698 43.3676 18.9698H42.2402V20.8069Z" fill="#F1F8FA"/>
<path d="M53.0506 19.8567C53.0506 20.2861 52.9513 20.6802 52.7528 21.0392C52.5542 21.3911 52.2493 21.6762 51.838 21.8944C51.4267 22.1126 50.9162 22.2217 50.3064 22.2217H49.1789V24.8823H47.36V17.4706H50.3064C50.902 17.4706 51.4055 17.5726 51.8167 17.7768C52.228 17.9809 52.5365 18.2624 52.7421 18.6214C52.9478 18.9804 53.0506 19.3921 53.0506 19.8567ZM50.1681 20.7858C50.5155 20.7858 50.7744 20.7049 50.9445 20.543C51.1147 20.3811 51.1998 20.1523 51.1998 19.8567C51.1998 19.5611 51.1147 19.3323 50.9445 19.1704C50.7744 19.0085 50.5155 18.9276 50.1681 18.9276H49.1789V20.7858H50.1681Z" fill="#F1F8FA"/>
</svg>
