<svg width="155" height="40" viewBox="0 0 155 40" fill="none" xmlns="http://www.w3.org/2000/svg">
<path fill-rule="evenodd" clip-rule="evenodd" d="M7.90325 39.932H0V0H7.90325V39.932Z" fill="#26C4F7"/>
<path fill-rule="evenodd" clip-rule="evenodd" d="M18.6676 31.8503H0V39.9999H18.6676V31.8503Z" fill="#26C4F7"/>
<path fill-rule="evenodd" clip-rule="evenodd" d="M39.9242 7.67446H15.9424V0.0683594H39.9242V7.67446Z" fill="#0E84BC"/>
<path fill-rule="evenodd" clip-rule="evenodd" d="M31.8848 13.5147H39.9241V0.0683594H31.8848V13.5147Z" fill="#0E84BC"/>
<path fill-rule="evenodd" clip-rule="evenodd" d="M39.9242 24.1086H15.9424V15.8235H39.9242V24.1086Z" fill="#2C2A28"/>
<path fill-rule="evenodd" clip-rule="evenodd" d="M31.8848 39.9999H39.9241V15.8235H31.8848V39.9999Z" fill="#2C2A28"/>
<path fill-rule="evenodd" clip-rule="evenodd" d="M20.9841 31.8503H39.9243V39.9999H20.9841V31.8503Z" fill="#2C2A28"/>
<path d="M76.7173 17.76V2.63231H86.777V5.98368H80.7981V8.86958H85.9229V12.221H80.7981V17.76H76.7173Z" fill="#26C4F7"/>
<path d="M95.7485 18.0393C93.5816 18.0393 91.9682 17.4264 90.9085 16.2007C89.8645 14.9595 89.3426 13.0433 89.3426 10.4522V2.63231H93.4234V10.9176C93.4234 12.2675 93.6053 13.2217 93.9691 13.7803C94.3487 14.3233 94.9418 14.5948 95.7485 14.5948C96.5552 14.5948 97.1483 14.3233 97.5279 13.7803C97.9234 13.2217 98.1211 12.2675 98.1211 10.9176V2.63231H102.06V10.4522C102.06 13.0433 101.546 14.9595 100.517 16.2007C99.4893 17.4264 97.8996 18.0393 95.7485 18.0393Z" fill="#26C4F7"/>
<path d="M110.034 18.0393C109.053 18.0393 108.041 17.8686 106.997 17.5273C105.969 17.1704 105.036 16.6196 104.197 15.8749L106.523 13.1286C107.076 13.5631 107.669 13.9199 108.302 14.1992C108.951 14.463 109.56 14.5948 110.129 14.5948C110.746 14.5948 111.189 14.5017 111.458 14.3156C111.742 14.1294 111.885 13.8656 111.885 13.5243C111.885 13.3381 111.837 13.1829 111.742 13.0588C111.647 12.9347 111.505 12.8183 111.315 12.7097C111.141 12.6011 110.928 12.5002 110.675 12.4071C110.422 12.2985 110.129 12.1822 109.797 12.058L107.875 11.2667C107.464 11.1116 107.068 10.9099 106.689 10.6616C106.309 10.3979 105.977 10.0953 105.692 9.75397C105.407 9.39711 105.178 8.99371 105.004 8.54375C104.846 8.0938 104.767 7.5973 104.767 7.05425C104.767 6.4026 104.909 5.79749 105.194 5.23893C105.479 4.66485 105.874 4.16835 106.38 3.74943C106.886 3.31499 107.487 2.97365 108.183 2.7254C108.895 2.47715 109.67 2.35303 110.509 2.35303C111.394 2.35303 112.288 2.51594 113.19 2.84177C114.107 3.1676 114.922 3.67961 115.633 4.37781L113.593 6.89134C113.071 6.53448 112.565 6.26296 112.074 6.07677C111.6 5.89059 111.078 5.79749 110.509 5.79749C110.002 5.79749 109.607 5.88283 109.322 6.0535C109.038 6.22417 108.895 6.48018 108.895 6.82152C108.895 7.17838 109.093 7.45766 109.488 7.65936C109.9 7.84555 110.461 8.07053 111.173 8.33429L113.047 9.05577C114.012 9.42814 114.755 9.94791 115.277 10.6151C115.799 11.2823 116.06 12.1434 116.06 13.1984C116.06 13.8346 115.926 14.4474 115.657 15.037C115.388 15.6266 114.993 16.1464 114.471 16.5964C113.965 17.0308 113.34 17.3799 112.596 17.6437C111.853 17.9074 110.999 18.0393 110.034 18.0393Z" fill="#26C4F7"/>
<path d="M118.539 17.76V2.63231H122.619V17.76H118.539Z" fill="#26C4F7"/>
<path d="M132.546 18.0393C131.471 18.0393 130.49 17.8609 129.604 17.504C128.735 17.1472 127.983 16.6351 127.351 15.968C126.734 15.2853 126.251 14.4552 125.903 13.4777C125.555 12.4847 125.381 11.3676 125.381 10.1263C125.381 8.8851 125.555 7.78349 125.903 6.82152C126.251 5.84404 126.734 5.02947 127.351 4.37781C127.983 3.71064 128.735 3.20639 129.604 2.86504C130.49 2.5237 131.471 2.35303 132.546 2.35303C133.606 2.35303 134.579 2.5237 135.465 2.86504C136.35 3.20639 137.102 3.71064 137.719 4.37781C138.351 5.04498 138.842 5.85955 139.19 6.82152C139.538 7.78349 139.712 8.8851 139.712 10.1263C139.712 11.3676 139.538 12.4847 139.19 13.4777C138.842 14.4552 138.351 15.2853 137.719 15.968C137.102 16.6351 136.35 17.1472 135.465 17.504C134.579 17.8609 133.606 18.0393 132.546 18.0393ZM132.546 14.5948C133.48 14.5948 134.207 14.1992 134.729 13.4079C135.267 12.6011 135.536 11.5072 135.536 10.1263C135.536 8.74546 135.267 7.68264 134.729 6.93789C134.207 6.17762 133.48 5.79749 132.546 5.79749C131.613 5.79749 130.878 6.17762 130.34 6.93789C129.818 7.68264 129.557 8.74546 129.557 10.1263C129.557 11.5072 129.818 12.6011 130.34 13.4079C130.878 14.1992 131.613 14.5948 132.546 14.5948Z" fill="#26C4F7"/>
<path d="M142.473 17.76V2.63231H146.649L150.065 9.3816L151.536 12.7795H151.631C151.584 12.3761 151.528 11.9339 151.465 11.4529C151.402 10.9719 151.346 10.4832 151.299 9.9867C151.251 9.47469 151.204 8.97043 151.157 8.47393C151.125 7.96192 151.109 7.47318 151.109 7.00771V2.63231H155V17.76H150.824L147.408 10.9875L145.937 7.61282H145.842C145.937 8.48169 146.048 9.42814 146.174 10.4522C146.301 11.4762 146.364 12.4537 146.364 13.3846V17.76H142.473Z" fill="#26C4F7"/>
<path d="M51.6667 17.76V2.63231H55.7342V14.4087H61.5516V17.76H51.6667Z" fill="#0E84BC"/>
<path d="M68.3622 18.0393C67.3847 18.0393 66.3758 17.8686 65.3353 17.5273C64.3105 17.1704 63.3804 16.6196 62.5448 15.8749L64.8623 13.1286C65.4141 13.5631 66.0053 13.9199 66.6359 14.1992C67.2823 14.463 67.8892 14.5948 68.4568 14.5948C69.0716 14.5948 69.5131 14.5017 69.7811 14.3156C70.0648 14.1294 70.2067 13.8656 70.2067 13.5243C70.2067 13.3381 70.1594 13.1829 70.0648 13.0588C69.9703 12.9347 69.8284 12.8183 69.6392 12.7097C69.4658 12.6011 69.2529 12.5002 69.0007 12.4071C68.7484 12.2985 68.4568 12.1822 68.1257 12.058L66.2102 11.2667C65.8003 11.1116 65.4062 10.9099 65.0278 10.6616C64.6495 10.3979 64.3184 10.0953 64.0346 9.75397C63.7508 9.39711 63.5222 8.99371 63.3488 8.54375C63.1912 8.0938 63.1124 7.5973 63.1124 7.05425C63.1124 6.4026 63.2542 5.79749 63.538 5.23893C63.8218 4.66485 64.2159 4.16835 64.7204 3.74943C65.2249 3.31499 65.824 2.97365 66.5177 2.7254C67.2271 2.47715 67.9996 2.35303 68.8352 2.35303C69.718 2.35303 70.6087 2.51594 71.5074 2.84177C72.4218 3.1676 73.2337 3.67961 73.9431 4.37781L71.9094 6.89134C71.3891 6.53448 70.8846 6.26296 70.3959 6.07677C69.923 5.89059 69.4027 5.79749 68.8352 5.79749C68.3307 5.79749 67.9365 5.88283 67.6528 6.0535C67.369 6.22417 67.2271 6.48018 67.2271 6.82152C67.2271 7.17838 67.4242 7.45766 67.8183 7.65936C68.2282 7.84555 68.7879 8.07053 69.4973 8.33429L71.3655 9.05577C72.3272 9.42814 73.0681 9.94791 73.5884 10.6151C74.1086 11.2823 74.3688 12.1434 74.3688 13.1984C74.3688 13.8346 74.2348 14.4474 73.9668 15.037C73.6987 15.6266 73.3046 16.1464 72.7844 16.5964C72.2799 17.0308 71.6571 17.3799 70.9162 17.6437C70.1752 17.9074 69.3239 18.0393 68.3622 18.0393Z" fill="#0E84BC"/>
<path d="M54.3775 28.0252V30.2463H58.0078V32.311H54.3775V34.7198H58.4834V36.8627H51.6667V25.8823H58.4834V28.0252H54.3775Z" fill="#2C2A28"/>
<path d="M65.9185 36.8627L63.604 32.7177H62.954V36.8627H60.2433V25.8823H64.7929C65.6701 25.8823 66.4152 26.0335 67.0282 26.3359C67.6517 26.6383 68.1167 27.0554 68.4232 27.5873C68.7297 28.1086 68.8829 28.6926 68.8829 29.3391C68.8829 30.0691 68.6716 30.7208 68.2488 31.2943C67.8366 31.8678 67.2237 32.2745 66.4099 32.5144L68.978 36.8627H65.9185ZM62.954 30.8251H64.6344C65.1311 30.8251 65.501 30.7051 65.7441 30.4653C65.9977 30.2255 66.1246 29.8866 66.1246 29.4486C66.1246 29.0315 65.9977 28.703 65.7441 28.4632C65.501 28.2233 65.1311 28.1034 64.6344 28.1034H62.954V30.8251Z" fill="#2C2A28"/>
<path d="M79.0657 29.4173C79.0657 30.0534 78.9178 30.6374 78.6219 31.1692C78.326 31.6906 77.8715 32.1129 77.2585 32.4361C76.6456 32.7594 75.8847 32.921 74.9758 32.921H73.2954V36.8627H70.5846V25.8823H74.9758C75.8635 25.8823 76.6139 26.0335 77.2268 26.3359C77.8398 26.6383 78.2995 27.0554 78.606 27.5873C78.9125 28.1191 79.0657 28.7291 79.0657 29.4173ZM74.7697 30.7938C75.2875 30.7938 75.6733 30.6739 75.9269 30.434C76.1806 30.1942 76.3074 29.8553 76.3074 29.4173C76.3074 28.9794 76.1806 28.6405 75.9269 28.4006C75.6733 28.1608 75.2875 28.0409 74.7697 28.0409H73.2954V30.7938H74.7697Z" fill="#2C2A28"/>
</svg>
