<svg width="108" height="78" viewBox="0 0 108 78" fill="none" xmlns="http://www.w3.org/2000/svg">
<rect width="3" height="3" fill="#1C97D0"/>
<rect x="15" width="3" height="3" fill="#1C97D0"/>
<rect x="30" width="3" height="3" fill="#1C97D0"/>
<rect x="45" width="3" height="3" fill="#1C97D0"/>
<rect x="60" width="3" height="3" fill="#1C97D0"/>
<rect x="75" width="3" height="3" fill="#1C97D0"/>
<rect x="90" width="3" height="3" fill="#26C4F7"/>
<rect x="105" width="3" height="3" fill="#1C97D0"/>
<rect y="15" width="3" height="3" fill="#1C97D0"/>
<rect x="15" y="15" width="3" height="3" fill="#1C97D0"/>
<rect x="30" y="15" width="3" height="3" fill="#1C97D0"/>
<rect x="45" y="15" width="3" height="3" fill="white"/>
<rect x="60" y="15" width="3" height="3" fill="#1C97D0"/>
<rect x="75" y="15" width="3" height="3" fill="#1C97D0"/>
<rect x="90" y="15" width="3" height="3" fill="#1C97D0"/>
<rect x="105" y="15" width="3" height="3" fill="#1C97D0"/>
<rect y="30" width="3" height="3" fill="#1C97D0"/>
<rect x="15" y="30" width="3" height="3" fill="#1C97D0"/>
<rect x="30" y="30" width="3" height="3" fill="#1C97D0"/>
<rect x="45" y="30" width="3" height="3" fill="#1C97D0"/>
<rect x="60" y="30" width="3" height="3" fill="#1C97D0"/>
<rect x="75" y="30" width="3" height="3" fill="white"/>
<rect x="90" y="30" width="3" height="3" fill="#1C97D0"/>
<rect x="105" y="30" width="3" height="3" fill="#1C97D0"/>
<rect y="45" width="3" height="3" fill="#1C97D0"/>
<rect x="15" y="45" width="3" height="3" fill="#1C97D0"/>
<rect x="30" y="45" width="3" height="3" fill="#1C97D0"/>
<rect x="45" y="45" width="3" height="3" fill="#1C97D0"/>
<rect x="60" y="45" width="3" height="3" fill="#1C97D0"/>
<rect x="75" y="45" width="3" height="3" fill="#1C97D0"/>
<rect x="90" y="45" width="3" height="3" fill="#1C97D0"/>
<rect x="105" y="45" width="3" height="3" fill="#1C97D0"/>
<rect y="60" width="3" height="3" fill="#1C97D0"/>
<rect x="15" y="60" width="3" height="3" fill="#1C97D0"/>
<rect x="30" y="60" width="3" height="3" fill="#1C97D0"/>
<rect x="45" y="60" width="3" height="3" fill="#1C97D0"/>
<rect x="60" y="60" width="3" height="3" fill="#26C4F7"/>
<rect x="75" y="60" width="3" height="3" fill="#1C97D0"/>
<rect x="90" y="60" width="3" height="3" fill="#1C97D0"/>
<rect x="105" y="60" width="3" height="3" fill="#1C97D0"/>
<rect y="75" width="3" height="3" fill="#1C97D0"/>
<rect x="15" y="75" width="3" height="3" fill="#1C97D0"/>
<rect x="30" y="75" width="3" height="3" fill="#1C97D0"/>
<rect x="45" y="75" width="3" height="3" fill="#1C97D0"/>
<rect x="60" y="75" width="3" height="3" fill="#1C97D0"/>
<rect x="75" y="75" width="3" height="3" fill="#1C97D0"/>
<rect x="90" y="75" width="3" height="3" fill="#1C97D0"/>
<rect x="105" y="75" width="3" height="3" fill="#1C97D0"/>
</svg>
