<svg width="60" height="60" viewBox="0 0 60 60" fill="none" xmlns="http://www.w3.org/2000/svg">
<rect width="60" height="60" rx="4" fill="#26C4F7"/>
<path d="M16.4628 25.7322V28.5641H21.1002V31.1966H16.4628V34.2678H21.7077V37H13V23H21.7077V25.7322H16.4628Z" fill="white"/>
<path d="M31.2054 37L28.2489 31.7151H27.4186V37H23.9558V23H29.7677C30.8882 23 31.84 23.1928 32.623 23.5783C33.4195 23.9639 34.0135 24.4957 34.405 25.1738C34.7965 25.8386 34.9923 26.5831 34.9923 27.4074C34.9923 28.3381 34.7223 29.169 34.1823 29.9003C33.6557 30.6315 32.8727 31.15 31.8332 31.4558L35.1138 37H31.2054ZM27.4186 29.302H29.5652C30.1997 29.302 30.6722 29.1491 30.9827 28.8433C31.3067 28.5375 31.4687 28.1054 31.4687 27.547C31.4687 27.0152 31.3067 26.5964 30.9827 26.2906C30.6722 25.9848 30.1997 25.8319 29.5652 25.8319H27.4186V29.302Z" fill="white"/>
<path d="M48 27.5071C48 28.3181 47.811 29.0627 47.433 29.7407C47.055 30.4055 46.4745 30.944 45.6915 31.3561C44.9084 31.7683 43.9364 31.9744 42.7754 31.9744H40.6289V37H37.166V23H42.7754C43.9094 23 44.8679 23.1928 45.651 23.5783C46.434 23.9639 47.0212 24.4957 47.4127 25.1738C47.8042 25.8519 48 26.6296 48 27.5071ZM42.5121 29.2621C43.1737 29.2621 43.6664 29.1092 43.9904 28.8034C44.3144 28.4976 44.4764 28.0655 44.4764 27.5071C44.4764 26.9487 44.3144 26.5166 43.9904 26.2108C43.6664 25.905 43.1737 25.7521 42.5121 25.7521H40.6289V29.2621H42.5121Z" fill="white"/>
</svg>
