<svg width="168" height="44" viewBox="0 0 168 44" fill="none" xmlns="http://www.w3.org/2000/svg">
<path d="M64.9601 19.8389C66.1259 20.2822 67.4028 20.5038 68.7907 20.5038C70.012 20.5038 71.2333 20.2821 72.3436 19.8943C73.4539 19.4511 74.5087 18.897 75.397 18.1214C76.2852 17.3457 77.0069 16.293 77.5621 15.0741C78.1172 13.8551 78.3393 12.47 78.3393 10.974C78.3393 9.4781 78.0617 8.14841 77.5621 6.92949C77.0624 5.71057 76.3407 4.65786 75.4525 3.88219C74.5643 3.10651 73.565 2.49703 72.4547 2.05378C71.3444 1.66594 70.1785 1.44434 68.9017 1.44434C66.8476 1.44434 64.9601 1.99838 63.3502 3.16189C61.6847 4.3254 60.6299 5.98755 60.2413 8.20377L60.1303 8.75782H64.6825L64.7935 8.4808C65.5152 6.70782 66.8476 5.82138 69.0127 5.82138C70.1785 5.82138 71.1778 6.15377 72.0105 6.81863C72.7322 7.37269 73.1764 8.14837 73.3984 9.03485H66.9587V13.0795H73.2874C73.0098 13.966 72.5657 14.6862 71.844 15.2403C71.0113 15.9052 70.012 16.2376 68.7907 16.2376C67.7359 16.2376 66.8476 15.9605 66.0704 15.4619C65.3487 14.9632 64.8491 14.243 64.5715 13.3011L64.4605 12.9686H59.9082L60.0192 13.5227C60.2968 15.074 60.9075 16.4038 61.7957 17.5119C62.684 18.5646 63.7943 19.3957 64.9601 19.8389Z" fill="#B10D28"/>
<path d="M85.4434 12.8018H91.9387V20.3369H96.602V1.66528H91.9387V8.42472H85.4434V1.66528H80.7246V20.3369H85.4434V12.8018Z" fill="#B10D28"/>
<path d="M114.978 15.9598H105.207V12.8018H114.312V8.59096H105.207V5.87608H114.811V1.66528H100.488V20.3369H114.978V15.9598Z" fill="#B10D28"/>
<path d="M126.915 1.66528H118.865V20.3369H123.584V15.295H126.915C128.969 15.295 130.635 14.6301 131.856 13.3004C133.077 12.0261 133.688 10.4193 133.688 8.5355C133.688 6.65172 133.077 5.045 131.911 3.65986C130.69 2.33013 129.025 1.66528 126.915 1.66528ZM128.525 10.3639C128.136 10.8626 127.581 11.0842 126.915 11.0842H123.529V5.82069H126.915C127.581 5.82069 128.136 6.04227 128.525 6.54092C128.969 7.03957 129.136 7.64904 129.136 8.42472C129.136 9.2558 128.914 9.86526 128.525 10.3639Z" fill="#B10D28"/>
<path d="M136.02 20.3369H140.683V5.98686H147.733V1.66528H136.02V20.3369Z" fill="#B10D28"/>
<path d="M166.775 6.87428C166.275 5.65536 165.498 4.60266 164.61 3.82698C163.722 3.05131 162.722 2.44189 161.612 1.99865C160.502 1.5554 159.336 1.33374 158.059 1.33374C156.394 1.33374 154.839 1.66619 153.396 2.38646C151.953 3.10673 150.787 4.21484 149.843 5.71078C148.955 7.20673 148.455 8.97972 148.455 10.9189C148.455 13.9108 149.399 16.2933 151.231 18.0108C153.063 19.7284 155.339 20.5595 157.948 20.5595C160.724 20.5595 163.056 19.673 164.832 17.8446C166.609 16.0716 167.497 13.7446 167.497 10.9189C167.552 9.47836 167.275 8.14861 166.775 6.87428ZM158.059 5.76617C159.447 5.76617 160.557 6.20943 161.501 7.09592C162.445 7.9824 162.889 9.31215 162.889 10.9189C162.889 12.6365 162.445 13.9662 161.501 14.8527C160.557 15.7392 159.447 16.1824 158.059 16.1824C156.671 16.1824 155.561 15.7392 154.617 14.8527C153.729 13.9662 153.229 12.6365 153.229 10.9189C153.229 9.25674 153.674 7.9824 154.617 7.09592C155.561 6.20943 156.671 5.76617 158.059 5.76617Z" fill="#B10D28"/>
<path d="M75.7292 25.8231C74.8409 25.0474 73.8416 24.4379 72.7313 23.9947C71.621 23.5515 70.3997 23.3853 69.1784 23.3853C67.5129 23.3853 65.9585 23.7177 64.5151 24.438C63.0717 25.1582 61.9059 26.2663 60.9621 27.7623C60.0739 29.2582 59.5742 31.0312 59.5742 32.9704C59.5742 35.9623 60.518 38.3447 62.35 40.0069C64.182 41.7245 66.4581 42.5555 69.0673 42.5555C71.8986 42.5555 74.1747 41.669 75.9512 39.8406C77.7277 38.0677 78.6159 35.7406 78.6159 32.915C78.6159 31.419 78.3384 30.0339 77.8387 28.815C77.3391 27.6515 76.6174 26.5988 75.7292 25.8231ZM69.1228 27.7623C70.5107 27.7623 71.621 28.2056 72.5648 29.092C73.5085 29.9785 73.9527 31.3082 73.9527 32.915C73.9527 34.6325 73.5085 35.9623 72.5648 36.8488C71.621 37.7353 70.5107 38.1785 69.1228 38.1785C67.735 38.1785 66.6247 37.7353 65.6809 36.8488C64.7927 35.9623 64.293 34.6325 64.293 32.915C64.293 31.2528 64.7371 29.9785 65.6809 29.092C66.6247 28.2056 67.7905 27.7623 69.1228 27.7623Z" fill="#B10D28"/>
<path d="M85.4434 33.081V23.6621H80.7246V42.3337H82.5011L91.9387 32.8039V42.2783H96.602V23.5513H94.77L85.4434 33.081Z" fill="#B10D28"/>
<path d="M102.154 23.6621L100.766 36.5716C100.655 37.7351 100.378 38.1783 100.211 38.3445C100.1 38.4553 99.7669 38.6216 99.1007 38.6216C98.9896 38.6216 98.8786 38.6216 98.7676 38.6216V42.2783C99.3782 42.3337 99.9334 42.3892 100.433 42.3892C101.821 42.3892 102.82 42.1121 103.542 41.6135C104.597 40.8378 105.207 39.2864 105.429 36.7932L106.262 27.9283H110.259V42.2783H114.923V23.6621H102.154Z" fill="#B10D28"/>
<path d="M13.3851 38.4556C10.2207 35.4083 8.00013 31.53 7.00086 27.3191C6.88983 26.8205 6.77879 26.2664 6.66776 25.657C5.39091 27.8178 3.05927 29.2583 0.394531 29.2583V43.6637C5.50194 43.6637 10.1652 41.8908 13.8847 38.9543C13.7182 38.7881 13.5517 38.6218 13.3851 38.4556Z" fill="#B10D28"/>
<path d="M6.66694 18.3434C6.72245 18.0664 6.77797 17.8447 6.83349 17.5677C7.16658 15.7947 7.72173 14.0772 8.49895 12.415C8.66549 12.0272 8.88755 11.6393 9.0541 11.2515C10.1644 9.14608 11.6633 7.20688 13.3843 5.48931C13.5508 5.32309 13.7174 5.15693 13.9395 4.99071C10.2199 2.05422 5.55663 0.28125 0.449219 0.28125V14.6867C3.11396 14.7421 5.39008 16.1826 6.66694 18.3434Z" fill="#B10D28"/>
<path d="M29.373 0.336426C24.2656 0.336426 19.6023 2.1094 15.8828 5.04589C16.0494 5.2121 16.2159 5.37833 16.438 5.54455C18.2145 7.20671 19.6579 9.14585 20.7682 11.3067C20.9902 11.6945 21.1568 12.0824 21.3233 12.4702C22.1005 14.077 22.6557 15.8499 22.9888 17.6229C23.0443 17.8445 23.0998 18.1216 23.0998 18.3432C24.3767 16.1824 26.6528 14.7418 29.373 14.7418C33.3702 14.7418 36.6456 18.0107 36.6456 21.9999C36.6456 25.9891 33.4257 29.258 29.373 29.258C26.7083 29.258 24.3767 27.8175 23.0998 25.6567C22.9888 26.2661 22.8777 26.8202 22.7667 27.3188C21.7674 31.5297 19.5468 35.408 16.3824 38.4553C16.2159 38.6215 16.0494 38.7878 15.8828 38.954C19.6023 41.8905 24.2656 43.6634 29.373 43.6634C41.3644 43.6634 51.0795 33.9675 51.0795 21.9999C51.0795 10.0324 41.3644 0.336426 29.373 0.336426Z" fill="#B10D28"/>
<path d="M15.4395 30.9757V35.796C17.6045 33.4135 19.2145 30.6432 20.0472 27.5959L15.4395 30.9757Z" fill="#B10D28"/>
<path d="M14.3285 30.9759L9.7207 27.5408C10.6089 30.5881 12.1634 33.4138 14.3285 35.7408V30.9759Z" fill="#B10D28"/>
<path d="M15.4383 29.5905L20.4347 25.8784C20.4902 25.6568 20.5458 25.3797 20.5458 25.1027C20.7123 24.1054 20.7678 23.0527 20.7678 22C20.7678 21.3351 20.7123 20.7257 20.6568 20.1162L15.3828 24.05V29.5905H15.4383Z" fill="#B10D28"/>
<path d="M14.3283 24.05L9.05439 20.1162C8.99887 20.7257 8.94336 21.3906 8.94336 22C8.94336 23.0527 8.99887 24.05 9.16542 25.0473C9.22093 25.3243 9.22093 25.6014 9.27645 25.823L14.2728 29.5351V24.05H14.3283Z" fill="#B10D28"/>
<path d="M15.4395 17.0691V22.6096L20.5469 18.7866C20.4913 18.565 20.4913 18.288 20.4358 18.1218C20.1583 16.7367 19.7696 15.4623 19.27 14.2434L15.4395 17.0691Z" fill="#B10D28"/>
<path d="M15.4395 15.7392L18.8259 13.246C18.7149 13.0243 18.6038 12.7474 18.4928 12.5257C17.6601 10.9744 16.6608 9.58926 15.495 8.31494V15.7392H15.4395Z" fill="#B10D28"/>
<path d="M14.3281 22.665V17.1245L10.4976 14.2988C9.99792 15.5177 9.60931 16.8475 9.33173 18.1772C9.27622 18.4542 9.2207 18.6759 9.2207 18.8975L14.3281 22.665Z" fill="#B10D28"/>
<path d="M14.329 15.7392V8.25952C13.1631 9.53384 12.1084 10.919 11.3311 12.4704C11.2201 12.692 11.1091 12.969 10.998 13.1906L14.329 15.7392Z" fill="#B10D28"/>
</svg>
