<svg width="29" height="28" viewBox="0 0 29 28" fill="none" xmlns="http://www.w3.org/2000/svg">
<path d="M12.4015 0H2.40153C1.9595 0 1.53558 0.175595 1.22302 0.488155C0.910458 0.800716 0.734863 1.22464 0.734863 1.66667V11.6667C0.734863 12.1087 0.910458 12.5326 1.22302 12.8452C1.53558 13.1577 1.9595 13.3333 2.40153 13.3333H12.4015C12.8436 13.3333 13.2675 13.1577 13.58 12.8452C13.8926 12.5326 14.0682 12.1087 14.0682 11.6667V1.66667C14.0682 1.22464 13.8926 0.800716 13.58 0.488155C13.2675 0.175595 12.8436 0 12.4015 0ZM29.0682 0H19.0682C18.6262 0 18.2022 0.175595 17.8897 0.488155C17.5771 0.800716 17.4015 1.22464 17.4015 1.66667V11.6667C17.4015 12.1087 17.5771 12.5326 17.8897 12.8452C18.2022 13.1577 18.6262 13.3333 19.0682 13.3333H29.0682C29.5102 13.3333 29.9341 13.1577 30.2467 12.8452C30.5593 12.5326 30.7349 12.1087 30.7349 11.6667V1.66667C30.7349 1.22464 30.5593 0.800716 30.2467 0.488155C29.9341 0.175595 29.5102 0 29.0682 0ZM12.4015 16.6667H2.40153C1.9595 16.6667 1.53558 16.8423 1.22302 17.1548C0.910458 17.4674 0.734863 17.8913 0.734863 18.3333V28.3333C0.734863 28.7754 0.910458 29.1993 1.22302 29.5118C1.53558 29.8244 1.9595 30 2.40153 30H12.4015C12.8436 30 13.2675 29.8244 13.58 29.5118C13.8926 29.1993 14.0682 28.7754 14.0682 28.3333V18.3333C14.0682 17.8913 13.8926 17.4674 13.58 17.1548C13.2675 16.8423 12.8436 16.6667 12.4015 16.6667ZM25.7349 18.3333H22.4015V21.6667H19.0682V25H22.4015V28.3333H25.7349V25H29.0682V21.6667H25.7349V18.3333Z" fill="#26C4F7"/>
</svg>
