<svg width="33" height="32" viewBox="0 0 33 32" fill="none" xmlns="http://www.w3.org/2000/svg">
<path d="M2.54262 6.00073C2.19116 6.03305 1.92314 6.32229 1.92484 6.66732V23.3336C1.92484 23.7016 2.22994 24.0002 2.60661 24.0002H4.37515C4.69737 25.7026 6.23025 27 8.06107 27C9.89213 27 11.425 25.7026 11.7472 24.0002H22.1024C22.4247 25.7026 23.9575 27 25.7886 27C27.6194 27 29.1523 25.7026 29.4745 24.0002H31.2431C31.6197 24.0002 31.9248 23.7016 31.9248 23.3336V16.6671C31.9255 16.546 31.8922 16.4272 31.829 16.3232L28.7609 11.3234C28.6373 11.1225 28.4147 11 28.175 11.0004H23.0613V6.66725C23.0613 6.29919 22.756 6.00067 22.3795 6.00067H2.60665C2.58525 5.99974 2.56403 5.9998 2.54262 6.00073ZM3.28837 7.33391H21.6976V22.6669H11.7472C11.425 20.9644 9.89213 19.6671 8.06107 19.6671C6.23025 19.6671 4.69737 20.9645 4.37515 22.6669H3.28837V7.33391ZM23.0612 12.334H27.7913L28.4091 13.334H24.4248C24.4036 13.3328 24.3822 13.3328 24.3608 13.334C24.0096 13.3663 23.7416 13.6556 23.743 14.0006V16.6672C23.743 17.0353 24.0484 17.3338 24.4248 17.3338H30.5612V18.3339H28.8566C28.8352 18.3327 28.8141 18.3327 28.7927 18.3339C28.4414 18.3662 28.1732 18.6554 28.1749 19.0004V20.5108C27.5259 19.9865 26.691 19.667 25.7886 19.667C24.7158 19.667 23.7463 20.1113 23.0612 20.8233L23.0612 12.334ZM25.1066 14.6672H29.2189L30.0393 16.0003H25.1067L25.1066 14.6672ZM29.5385 19.667H30.5613V20.3336H29.5385V19.667ZM8.06107 21.0002C9.38728 21.0002 10.4476 22.037 10.4476 23.3336C10.4476 24.6301 9.38728 25.6669 8.06107 25.6669C6.73511 25.6669 5.67475 24.6301 5.67475 23.3336C5.67475 22.037 6.73511 21.0002 8.06107 21.0002ZM25.7885 21.0002C27.1144 21.0002 28.1748 22.037 28.1748 23.3336C28.1748 24.6301 27.1144 25.6669 25.7885 25.6669C24.4623 25.6669 23.4019 24.6301 23.4019 23.3336C23.4019 22.037 24.4623 21.0002 25.7885 21.0002ZM29.1122 21.667H30.5612V22.6668H29.4744C29.4071 22.3104 29.2778 21.9798 29.1122 21.667ZM8.06095 22.3336C7.49617 22.3336 7.0384 22.7812 7.0384 23.3336C7.0384 23.8859 7.49616 24.3334 8.06095 24.3334C8.62596 24.3334 9.08374 23.8859 9.08374 23.3336C9.08374 22.7812 8.62598 22.3336 8.06095 22.3336ZM25.7884 22.3336C25.2233 22.3336 24.7656 22.7812 24.7656 23.3336C24.7656 23.8859 25.2233 24.3334 25.7884 24.3334C26.3531 24.3334 26.8109 23.8859 26.8109 23.3336C26.8109 22.7812 26.3531 22.3336 25.7884 22.3336Z" fill="#26C4F7"/>
<path d="M24.4248 14H29.4248L30.9248 16.5H24.4248V14Z" fill="#26C4F7"/>
<path d="M2.92484 17H21.9248V19H2.92484V17Z" fill="#26C4F7"/>
</svg>
