<svg width="33" height="32" viewBox="0 0 33 32" fill="none" xmlns="http://www.w3.org/2000/svg">
<path d="M1 32V0H4.33333V2.90909H27.6667V0H31V32H27.6667V29.0909H4.33333V32H1ZM4.33333 14.5455H7.66667H17.6667H27.6667V5.81818H4.33333V14.5455ZM4.33333 26.1818H14.3333H24.3333H27.6667V17.4545H4.33333V26.1818Z" fill="#26C4F7"/>
<path d="M24.6148 19.5V25.5H16.6148V19.5H24.6148Z" stroke="#26C4F7"/>
<line x1="20.6148" y1="19" x2="20.6148" y2="21" stroke="#26C4F7"/>
<path d="M23.6148 8.5V13.5H15.6148V8.5H23.6148Z" stroke="#26C4F7"/>
<line x1="19.6148" y1="8" x2="19.6148" y2="10" stroke="#26C4F7"/>
<line x1="9.61481" y1="20" x2="9.61481" y2="22" stroke="#26C4F7"/>
<path d="M12.6148 20.5V25.5H6.61481V20.5H12.6148Z" stroke="#26C4F7"/>
</svg>
