<svg width="35" height="34" viewBox="0 0 35 34" fill="none" xmlns="http://www.w3.org/2000/svg">
<path d="M14.7249 9.79993L17.9249 12.9999L21.1249 9.79993" stroke="#26C4F7" stroke-width="2" stroke-linecap="round" stroke-linejoin="round"/>
<path d="M17.9248 13V4.2C17.9248 2.43269 19.3576 1 21.1248 1H30.7248C32.4921 1 33.9248 2.43269 33.9248 4.2V13" stroke="#26C4F7" stroke-width="2" stroke-linecap="round" stroke-linejoin="round"/>
<path d="M21.1249 24.2L17.9249 21L14.7249 24.2" stroke="#26C4F7" stroke-width="2" stroke-linecap="round" stroke-linejoin="round"/>
<path d="M17.9248 21V29.8C17.9248 31.5673 16.4921 33 14.7248 33H5.12484C3.35752 33 1.92484 31.5673 1.92484 29.8V21" stroke="#26C4F7" stroke-width="2" stroke-linecap="round" stroke-linejoin="round"/>
<path d="M25.1248 13.7999L21.9248 16.9999L25.1248 20.1999" stroke="#26C4F7" stroke-width="2" stroke-linecap="round" stroke-linejoin="round"/>
<path d="M21.9248 17H30.7248C32.4921 17 33.9248 18.4327 33.9248 20.2V29.8C33.9248 31.5673 32.4921 33 30.7248 33H21.9248" stroke="#26C4F7" stroke-width="2" stroke-linecap="round" stroke-linejoin="round"/>
<path d="M10.7249 20.1999L13.9249 16.9999L10.7249 13.7999" stroke="#26C4F7" stroke-width="2" stroke-linecap="round" stroke-linejoin="round"/>
<path d="M13.9248 17H5.12484C3.35752 17 1.92484 15.5673 1.92484 13.8V4.2C1.92484 2.43269 3.35752 1 5.12484 1H13.9248" stroke="#26C4F7" stroke-width="2" stroke-linecap="round" stroke-linejoin="round"/>
</svg>
