<svg width="33" height="32" viewBox="0 0 33 32" fill="none" xmlns="http://www.w3.org/2000/svg">
<g clip-path="url(#clip0_94_1256)">
<path d="M26.0379 0.5H6.34556C6.01919 0.500549 5.70655 0.630223 5.4758 0.860989C5.24504 1.09175 5.11536 1.4044 5.11481 1.73076V31.2692C5.11536 31.5956 5.24503 31.9083 5.4758 32.139C5.70656 32.3698 6.01921 32.4995 6.34556 32.5H26.0379C26.3643 32.4995 26.6769 32.3698 26.9077 32.139C27.1384 31.9082 27.2681 31.5956 27.2686 31.2692V1.73076C27.2681 1.40438 27.1384 1.09175 26.9077 0.860989C26.6769 0.63023 26.3642 0.500549 26.0379 0.5ZM6.34556 31.2693V1.73077H26.0379L26.039 31.2693H6.34556ZM24.8071 2.34616H19.2687C19.0629 2.34616 18.8709 2.4489 18.7566 2.62005L17.7085 4.19228H14.6747L13.6269 2.62005C13.5126 2.4489 13.3206 2.34616 13.1148 2.34616H7.57638C7.41319 2.34616 7.25659 2.41099 7.14121 2.52638C7.02583 2.64176 6.96099 2.79835 6.96099 2.96154V30.0385C6.96099 30.2017 7.02583 30.3583 7.14121 30.4737C7.25659 30.589 7.41319 30.6539 7.57638 30.6539H24.8072C24.9703 30.6539 25.1269 30.589 25.2423 30.4737C25.3577 30.3583 25.4225 30.2017 25.4225 30.0385V2.96154C25.4225 2.79835 25.3577 2.64176 25.2423 2.52638C25.1269 2.41099 24.9703 2.34616 24.8072 2.34616H24.8071ZM24.1917 29.4231H8.19172V3.57693H12.7854L13.8334 5.14915C13.9477 5.3203 14.1398 5.42305 14.3455 5.42305H18.0378C18.2436 5.42305 18.4356 5.3203 18.5499 5.14915L19.598 3.57693H24.1916L24.1917 29.4231ZM15.5763 2.96154C15.5763 2.71264 15.7263 2.48819 15.9563 2.39314C16.1862 2.2978 16.4508 2.35028 16.6269 2.52638C16.803 2.70247 16.8555 2.96703 16.7601 3.19698C16.6651 3.42693 16.4406 3.57693 16.1917 3.57693C15.8519 3.57693 15.5763 3.30137 15.5763 2.96154ZM19.884 13.4231H17.4225C17.2593 13.4231 17.1027 13.4879 16.9873 13.6033L16.1918 14.3989L15.3962 13.6033C15.2808 13.4879 15.1242 13.4231 14.961 13.4231H12.4995C12.3363 13.4231 12.1797 13.4879 12.0643 13.6033C11.9489 13.7187 11.8841 13.8753 11.8841 14.0385V16.5C11.8841 16.6632 11.9489 16.8198 12.0643 16.9352C12.1797 17.0506 12.3363 17.1154 12.4995 17.1154H13.7303V20.1923C13.7303 20.3555 13.7951 20.5121 13.9105 20.6275C14.0259 20.7429 14.1825 20.8077 14.3456 20.8077H18.038C18.2011 20.8077 18.3577 20.7429 18.4731 20.6275C18.5885 20.5121 18.6533 20.3555 18.6533 20.1923V17.1154H19.8841C20.0473 17.1154 20.2039 17.0506 20.3193 16.9352C20.4347 16.8198 20.4995 16.6632 20.4995 16.5V14.0385C20.4995 13.8753 20.4347 13.7187 20.3193 13.6033C20.2039 13.4879 20.0473 13.4231 19.8841 13.4231H19.884ZM19.2687 15.8846H18.0379C17.8747 15.8846 17.7181 15.9495 17.6027 16.0648C17.4873 16.1802 17.4225 16.3368 17.4225 16.5V19.5769H14.961V16.5C14.961 16.3368 14.8961 16.1802 14.7807 16.0648C14.6654 15.9495 14.5088 15.8846 14.3456 15.8846H13.1148V14.6539H14.706L15.7566 15.7044C15.997 15.9446 16.3865 15.9446 16.6269 15.7044L17.6775 14.6539H19.2687L19.2687 15.8846ZM13.1148 10.3462V7.88462C13.1148 7.72144 13.05 7.56484 12.9346 7.44946C12.8192 7.33407 12.6626 7.26924 12.4994 7.26924H10.0379C9.87469 7.26924 9.71809 7.33407 9.60271 7.44946C9.48733 7.56484 9.42249 7.72144 9.42249 7.88462V10.3462C9.42249 10.5093 9.48732 10.6659 9.60271 10.7813C9.71809 10.8967 9.87469 10.9615 10.0379 10.9615H12.4994C12.6626 10.9615 12.8192 10.8967 12.9346 10.7813C13.05 10.6659 13.1148 10.5093 13.1148 10.3462ZM11.884 9.73078H10.6533V8.50001H11.884V9.73078ZM14.3456 8.50001C14.3456 8.33682 14.4104 8.18022 14.5258 8.06484C14.6412 7.94946 14.7978 7.88462 14.961 7.88462H18.0379C18.3777 7.88462 18.6533 8.16017 18.6533 8.50001C18.6533 8.83984 18.3777 9.11539 18.0379 9.11539H14.961C14.7978 9.11539 14.6412 9.05056 14.5258 8.93517C14.4104 8.81979 14.3456 8.66319 14.3456 8.50001ZM14.961 9.73078H21.7302C22.07 9.73078 22.3456 10.0063 22.3456 10.3462C22.3456 10.686 22.07 10.9615 21.7302 10.9615H14.961C14.6211 10.9615 14.3456 10.686 14.3456 10.3462C14.3456 10.0063 14.6211 9.73078 14.961 9.73078ZM19.884 23.2693H12.4994C12.3362 23.2693 12.1796 23.3341 12.0642 23.4495C11.9489 23.5649 11.884 23.7215 11.884 23.8846V26.3462C11.884 26.5094 11.9489 26.666 12.0642 26.7813C12.1796 26.8967 12.3362 26.9616 12.4994 26.9616H19.884C20.0472 26.9616 20.2038 26.8967 20.3192 26.7813C20.4346 26.666 20.4994 26.5094 20.4994 26.3462V23.8846C20.4994 23.7215 20.4346 23.5649 20.3192 23.4495C20.2038 23.3341 20.0472 23.2693 19.884 23.2693ZM19.2687 25.7308H13.1148V24.5H19.2687V25.7308Z" fill="#26C4F7"/>
</g>
<defs>
<clipPath id="clip0_94_1256">
<rect width="32" height="32" fill="white" transform="translate(0.114807)"/>
</clipPath>
</defs>
</svg>
