<svg width="33" height="32" viewBox="0 0 33 32" fill="none" xmlns="http://www.w3.org/2000/svg">
<g clip-path="url(#clip0_112_1131)">
<path d="M3 9C3 6.7425 4.17 4.38 6 3C6 4.2675 7.035 6 9 6C10.1935 6 11.3381 6.47411 12.182 7.31802C13.0259 8.16193 13.5 9.30653 13.5 10.5C13.5 11.079 13.3815 11.628 13.182 12.1365C14.2945 13.0197 15.3902 13.9238 16.4685 14.8485L13.3485 17.9685C12.4241 16.89 11.5199 15.7943 10.6365 14.682C10.1156 14.889 9.56054 14.9969 9 15C5.685 15 3 12.315 3 9ZM21.228 19.272L23.2395 17.2605C24.1711 17.7398 25.2024 17.9932 26.25 18C28.0402 18 29.7571 17.2888 31.023 16.023C32.2888 14.7571 33 13.0402 33 11.25C33 10.1625 32.718 9.1485 32.2605 8.2395L27 13.5L24 10.5L29.2605 5.2395C28.3289 4.76016 27.2976 4.50683 26.25 4.5C24.4598 4.5 22.7429 5.21116 21.477 6.47703C20.2112 7.7429 19.5 9.45979 19.5 11.25C19.5 12.3375 19.782 13.3515 20.2395 14.2605L4.5 30L7.5 33L17.772 22.728C20.5981 25.6255 23.5918 28.3546 26.7375 30.9015L28.875 32.625L31.125 30.375L29.4015 28.2375C26.8546 25.0918 24.1255 22.0981 21.228 19.272Z" fill="#26C4F7"/>
</g>
<defs>
<clipPath id="clip0_112_1131">
<rect width="32" height="32" fill="white" transform="translate(0.30481)"/>
</clipPath>
</defs>
</svg>
