<svg width="33" height="32" viewBox="0 0 33 32" fill="none" xmlns="http://www.w3.org/2000/svg">
<g clip-path="url(#clip0_116_196)">
<path d="M31.5206 2H33.7349V33H31.5206V2ZM22.6634 10.8571L21.0979 12.4226L25.0682 16.3929H13.6945C13.4201 15.0487 12.6564 13.8544 11.5515 13.0413C10.4466 12.2283 9.0791 11.8544 7.71421 11.9923C6.34932 12.1302 5.08424 12.77 4.16425 13.7876C3.24425 14.8052 2.73488 16.1282 2.73488 17.5C2.73488 18.8718 3.24425 20.1948 4.16425 21.2124C5.08424 22.23 6.34932 22.8698 7.71421 23.0077C9.0791 23.1456 10.4466 22.7717 11.5515 21.9587C12.6564 21.1456 13.4201 19.9513 13.6945 18.6071H25.0682L21.0979 22.5774L22.6634 24.1429L29.3063 17.5L22.6634 10.8571ZM8.27057 20.8214C7.61366 20.8214 6.97149 20.6266 6.42529 20.2617C5.87908 19.8967 5.45336 19.378 5.20197 18.7711C4.95058 18.1641 4.88481 17.4963 5.01296 16.852C5.14112 16.2077 5.45746 15.6159 5.92197 15.1514C6.38648 14.6869 6.9783 14.3705 7.6226 14.2424C8.26689 14.1142 8.93472 14.18 9.54163 14.4314C10.1485 14.6828 10.6673 15.1085 11.0322 15.6547C11.3972 16.2009 11.592 16.8431 11.592 17.5C11.5911 18.3806 11.2409 19.2249 10.6182 19.8476C9.99551 20.4703 9.1512 20.8205 8.27057 20.8214Z" fill="#26C4F7"/>
</g>
<defs>
<clipPath id="clip0_116_196">
<rect width="32" height="32" fill="white" transform="translate(0.734863)"/>
</clipPath>
</defs>
</svg>
