<svg width="33" height="32" viewBox="0 0 33 32" fill="none" xmlns="http://www.w3.org/2000/svg">
<g clip-path="url(#clip0_112_1133)">
<path fill-rule="evenodd" clip-rule="evenodd" d="M6.25815 5.60052C6.25815 4.8224 6.57422 4.07616 7.13683 3.52594C7.69944 2.97573 8.4625 2.66663 9.25815 2.66663H27.2581C28.0538 2.66663 28.8169 2.97573 29.3795 3.52594C29.9421 4.07616 30.2581 4.8224 30.2581 5.60052V29.0717C30.2581 29.8498 29.9421 30.5961 29.3795 31.1463C28.8169 31.6965 28.0538 32.0056 27.2581 32.0056H9.25815C8.4625 32.0056 7.69944 31.6965 7.13683 31.1463C6.57422 30.5961 6.25815 29.8498 6.25815 29.0717V5.60052ZM27.2581 5.60052H9.25815V29.0717H27.2581V5.60052ZM17.5801 9.6537C17.8614 9.92879 18.0193 10.3018 18.0193 10.6908C18.0193 11.0798 17.8614 11.4529 17.5801 11.728L14.6626 14.5782C14.3111 14.9218 13.8344 15.1148 13.3374 15.1148C12.8404 15.1148 12.3637 14.9218 12.0121 14.5782L10.6861 13.2815C10.5429 13.1461 10.4286 12.9843 10.35 12.8053C10.2714 12.6263 10.23 12.4338 10.2283 12.239C10.2265 12.0443 10.2645 11.8511 10.3399 11.6708C10.4153 11.4905 10.5267 11.3268 10.6676 11.189C10.8084 11.0513 10.9759 10.9424 11.1602 10.8686C11.3446 10.7948 11.5421 10.7577 11.7413 10.7594C11.9404 10.7611 12.1372 10.8016 12.3203 10.8785C12.5033 10.9553 12.6688 11.0671 12.8071 11.2072L13.3381 11.7265L15.4591 9.65223C15.7404 9.37722 16.1219 9.22273 16.5196 9.22273C16.9174 9.22273 17.2989 9.37869 17.5801 9.6537ZM19.7581 12.9353C19.7581 12.5462 19.9162 12.1731 20.1975 11.898C20.4788 11.6229 20.8603 11.4683 21.2581 11.4683H24.2581C24.656 11.4683 25.0375 11.6229 25.3188 11.898C25.6001 12.1731 25.7581 12.5462 25.7581 12.9353C25.7581 13.3243 25.6001 13.6974 25.3188 13.9726C25.0375 14.2477 24.656 14.4022 24.2581 14.4022H21.2581C20.8603 14.4022 20.4788 14.2477 20.1975 13.9726C19.9162 13.6974 19.7581 13.3243 19.7581 12.9353ZM10.7581 19.5365C10.7581 18.9529 10.9952 18.3933 11.4172 17.9806C11.8391 17.5679 12.4114 17.3361 13.0081 17.3361H16.0081C16.6049 17.3361 17.1772 17.5679 17.5991 17.9806C18.0211 18.3933 18.2581 18.9529 18.2581 19.5365V22.4704C18.2581 23.054 18.0211 23.6137 17.5991 24.0264C17.1772 24.439 16.6049 24.6708 16.0081 24.6708H13.0081C12.4114 24.6708 11.8391 24.439 11.4172 24.0264C10.9952 23.6137 10.7581 23.054 10.7581 22.4704V19.5365ZM13.7581 20.27V21.7369H15.2581V20.27H13.7581ZM19.7581 21.0035C19.7581 20.6144 19.9162 20.2413 20.1975 19.9662C20.4788 19.6911 20.8603 19.5365 21.2581 19.5365H24.2581C24.656 19.5365 25.0375 19.6911 25.3188 19.9662C25.6001 20.2413 25.7581 20.6144 25.7581 21.0035C25.7581 21.3925 25.6001 21.7657 25.3188 22.0408C25.0375 22.3159 24.656 22.4704 24.2581 22.4704H21.2581C20.8603 22.4704 20.4788 22.3159 20.1975 22.0408C19.9162 21.7657 19.7581 21.3925 19.7581 21.0035Z" fill="#26C4F7"/>
</g>
<defs>
<clipPath id="clip0_112_1133">
<rect width="32" height="32" fill="white" transform="translate(0.924835)"/>
</clipPath>
</defs>
</svg>
