<svg width="33" height="32" viewBox="0 0 33 32" fill="none" xmlns="http://www.w3.org/2000/svg">
<g clip-path="url(#clip0_112_1137)">
<path d="M16.0648 31C14.7969 31 13.5848 30.4963 11.1622 29.4903C5.13111 26.9855 2.11481 25.7331 2.11481 23.6267V8.90477M16.0648 31C17.3327 31 18.5448 30.4963 20.9675 29.4903C26.9985 26.9855 30.0148 25.7331 30.0148 23.6267V8.90477M16.0648 31V15.762M2.11481 8.90477C2.11481 9.83942 3.35791 10.4315 5.84256 11.6126L10.3686 13.7671C13.1663 15.097 14.5613 15.7635 16.0648 15.7635C17.5683 15.7635 18.9633 15.097 21.7611 13.7671L26.2871 11.6126C28.7717 10.4315 30.0148 9.83942 30.0148 8.90477M2.11481 8.90477C2.11481 7.96857 3.35791 7.37647 5.84256 6.19537L9.08981 4.65002M30.0148 8.90477C30.0148 7.96857 28.7717 7.37802 26.2871 6.19692L23.0398 4.65002M6.76481 17.2856L9.86481 18.8093" stroke="#26C4F7" stroke-width="3" stroke-linecap="round" stroke-linejoin="round"/>
<path d="M16.071 0V10.85M16.071 10.85C16.4786 10.8562 16.8801 10.571 17.1777 10.2223L19.1648 7.8461M16.071 10.85C15.6773 10.8454 15.2789 10.5617 14.9643 10.2223L12.9648 7.8461" stroke="#26C4F7" stroke-width="3" stroke-linecap="round"/>
</g>
<defs>
<clipPath id="clip0_112_1137">
<rect width="32" height="32" fill="white" transform="translate(0.114807)"/>
</clipPath>
</defs>
</svg>
