<svg width="33" height="32" viewBox="0 0 33 32" fill="none" xmlns="http://www.w3.org/2000/svg">
<g clip-path="url(#clip0_115_195)">
<path d="M24.7143 9.9H8.28571C6.47857 9.9 5 11.385 5 13.2V29.7C5 31.515 6.47857 33 8.28571 33H24.7143C26.5214 33 28 31.515 28 29.7V13.2C28 11.385 26.5214 9.9 24.7143 9.9ZM16.5 30.525C15.5964 30.525 14.8571 29.7825 14.8571 28.875V28.05H18.1429V28.875C18.1429 29.7825 17.4036 30.525 16.5 30.525ZM18.1429 26.4H14.8571C14.8571 23.925 10.75 21.45 10.75 18.15C10.75 14.9655 13.3293 12.375 16.5 12.375C19.6707 12.375 22.25 14.9655 22.25 18.15C22.25 21.45 18.1429 23.925 18.1429 26.4ZM26.3571 7.425H6.64286C6.64286 6.0555 7.74357 4.95 9.10714 4.95H23.8929C25.2564 4.95 26.3571 6.0555 26.3571 7.425ZM24.7143 2.475H8.28571C8.28571 1.1055 9.38643 0 10.75 0H22.25C23.6136 0 24.7143 1.1055 24.7143 2.475Z" fill="#26C4F7"/>
</g>
<defs>
<clipPath id="clip0_115_195">
<rect width="32" height="32" fill="white" transform="translate(0.30481)"/>
</clipPath>
</defs>
</svg>
