<svg width="33" height="32" viewBox="0 0 33 32" fill="none" xmlns="http://www.w3.org/2000/svg">
<path d="M17.275 28.974C16.8382 28.7423 16.4015 28.5135 15.9647 28.2818C14.9129 27.7262 13.8582 27.1706 12.8064 26.615C11.5377 25.9435 10.269 25.275 8.99739 24.6035C7.89809 24.0212 6.7958 23.4418 5.69644 22.8594C5.1646 22.5801 4.6387 22.2801 4.10095 22.0156C4.09203 22.0127 4.08609 22.0067 4.08015 22.0038C4.22871 22.2593 4.37429 22.5178 4.52285 22.7733V21.3828V18.061V14.0292V10.5589C4.52285 9.99732 4.5377 9.43279 4.52285 8.87129V8.84752C4.07718 9.10304 3.62853 9.36153 3.18286 9.61704C3.61962 9.84879 4.05637 10.0776 4.49313 10.3093C5.54489 10.8649 6.59964 11.4205 7.65146 11.9791C8.92016 12.6505 10.1888 13.322 11.4604 13.9905C12.5597 14.5729 13.662 15.1552 14.7614 15.7346C15.2932 16.0169 15.8191 16.314 16.3569 16.5784C16.3658 16.5814 16.3717 16.5873 16.3777 16.5903C16.2291 16.3348 16.0835 16.0763 15.935 15.8207V17.2083V20.527V24.5559V28.0232C15.935 28.5847 15.9231 29.1493 15.935 29.7108V29.7345C15.935 30.201 16.345 30.6467 16.8263 30.6259C17.3106 30.6051 17.7176 30.2337 17.7176 29.7345V28.347V25.0283V20.9994V17.5321C17.7176 16.9705 17.7295 16.406 17.7176 15.8445V15.8207C17.7176 15.5177 17.5513 15.1968 17.2749 15.0512C16.8382 14.8195 16.4014 14.5907 15.9647 14.359C14.9129 13.8033 13.8582 13.2478 12.8064 12.6892C11.5377 12.0177 10.269 11.3462 8.99737 10.6778C7.89807 10.0954 6.79577 9.51304 5.69642 8.93367C5.16458 8.65142 4.63574 8.36322 4.10092 8.08988C4.09201 8.08691 4.08607 8.08097 4.08013 8.078C3.48886 7.76603 2.74015 8.14931 2.74015 8.84752V10.238V13.5598V17.5916V21.0619C2.74015 21.6235 2.72826 22.188 2.74015 22.7495V22.7733C2.74015 23.0763 2.90653 23.3972 3.18284 23.5428C3.6196 23.7745 4.05635 24.0033 4.49311 24.2351C5.54487 24.7907 6.59962 25.3463 7.65144 25.9019C8.92014 26.5733 10.1888 27.2419 11.4604 27.9133C12.5597 28.4957 13.662 29.0751 14.7614 29.6574C15.2932 29.9397 15.822 30.2249 16.3569 30.5012C16.3658 30.5042 16.3717 30.5101 16.3777 30.5131C16.7907 30.73 17.3671 30.6319 17.5958 30.1922C17.8127 29.7822 17.7177 29.2058 17.275 28.974L17.275 28.974Z" fill="#26C4F7"/>
<path d="M29.5725 22.0063C29.1357 22.2381 28.699 22.4669 28.2622 22.6986C27.2105 23.2542 26.1557 23.8098 25.1039 24.3654C23.8352 25.0369 22.5665 25.7054 21.2949 26.3769C20.1956 26.9592 19.0933 27.5386 17.994 28.1209C17.4621 28.4002 16.9214 28.6706 16.3985 28.9647C16.3925 28.9677 16.3836 28.9737 16.3777 28.9766C16.8233 29.2321 17.272 29.4906 17.7176 29.7461V28.3586V25.0399V21.011V17.5437C17.7176 16.9821 17.7325 16.4176 17.7176 15.8561V15.8323C17.5691 16.0879 17.4235 16.3463 17.2749 16.6019C17.7117 16.3701 18.1485 16.1413 18.5852 15.9096C19.637 15.354 20.6917 14.7984 21.7435 14.2398C23.0122 13.5684 24.2809 12.8969 25.5525 12.2284C26.6518 11.646 27.7541 11.0637 28.8535 10.4843C29.3853 10.2021 29.926 9.93466 30.449 9.64052C30.4549 9.63755 30.4638 9.63161 30.4698 9.62864C30.0241 9.37312 29.5754 9.11463 29.1298 8.85912V10.2496V13.5714V17.6032V21.0735C29.1298 21.6351 29.1179 22.1996 29.1298 22.7611V22.7849C29.1298 23.2513 29.5398 23.697 30.0211 23.6762C30.5054 23.6554 30.9124 23.284 30.9124 22.7849V21.3944V18.0726V14.0408V10.5705C30.9124 10.0089 30.9243 9.44438 30.9124 8.88289V8.85912C30.9124 8.16088 30.1607 7.77764 29.5725 8.08959C29.1357 8.32134 28.699 8.55012 28.2622 8.78186C27.2104 9.33749 26.1557 9.89306 25.1039 10.4516C23.8352 11.1231 22.5665 11.7946 21.2949 12.4631C20.1956 13.0454 19.0933 13.6278 17.9939 14.2071C17.4621 14.4894 16.9214 14.7568 16.3984 15.0509C16.3925 15.0539 16.3836 15.0599 16.3776 15.0628C16.1043 15.2084 15.9349 15.5293 15.9349 15.8323V17.2199V20.5386V24.5675V28.0348C15.9349 28.5963 15.9231 29.1609 15.9349 29.7224V29.7461C15.9349 30.4444 16.6866 30.8276 17.2749 30.5157C17.7117 30.2839 18.1484 30.0551 18.5852 29.8234C19.6369 29.2678 20.6917 28.7122 21.7435 28.1566C23.0122 27.4851 24.2809 26.8166 25.5525 26.1451C26.6518 25.5628 27.7541 24.9834 28.8535 24.401C29.3853 24.1218 29.926 23.8514 30.4489 23.5573C30.4549 23.5543 30.4638 23.5483 30.4697 23.5454C30.8827 23.3285 31.0432 22.7194 30.7906 22.3272C30.5202 21.9053 30.0152 21.7716 29.5724 22.0063L29.5725 22.0063Z" fill="#26C4F7"/>
<path d="M29.5724 8.08057C29.1356 8.31232 28.6988 8.5411 28.2621 8.77284C27.2103 9.32846 26.1556 9.88404 25.1038 10.4426C23.8351 11.1141 22.5664 11.7856 21.2948 12.454C20.1955 13.0364 19.0932 13.6188 17.9938 14.1981C17.462 14.4804 16.9213 14.7478 16.3983 15.0419C16.3924 15.0449 16.3835 15.0508 16.3775 15.0538H17.2778C16.841 14.8221 16.4043 14.5933 15.9675 14.3615C14.9157 13.8059 13.861 13.2503 12.8092 12.6918C11.5405 12.0203 10.2718 11.3488 9.00019 10.6803C7.90089 10.098 6.7986 9.51562 5.69924 8.93625C5.16741 8.65399 4.6415 8.35987 4.10375 8.09246C4.09484 8.08948 4.0889 8.08354 4.08295 8.08057V9.61962C4.51971 9.38787 4.95646 9.15909 5.39322 8.92735C6.44498 8.37172 7.49973 7.81615 8.55155 7.26052C9.82025 6.58907 11.0889 5.92054 12.3605 5.24908C13.4598 4.66673 14.5621 4.08736 15.6615 3.505C16.1933 3.22274 16.7341 2.95535 17.257 2.66121C17.2629 2.65824 17.2718 2.65229 17.2778 2.64932H16.3775C16.8143 2.88107 17.251 3.10985 17.6878 3.34159C18.7396 3.89722 19.7943 4.45279 20.8461 5.00842C22.1148 5.67988 23.3835 6.3484 24.6551 7.01986C25.7544 7.60221 26.8567 8.18158 27.9561 8.76394C28.4879 9.0462 29.0167 9.3344 29.5516 9.60773C29.5605 9.6107 29.5664 9.61664 29.5724 9.61962C29.9853 9.83651 30.5618 9.73846 30.7905 9.29874C31.0074 8.88574 30.9124 8.31233 30.4697 8.08056C30.027 7.84584 29.5872 7.61409 29.1445 7.37938C28.0898 6.82082 27.035 6.2652 25.9773 5.70663C24.7026 5.03518 23.431 4.36073 22.1564 3.68922C21.06 3.10985 19.9637 2.53048 18.8643 1.95111C18.3384 1.6748 17.8215 1.38364 17.2897 1.11922C16.9747 0.96175 16.6657 0.958778 16.3537 1.11922C16.2943 1.14893 16.2378 1.18161 16.1814 1.21132C15.908 1.35691 15.6347 1.49952 15.3643 1.64511C14.3719 2.16803 13.3826 2.69394 12.3902 3.21686C11.1186 3.88832 9.84696 4.55983 8.57527 5.23129C7.43136 5.83446 6.28751 6.44056 5.1436 7.04367C4.51669 7.37346 3.89277 7.70328 3.26587 8.03605C3.23615 8.0509 3.20644 8.06576 3.17971 8.08359C2.60034 8.38961 2.60034 9.31659 3.17971 9.62263C3.6224 9.85735 4.06212 10.0891 4.50486 10.3238C5.55961 10.8824 6.61436 11.438 7.6721 11.9966C8.94672 12.671 10.2184 13.3425 11.493 14.017C12.5894 14.5963 13.6857 15.1757 14.785 15.7551C15.3109 16.0314 15.8279 16.3225 16.3597 16.587C16.6746 16.7444 16.9836 16.7474 17.2956 16.587C17.3551 16.5573 17.4115 16.5246 17.468 16.4949C17.7413 16.3493 18.0146 16.2067 18.285 16.0611C19.2774 15.5381 20.2668 15.0122 21.2591 14.4893C22.5308 13.8179 23.8024 13.1463 25.0741 12.4749C26.218 11.8688 27.3619 11.2656 28.5058 10.6595C29.1327 10.3297 29.7566 9.99698 30.3835 9.66714C30.4132 9.65229 30.4429 9.63743 30.4697 9.61961C30.8826 9.40271 31.0431 8.79363 30.7905 8.40143C30.5202 7.9825 30.0151 7.84879 29.5724 8.08055V8.08057Z" fill="#26C4F7"/>
<path d="M10.6788 13.1136C11.1156 12.8819 11.5524 12.6531 11.9891 12.4213C13.0409 11.8657 14.0956 11.3101 15.1474 10.7516C16.4161 10.0801 17.6848 9.40862 18.9564 8.74015C20.0557 8.15779 21.158 7.57543 22.2574 6.99606C22.7892 6.7138 23.3299 6.44641 23.8529 6.15227C23.8588 6.1493 23.8677 6.14336 23.8737 6.14039C24.2867 5.92349 24.4471 5.31442 24.1945 4.92221C23.9242 4.50328 23.4161 4.36957 22.9764 4.60133C22.5396 4.83308 22.1029 5.06186 21.6661 5.2936C20.6143 5.84922 19.5596 6.4048 18.5078 6.96336C17.2391 7.63482 15.9704 8.30633 14.6988 8.9748C13.5995 9.55716 12.4972 10.1395 11.3978 10.7189C10.866 11.0011 10.3253 11.2685 9.80235 11.5627C9.79641 11.5656 9.78749 11.5716 9.78155 11.5746C9.36856 11.7915 9.2081 12.4005 9.46067 12.7927C9.72807 13.2117 10.2361 13.3454 10.6788 13.1136Z" fill="#26C4F7"/>
</svg>
