<svg width="32" height="32" viewBox="0 0 32 32" fill="none" xmlns="http://www.w3.org/2000/svg">
<mask id="path-1-outside-1_58_1236" maskUnits="userSpaceOnUse" x="2.29297" y="0" width="27" height="32" fill="black">
<rect fill="white" x="2.29297" width="27" height="32"/>
<path d="M22.9326 7.5959L23.5644 6.51034C24.6318 7.17724 24.8835 7.46844 25.0603 7.18929C25.3133 6.78993 25.3959 6.31569 25.293 5.85425C25.1902 5.39258 24.9141 4.99876 24.5159 4.74526L24.3504 4.63975C22.9769 3.76521 21.5005 5.19679 21.983 5.50346L23.1754 6.26259L22.5433 7.34815C20.6914 6.22853 18.5328 5.57177 16.2262 5.53097L16.1939 3.67824H17.4429C18.1795 3.67824 18.7788 3.07749 18.7788 2.33912C18.7791 1.60101 18.1797 1 17.4431 1H14.4627C13.7261 1 13.1267 1.60075 13.1267 2.33912C13.1267 3.07748 13.726 3.67824 14.4627 3.67824H15.7335L15.7658 5.53122C13.4666 5.57323 11.3142 6.22785 9.46659 7.34265L8.82631 6.26166C9.69445 5.62907 10.3008 5.5204 10.0883 5.185C9.56632 4.36091 8.47246 4.11582 7.64983 4.63955L7.48458 4.74506C7.0864 4.9986 6.81008 5.39243 6.70728 5.85405C6.60442 6.31548 6.68704 6.78972 6.93997 7.1891C7.00717 7.29485 7.14882 7.32938 7.2577 7.26008L8.43731 6.50918L9.07735 7.58949C5.59874 9.86477 3.29297 13.798 3.29297 18.2628C3.29297 25.286 8.99348 31 16 31C23.0065 31 28.707 25.2859 28.707 18.2628C28.707 13.8018 26.4059 9.87186 22.9326 7.5959ZM23.119 4.85683C23.4597 4.78029 23.8094 4.84186 24.1038 5.02924L24.2693 5.13475C24.8175 5.4839 25.0122 6.16648 24.7783 6.73633L22.4412 5.24849C22.6204 5.05267 22.8546 4.91599 23.119 4.85683ZM13.5872 2.33918C13.5872 1.8553 13.9801 1.46174 14.4626 1.46174H17.4431C17.9258 1.46174 18.3184 1.85556 18.3184 2.33918C18.3184 2.82306 17.9255 3.21662 17.4431 3.21662L14.4626 3.21686C13.9801 3.21686 13.5872 2.82305 13.5872 2.33918ZM7.22264 6.73639C6.98826 6.16582 7.18386 5.48344 7.73187 5.13481L7.89712 5.02929C8.45525 4.67435 9.15284 4.80305 9.55971 5.24854L7.22264 6.73639ZM16.0003 30.5388C9.24716 30.5388 3.75328 25.0319 3.75328 18.2627C3.75328 11.4942 9.24716 5.98721 16.0003 5.98721C22.7534 5.98721 28.2472 11.4942 28.2472 18.2633C28.2472 25.0319 22.7534 30.5388 16.0003 30.5388Z"/>
<path d="M26.1524 22.4783C26.6893 21.1817 26.9873 19.7615 26.9873 18.2724C26.9873 16.7834 26.6893 15.3632 26.1524 14.0668C26.1515 14.0646 26.152 14.0622 26.151 14.06C26.1503 14.0581 26.1486 14.0569 26.1476 14.0549C22.1713 4.48109 8.91856 5.64575 5.85941 14.0675C2.837 21.3692 8.30023 29.2802 16.006 29.2802C20.4935 29.2802 24.4628 26.5452 26.147 22.4907C26.1479 22.4886 26.1499 22.4869 26.1509 22.4844C26.1518 22.4825 26.1517 22.4803 26.1524 22.4783ZM24.5639 22.0768L25.6306 22.5196C25.1322 23.6498 24.4416 24.6759 23.6 25.5569C22.6626 24.7169 22.4176 24.1273 22.1322 24.4134C22.0419 24.5039 22.0419 24.6507 22.1322 24.7412L23.273 25.8847C22.3941 26.7281 21.3708 27.4204 20.2431 27.92C19.8802 27.1991 19.8614 26.5757 19.499 26.7255C19.1372 26.8754 19.5651 27.335 19.8156 28.0979C18.7017 28.5334 17.4968 28.7831 16.2375 28.8105V27.1887C16.2375 26.8818 15.7749 26.8821 15.7749 27.1887V28.8105C14.5156 28.7831 13.3106 28.5332 12.1967 28.0976C12.448 27.3329 12.8754 26.8754 12.5136 26.7255C12.1498 26.5746 12.1244 27.2154 11.7695 27.92C10.6421 27.4204 9.61845 26.7281 8.73961 25.8847C9.57755 24.945 10.1658 24.6994 9.88037 24.4133C9.59572 24.128 9.36046 24.7076 8.41257 25.5566C7.57123 24.6756 6.88064 23.6497 6.38226 22.5195C7.09943 22.1567 7.7239 22.1366 7.57408 21.7736C7.42401 21.4111 6.96581 21.8401 6.20505 22.0912C5.77058 20.9746 5.52128 19.7667 5.49389 18.5043H7.1117C7.2395 18.5043 7.3431 18.4007 7.3431 18.2723C7.3431 18.1442 7.2395 18.0404 7.1117 18.0404H5.49389C5.52124 16.7779 5.77054 15.5701 6.20505 14.4532L7.27175 14.8963C7.30056 14.9082 7.33081 14.914 7.3601 14.914C7.45087 14.914 7.53704 14.8601 7.57383 14.7708C7.62272 14.6524 7.56681 14.5168 7.44869 14.4678L6.38198 14.0247C6.88036 12.8945 7.57095 11.8684 8.41254 10.9874L9.55329 12.1307C9.59856 12.1761 9.65761 12.1986 9.71691 12.1986C9.77622 12.1986 9.83528 12.1761 9.88054 12.1307C9.97082 12.0402 9.97082 11.8934 9.88054 11.8029L8.73978 10.6596C9.61868 9.81621 10.642 9.12393 11.7697 8.62434L12.2114 9.69365C12.2485 9.78294 12.3344 9.83681 12.4251 9.83681C12.4547 9.83681 12.4844 9.83123 12.5135 9.81909C12.8754 9.66914 12.4474 9.20935 12.1969 8.44672C13.3103 8.01119 14.5152 7.76128 15.7746 7.73382C15.846 9.00986 15.6037 9.58734 16.006 9.58734C16.4085 9.58734 16.1662 9.0072 16.2374 7.73382C17.4967 7.76124 18.7017 8.01116 19.8155 8.44672C19.5643 9.21148 19.1366 9.66915 19.4987 9.81909C19.5277 9.83098 19.5577 9.83681 19.587 9.83681C19.8572 9.83681 19.8235 9.52429 20.2427 8.62432C21.3704 9.12367 22.3938 9.81619 23.2726 10.6596L22.1319 11.8031C22.0416 11.8936 22.0416 12.0404 22.1319 12.1309C22.1771 12.1763 22.2362 12.1989 22.2955 12.1989C22.3548 12.1989 22.4139 12.1763 22.4591 12.1309L23.5999 10.9874C24.4412 11.8684 25.1318 12.8945 25.6302 14.0247L24.5635 14.4678C24.4454 14.5168 24.3894 14.6524 24.4383 14.7708C24.4754 14.8601 24.5613 14.914 24.6521 14.914C24.6816 14.914 24.7116 14.9084 24.7404 14.8963L25.8071 14.4532C26.2416 15.5698 26.4909 16.7777 26.5183 18.0404H24.9005C24.7727 18.0404 24.6691 18.144 24.6691 18.2723C24.6691 18.4004 24.7727 18.5043 24.9005 18.5043H26.5183C26.4909 19.7667 26.2416 20.9746 25.8071 22.0912L24.7404 21.6484C24.6218 21.5994 24.487 21.6557 24.4381 21.7738C24.3894 21.892 24.4458 22.0278 24.5639 22.0768Z"/>
</mask>
<path d="M22.9326 7.5959L23.5644 6.51034C24.6318 7.17724 24.8835 7.46844 25.0603 7.18929C25.3133 6.78993 25.3959 6.31569 25.293 5.85425C25.1902 5.39258 24.9141 4.99876 24.5159 4.74526L24.3504 4.63975C22.9769 3.76521 21.5005 5.19679 21.983 5.50346L23.1754 6.26259L22.5433 7.34815C20.6914 6.22853 18.5328 5.57177 16.2262 5.53097L16.1939 3.67824H17.4429C18.1795 3.67824 18.7788 3.07749 18.7788 2.33912C18.7791 1.60101 18.1797 1 17.4431 1H14.4627C13.7261 1 13.1267 1.60075 13.1267 2.33912C13.1267 3.07748 13.726 3.67824 14.4627 3.67824H15.7335L15.7658 5.53122C13.4666 5.57323 11.3142 6.22785 9.46659 7.34265L8.82631 6.26166C9.69445 5.62907 10.3008 5.5204 10.0883 5.185C9.56632 4.36091 8.47246 4.11582 7.64983 4.63955L7.48458 4.74506C7.0864 4.9986 6.81008 5.39243 6.70728 5.85405C6.60442 6.31548 6.68704 6.78972 6.93997 7.1891C7.00717 7.29485 7.14882 7.32938 7.2577 7.26008L8.43731 6.50918L9.07735 7.58949C5.59874 9.86477 3.29297 13.798 3.29297 18.2628C3.29297 25.286 8.99348 31 16 31C23.0065 31 28.707 25.2859 28.707 18.2628C28.707 13.8018 26.4059 9.87186 22.9326 7.5959ZM23.119 4.85683C23.4597 4.78029 23.8094 4.84186 24.1038 5.02924L24.2693 5.13475C24.8175 5.4839 25.0122 6.16648 24.7783 6.73633L22.4412 5.24849C22.6204 5.05267 22.8546 4.91599 23.119 4.85683ZM13.5872 2.33918C13.5872 1.8553 13.9801 1.46174 14.4626 1.46174H17.4431C17.9258 1.46174 18.3184 1.85556 18.3184 2.33918C18.3184 2.82306 17.9255 3.21662 17.4431 3.21662L14.4626 3.21686C13.9801 3.21686 13.5872 2.82305 13.5872 2.33918ZM7.22264 6.73639C6.98826 6.16582 7.18386 5.48344 7.73187 5.13481L7.89712 5.02929C8.45525 4.67435 9.15284 4.80305 9.55971 5.24854L7.22264 6.73639ZM16.0003 30.5388C9.24716 30.5388 3.75328 25.0319 3.75328 18.2627C3.75328 11.4942 9.24716 5.98721 16.0003 5.98721C22.7534 5.98721 28.2472 11.4942 28.2472 18.2633C28.2472 25.0319 22.7534 30.5388 16.0003 30.5388Z" fill="#26C4F7"/>
<path d="M26.1524 22.4783C26.6893 21.1817 26.9873 19.7615 26.9873 18.2724C26.9873 16.7834 26.6893 15.3632 26.1524 14.0668C26.1515 14.0646 26.152 14.0622 26.151 14.06C26.1503 14.0581 26.1486 14.0569 26.1476 14.0549C22.1713 4.48109 8.91856 5.64575 5.85941 14.0675C2.837 21.3692 8.30023 29.2802 16.006 29.2802C20.4935 29.2802 24.4628 26.5452 26.147 22.4907C26.1479 22.4886 26.1499 22.4869 26.1509 22.4844C26.1518 22.4825 26.1517 22.4803 26.1524 22.4783ZM24.5639 22.0768L25.6306 22.5196C25.1322 23.6498 24.4416 24.6759 23.6 25.5569C22.6626 24.7169 22.4176 24.1273 22.1322 24.4134C22.0419 24.5039 22.0419 24.6507 22.1322 24.7412L23.273 25.8847C22.3941 26.7281 21.3708 27.4204 20.2431 27.92C19.8802 27.1991 19.8614 26.5757 19.499 26.7255C19.1372 26.8754 19.5651 27.335 19.8156 28.0979C18.7017 28.5334 17.4968 28.7831 16.2375 28.8105V27.1887C16.2375 26.8818 15.7749 26.8821 15.7749 27.1887V28.8105C14.5156 28.7831 13.3106 28.5332 12.1967 28.0976C12.448 27.3329 12.8754 26.8754 12.5136 26.7255C12.1498 26.5746 12.1244 27.2154 11.7695 27.92C10.6421 27.4204 9.61845 26.7281 8.73961 25.8847C9.57755 24.945 10.1658 24.6994 9.88037 24.4133C9.59572 24.128 9.36046 24.7076 8.41257 25.5566C7.57123 24.6756 6.88064 23.6497 6.38226 22.5195C7.09943 22.1567 7.7239 22.1366 7.57408 21.7736C7.42401 21.4111 6.96581 21.8401 6.20505 22.0912C5.77058 20.9746 5.52128 19.7667 5.49389 18.5043H7.1117C7.2395 18.5043 7.3431 18.4007 7.3431 18.2723C7.3431 18.1442 7.2395 18.0404 7.1117 18.0404H5.49389C5.52124 16.7779 5.77054 15.5701 6.20505 14.4532L7.27175 14.8963C7.30056 14.9082 7.33081 14.914 7.3601 14.914C7.45087 14.914 7.53704 14.8601 7.57383 14.7708C7.62272 14.6524 7.56681 14.5168 7.44869 14.4678L6.38198 14.0247C6.88036 12.8945 7.57095 11.8684 8.41254 10.9874L9.55329 12.1307C9.59856 12.1761 9.65761 12.1986 9.71691 12.1986C9.77622 12.1986 9.83528 12.1761 9.88054 12.1307C9.97082 12.0402 9.97082 11.8934 9.88054 11.8029L8.73978 10.6596C9.61868 9.81621 10.642 9.12393 11.7697 8.62434L12.2114 9.69365C12.2485 9.78294 12.3344 9.83681 12.4251 9.83681C12.4547 9.83681 12.4844 9.83123 12.5135 9.81909C12.8754 9.66914 12.4474 9.20935 12.1969 8.44672C13.3103 8.01119 14.5152 7.76128 15.7746 7.73382C15.846 9.00986 15.6037 9.58734 16.006 9.58734C16.4085 9.58734 16.1662 9.0072 16.2374 7.73382C17.4967 7.76124 18.7017 8.01116 19.8155 8.44672C19.5643 9.21148 19.1366 9.66915 19.4987 9.81909C19.5277 9.83098 19.5577 9.83681 19.587 9.83681C19.8572 9.83681 19.8235 9.52429 20.2427 8.62432C21.3704 9.12367 22.3938 9.81619 23.2726 10.6596L22.1319 11.8031C22.0416 11.8936 22.0416 12.0404 22.1319 12.1309C22.1771 12.1763 22.2362 12.1989 22.2955 12.1989C22.3548 12.1989 22.4139 12.1763 22.4591 12.1309L23.5999 10.9874C24.4412 11.8684 25.1318 12.8945 25.6302 14.0247L24.5635 14.4678C24.4454 14.5168 24.3894 14.6524 24.4383 14.7708C24.4754 14.8601 24.5613 14.914 24.6521 14.914C24.6816 14.914 24.7116 14.9084 24.7404 14.8963L25.8071 14.4532C26.2416 15.5698 26.4909 16.7777 26.5183 18.0404H24.9005C24.7727 18.0404 24.6691 18.144 24.6691 18.2723C24.6691 18.4004 24.7727 18.5043 24.9005 18.5043H26.5183C26.4909 19.7667 26.2416 20.9746 25.8071 22.0912L24.7404 21.6484C24.6218 21.5994 24.487 21.6557 24.4381 21.7738C24.3894 21.892 24.4458 22.0278 24.5639 22.0768Z" fill="#26C4F7"/>
<path d="M22.9326 7.5959L23.5644 6.51034C24.6318 7.17724 24.8835 7.46844 25.0603 7.18929C25.3133 6.78993 25.3959 6.31569 25.293 5.85425C25.1902 5.39258 24.9141 4.99876 24.5159 4.74526L24.3504 4.63975C22.9769 3.76521 21.5005 5.19679 21.983 5.50346L23.1754 6.26259L22.5433 7.34815C20.6914 6.22853 18.5328 5.57177 16.2262 5.53097L16.1939 3.67824H17.4429C18.1795 3.67824 18.7788 3.07749 18.7788 2.33912C18.7791 1.60101 18.1797 1 17.4431 1H14.4627C13.7261 1 13.1267 1.60075 13.1267 2.33912C13.1267 3.07748 13.726 3.67824 14.4627 3.67824H15.7335L15.7658 5.53122C13.4666 5.57323 11.3142 6.22785 9.46659 7.34265L8.82631 6.26166C9.69445 5.62907 10.3008 5.5204 10.0883 5.185C9.56632 4.36091 8.47246 4.11582 7.64983 4.63955L7.48458 4.74506C7.0864 4.9986 6.81008 5.39243 6.70728 5.85405C6.60442 6.31548 6.68704 6.78972 6.93997 7.1891C7.00717 7.29485 7.14882 7.32938 7.2577 7.26008L8.43731 6.50918L9.07735 7.58949C5.59874 9.86477 3.29297 13.798 3.29297 18.2628C3.29297 25.286 8.99348 31 16 31C23.0065 31 28.707 25.2859 28.707 18.2628C28.707 13.8018 26.4059 9.87186 22.9326 7.5959ZM23.119 4.85683C23.4597 4.78029 23.8094 4.84186 24.1038 5.02924L24.2693 5.13475C24.8175 5.4839 25.0122 6.16648 24.7783 6.73633L22.4412 5.24849C22.6204 5.05267 22.8546 4.91599 23.119 4.85683ZM13.5872 2.33918C13.5872 1.8553 13.9801 1.46174 14.4626 1.46174H17.4431C17.9258 1.46174 18.3184 1.85556 18.3184 2.33918C18.3184 2.82306 17.9255 3.21662 17.4431 3.21662L14.4626 3.21686C13.9801 3.21686 13.5872 2.82305 13.5872 2.33918ZM7.22264 6.73639C6.98826 6.16582 7.18386 5.48344 7.73187 5.13481L7.89712 5.02929C8.45525 4.67435 9.15284 4.80305 9.55971 5.24854L7.22264 6.73639ZM16.0003 30.5388C9.24716 30.5388 3.75328 25.0319 3.75328 18.2627C3.75328 11.4942 9.24716 5.98721 16.0003 5.98721C22.7534 5.98721 28.2472 11.4942 28.2472 18.2633C28.2472 25.0319 22.7534 30.5388 16.0003 30.5388Z" stroke="#26C4F7" stroke-width="0.6" mask="url(#path-1-outside-1_58_1236)"/>
<path d="M26.1524 22.4783C26.6893 21.1817 26.9873 19.7615 26.9873 18.2724C26.9873 16.7834 26.6893 15.3632 26.1524 14.0668C26.1515 14.0646 26.152 14.0622 26.151 14.06C26.1503 14.0581 26.1486 14.0569 26.1476 14.0549C22.1713 4.48109 8.91856 5.64575 5.85941 14.0675C2.837 21.3692 8.30023 29.2802 16.006 29.2802C20.4935 29.2802 24.4628 26.5452 26.147 22.4907C26.1479 22.4886 26.1499 22.4869 26.1509 22.4844C26.1518 22.4825 26.1517 22.4803 26.1524 22.4783ZM24.5639 22.0768L25.6306 22.5196C25.1322 23.6498 24.4416 24.6759 23.6 25.5569C22.6626 24.7169 22.4176 24.1273 22.1322 24.4134C22.0419 24.5039 22.0419 24.6507 22.1322 24.7412L23.273 25.8847C22.3941 26.7281 21.3708 27.4204 20.2431 27.92C19.8802 27.1991 19.8614 26.5757 19.499 26.7255C19.1372 26.8754 19.5651 27.335 19.8156 28.0979C18.7017 28.5334 17.4968 28.7831 16.2375 28.8105V27.1887C16.2375 26.8818 15.7749 26.8821 15.7749 27.1887V28.8105C14.5156 28.7831 13.3106 28.5332 12.1967 28.0976C12.448 27.3329 12.8754 26.8754 12.5136 26.7255C12.1498 26.5746 12.1244 27.2154 11.7695 27.92C10.6421 27.4204 9.61845 26.7281 8.73961 25.8847C9.57755 24.945 10.1658 24.6994 9.88037 24.4133C9.59572 24.128 9.36046 24.7076 8.41257 25.5566C7.57123 24.6756 6.88064 23.6497 6.38226 22.5195C7.09943 22.1567 7.7239 22.1366 7.57408 21.7736C7.42401 21.4111 6.96581 21.8401 6.20505 22.0912C5.77058 20.9746 5.52128 19.7667 5.49389 18.5043H7.1117C7.2395 18.5043 7.3431 18.4007 7.3431 18.2723C7.3431 18.1442 7.2395 18.0404 7.1117 18.0404H5.49389C5.52124 16.7779 5.77054 15.5701 6.20505 14.4532L7.27175 14.8963C7.30056 14.9082 7.33081 14.914 7.3601 14.914C7.45087 14.914 7.53704 14.8601 7.57383 14.7708C7.62272 14.6524 7.56681 14.5168 7.44869 14.4678L6.38198 14.0247C6.88036 12.8945 7.57095 11.8684 8.41254 10.9874L9.55329 12.1307C9.59856 12.1761 9.65761 12.1986 9.71691 12.1986C9.77622 12.1986 9.83528 12.1761 9.88054 12.1307C9.97082 12.0402 9.97082 11.8934 9.88054 11.8029L8.73978 10.6596C9.61868 9.81621 10.642 9.12393 11.7697 8.62434L12.2114 9.69365C12.2485 9.78294 12.3344 9.83681 12.4251 9.83681C12.4547 9.83681 12.4844 9.83123 12.5135 9.81909C12.8754 9.66914 12.4474 9.20935 12.1969 8.44672C13.3103 8.01119 14.5152 7.76128 15.7746 7.73382C15.846 9.00986 15.6037 9.58734 16.006 9.58734C16.4085 9.58734 16.1662 9.0072 16.2374 7.73382C17.4967 7.76124 18.7017 8.01116 19.8155 8.44672C19.5643 9.21148 19.1366 9.66915 19.4987 9.81909C19.5277 9.83098 19.5577 9.83681 19.587 9.83681C19.8572 9.83681 19.8235 9.52429 20.2427 8.62432C21.3704 9.12367 22.3938 9.81619 23.2726 10.6596L22.1319 11.8031C22.0416 11.8936 22.0416 12.0404 22.1319 12.1309C22.1771 12.1763 22.2362 12.1989 22.2955 12.1989C22.3548 12.1989 22.4139 12.1763 22.4591 12.1309L23.5999 10.9874C24.4412 11.8684 25.1318 12.8945 25.6302 14.0247L24.5635 14.4678C24.4454 14.5168 24.3894 14.6524 24.4383 14.7708C24.4754 14.8601 24.5613 14.914 24.6521 14.914C24.6816 14.914 24.7116 14.9084 24.7404 14.8963L25.8071 14.4532C26.2416 15.5698 26.4909 16.7777 26.5183 18.0404H24.9005C24.7727 18.0404 24.6691 18.144 24.6691 18.2723C24.6691 18.4004 24.7727 18.5043 24.9005 18.5043H26.5183C26.4909 19.7667 26.2416 20.9746 25.8071 22.0912L24.7404 21.6484C24.6218 21.5994 24.487 21.6557 24.4381 21.7738C24.3894 21.892 24.4458 22.0278 24.5639 22.0768Z" stroke="#26C4F7" stroke-width="0.6" mask="url(#path-1-outside-1_58_1236)"/>
<rect x="15.5" y="11" width="1" height="8" rx="0.5" fill="#26C4F7"/>
</svg>
