<svg width="32" height="32" viewBox="0 0 32 32" fill="none" xmlns="http://www.w3.org/2000/svg">
<path d="M26.3555 4.9502C27.109 4.95109 27.8323 5.23279 28.3662 5.73535C28.9001 6.23794 29.2013 6.92065 29.2021 7.63281V23.6455H30.5498C30.6813 23.6455 30.8084 23.6949 30.9023 23.7832C30.9962 23.8718 31.0497 23.9925 31.0498 24.1191V25.748C31.0493 26.094 30.9032 26.4251 30.6445 26.6689C30.3855 26.9127 30.035 27.0494 29.6699 27.0498H2.33008C1.96503 27.0494 1.61444 26.9127 1.35547 26.6689C1.09675 26.4251 0.950693 26.094 0.950195 25.748V24.1182C0.950195 23.8539 1.17708 23.6445 1.4502 23.6445H2.79785V7.63086L2.8125 7.36523C2.87834 6.75105 3.16676 6.17384 3.63379 5.73438C4.16775 5.23234 4.89103 4.951 5.64453 4.9502H26.3555ZM1.9502 25.748C1.95055 25.941 2.11736 26.1021 2.33008 26.1025H29.6699C29.8825 26.102 30.0495 25.9409 30.0498 25.748V24.5928H19.9053C19.8533 24.8141 19.726 25.0129 19.542 25.1582C19.3465 25.3125 19.0998 25.3968 18.8457 25.3975H13.1514C12.8975 25.3968 12.6512 25.3124 12.4561 25.1582C12.2719 25.0129 12.1448 24.814 12.0928 24.5928H1.9502V25.748ZM6.02637 7.63574C5.81402 7.63628 5.64689 7.79733 5.64648 7.99023V23.6455H12.5664C12.698 23.6456 12.8249 23.6949 12.9189 23.7832C13.0129 23.8718 13.0663 23.9925 13.0664 24.1191V24.3721C13.0669 24.4129 13.1029 24.451 13.1533 24.4512H18.8467C18.8973 24.451 18.9332 24.4129 18.9336 24.3721V24.1191C18.9338 23.855 19.1605 23.6456 19.4336 23.6455H26.3535V7.99023C26.3531 7.79737 26.1859 7.63632 25.9736 7.63574H6.02637ZM5.64453 5.89551C5.1539 5.89616 4.6838 6.08026 4.33789 6.40625C3.99195 6.73221 3.79805 7.17359 3.79785 7.63281V23.6455H4.64648V7.99023C4.64697 7.64413 4.79389 7.31299 5.05273 7.06934C5.31168 6.82565 5.66161 6.68912 6.02637 6.68848H25.9736L26.1094 6.69434C26.4244 6.72423 26.7207 6.85605 26.9473 7.06934C27.2061 7.31298 27.353 7.64413 27.3535 7.99023V23.6445H28.2021V7.63086C28.2015 7.17183 28.007 6.73082 27.6611 6.40527C27.3152 6.07977 26.8458 5.89615 26.3555 5.89551H5.64453Z" fill="#26C4F7" stroke="#26C4F7" stroke-width="0.1"/>
<path d="M13.8637 18.5742L13.0493 11.4326C13.03 11.2627 13.2188 11.1484 13.3603 11.2444L19.5803 15.4635C19.7305 15.5654 19.6783 15.7986 19.499 15.8266L17.8163 16.09C17.6749 16.1122 17.6019 16.2714 17.6773 16.393L19.1827 18.8217C19.2445 18.9214 19.2076 19.0527 19.1028 19.1056L17.4919 19.9188C17.4005 19.965 17.289 19.9347 17.2336 19.8486L15.6915 17.4542C15.6207 17.3444 15.4654 17.3308 15.3766 17.4267L14.2091 18.6874C14.0929 18.8129 13.883 18.7441 13.8637 18.5742Z" fill="#26C4F7"/>
</svg>
