<svg width="32" height="32" viewBox="0 0 32 32" fill="none" xmlns="http://www.w3.org/2000/svg">
<path d="M6 6.5H5C4.72386 6.5 4.5 6.72386 4.5 7V30C4.5 30.2761 4.72386 30.5 5 30.5H21C21.2761 30.5 21.5 30.2761 21.5 30V29H23V30C23 31.1046 22.1046 32 21 32H5C3.89543 32 3 31.1046 3 30V7C3 5.89543 3.89543 5 5 5H6V6.5Z" fill="#26C4F7"/>
<path d="M8 2.75H17.209C17.5266 2.75 17.8328 2.87069 18.0645 3.08789L24.8545 9.4541C25.1065 9.69035 25.2499 10.0208 25.25 10.3662V27C25.25 27.6904 24.6904 28.25 24 28.25H8C7.30964 28.25 6.75 27.6904 6.75 27V4C6.75 3.30964 7.30964 2.75 8 2.75Z" stroke="#26C4F7" stroke-width="1.5"/>
<path d="M15.5 11H21V13.5H15.5V15.5L11 12.5L15.5 9V11Z" fill="#26C4F7"/>
<path d="M16.5 21.5L11 21.5L11 19L16.5 19L16.5 17L21 20L16.5 23.5L16.5 21.5Z" fill="#26C4F7"/>
</svg>
