<?xml version="1.0" encoding="UTF-8"?><svg id="Layer_2" xmlns="http://www.w3.org/2000/svg" width="265.68mm" height="243.98mm" viewBox="0 0 753.1 691.59"><g id="_"><g><path d="M7.5,687.09c3.73,2.5,6.42,4.5,12.75,4.5H732.85c6.33,0,9.02-2,12.75-4.5-2.54-3.8-57.25-43.51-65.69-49.83-2.57-1.93-194.78-145.92-199.1-148.2l-86.58,67.19c-11.06,8.35-23.9,8.7-34.94,.32l-87.01-67.51c-4.62,2.44-240.99,179.48-248.49,185.07-4.29,3.2-13.77,9.18-16.3,12.96Z" style="fill:#fff; fill-rule:evenodd;"/><path d="M126.77,178.52c-5.5,2.91-118.83,86.74-120.02,88.51l138.02,101.28c5.1,3.7,6.15,3.92,6.03-4.49-.61-43.63-.03-91.29-.03-135.04V120.76c-.05-7.34,.66-10.17,3.71-14.29,2-2.71,7.34-5.96,12.04-5.96h420.06c9.8,0,15.84,8.03,15.76,19.49-.57,80.38,.95,163.12-.02,243.06-.08,6.65-.23,9.17,3.43,7.21l33.34-24.48c2.9-2.04,5.52-4.13,8.58-6.43l89.8-66.22c2.63-1.99,7.33-4.52,8.9-6.86-15.31-10.25-45.06-32.65-59.79-43.72l-52.27-38.49c-3.05-2.1-4.78-3.87-7.95-5.55,0-17.75,0-35.5,0-53.26,0-10.42,.24-15.59-3.24-23.01-5.47-11.66-15.53-21.34-28.58-24.68-11.77-3.01-99.89,.37-105.89-1.38-3.3-.96-96.08-71.48-101.12-73.66-12.27-5.3-20.36-1.7-29.5,5.17l-88.51,65.26c-.61,.46-3.51,2.75-3.84,2.91-5.03,2.48-93.78-1.3-105.85,1.41-6.67,1.5-13.63,4.92-17.87,9.14-12.71,12.66-15.17,18.44-15.17,38.08,0,18,0,36,0,54.01Z" style="fill:#fff; fill-rule:evenodd;"/><path d="M0,282.79v384.8c0,6.71,9.69-2.58,15.11-6.64,5.56-4.17,10.73-8.05,16.29-12.22l227.39-169.42c-1.99-2.98-55.03-42.74-64.34-50.43l-32.53-25.23c-5.6-4.19-10.41-8.18-16.07-12.43L3.29,280.85c-1.76-1.06-3.29-1.02-3.29,1.93Z" style="fill:#fff; fill-rule:evenodd;"/><path d="M494.32,478.56c1.49,2.23,27.5,21.18,31.83,24.43l219.57,163.74c1.8,1.37,7.4,6.5,7.4,.85V282.79c0-6.74-8.98,2.66-15.22,7.29-5.65,4.19-10.4,8.2-16.07,12.43l-11.78,9.22c-1.6,1.25-2.83,2.05-4.29,3.21-2.75,2.2-5.22,4-7.97,6.28l-97.7,75.58c-1.44,1.1-2.29,1.92-3.73,3.02-1.4,1.07-2.76,1.99-4.28,3.23-18.08,14.77-46.54,36-65.06,50.46l-32.69,25.07Z" style="fill:#fff; fill-rule:evenodd;"/><path d="M258.79,315.04c0,29.24,8.83,54.65,27.57,75.94,2.51,2.85,4.87,4.85,7.79,7.21,13.62,10.97,19.18,15.21,37.85,21.4,31.41,10.42,75.17,10.98,105.85-1.25,11.57-4.61,23.52-11.37,32.65-19.86,7.28-6.76,21.57-19.79,23.81-29.44-4.94-5.68-5.29-3.75-24-3.75-5.9,0-5.52,5.99-15.85,14.16-5.77,4.56-11.79,8.76-18.64,12.11-40.41,19.77-122.86,14.48-143.82-38.48-2.51-6.35-3.97-10.61-5.41-17.85-7.9-39.73,6.41-84.92,40.59-106.32,4.93-3.09,5.93-3.98,12.17-6.58,54.14-22.62,123.46,2.19,123.46,62.7,0,16.38-5.63,30.44-12.04,40.47-6.47,10.13-20.9,24.95-34.47,21.79-1.28-5.47,2.46-19.24,3.9-25.35l13.79-64.22c4.24-19.07,6.51-16.19-22.94-16.19-4.81,0-4.32,9.24-6,12.75-2.43-1.63-3.95-3.74-6.18-5.82-23.96-22.31-61.17-6.38-78.55,20.86-1.22,1.92-2.07,3.5-3.36,5.64-2.58,4.24-4.22,7.71-6.11,12.64-8.95,23.4-8.95,49.41,6.21,69.67,3.81,5.1,7.69,8.85,13.28,12.22,16.77,10.11,33.73,7.67,49-3.65,2.7-2.01,4.67-4.27,6.96-5.8,1.97,8.46,11.26,15.75,21.75,15.75,16.3,0,23.48-1.27,37.52-10.49,7.94-5.21,14.63-12.59,20.82-19.68,25.45-29.16,28.86-72.76,9.14-107.07-1.64-2.85-3.18-4.92-5.07-7.68-16.92-24.72-49.87-41.86-81.16-41.86-24.45,0-41.86,.59-63.51,11.5-3.76,1.9-6.29,3-9.7,5.3-3.3,2.22-5.72,3.75-8.88,6.12-10.81,8.12-21.49,20.73-28.41,32.35-7.75,13-13.82,27.82-16.96,43.05-1.45,7.04-3.05,20.4-3.05,27.71Z" style="fill:#fff; fill-rule:evenodd;"/></g></g></svg>