<svg width="32" height="32" viewBox="0 0 32 32" fill="none" xmlns="http://www.w3.org/2000/svg">
<mask id="path-1-outside-1_2959_42053" maskUnits="userSpaceOnUse" x="3.01562" y="4.75" width="26" height="26" fill="black">
<rect fill="white" x="3.01562" y="4.75" width="26" height="26"/>
<path d="M27.984 12.7615C27.984 12.7489 27.9832 12.736 27.9817 12.7234L27.122 6.01166C27.1027 5.86223 26.9755 5.75 26.8248 5.75H5.2909C5.14147 5.75 5.01462 5.86035 4.99435 6.00831L4.05994 12.7201C4.05785 12.7337 4.05701 12.7477 4.05701 12.7615C4.05701 13.5943 4.64446 14.2921 5.42778 14.4683V20.4396H4.31532C4.14959 20.4396 4.01562 20.5738 4.01562 20.7393V22.6526C4.01562 22.8179 4.14959 22.9523 4.31532 22.9523H4.7147L4.71428 29.4191C4.71428 29.5844 4.84824 29.7188 5.01398 29.7188H27.0267C27.1924 29.7188 27.3264 29.5846 27.3264 29.4191V22.9518H27.6844C27.8501 22.9518 27.9841 22.8176 27.9841 22.6521V20.739C27.9841 20.5737 27.8501 20.4393 27.6844 20.4393H26.6133V14.468C27.3968 14.2916 27.984 13.5937 27.984 12.7609L27.984 12.7615ZM26.2264 13.9134C25.6364 13.9134 25.1534 13.471 25.0826 12.9031H27.3704C27.2992 13.4707 26.8164 13.9134 26.2264 13.9134ZM22.1521 12.3038V6.34903H24.469V12.3038H22.1521ZM21.553 12.3038H19.2363V6.34903H21.553V12.3038ZM18.6367 12.3038H16.3238V6.34903H18.6367V12.3038ZM15.7246 12.3038H13.4038V6.34903H15.7246V12.3038ZM12.8046 12.3038H10.4879V6.34903H12.8046V12.3038ZM9.88876 12.3038H7.56476V6.34903H9.88876V12.3038ZM9.87434 12.9031C9.80329 13.471 9.32033 13.9134 8.73053 13.9134C8.14036 13.9134 7.65734 13.471 7.58629 12.9031H9.87434ZM12.7902 12.9031C12.7191 13.471 12.2362 13.9134 11.6464 13.9134C11.0564 13.9134 10.5734 13.471 10.5026 12.9031H12.7902ZM15.7067 12.9031C15.6356 13.471 15.1527 13.9134 14.5624 13.9134C13.9725 13.9134 13.4894 13.471 13.4186 12.9031H15.7067ZM18.6225 12.9031C18.5514 13.471 18.0685 13.9134 17.4787 13.9134C16.8887 13.9134 16.4057 13.471 16.3349 12.9031H18.6225ZM21.5386 12.9031C21.4675 13.471 20.9845 13.9134 20.3947 13.9134C19.8048 13.9134 19.3218 13.471 19.2509 12.9031H21.5386ZM24.4546 12.9031C24.3836 13.471 23.9006 13.9134 23.3108 13.9134C22.7206 13.9134 22.2376 13.471 22.1666 12.9031H24.4546ZM27.3241 12.3038H25.0682V6.34903H26.5612L27.3241 12.3038ZM5.55157 6.34903H6.96583V12.3038H4.72294L5.55157 6.34903ZM4.67067 12.903H6.9585C6.88745 13.4708 6.4045 13.9133 5.81469 13.9133C5.2243 13.9133 4.74134 13.4706 4.67067 12.903ZM26.7273 29.1193H5.31376V22.9522H26.7273V29.1193ZM27.3849 22.3524H4.61465V21.0387H27.3849V22.3524ZM12.565 19.1946C13.2963 19.1946 13.894 19.7405 13.9786 20.4396H11.152C11.2362 19.7405 11.8339 19.1946 12.565 19.1946ZM16.0244 19.1946C16.7555 19.1946 17.3532 19.7405 17.4376 20.4396H14.6114C14.6961 19.7405 15.2938 19.1946 16.0244 19.1946ZM19.4845 19.1946C20.2155 19.1946 20.8132 19.7405 20.8977 20.4396H18.0711C18.1553 19.7405 18.7534 19.1946 19.4845 19.1946ZM22.9443 19.1946C23.6754 19.1946 24.2731 19.7405 24.3575 20.4396H21.5309C21.6151 19.7405 22.2133 19.1946 22.9443 19.1946ZM21.2143 19.5595C20.9242 19.091 20.4479 18.7474 19.8864 18.6352C20.0086 17.9787 20.5902 17.4793 21.2904 17.4793C21.9827 17.4793 22.5612 17.967 22.6925 18.6124C22.0663 18.69 21.5295 19.0501 21.2143 19.5596V19.5595ZM17.7544 19.5595C17.4644 19.091 16.9881 18.7474 16.4265 18.6352C16.5488 17.9787 17.1304 17.4793 17.8305 17.4793C18.5229 17.4793 19.1014 17.967 19.2326 18.6124C18.6069 18.69 18.07 19.0501 17.7544 19.5596V19.5595ZM14.2948 19.5595C14.0083 19.0966 13.5402 18.7563 12.9873 18.6398C13.1077 17.9812 13.6902 17.479 14.3922 17.479C15.0833 17.479 15.6614 17.9654 15.7934 18.6093C15.159 18.6812 14.6137 19.044 14.2948 19.5596L14.2948 19.5595ZM10.835 19.5595C10.5484 19.0966 10.0803 18.7563 9.52749 18.6398C9.64787 17.9812 10.2303 17.479 10.9323 17.479C11.6235 17.479 12.2016 17.9654 12.3336 18.6093C11.6991 18.6812 11.1536 19.044 10.8349 19.5596L10.835 19.5595ZM9.10494 19.1946C9.8362 19.1946 10.4339 19.7405 10.5186 20.4396H7.69196C7.77618 19.7405 8.37389 19.1946 9.10494 19.1946ZM24.965 20.4396C24.8891 19.5269 24.1961 18.7867 23.3006 18.6285C23.1706 17.6437 22.3196 16.8802 21.2903 16.8802C20.5584 16.8802 19.9175 17.2673 19.5603 17.8443C19.2031 17.2673 18.5624 16.8802 17.8302 16.8802C17.1055 16.8802 16.4703 17.2596 16.1111 17.827C15.7522 17.2596 15.1167 16.8802 14.3919 16.8802C13.66 16.8802 13.0188 17.2673 12.6619 17.8443C12.3047 17.2673 11.6642 16.8802 10.9319 16.8802C9.91072 16.8802 9.06599 17.6313 8.92512 18.6044C7.94518 18.6899 7.16438 19.4674 7.08348 20.4396H6.02683V14.4982C6.5445 14.4355 6.99403 14.1492 7.27219 13.7379C7.58818 14.2048 8.12404 14.5125 8.73032 14.5125C9.33681 14.5125 9.87204 14.2048 10.1882 13.7379C10.5042 14.2048 11.0397 14.5125 11.6462 14.5125C12.2527 14.5125 12.7879 14.2048 13.1041 13.7379C13.4201 14.2048 13.9555 14.5125 14.562 14.5125C15.1685 14.5125 15.7041 14.2048 16.0201 13.7379C16.3361 14.2048 16.8716 14.5125 17.478 14.5125C18.0845 14.5125 18.6198 14.2048 18.936 13.7379C19.252 14.2048 19.7874 14.5125 20.3939 14.5125C21.0004 14.5125 21.5356 14.2048 21.8518 13.7379C22.1678 14.2048 22.7037 14.5125 23.3099 14.5125C23.9164 14.5125 24.4517 14.2048 24.7679 13.7379C25.0464 14.1492 25.4956 14.4358 26.0132 14.4982V20.4396H24.965Z"/>
</mask>
<path d="M27.984 12.7615C27.984 12.7489 27.9832 12.736 27.9817 12.7234L27.122 6.01166C27.1027 5.86223 26.9755 5.75 26.8248 5.75H5.2909C5.14147 5.75 5.01462 5.86035 4.99435 6.00831L4.05994 12.7201C4.05785 12.7337 4.05701 12.7477 4.05701 12.7615C4.05701 13.5943 4.64446 14.2921 5.42778 14.4683V20.4396H4.31532C4.14959 20.4396 4.01562 20.5738 4.01562 20.7393V22.6526C4.01562 22.8179 4.14959 22.9523 4.31532 22.9523H4.7147L4.71428 29.4191C4.71428 29.5844 4.84824 29.7188 5.01398 29.7188H27.0267C27.1924 29.7188 27.3264 29.5846 27.3264 29.4191V22.9518H27.6844C27.8501 22.9518 27.9841 22.8176 27.9841 22.6521V20.739C27.9841 20.5737 27.8501 20.4393 27.6844 20.4393H26.6133V14.468C27.3968 14.2916 27.984 13.5937 27.984 12.7609L27.984 12.7615ZM26.2264 13.9134C25.6364 13.9134 25.1534 13.471 25.0826 12.9031H27.3704C27.2992 13.4707 26.8164 13.9134 26.2264 13.9134ZM22.1521 12.3038V6.34903H24.469V12.3038H22.1521ZM21.553 12.3038H19.2363V6.34903H21.553V12.3038ZM18.6367 12.3038H16.3238V6.34903H18.6367V12.3038ZM15.7246 12.3038H13.4038V6.34903H15.7246V12.3038ZM12.8046 12.3038H10.4879V6.34903H12.8046V12.3038ZM9.88876 12.3038H7.56476V6.34903H9.88876V12.3038ZM9.87434 12.9031C9.80329 13.471 9.32033 13.9134 8.73053 13.9134C8.14036 13.9134 7.65734 13.471 7.58629 12.9031H9.87434ZM12.7902 12.9031C12.7191 13.471 12.2362 13.9134 11.6464 13.9134C11.0564 13.9134 10.5734 13.471 10.5026 12.9031H12.7902ZM15.7067 12.9031C15.6356 13.471 15.1527 13.9134 14.5624 13.9134C13.9725 13.9134 13.4894 13.471 13.4186 12.9031H15.7067ZM18.6225 12.9031C18.5514 13.471 18.0685 13.9134 17.4787 13.9134C16.8887 13.9134 16.4057 13.471 16.3349 12.9031H18.6225ZM21.5386 12.9031C21.4675 13.471 20.9845 13.9134 20.3947 13.9134C19.8048 13.9134 19.3218 13.471 19.2509 12.9031H21.5386ZM24.4546 12.9031C24.3836 13.471 23.9006 13.9134 23.3108 13.9134C22.7206 13.9134 22.2376 13.471 22.1666 12.9031H24.4546ZM27.3241 12.3038H25.0682V6.34903H26.5612L27.3241 12.3038ZM5.55157 6.34903H6.96583V12.3038H4.72294L5.55157 6.34903ZM4.67067 12.903H6.9585C6.88745 13.4708 6.4045 13.9133 5.81469 13.9133C5.2243 13.9133 4.74134 13.4706 4.67067 12.903ZM26.7273 29.1193H5.31376V22.9522H26.7273V29.1193ZM27.3849 22.3524H4.61465V21.0387H27.3849V22.3524ZM12.565 19.1946C13.2963 19.1946 13.894 19.7405 13.9786 20.4396H11.152C11.2362 19.7405 11.8339 19.1946 12.565 19.1946ZM16.0244 19.1946C16.7555 19.1946 17.3532 19.7405 17.4376 20.4396H14.6114C14.6961 19.7405 15.2938 19.1946 16.0244 19.1946ZM19.4845 19.1946C20.2155 19.1946 20.8132 19.7405 20.8977 20.4396H18.0711C18.1553 19.7405 18.7534 19.1946 19.4845 19.1946ZM22.9443 19.1946C23.6754 19.1946 24.2731 19.7405 24.3575 20.4396H21.5309C21.6151 19.7405 22.2133 19.1946 22.9443 19.1946ZM21.2143 19.5595C20.9242 19.091 20.4479 18.7474 19.8864 18.6352C20.0086 17.9787 20.5902 17.4793 21.2904 17.4793C21.9827 17.4793 22.5612 17.967 22.6925 18.6124C22.0663 18.69 21.5295 19.0501 21.2143 19.5596V19.5595ZM17.7544 19.5595C17.4644 19.091 16.9881 18.7474 16.4265 18.6352C16.5488 17.9787 17.1304 17.4793 17.8305 17.4793C18.5229 17.4793 19.1014 17.967 19.2326 18.6124C18.6069 18.69 18.07 19.0501 17.7544 19.5596V19.5595ZM14.2948 19.5595C14.0083 19.0966 13.5402 18.7563 12.9873 18.6398C13.1077 17.9812 13.6902 17.479 14.3922 17.479C15.0833 17.479 15.6614 17.9654 15.7934 18.6093C15.159 18.6812 14.6137 19.044 14.2948 19.5596L14.2948 19.5595ZM10.835 19.5595C10.5484 19.0966 10.0803 18.7563 9.52749 18.6398C9.64787 17.9812 10.2303 17.479 10.9323 17.479C11.6235 17.479 12.2016 17.9654 12.3336 18.6093C11.6991 18.6812 11.1536 19.044 10.8349 19.5596L10.835 19.5595ZM9.10494 19.1946C9.8362 19.1946 10.4339 19.7405 10.5186 20.4396H7.69196C7.77618 19.7405 8.37389 19.1946 9.10494 19.1946ZM24.965 20.4396C24.8891 19.5269 24.1961 18.7867 23.3006 18.6285C23.1706 17.6437 22.3196 16.8802 21.2903 16.8802C20.5584 16.8802 19.9175 17.2673 19.5603 17.8443C19.2031 17.2673 18.5624 16.8802 17.8302 16.8802C17.1055 16.8802 16.4703 17.2596 16.1111 17.827C15.7522 17.2596 15.1167 16.8802 14.3919 16.8802C13.66 16.8802 13.0188 17.2673 12.6619 17.8443C12.3047 17.2673 11.6642 16.8802 10.9319 16.8802C9.91072 16.8802 9.06599 17.6313 8.92512 18.6044C7.94518 18.6899 7.16438 19.4674 7.08348 20.4396H6.02683V14.4982C6.5445 14.4355 6.99403 14.1492 7.27219 13.7379C7.58818 14.2048 8.12404 14.5125 8.73032 14.5125C9.33681 14.5125 9.87204 14.2048 10.1882 13.7379C10.5042 14.2048 11.0397 14.5125 11.6462 14.5125C12.2527 14.5125 12.7879 14.2048 13.1041 13.7379C13.4201 14.2048 13.9555 14.5125 14.562 14.5125C15.1685 14.5125 15.7041 14.2048 16.0201 13.7379C16.3361 14.2048 16.8716 14.5125 17.478 14.5125C18.0845 14.5125 18.6198 14.2048 18.936 13.7379C19.252 14.2048 19.7874 14.5125 20.3939 14.5125C21.0004 14.5125 21.5356 14.2048 21.8518 13.7379C22.1678 14.2048 22.7037 14.5125 23.3099 14.5125C23.9164 14.5125 24.4517 14.2048 24.7679 13.7379C25.0464 14.1492 25.4956 14.4358 26.0132 14.4982V20.4396H24.965Z" fill="#26C4F7"/>
<path d="M27.984 12.7615C27.984 12.7489 27.9832 12.736 27.9817 12.7234L27.122 6.01166C27.1027 5.86223 26.9755 5.75 26.8248 5.75H5.2909C5.14147 5.75 5.01462 5.86035 4.99435 6.00831L4.05994 12.7201C4.05785 12.7337 4.05701 12.7477 4.05701 12.7615C4.05701 13.5943 4.64446 14.2921 5.42778 14.4683V20.4396H4.31532C4.14959 20.4396 4.01562 20.5738 4.01562 20.7393V22.6526C4.01562 22.8179 4.14959 22.9523 4.31532 22.9523H4.7147L4.71428 29.4191C4.71428 29.5844 4.84824 29.7188 5.01398 29.7188H27.0267C27.1924 29.7188 27.3264 29.5846 27.3264 29.4191V22.9518H27.6844C27.8501 22.9518 27.9841 22.8176 27.9841 22.6521V20.739C27.9841 20.5737 27.8501 20.4393 27.6844 20.4393H26.6133V14.468C27.3968 14.2916 27.984 13.5937 27.984 12.7609L27.984 12.7615ZM26.2264 13.9134C25.6364 13.9134 25.1534 13.471 25.0826 12.9031H27.3704C27.2992 13.4707 26.8164 13.9134 26.2264 13.9134ZM22.1521 12.3038V6.34903H24.469V12.3038H22.1521ZM21.553 12.3038H19.2363V6.34903H21.553V12.3038ZM18.6367 12.3038H16.3238V6.34903H18.6367V12.3038ZM15.7246 12.3038H13.4038V6.34903H15.7246V12.3038ZM12.8046 12.3038H10.4879V6.34903H12.8046V12.3038ZM9.88876 12.3038H7.56476V6.34903H9.88876V12.3038ZM9.87434 12.9031C9.80329 13.471 9.32033 13.9134 8.73053 13.9134C8.14036 13.9134 7.65734 13.471 7.58629 12.9031H9.87434ZM12.7902 12.9031C12.7191 13.471 12.2362 13.9134 11.6464 13.9134C11.0564 13.9134 10.5734 13.471 10.5026 12.9031H12.7902ZM15.7067 12.9031C15.6356 13.471 15.1527 13.9134 14.5624 13.9134C13.9725 13.9134 13.4894 13.471 13.4186 12.9031H15.7067ZM18.6225 12.9031C18.5514 13.471 18.0685 13.9134 17.4787 13.9134C16.8887 13.9134 16.4057 13.471 16.3349 12.9031H18.6225ZM21.5386 12.9031C21.4675 13.471 20.9845 13.9134 20.3947 13.9134C19.8048 13.9134 19.3218 13.471 19.2509 12.9031H21.5386ZM24.4546 12.9031C24.3836 13.471 23.9006 13.9134 23.3108 13.9134C22.7206 13.9134 22.2376 13.471 22.1666 12.9031H24.4546ZM27.3241 12.3038H25.0682V6.34903H26.5612L27.3241 12.3038ZM5.55157 6.34903H6.96583V12.3038H4.72294L5.55157 6.34903ZM4.67067 12.903H6.9585C6.88745 13.4708 6.4045 13.9133 5.81469 13.9133C5.2243 13.9133 4.74134 13.4706 4.67067 12.903ZM26.7273 29.1193H5.31376V22.9522H26.7273V29.1193ZM27.3849 22.3524H4.61465V21.0387H27.3849V22.3524ZM12.565 19.1946C13.2963 19.1946 13.894 19.7405 13.9786 20.4396H11.152C11.2362 19.7405 11.8339 19.1946 12.565 19.1946ZM16.0244 19.1946C16.7555 19.1946 17.3532 19.7405 17.4376 20.4396H14.6114C14.6961 19.7405 15.2938 19.1946 16.0244 19.1946ZM19.4845 19.1946C20.2155 19.1946 20.8132 19.7405 20.8977 20.4396H18.0711C18.1553 19.7405 18.7534 19.1946 19.4845 19.1946ZM22.9443 19.1946C23.6754 19.1946 24.2731 19.7405 24.3575 20.4396H21.5309C21.6151 19.7405 22.2133 19.1946 22.9443 19.1946ZM21.2143 19.5595C20.9242 19.091 20.4479 18.7474 19.8864 18.6352C20.0086 17.9787 20.5902 17.4793 21.2904 17.4793C21.9827 17.4793 22.5612 17.967 22.6925 18.6124C22.0663 18.69 21.5295 19.0501 21.2143 19.5596V19.5595ZM17.7544 19.5595C17.4644 19.091 16.9881 18.7474 16.4265 18.6352C16.5488 17.9787 17.1304 17.4793 17.8305 17.4793C18.5229 17.4793 19.1014 17.967 19.2326 18.6124C18.6069 18.69 18.07 19.0501 17.7544 19.5596V19.5595ZM14.2948 19.5595C14.0083 19.0966 13.5402 18.7563 12.9873 18.6398C13.1077 17.9812 13.6902 17.479 14.3922 17.479C15.0833 17.479 15.6614 17.9654 15.7934 18.6093C15.159 18.6812 14.6137 19.044 14.2948 19.5596L14.2948 19.5595ZM10.835 19.5595C10.5484 19.0966 10.0803 18.7563 9.52749 18.6398C9.64787 17.9812 10.2303 17.479 10.9323 17.479C11.6235 17.479 12.2016 17.9654 12.3336 18.6093C11.6991 18.6812 11.1536 19.044 10.8349 19.5596L10.835 19.5595ZM9.10494 19.1946C9.8362 19.1946 10.4339 19.7405 10.5186 20.4396H7.69196C7.77618 19.7405 8.37389 19.1946 9.10494 19.1946ZM24.965 20.4396C24.8891 19.5269 24.1961 18.7867 23.3006 18.6285C23.1706 17.6437 22.3196 16.8802 21.2903 16.8802C20.5584 16.8802 19.9175 17.2673 19.5603 17.8443C19.2031 17.2673 18.5624 16.8802 17.8302 16.8802C17.1055 16.8802 16.4703 17.2596 16.1111 17.827C15.7522 17.2596 15.1167 16.8802 14.3919 16.8802C13.66 16.8802 13.0188 17.2673 12.6619 17.8443C12.3047 17.2673 11.6642 16.8802 10.9319 16.8802C9.91072 16.8802 9.06599 17.6313 8.92512 18.6044C7.94518 18.6899 7.16438 19.4674 7.08348 20.4396H6.02683V14.4982C6.5445 14.4355 6.99403 14.1492 7.27219 13.7379C7.58818 14.2048 8.12404 14.5125 8.73032 14.5125C9.33681 14.5125 9.87204 14.2048 10.1882 13.7379C10.5042 14.2048 11.0397 14.5125 11.6462 14.5125C12.2527 14.5125 12.7879 14.2048 13.1041 13.7379C13.4201 14.2048 13.9555 14.5125 14.562 14.5125C15.1685 14.5125 15.7041 14.2048 16.0201 13.7379C16.3361 14.2048 16.8716 14.5125 17.478 14.5125C18.0845 14.5125 18.6198 14.2048 18.936 13.7379C19.252 14.2048 19.7874 14.5125 20.3939 14.5125C21.0004 14.5125 21.5356 14.2048 21.8518 13.7379C22.1678 14.2048 22.7037 14.5125 23.3099 14.5125C23.9164 14.5125 24.4517 14.2048 24.7679 13.7379C25.0464 14.1492 25.4956 14.4358 26.0132 14.4982V20.4396H24.965Z" stroke="#26C4F7" stroke-width="0.6" mask="url(#path-1-outside-1_2959_42053)"/>
</svg>
