<svg width="32" height="32" viewBox="0 0 32 32" fill="none" xmlns="http://www.w3.org/2000/svg">
<mask id="path-1-outside-1_2959_42073" maskUnits="userSpaceOnUse" x="3.01807" y="4.75" width="26" height="26" fill="black">
<rect fill="white" x="3.01807" y="4.75" width="26" height="26"/>
<path d="M5.17572 29.7188H26.8296C26.9954 29.7188 27.1293 29.5848 27.1293 29.4191L27.1291 21.1268H27.6873C27.8531 21.1268 27.987 20.9928 27.987 20.8271V18.6835C27.987 18.5177 27.8531 18.3838 27.6873 18.3838H25.4334V15.7271C25.4334 14.0267 24.4362 12.5404 23.0931 12.0074C23.7362 11.6749 23.9825 11.1062 23.997 11.0718C24.0279 10.9978 24.0275 10.9148 23.9964 10.8409C23.9652 10.7671 23.9057 10.709 23.8313 10.6791C23.4475 10.5259 23.2041 9.93129 23.1249 9.6594C23.2616 9.32563 23.3376 8.96012 23.3376 8.57662C23.3376 7.01795 22.0923 5.75 20.5611 5.75C19.0301 5.75 17.7846 7.01773 17.7846 8.57662C17.7846 8.9572 17.8599 9.32003 17.9945 9.65169C17.9207 9.90729 17.6716 10.5244 17.2816 10.6791C17.2041 10.7102 17.1428 10.7717 17.113 10.8492C17.0831 10.9267 17.0866 11.0137 17.1232 11.0889C17.1397 11.1226 17.4164 11.6708 18.0641 11.9995C16.7102 12.5254 15.7031 14.0195 15.7031 15.7288V18.3843H14.4855V15.966C14.4855 15.8003 14.3515 15.6663 14.1858 15.6663H13.6938L13.6936 11.9417C13.6936 11.2595 13.13 10.704 12.4376 10.704H9.01658V10.2114H9.69643C10.1096 10.2114 10.4457 9.87556 10.4457 9.46238C10.4457 9.0492 10.1096 8.71335 9.69643 8.71335H7.75612C7.34294 8.71335 7.00688 9.0492 7.00688 9.46238C7.00688 9.87556 7.34294 10.2114 7.75612 10.2114H8.41736V10.704H7.6046C6.91202 10.704 6.34854 11.2595 6.34854 11.9417V15.6661H5.85657C5.69084 15.6661 5.55687 15.8001 5.55687 15.9658V18.384H4.31776C4.15203 18.384 4.01807 18.518 4.01807 18.6837V20.8274C4.01807 20.9931 4.15203 21.1271 4.31776 21.1271H4.876L4.8758 29.4188C4.87621 29.5845 5.00999 29.7188 5.17572 29.7188ZM26.5301 29.1195H5.47544V21.1269H26.5301V29.1195ZM24.8344 15.7269V17.0155C23.5116 16.6122 22.6163 15.2157 22.6163 14.0796V12.4802C23.8513 12.8248 24.8344 14.1933 24.8344 15.7269ZM19.1284 13.8892V12.3949H19.2287L19.3219 12.4482C19.7048 12.6666 20.1332 12.7759 20.5621 12.7759C20.9947 12.7759 21.4273 12.6647 21.8127 12.4423L21.8948 12.3949H22.0173V13.889L19.1284 13.8892ZM20.5614 11.4024C20.8843 11.4024 21.1936 11.3431 21.482 11.2394V11.9405C20.9113 12.2563 20.2114 12.2557 19.6406 11.9399V11.2392C19.9292 11.343 20.2385 11.4024 20.5614 11.4024ZM23.3089 11.0613C23.1291 11.2981 22.7542 11.6377 22.0815 11.6413V10.938C22.3335 10.7694 22.5557 10.5602 22.7419 10.3196C22.866 10.5748 23.0491 10.8614 23.3089 11.0613ZM22.7387 8.57623C22.7387 9.80426 21.7619 10.8035 20.5615 10.8035C19.5155 10.8035 18.64 10.0448 18.4318 9.03747C19.1008 8.88386 20.974 8.36286 22.2351 7.15403C22.5494 7.53983 22.7387 8.03559 22.7387 8.57623ZM20.5615 6.34877C21.0202 6.34877 21.4453 6.49528 21.7968 6.74398C20.708 7.77138 19.0716 8.26189 18.3917 8.42929C18.4659 7.2698 19.4095 6.34877 20.5615 6.34877ZM17.8181 11.0521C18.0743 10.8509 18.2548 10.5671 18.3775 10.315C18.5642 10.5577 18.788 10.7686 19.0415 10.9384V11.6377C18.402 11.6099 18.0116 11.2843 17.8181 11.0521ZM18.5293 12.4779V14.0796C18.5293 15.2155 17.6304 16.6122 16.3024 17.0158V15.728C16.3024 14.1908 17.2901 12.8192 18.5293 12.4779ZM16.3024 17.636C17.8439 17.2617 18.9096 15.8234 19.0956 14.4884H22.0489C22.2343 15.824 23.297 17.2621 24.8342 17.636V18.3836H16.3027L16.3024 17.636ZM6.94814 11.9412C6.94814 11.5893 7.24261 11.3027 7.60477 11.3027H12.4382C12.8003 11.3027 13.0948 11.5893 13.0948 11.9412V15.6657H6.94793L6.94814 11.9412ZM6.15647 16.2648H13.8865V18.3834H6.15647V16.2648ZM4.61764 18.9826H27.3881V20.527H4.61764V18.9826Z"/>
</mask>
<path d="M5.17572 29.7188H26.8296C26.9954 29.7188 27.1293 29.5848 27.1293 29.4191L27.1291 21.1268H27.6873C27.8531 21.1268 27.987 20.9928 27.987 20.8271V18.6835C27.987 18.5177 27.8531 18.3838 27.6873 18.3838H25.4334V15.7271C25.4334 14.0267 24.4362 12.5404 23.0931 12.0074C23.7362 11.6749 23.9825 11.1062 23.997 11.0718C24.0279 10.9978 24.0275 10.9148 23.9964 10.8409C23.9652 10.7671 23.9057 10.709 23.8313 10.6791C23.4475 10.5259 23.2041 9.93129 23.1249 9.6594C23.2616 9.32563 23.3376 8.96012 23.3376 8.57662C23.3376 7.01795 22.0923 5.75 20.5611 5.75C19.0301 5.75 17.7846 7.01773 17.7846 8.57662C17.7846 8.9572 17.8599 9.32003 17.9945 9.65169C17.9207 9.90729 17.6716 10.5244 17.2816 10.6791C17.2041 10.7102 17.1428 10.7717 17.113 10.8492C17.0831 10.9267 17.0866 11.0137 17.1232 11.0889C17.1397 11.1226 17.4164 11.6708 18.0641 11.9995C16.7102 12.5254 15.7031 14.0195 15.7031 15.7288V18.3843H14.4855V15.966C14.4855 15.8003 14.3515 15.6663 14.1858 15.6663H13.6938L13.6936 11.9417C13.6936 11.2595 13.13 10.704 12.4376 10.704H9.01658V10.2114H9.69643C10.1096 10.2114 10.4457 9.87556 10.4457 9.46238C10.4457 9.0492 10.1096 8.71335 9.69643 8.71335H7.75612C7.34294 8.71335 7.00688 9.0492 7.00688 9.46238C7.00688 9.87556 7.34294 10.2114 7.75612 10.2114H8.41736V10.704H7.6046C6.91202 10.704 6.34854 11.2595 6.34854 11.9417V15.6661H5.85657C5.69084 15.6661 5.55687 15.8001 5.55687 15.9658V18.384H4.31776C4.15203 18.384 4.01807 18.518 4.01807 18.6837V20.8274C4.01807 20.9931 4.15203 21.1271 4.31776 21.1271H4.876L4.8758 29.4188C4.87621 29.5845 5.00999 29.7188 5.17572 29.7188ZM26.5301 29.1195H5.47544V21.1269H26.5301V29.1195ZM24.8344 15.7269V17.0155C23.5116 16.6122 22.6163 15.2157 22.6163 14.0796V12.4802C23.8513 12.8248 24.8344 14.1933 24.8344 15.7269ZM19.1284 13.8892V12.3949H19.2287L19.3219 12.4482C19.7048 12.6666 20.1332 12.7759 20.5621 12.7759C20.9947 12.7759 21.4273 12.6647 21.8127 12.4423L21.8948 12.3949H22.0173V13.889L19.1284 13.8892ZM20.5614 11.4024C20.8843 11.4024 21.1936 11.3431 21.482 11.2394V11.9405C20.9113 12.2563 20.2114 12.2557 19.6406 11.9399V11.2392C19.9292 11.343 20.2385 11.4024 20.5614 11.4024ZM23.3089 11.0613C23.1291 11.2981 22.7542 11.6377 22.0815 11.6413V10.938C22.3335 10.7694 22.5557 10.5602 22.7419 10.3196C22.866 10.5748 23.0491 10.8614 23.3089 11.0613ZM22.7387 8.57623C22.7387 9.80426 21.7619 10.8035 20.5615 10.8035C19.5155 10.8035 18.64 10.0448 18.4318 9.03747C19.1008 8.88386 20.974 8.36286 22.2351 7.15403C22.5494 7.53983 22.7387 8.03559 22.7387 8.57623ZM20.5615 6.34877C21.0202 6.34877 21.4453 6.49528 21.7968 6.74398C20.708 7.77138 19.0716 8.26189 18.3917 8.42929C18.4659 7.2698 19.4095 6.34877 20.5615 6.34877ZM17.8181 11.0521C18.0743 10.8509 18.2548 10.5671 18.3775 10.315C18.5642 10.5577 18.788 10.7686 19.0415 10.9384V11.6377C18.402 11.6099 18.0116 11.2843 17.8181 11.0521ZM18.5293 12.4779V14.0796C18.5293 15.2155 17.6304 16.6122 16.3024 17.0158V15.728C16.3024 14.1908 17.2901 12.8192 18.5293 12.4779ZM16.3024 17.636C17.8439 17.2617 18.9096 15.8234 19.0956 14.4884H22.0489C22.2343 15.824 23.297 17.2621 24.8342 17.636V18.3836H16.3027L16.3024 17.636ZM6.94814 11.9412C6.94814 11.5893 7.24261 11.3027 7.60477 11.3027H12.4382C12.8003 11.3027 13.0948 11.5893 13.0948 11.9412V15.6657H6.94793L6.94814 11.9412ZM6.15647 16.2648H13.8865V18.3834H6.15647V16.2648ZM4.61764 18.9826H27.3881V20.527H4.61764V18.9826Z" fill="#26C4F7"/>
<path d="M5.17572 29.7188H26.8296C26.9954 29.7188 27.1293 29.5848 27.1293 29.4191L27.1291 21.1268H27.6873C27.8531 21.1268 27.987 20.9928 27.987 20.8271V18.6835C27.987 18.5177 27.8531 18.3838 27.6873 18.3838H25.4334V15.7271C25.4334 14.0267 24.4362 12.5404 23.0931 12.0074C23.7362 11.6749 23.9825 11.1062 23.997 11.0718C24.0279 10.9978 24.0275 10.9148 23.9964 10.8409C23.9652 10.7671 23.9057 10.709 23.8313 10.6791C23.4475 10.5259 23.2041 9.93129 23.1249 9.6594C23.2616 9.32563 23.3376 8.96012 23.3376 8.57662C23.3376 7.01795 22.0923 5.75 20.5611 5.75C19.0301 5.75 17.7846 7.01773 17.7846 8.57662C17.7846 8.9572 17.8599 9.32003 17.9945 9.65169C17.9207 9.90729 17.6716 10.5244 17.2816 10.6791C17.2041 10.7102 17.1428 10.7717 17.113 10.8492C17.0831 10.9267 17.0866 11.0137 17.1232 11.0889C17.1397 11.1226 17.4164 11.6708 18.0641 11.9995C16.7102 12.5254 15.7031 14.0195 15.7031 15.7288V18.3843H14.4855V15.966C14.4855 15.8003 14.3515 15.6663 14.1858 15.6663H13.6938L13.6936 11.9417C13.6936 11.2595 13.13 10.704 12.4376 10.704H9.01658V10.2114H9.69643C10.1096 10.2114 10.4457 9.87556 10.4457 9.46238C10.4457 9.0492 10.1096 8.71335 9.69643 8.71335H7.75612C7.34294 8.71335 7.00688 9.0492 7.00688 9.46238C7.00688 9.87556 7.34294 10.2114 7.75612 10.2114H8.41736V10.704H7.6046C6.91202 10.704 6.34854 11.2595 6.34854 11.9417V15.6661H5.85657C5.69084 15.6661 5.55687 15.8001 5.55687 15.9658V18.384H4.31776C4.15203 18.384 4.01807 18.518 4.01807 18.6837V20.8274C4.01807 20.9931 4.15203 21.1271 4.31776 21.1271H4.876L4.8758 29.4188C4.87621 29.5845 5.00999 29.7188 5.17572 29.7188ZM26.5301 29.1195H5.47544V21.1269H26.5301V29.1195ZM24.8344 15.7269V17.0155C23.5116 16.6122 22.6163 15.2157 22.6163 14.0796V12.4802C23.8513 12.8248 24.8344 14.1933 24.8344 15.7269ZM19.1284 13.8892V12.3949H19.2287L19.3219 12.4482C19.7048 12.6666 20.1332 12.7759 20.5621 12.7759C20.9947 12.7759 21.4273 12.6647 21.8127 12.4423L21.8948 12.3949H22.0173V13.889L19.1284 13.8892ZM20.5614 11.4024C20.8843 11.4024 21.1936 11.3431 21.482 11.2394V11.9405C20.9113 12.2563 20.2114 12.2557 19.6406 11.9399V11.2392C19.9292 11.343 20.2385 11.4024 20.5614 11.4024ZM23.3089 11.0613C23.1291 11.2981 22.7542 11.6377 22.0815 11.6413V10.938C22.3335 10.7694 22.5557 10.5602 22.7419 10.3196C22.866 10.5748 23.0491 10.8614 23.3089 11.0613ZM22.7387 8.57623C22.7387 9.80426 21.7619 10.8035 20.5615 10.8035C19.5155 10.8035 18.64 10.0448 18.4318 9.03747C19.1008 8.88386 20.974 8.36286 22.2351 7.15403C22.5494 7.53983 22.7387 8.03559 22.7387 8.57623ZM20.5615 6.34877C21.0202 6.34877 21.4453 6.49528 21.7968 6.74398C20.708 7.77138 19.0716 8.26189 18.3917 8.42929C18.4659 7.2698 19.4095 6.34877 20.5615 6.34877ZM17.8181 11.0521C18.0743 10.8509 18.2548 10.5671 18.3775 10.315C18.5642 10.5577 18.788 10.7686 19.0415 10.9384V11.6377C18.402 11.6099 18.0116 11.2843 17.8181 11.0521ZM18.5293 12.4779V14.0796C18.5293 15.2155 17.6304 16.6122 16.3024 17.0158V15.728C16.3024 14.1908 17.2901 12.8192 18.5293 12.4779ZM16.3024 17.636C17.8439 17.2617 18.9096 15.8234 19.0956 14.4884H22.0489C22.2343 15.824 23.297 17.2621 24.8342 17.636V18.3836H16.3027L16.3024 17.636ZM6.94814 11.9412C6.94814 11.5893 7.24261 11.3027 7.60477 11.3027H12.4382C12.8003 11.3027 13.0948 11.5893 13.0948 11.9412V15.6657H6.94793L6.94814 11.9412ZM6.15647 16.2648H13.8865V18.3834H6.15647V16.2648ZM4.61764 18.9826H27.3881V20.527H4.61764V18.9826Z" stroke="#26C4F7" stroke-width="0.6" mask="url(#path-1-outside-1_2959_42073)"/>
</svg>
