<svg width="32" height="32" viewBox="0 0 32 32" fill="none" xmlns="http://www.w3.org/2000/svg">
<path d="M8.65625 5V29.375H23.3438V5" stroke="#26C4F7" stroke-width="1.3"/>
<rect x="6.65" y="2.65" width="18.7" height="1.7" stroke="#26C4F7" stroke-width="1.3"/>
<rect x="10.5" y="23.5" width="11" height="6" stroke="#26C4F7"/>
<rect x="10.5" y="23.5" width="5.46875" height="6" stroke="#26C4F7"/>
<rect x="8.6875" y="19.3125" width="14.5938" height="1.84375" stroke="#26C4F7"/>
<path d="M5.96484 9V29.3711H9.96484" stroke="#26C4F7" stroke-width="1.3"/>
<rect x="4.65" y="6.65" width="3.95" height="1.7" stroke="#26C4F7" stroke-width="1.3"/>
<path d="M1.96484 13V29.3711H5.96484" stroke="#26C4F7" stroke-width="1.3"/>
<rect x="0.65" y="10.65" width="5.2625" height="1.7" stroke="#26C4F7" stroke-width="1.3"/>
<path d="M30.0039 13V29.3711H26.0039" stroke="#26C4F7" stroke-width="1.3"/>
<rect x="-0.65" y="0.65" width="5.2625" height="1.7" transform="matrix(-1 0 0 1 30.6688 10)" stroke="#26C4F7" stroke-width="1.3"/>
<path d="M26.0352 9V29.3711H22.0352" stroke="#26C4F7" stroke-width="1.3"/>
<rect x="-0.65" y="0.65" width="3.8875" height="1.7" transform="matrix(-1 0 0 1 26.7 6)" stroke="#26C4F7" stroke-width="1.3"/>
<path d="M21.9436 7.67725H10V14.9031H21.9436V7.67725ZM20.9483 13.8708H10.9953V8.7095H20.9483V13.8708Z" fill="#26C4F7"/>
<path d="M12.125 9.7417H19.879V10.774H12.125V9.7417Z" fill="#26C4F7"/>
<path d="M18.8467 11.8064H19.8789V12.8387H18.8467V11.8064Z" fill="#26C4F7"/>
<path d="M12.125 11.8062H17.9405V12.8384H12.125V11.8062Z" fill="#26C4F7"/>
<path d="M13.6855 25.2256H14.7178V27.8062H13.6855V25.2256Z" fill="#26C4F7"/>
<path d="M16.7822 25.2256H17.8145V27.8062H16.7822V25.2256Z" fill="#26C4F7"/>
</svg>
