<svg width="133" height="157" viewBox="0 0 133 157" fill="none" xmlns="http://www.w3.org/2000/svg">
<path d="M102.781 34.5186L106.087 28.8374C111.673 32.3276 112.991 33.8515 113.916 32.3906C115.24 30.3006 115.672 27.8188 115.134 25.4039C114.595 22.9878 113.151 20.9268 111.067 19.6002L110.201 19.048C103.013 14.4713 95.2861 21.9632 97.8111 23.5681L104.051 27.5409L100.743 33.222C91.0517 27.3626 79.7551 23.9256 67.6837 23.7121L67.5148 14.0161H74.0512C77.9061 14.0161 81.0426 10.8722 81.0426 7.00807C81.0439 3.14528 77.9075 0 74.0525 0H58.4547C54.5998 0 51.4633 3.14393 51.4633 7.00807C51.4633 10.8721 54.5998 14.0161 58.4547 14.0161H65.1057L65.2746 23.7134C53.242 23.9332 41.978 27.3591 32.3086 33.1932L28.9578 27.536C33.5011 24.2255 36.6741 23.6568 35.5623 21.9015C32.8305 17.5888 27.106 16.3061 22.8009 19.047L21.9361 19.5992C19.8523 20.926 18.4062 22.9871 17.8682 25.4029C17.3299 27.8177 17.7623 30.2995 19.086 32.3896C19.4377 32.9431 20.1789 33.1238 20.7487 32.7611L26.9221 28.8314L30.2716 34.485C12.0669 46.3923 0 66.9762 0 90.3418C0 127.097 29.8327 157 66.5 157C103.167 157 133 127.096 133 90.3418C133 66.9963 120.955 46.4282 102.778 34.5173L102.781 34.5186ZM103.756 20.1841C105.539 19.7835 107.369 20.1058 108.91 21.0863L109.776 21.6385C112.645 23.4657 113.664 27.0379 112.44 30.0201L100.209 22.2338C101.147 21.2089 102.372 20.4937 103.757 20.1842L103.756 20.1841ZM53.8734 7.00839C53.8734 4.47609 55.9295 2.41646 58.4544 2.41646H74.0522C76.5785 2.41646 78.6332 4.47745 78.6332 7.00839C78.6332 9.5407 76.5771 11.6003 74.0522 11.6003L58.4544 11.6016C55.9294 11.6016 53.8734 9.5406 53.8734 7.00836V7.00839ZM20.5653 30.0204C19.3387 27.0345 20.3623 23.4633 23.2303 21.6388L24.0951 21.0866C27.016 19.2291 30.6666 19.9026 32.796 22.234L20.5653 30.0204ZM66.5015 154.586C31.1602 154.586 2.40899 125.767 2.40899 90.3414C2.40899 54.9194 31.1602 26.0997 66.5015 26.0997C101.843 26.0997 130.594 54.9194 130.594 90.3447C130.594 125.767 101.843 154.586 66.5015 154.586Z" fill="white"/>
<path d="M119.631 112.404C122.441 105.618 124 98.1857 124 90.3928C124 82.5999 122.441 75.1678 119.631 68.3833C119.626 68.3719 119.628 68.3592 119.623 68.3477C119.62 68.3376 119.611 68.3312 119.606 68.3211C98.7962 18.218 29.4404 24.3131 13.4308 68.3871C-2.38644 106.599 26.2044 148 66.5312 148V147.999C90.016 147.999 110.789 133.687 119.602 112.469C119.607 112.457 119.618 112.448 119.623 112.436C119.628 112.425 119.625 112.413 119.629 112.403L119.631 112.404ZM111.318 110.302L116.9 112.62C114.292 118.534 110.678 123.904 106.273 128.515C101.367 124.119 100.086 121.033 98.5919 122.53C98.1194 123.004 98.1194 123.772 98.5919 124.246L104.562 130.23C99.9623 134.644 94.6068 138.267 88.7053 140.882C86.8065 137.109 86.7077 133.847 84.8114 134.63C82.9177 135.415 85.1572 137.82 86.4683 141.813C80.6387 144.092 74.3332 145.398 67.7426 145.542V137.055C67.7426 135.448 65.3219 135.45 65.3219 137.055V145.542C58.7313 145.399 52.4254 144.091 46.5962 141.811C47.911 137.809 50.148 135.415 48.2543 134.63C46.3505 133.841 46.2175 137.194 44.3604 140.882C38.4602 138.267 33.1031 134.644 28.5039 130.23C32.8891 125.312 35.9675 124.027 34.4738 122.53C32.9842 121.037 31.753 124.07 26.7924 128.513C22.3893 123.902 18.7752 118.534 16.1671 112.619C19.9203 110.721 23.1883 110.615 22.4042 108.716C21.6189 106.818 19.221 109.063 15.2397 110.378C12.9659 104.534 11.6613 98.2129 11.5179 91.6062H19.9845C20.6533 91.6062 21.1955 91.064 21.1955 90.3923C21.1955 89.7218 20.6533 89.1783 19.9845 89.1783H11.5179C11.6611 82.5716 12.9658 76.2503 15.2397 70.4055L20.8221 72.7242C20.9728 72.7864 21.1312 72.8169 21.2844 72.8169C21.7594 72.8169 22.2104 72.535 22.4029 72.0677C22.6588 71.448 22.3662 70.7382 21.7481 70.4817L16.1656 68.1631C18.7738 62.2484 22.3879 56.8783 26.7922 52.2678L32.7621 58.251C32.999 58.4885 33.3081 58.6066 33.6184 58.6066C33.9288 58.6066 34.2379 58.4885 34.4747 58.251C34.9472 57.7774 34.9472 57.0092 34.4747 56.5355L28.5048 50.5523C33.1043 46.1385 38.4598 42.5156 44.3613 39.901L46.673 45.4971C46.8668 45.9644 47.3165 46.2463 47.7915 46.2463C47.9461 46.2463 48.1018 46.2171 48.2539 46.1536C50.1476 45.3689 47.9081 42.9626 46.597 38.9715C52.4239 36.6922 58.7295 35.3844 65.3201 35.2407C65.6938 41.9186 64.4258 44.9408 66.5311 44.9408C68.6376 44.9408 67.3696 41.9047 67.7421 35.2407C74.3327 35.3842 80.6386 36.6921 86.4678 38.9715C85.1529 42.9738 82.9147 45.3689 84.8097 46.1536C84.9617 46.2158 85.1187 46.2463 85.272 46.2463C86.6857 46.2463 86.5096 44.6108 88.7035 39.901C94.605 42.5142 99.9608 46.1384 104.56 50.5522L98.5901 56.5367C98.1176 57.0104 98.1176 57.7786 98.5901 58.2522C98.827 58.4897 99.136 58.6078 99.4464 58.6078C99.7567 58.6078 100.066 58.4897 100.303 58.2522L106.273 52.2677C110.676 56.8785 114.29 62.2483 116.898 68.163L111.315 70.4816C110.697 70.7381 110.405 71.448 110.661 72.0676C110.854 72.5349 111.304 72.8168 111.779 72.8168C111.934 72.8168 112.091 72.7876 112.241 72.7241L117.824 70.4054C120.098 76.2492 121.402 82.5702 121.546 89.1782H113.079C112.41 89.1782 111.868 89.7204 111.868 90.3922C111.868 91.0626 112.41 91.6061 113.079 91.6061H121.546C121.402 98.2128 120.098 104.534 117.824 110.378L112.241 108.06C111.621 107.804 110.915 108.098 110.659 108.717C110.405 109.335 110.699 110.045 111.317 110.301L111.318 110.302Z" fill="white"/>
<path d="M45.2372 77.4018V100.843H39.7457V81.7552H35V77.4018H45.2372Z" fill="white"/>
<path d="M65.5965 88.5196C66.7717 89.1001 67.6643 89.8591 68.2745 90.7968C68.9073 91.7344 69.2236 92.8172 69.2236 94.045C69.2236 95.4962 68.8056 96.7687 67.9694 97.8626C67.1333 98.9342 65.9581 99.7714 64.444 100.374C62.9299 100.955 61.1785 101.245 59.1898 101.245C57.2011 101.245 55.4497 100.955 53.9356 100.374C52.444 99.7714 51.2802 98.9342 50.4441 97.8626C49.6305 96.7687 49.2237 95.4962 49.2237 94.045C49.2237 92.8172 49.5288 91.7344 50.139 90.7968C50.7717 89.8591 51.6644 89.1001 52.8169 88.5196C51.9356 87.9838 51.2576 87.3141 50.783 86.5104C50.3085 85.6844 50.0712 84.7467 50.0712 83.6975C50.0712 82.3356 50.4554 81.1524 51.2237 80.1478C51.9921 79.1432 53.0655 78.373 54.444 77.8372C55.8226 77.2791 57.4045 77 59.1898 77C60.9977 77 62.5909 77.2791 63.9694 77.8372C65.3706 78.373 66.4553 79.1432 67.2237 80.1478C67.992 81.1524 68.3762 82.3356 68.3762 83.6975C68.3762 84.7467 68.1389 85.6844 67.6643 86.5104C67.1898 87.3141 66.5005 87.9838 65.5965 88.5196ZM59.1898 80.985C58.0824 80.985 57.1898 81.2529 56.5118 81.7887C55.8565 82.3022 55.5288 83.0166 55.5288 83.9319C55.5288 84.8249 55.8565 85.5281 56.5118 86.0416C57.1672 86.555 58.0598 86.8118 59.1898 86.8118C60.3197 86.8118 61.2237 86.555 61.9016 86.0416C62.5796 85.5281 62.9186 84.8249 62.9186 83.9319C62.9186 83.0166 62.5796 82.3022 61.9016 81.7887C61.2237 81.2529 60.3197 80.985 59.1898 80.985ZM59.1898 97.2598C60.5683 97.2598 61.6531 96.9584 62.444 96.3557C63.2576 95.7306 63.6643 94.9045 63.6643 93.8776C63.6643 92.8507 63.2576 92.0358 62.444 91.433C61.6531 90.8303 60.5683 90.5289 59.1898 90.5289C57.8339 90.5289 56.7604 90.8303 55.9695 91.433C55.1785 92.0358 54.783 92.8507 54.783 93.8776C54.783 94.9269 55.1785 95.7529 55.9695 96.3557C56.7604 96.9584 57.8339 97.2598 59.1898 97.2598Z" fill="white"/>
<path d="M75.221 94.6143C76.1701 94.6143 76.9498 94.9157 77.5599 95.5185C78.1701 96.0989 78.4752 96.8691 78.4752 97.8291C78.4752 98.2756 78.4187 98.7221 78.3057 99.1686C78.1927 99.6151 77.9441 100.285 77.5599 101.178L75.6278 106H72.2718L73.7634 100.676C73.1984 100.452 72.7464 100.095 72.4074 99.6039C72.091 99.0905 71.9328 98.4988 71.9328 97.8291C71.9328 96.8691 72.2379 96.0989 72.8481 95.5185C73.4809 94.9157 74.2718 94.6143 75.221 94.6143Z" fill="white"/>
<path d="M99 96.4226V100.843H81.0679V97.3268L90.2204 88.7875C91.1921 87.8722 91.8475 87.0908 92.1865 86.4434C92.5255 85.7737 92.6949 85.1151 92.6949 84.4677C92.6949 83.53 92.3673 82.8156 91.7119 82.3245C91.0791 81.811 90.1413 81.5543 88.8984 81.5543C87.8588 81.5543 86.921 81.7552 86.0848 82.157C85.2486 82.5366 84.5481 83.117 83.9831 83.8984L79.9831 81.3533C80.9097 79.9915 82.1865 78.9311 83.8136 78.1721C85.4407 77.3907 87.3051 77 89.4068 77C91.1695 77 92.7062 77.2902 94.017 77.8707C95.3503 78.4288 96.3785 79.2325 97.1017 80.2818C97.8475 81.3087 98.2203 82.5254 98.2203 83.9319C98.2203 85.2044 97.9492 86.3988 97.4068 87.515C96.8644 88.6313 95.8136 89.9038 94.2543 91.3326L88.7967 96.4226H99Z" fill="white"/>
</svg>
