<?xml version="1.0" encoding="UTF-8" standalone="no"?>
<svg
   width="133"
   height="157"
   viewBox="0 0 133 157"
   fill="none"
   version="1.1"
   id="svg14"
   sodipodi:docname="instant.svg"
   inkscape:version="1.2 (dc2aedaf03, 2022-05-15)"
   xmlns:inkscape="http://www.inkscape.org/namespaces/inkscape"
   xmlns:sodipodi="http://sodipodi.sourceforge.net/DTD/sodipodi-0.dtd"
   xmlns="http://www.w3.org/2000/svg"
   xmlns:svg="http://www.w3.org/2000/svg">
  <defs
     id="defs18" />
  <sodipodi:namedview
     id="namedview16"
     pagecolor="#ffffff"
     bordercolor="#666666"
     borderopacity="1.0"
     inkscape:showpageshadow="2"
     inkscape:pageopacity="0.0"
     inkscape:pagecheckerboard="0"
     inkscape:deskcolor="#d1d1d1"
     showgrid="false"
     inkscape:zoom="5.3312102"
     inkscape:cx="61.805854"
     inkscape:cy="78.593787"
     inkscape:window-width="1920"
     inkscape:window-height="1017"
     inkscape:window-x="-8"
     inkscape:window-y="-8"
     inkscape:window-maximized="1"
     inkscape:current-layer="svg14" />
  <path
     d="M102.781 34.5186L106.087 28.8374C111.673 32.3276 112.991 33.8515 113.916 32.3906C115.24 30.3006 115.672 27.8188 115.134 25.4039C114.595 22.9878 113.151 20.9268 111.067 19.6002L110.201 19.048C103.013 14.4713 95.2861 21.9632 97.8111 23.5681L104.051 27.5409L100.743 33.222C91.0517 27.3626 79.7551 23.9256 67.6837 23.7121L67.5148 14.0161H74.0512C77.9061 14.0161 81.0426 10.8722 81.0426 7.00807C81.0439 3.14528 77.9075 0 74.0525 0H58.4547C54.5998 0 51.4633 3.14393 51.4633 7.00807C51.4633 10.8721 54.5998 14.0161 58.4547 14.0161H65.1057L65.2746 23.7134C53.242 23.9332 41.978 27.3591 32.3086 33.1932L28.9578 27.536C33.5011 24.2255 36.6741 23.6568 35.5623 21.9015C32.8305 17.5888 27.106 16.3061 22.8009 19.047L21.9361 19.5992C19.8523 20.926 18.4062 22.9871 17.8682 25.4029C17.3299 27.8177 17.7623 30.2995 19.086 32.3896C19.4377 32.9431 20.1789 33.1238 20.7487 32.7611L26.9221 28.8314L30.2716 34.485C12.0669 46.3923 0 66.9762 0 90.3418C0 127.097 29.8327 157 66.5 157C103.167 157 133 127.096 133 90.3418C133 66.9963 120.955 46.4282 102.778 34.5173L102.781 34.5186ZM103.756 20.1841C105.539 19.7835 107.369 20.1058 108.91 21.0863L109.776 21.6385C112.645 23.4657 113.664 27.0379 112.44 30.0201L100.209 22.2338C101.147 21.2089 102.372 20.4937 103.757 20.1842L103.756 20.1841ZM53.8734 7.00839C53.8734 4.47609 55.9295 2.41646 58.4544 2.41646H74.0522C76.5785 2.41646 78.6332 4.47745 78.6332 7.00839C78.6332 9.5407 76.5771 11.6003 74.0522 11.6003L58.4544 11.6016C55.9294 11.6016 53.8734 9.5406 53.8734 7.00836V7.00839ZM20.5653 30.0204C19.3387 27.0345 20.3623 23.4633 23.2303 21.6388L24.0951 21.0866C27.016 19.2291 30.6666 19.9026 32.796 22.234L20.5653 30.0204ZM66.5015 154.586C31.1602 154.586 2.40899 125.767 2.40899 90.3414C2.40899 54.9194 31.1602 26.0997 66.5015 26.0997C101.843 26.0997 130.594 54.9194 130.594 90.3447C130.594 125.767 101.843 154.586 66.5015 154.586Z"
     fill="white"
     id="path2"
     style="fill:#ffffff" />
  <path
     d="M119.631 112.404C122.441 105.618 124 98.1857 124 90.3928C124 82.5999 122.441 75.1678 119.631 68.3833C119.626 68.3719 119.628 68.3592 119.623 68.3477C119.62 68.3376 119.611 68.3312 119.606 68.3211C98.7962 18.218 29.4404 24.3131 13.4308 68.3871C-2.38644 106.599 26.2044 148 66.5312 148V147.999C90.016 147.999 110.789 133.687 119.602 112.469C119.607 112.457 119.618 112.448 119.623 112.436C119.628 112.425 119.625 112.413 119.629 112.403L119.631 112.404ZM111.318 110.302L116.9 112.62C114.292 118.534 110.678 123.904 106.273 128.515C101.367 124.119 100.086 121.033 98.5919 122.53C98.1194 123.004 98.1194 123.772 98.5919 124.246L104.562 130.23C99.9623 134.644 94.6068 138.267 88.7053 140.882C86.8065 137.109 86.7077 133.847 84.8114 134.63C82.9177 135.415 85.1572 137.82 86.4683 141.813C80.6387 144.092 74.3332 145.398 67.7426 145.542V137.055C67.7426 135.448 65.3219 135.45 65.3219 137.055V145.542C58.7313 145.399 52.4254 144.091 46.5962 141.811C47.911 137.809 50.148 135.415 48.2543 134.63C46.3505 133.841 46.2175 137.194 44.3604 140.882C38.4602 138.267 33.1031 134.644 28.5039 130.23C32.8891 125.312 35.9675 124.027 34.4738 122.53C32.9842 121.037 31.753 124.07 26.7924 128.513C22.3893 123.902 18.7752 118.534 16.1671 112.619C19.9203 110.721 23.1883 110.615 22.4042 108.716C21.6189 106.818 19.221 109.063 15.2397 110.378C12.9659 104.534 11.6613 98.2129 11.5179 91.6062H19.9845C20.6533 91.6062 21.1955 91.064 21.1955 90.3923C21.1955 89.7218 20.6533 89.1783 19.9845 89.1783H11.5179C11.6611 82.5716 12.9658 76.2503 15.2397 70.4055L20.8221 72.7242C20.9728 72.7864 21.1312 72.8169 21.2844 72.8169C21.7594 72.8169 22.2104 72.535 22.4029 72.0677C22.6588 71.448 22.3662 70.7382 21.7481 70.4817L16.1656 68.1631C18.7738 62.2484 22.3879 56.8783 26.7922 52.2678L32.7621 58.251C32.999 58.4885 33.3081 58.6066 33.6184 58.6066C33.9288 58.6066 34.2379 58.4885 34.4747 58.251C34.9472 57.7774 34.9472 57.0092 34.4747 56.5355L28.5048 50.5523C33.1043 46.1385 38.4598 42.5156 44.3613 39.901L46.673 45.4971C46.8668 45.9644 47.3165 46.2463 47.7915 46.2463C47.9461 46.2463 48.1018 46.2171 48.2539 46.1536C50.1476 45.3689 47.9081 42.9626 46.597 38.9715C52.4239 36.6922 58.7295 35.3844 65.3201 35.2407C65.6938 41.9186 64.4258 44.9408 66.5311 44.9408C68.6376 44.9408 67.3696 41.9047 67.7421 35.2407C74.3327 35.3842 80.6386 36.6921 86.4678 38.9715C85.1529 42.9738 82.9147 45.3689 84.8097 46.1536C84.9617 46.2158 85.1187 46.2463 85.272 46.2463C86.6857 46.2463 86.5096 44.6108 88.7035 39.901C94.605 42.5142 99.9608 46.1384 104.56 50.5522L98.5901 56.5367C98.1176 57.0104 98.1176 57.7786 98.5901 58.2522C98.827 58.4897 99.136 58.6078 99.4464 58.6078C99.7567 58.6078 100.066 58.4897 100.303 58.2522L106.273 52.2677C110.676 56.8785 114.29 62.2483 116.898 68.163L111.315 70.4816C110.697 70.7381 110.405 71.448 110.661 72.0676C110.854 72.5349 111.304 72.8168 111.779 72.8168C111.934 72.8168 112.091 72.7876 112.241 72.7241L117.824 70.4054C120.098 76.2492 121.402 82.5702 121.546 89.1782H113.079C112.41 89.1782 111.868 89.7204 111.868 90.3922C111.868 91.0626 112.41 91.6061 113.079 91.6061H121.546C121.402 98.2128 120.098 104.534 117.824 110.378L112.241 108.06C111.621 107.804 110.915 108.098 110.659 108.717C110.405 109.335 110.699 110.045 111.317 110.301L111.318 110.302Z"
     fill="white"
     id="path4"
     style="fill:#ffffff" />
  <text
     xml:space="preserve"
     style="font-style:normal;font-weight:normal;font-size:33.3333px;line-height:1.25;font-family:sans-serif;fill:#ffffff;fill-opacity:1;stroke:none"
     x="51.395462"
     y="100.54003"
     id="text178"><tspan
       sodipodi:role="line"
       id="tspan176"
       x="51.395462"
       y="100.54003"
       style="font-style:normal;font-variant:normal;font-weight:bold;font-stretch:normal;font-size:33.3333px;font-family:Montserrat;-inkscape-font-specification:'Montserrat, Bold';font-variant-ligatures:normal;font-variant-caps:normal;font-variant-numeric:normal;font-variant-east-asian:normal;fill:#ffffff">15</tspan></text>
</svg>
