<svg width="16" height="16" viewBox="0 0 16 16" fill="none" xmlns="http://www.w3.org/2000/svg">
<path fill-rule="evenodd" clip-rule="evenodd" d="M8.78652 2L9.46067 3.4382L10.2247 3.66292L11.6629 3.21348L12.7865 4.33708L12.2921 5.77528L12.6067 6.49438L14 7.21348V8.78652L12.6067 9.46067L12.3371 10.2247L12.7865 11.6629L11.6629 12.7865L10.2247 12.2921L9.50562 12.6067L8.78652 14H7.21348L6.53933 12.6067L5.82022 12.3371L4.33708 12.7865L3.21348 11.6629L3.75281 10.2247L3.39326 9.50562L2.04494 8.78652L2 7.21348L3.4382 6.53933L3.66292 5.82022L3.21348 4.33708L4.33708 3.21348L5.77528 3.75281L6.49438 3.39326L7.21348 2.04494L8.78652 2ZM8.02247 5.82022C9.19101 5.82022 10.1798 6.80899 10.1798 8.02247C10.1798 9.19101 9.19101 10.1798 8.02247 10.1798C6.80899 10.1798 5.82022 9.19101 5.82022 8.02247C5.82022 6.80899 6.80899 5.82022 8.02247 5.82022Z" fill="white"/>
</svg>
