<svg width="81" height="81" viewBox="0 0 81 81" fill="none" xmlns="http://www.w3.org/2000/svg">
<circle cx="40.5" cy="40.5" r="39.5" stroke="#26C4F7" stroke-width="2"/>
<circle cx="40.5" cy="40.5" r="34" stroke="#26C4F7"/>
<path d="M47.6025 52H32.6318V48.8506L38.0078 43.416C39.5996 41.7852 40.6396 40.6572 41.1279 40.0322C41.6162 39.3975 41.9678 38.8115 42.1826 38.2744C42.3975 37.7373 42.5049 37.1807 42.5049 36.6045C42.5049 35.7451 42.2656 35.1055 41.7871 34.6855C41.3184 34.2656 40.6885 34.0557 39.8975 34.0557C39.0674 34.0557 38.2617 34.2461 37.4805 34.627C36.6992 35.0078 35.8838 35.5498 35.0342 36.2529L32.5732 33.3379C33.6279 32.4395 34.502 31.8047 35.1953 31.4336C35.8887 31.0625 36.6455 30.7793 37.4658 30.584C38.2861 30.3789 39.2041 30.2764 40.2197 30.2764C41.5576 30.2764 42.7393 30.5205 43.7646 31.0088C44.79 31.4971 45.5859 32.1807 46.1523 33.0596C46.7188 33.9385 47.002 34.9443 47.002 36.0771C47.002 37.0635 46.8262 37.9912 46.4746 38.8604C46.1328 39.7197 45.5957 40.6035 44.8633 41.5117C44.1406 42.4199 42.8613 43.7139 41.0254 45.3936L38.2715 47.9863V48.1914H47.6025V52Z" fill="#7DE2FF"/>
</svg>
