<svg width="81" height="81" viewBox="0 0 81 81" fill="none" xmlns="http://www.w3.org/2000/svg">
<circle cx="40.5" cy="40.5" r="39.5" stroke="#26C4F7" stroke-width="2"/>
<circle cx="40.5" cy="40.5" r="34" stroke="#26C4F7"/>
<path d="M46.7676 35.374C46.7676 36.7119 46.3623 37.8496 45.5518 38.7871C44.7412 39.7246 43.6035 40.3691 42.1387 40.7207V40.8086C43.8672 41.0234 45.1758 41.5508 46.0645 42.3906C46.9531 43.2207 47.3975 44.3438 47.3975 45.7598C47.3975 47.8203 46.6504 49.4268 45.1562 50.5791C43.6621 51.7217 41.5283 52.293 38.7549 52.293C36.4307 52.293 34.3701 51.9072 32.5732 51.1357V47.2832C33.4033 47.7031 34.3164 48.0449 35.3125 48.3086C36.3086 48.5723 37.2949 48.7041 38.2715 48.7041C39.7656 48.7041 40.8691 48.4502 41.582 47.9424C42.2949 47.4346 42.6514 46.6191 42.6514 45.4961C42.6514 44.4902 42.2412 43.7773 41.4209 43.3574C40.6006 42.9375 39.292 42.7275 37.4951 42.7275H35.8691V39.2559H37.5244C39.1846 39.2559 40.3955 39.041 41.1572 38.6113C41.9287 38.1719 42.3145 37.4248 42.3145 36.3701C42.3145 34.749 41.2988 33.9385 39.2676 33.9385C38.5645 33.9385 37.8467 34.0557 37.1143 34.29C36.3916 34.5244 35.5859 34.9297 34.6973 35.5059L32.6025 32.3857C34.5557 30.9795 36.8848 30.2764 39.5898 30.2764C41.8066 30.2764 43.5547 30.7256 44.834 31.624C46.123 32.5225 46.7676 33.7725 46.7676 35.374Z" fill="#7DE2FF"/>
</svg>
