<svg width="32" height="32" viewBox="0 0 32 32" fill="none" xmlns="http://www.w3.org/2000/svg">
<path d="M9.97441 18.1776C9.70294 17.4852 9.24376 17.3233 8.87384 17.2594C8.56524 17.2058 8.18058 17.0946 8.04438 17.0221C8.03991 16.9621 8.03756 16.8404 8.04989 16.6415C8.0574 16.6332 8.06508 16.6262 8.07252 16.6176L8.06868 16.6142C8.25106 16.3773 8.33822 16.1549 8.37747 16.0046C8.49531 15.9242 8.61899 15.7675 8.69183 15.4645C8.73393 15.2888 8.76548 15.067 8.63523 14.9081C8.63201 14.9043 8.62903 14.9007 8.62587 14.8969C8.74254 13.7841 8.00551 13.2218 7.57261 13.0755L7.56641 13.0734L7.5604 13.0718C7.39729 13.0242 7.24008 13 7.09396 13C7.05956 13 7.02738 13.0014 6.9962 13.0038C6.96433 13.0013 6.93166 13 6.89906 13C6.75257 13 6.59554 13.0242 6.43237 13.0717L6.42642 13.0736L6.42041 13.0754C5.98732 13.2217 5.25048 13.784 5.36708 14.8968C5.36367 14.9006 5.36064 14.9043 5.35772 14.9081C5.22729 15.0669 5.25903 15.2888 5.30112 15.4644C5.37397 15.7675 5.49739 15.9242 5.61549 16.0046C5.65436 16.1537 5.74127 16.3731 5.92025 16.608L5.92236 16.6108C5.93265 16.6243 5.9399 16.6371 5.95075 16.6505C5.96234 16.8411 5.96017 16.9599 5.95484 17.0226C5.8179 17.0945 5.43435 17.2059 5.12606 17.2593C4.75627 17.3231 4.29702 17.4851 4.02568 18.1772C3.97962 18.295 3.99605 18.4226 4.07075 18.5274C4.34934 18.918 5.81746 19 6.99998 19C8.1825 19 9.6508 18.918 9.92928 18.5275C10.004 18.4227 10.0203 18.2951 9.97441 18.1776Z" fill="#26C4F7"/>
<path d="M27.9744 9.17758C27.7029 8.48524 27.2438 8.3233 26.8738 8.2594C26.5652 8.20582 26.1806 8.09464 26.0444 8.0221C26.0399 7.9621 26.0376 7.84036 26.0499 7.64146C26.0574 7.63324 26.0651 7.62622 26.0725 7.61758L26.0687 7.61416C26.2511 7.37734 26.3382 7.15492 26.3775 7.00462C26.4953 6.92422 26.619 6.7675 26.6918 6.4645C26.7339 6.28882 26.7655 6.067 26.6352 5.90812C26.632 5.90434 26.629 5.90068 26.6259 5.8969C26.7425 4.78408 26.0055 4.22182 25.5726 4.07548L25.5664 4.07344L25.5604 4.07176C25.3973 4.02424 25.2401 4 25.094 4C25.0596 4 25.0274 4.00144 24.9962 4.00378C24.9643 4.00126 24.9317 4 24.8991 4C24.7526 4 24.5955 4.02418 24.4324 4.0717L24.4264 4.07356L24.4204 4.07542C23.9873 4.2217 23.2505 4.78402 23.3671 5.89684C23.3637 5.90062 23.3606 5.90428 23.3577 5.90806C23.2273 6.06694 23.259 6.28882 23.3011 6.46444C23.374 6.7675 23.4974 6.92416 23.6155 7.00456C23.6544 7.15366 23.7413 7.37314 23.9202 7.60798L23.9224 7.6108C23.9326 7.6243 23.9399 7.63708 23.9507 7.65052C23.9623 7.84108 23.9602 7.95988 23.9548 8.02258C23.8179 8.09452 23.4343 8.20588 23.1261 8.25928C22.7563 8.32312 22.297 8.48512 22.0257 9.17722C21.9796 9.295 21.996 9.42262 22.0707 9.52738C22.3493 9.91798 23.8175 10 25 10C26.1825 10 27.6508 9.91798 27.9293 9.5275C28.004 9.42274 28.0203 9.29512 27.9744 9.17758Z" fill="#26C4F7"/>
<path d="M27.9744 27.1776C27.7029 26.4852 27.2438 26.3233 26.8738 26.2594C26.5652 26.2058 26.1806 26.0946 26.0444 26.0221C26.0399 25.9621 26.0376 25.8404 26.0499 25.6415C26.0574 25.6332 26.0651 25.6262 26.0725 25.6176L26.0687 25.6142C26.2511 25.3773 26.3382 25.1549 26.3775 25.0046C26.4953 24.9242 26.619 24.7675 26.6918 24.4645C26.7339 24.2888 26.7655 24.067 26.6352 23.9081C26.632 23.9043 26.629 23.9007 26.6259 23.8969C26.7425 22.7841 26.0055 22.2218 25.5726 22.0755L25.5664 22.0734L25.5604 22.0718C25.3973 22.0242 25.2401 22 25.094 22C25.0596 22 25.0274 22.0014 24.9962 22.0038C24.9643 22.0013 24.9317 22 24.8991 22C24.7526 22 24.5955 22.0242 24.4324 22.0717L24.4264 22.0736L24.4204 22.0754C23.9873 22.2217 23.2505 22.784 23.3671 23.8968C23.3637 23.9006 23.3606 23.9043 23.3577 23.9081C23.2273 24.0669 23.259 24.2888 23.3011 24.4644C23.374 24.7675 23.4974 24.9242 23.6155 25.0046C23.6544 25.1537 23.7413 25.3731 23.9202 25.608L23.9224 25.6108C23.9326 25.6243 23.9399 25.6371 23.9507 25.6505C23.9623 25.8411 23.9602 25.9599 23.9548 26.0226C23.8179 26.0945 23.4343 26.2059 23.1261 26.2593C22.7563 26.3231 22.297 26.4851 22.0257 27.1772C21.9796 27.295 21.996 27.4226 22.0707 27.5274C22.3493 27.918 23.8175 28 25 28C26.1825 28 27.6508 27.918 27.9293 27.5275C28.004 27.4227 28.0203 27.2951 27.9744 27.1776Z" fill="#26C4F7"/>
<path fill-rule="evenodd" clip-rule="evenodd" d="M19.3144 24.989L12.8144 20.989L12.1855 22.011L18.6855 26.011L19.3144 24.989Z" fill="#26C4F7"/>
<path d="M12.5 10.5L19 6.5" stroke="#26C4F7" stroke-width="1.2"/>
<path fill-rule="evenodd" clip-rule="evenodd" d="M18.4 2.4999C18.4 1.3401 19.3402 0.399902 20.5 0.399902H29.5C30.6598 0.399902 31.6 1.3401 31.6 2.4999V11.4999C31.6 12.6597 30.6598 13.5999 29.5 13.5999H20.5C19.3402 13.5999 18.4 12.6597 18.4 11.4999V2.4999ZM20.5 1.5999C20.0029 1.5999 19.6 2.00285 19.6 2.4999V11.4999C19.6 11.997 20.0029 12.3999 20.5 12.3999H29.5C29.9971 12.3999 30.4 11.997 30.4 11.4999V2.4999C30.4 2.00285 29.9971 1.5999 29.5 1.5999H20.5Z" fill="#26C4F7"/>
<path fill-rule="evenodd" clip-rule="evenodd" d="M18.4 20.4999C18.4 19.3401 19.3402 18.3999 20.5 18.3999H29.5C30.6598 18.3999 31.6 19.3401 31.6 20.4999V29.4999C31.6 30.6597 30.6598 31.5999 29.5 31.5999H20.5C19.3402 31.5999 18.4 30.6597 18.4 29.4999V20.4999ZM20.5 19.5999C20.0029 19.5999 19.6 20.0028 19.6 20.4999V29.4999C19.6 29.997 20.0029 30.3999 20.5 30.3999H29.5C29.9971 30.3999 30.4 29.997 30.4 29.4999V20.4999C30.4 20.0028 29.9971 19.5999 29.5 19.5999H20.5Z" fill="#26C4F7"/>
<path fill-rule="evenodd" clip-rule="evenodd" d="M0.400002 11.4999C0.400002 10.3401 1.3402 9.3999 2.5 9.3999H11.5C12.6598 9.3999 13.6 10.3401 13.6 11.4999V20.4999C13.6 21.6597 12.6598 22.5999 11.5 22.5999H2.5C1.3402 22.5999 0.400002 21.6597 0.400002 20.4999V11.4999ZM2.5 10.5999C2.00295 10.5999 1.6 11.0028 1.6 11.4999V20.4999C1.6 20.997 2.00295 21.3999 2.5 21.3999H11.5C11.9971 21.3999 12.4 20.997 12.4 20.4999V11.4999C12.4 11.0028 11.9971 10.5999 11.5 10.5999H2.5Z" fill="#26C4F7"/>
</svg>
