<svg width="32" height="32" viewBox="0 0 32 32" fill="none" xmlns="http://www.w3.org/2000/svg">
<path fill-rule="evenodd" clip-rule="evenodd" d="M10.25 27.0076L10.25 0.593384L11.75 0.593384L11.75 27.0076C11.75 27.1382 11.8544 27.25 12 27.25L27 27.25L27 28.75L12 28.75C11.041 28.75 10.25 27.9816 10.25 27.0076Z" fill="#26C4F7"/>
<path fill-rule="evenodd" clip-rule="evenodd" d="M27 17.75L19 17.75L19 16.25L27 16.25L27 17.75Z" fill="#26C4F7"/>
<path fill-rule="evenodd" clip-rule="evenodd" d="M27 6.75L20 6.75L20 5.25L27 5.25L27 6.75Z" fill="#26C4F7"/>
<path fill-rule="evenodd" clip-rule="evenodd" d="M21 11.75L0 11.75L-4.17245e-08 10.25L21 10.25L21 11.75Z" fill="#26C4F7"/>
<path fill-rule="evenodd" clip-rule="evenodd" d="M3.42788 17.6938C3.31083 17.7161 3.13352 17.75 3 17.75L3 16.25C2.98859 16.25 2.98183 16.2502 2.98179 16.2498C2.98169 16.2487 3.02521 16.2436 3.14673 16.2204C3.26629 16.1975 3.42022 16.1659 3.61217 16.1264C3.6395 16.1208 3.66759 16.115 3.69646 16.1091C4.15466 16.015 4.7795 15.888 5.51985 15.7608C6.99797 15.507 8.95075 15.25 11 15.25C12.4898 15.25 14.5392 15.5083 16.1837 15.7585C17.0129 15.8847 17.7515 16.0108 18.283 16.1053C18.5488 16.1526 18.7631 16.1921 18.9112 16.2198C18.9853 16.2337 19.0429 16.2446 19.0821 16.2521L19.127 16.2607L19.143 16.2638C19.1431 16.2638 19.1431 16.2638 19 17C18.8569 17.7362 18.8569 17.7362 18.8569 17.7362L18.8433 17.7336L18.8009 17.7255C18.7634 17.7183 18.7077 17.7077 18.6355 17.6943C18.4912 17.6673 18.2813 17.6286 18.0202 17.5822C17.4978 17.4892 16.7719 17.3653 15.958 17.2415C14.3165 16.9917 12.3658 16.75 11 16.75C9.068 16.75 7.20713 16.993 5.77373 17.2392C5.05831 17.362 4.45294 17.485 3.99826 17.5784C3.96978 17.5843 3.94177 17.59 3.91427 17.5957C3.7247 17.6347 3.55862 17.6688 3.42788 17.6938Z" fill="#26C4F7"/>
<path fill-rule="evenodd" clip-rule="evenodd" d="M3.42788 4.30623C3.31083 4.28387 3.13352 4.25 3 4.25L3 5.75C2.98859 5.75 2.98183 5.74979 2.98179 5.75021C2.98169 5.75127 3.02521 5.75643 3.14673 5.77965C3.26629 5.80249 3.42022 5.83413 3.61217 5.87359C3.6395 5.87921 3.66759 5.88498 3.69646 5.89091C4.15466 5.98502 4.7795 6.11204 5.51985 6.23918C6.99797 6.49302 8.95075 6.75 11 6.75C12.4898 6.75 14.5392 6.49169 16.1837 6.24147C17.0129 6.1153 17.7515 5.98921 18.283 5.89465C18.5488 5.84735 18.7631 5.80789 18.9112 5.78019C18.9853 5.76634 19.0429 5.75542 19.0821 5.74793L19.127 5.73932L19.143 5.73624C19.1431 5.73623 19.1431 5.73622 19 5C18.8569 4.26378 18.8569 4.26378 18.8569 4.26378L18.8433 4.26641L18.8009 4.27453C18.7634 4.28168 18.7077 4.29225 18.6355 4.30574C18.4912 4.33273 18.2813 4.37139 18.0202 4.41785C17.4978 4.51079 16.7719 4.6347 15.958 4.75853C14.3165 5.00831 12.3658 5.25 11 5.25C9.068 5.25 7.20713 5.00698 5.77373 4.76082C5.05831 4.63796 4.45294 4.51498 3.99826 4.42159C3.96978 4.41574 3.94177 4.40998 3.91427 4.40432C3.7247 4.36535 3.55862 4.33121 3.42788 4.30623Z" fill="#26C4F7"/>
<path fill-rule="evenodd" clip-rule="evenodd" d="M14.3443 19.9948C14.3103 20.1101 14.25 20.3149 14.25 20.5H15.75C15.75 20.5292 15.7475 20.5479 15.7481 20.548C15.7489 20.5481 15.7558 20.5116 15.7839 20.4161C15.8119 20.3211 15.8484 20.2066 15.8947 20.0611C15.9116 20.0082 15.9298 19.9511 15.9493 19.8895C16.0924 19.438 16.2859 18.8083 16.4794 17.9999C16.8667 16.3817 17.25 14.0645 17.25 11C17.25 8.11497 16.8664 5.6841 16.4818 3.97108C16.2894 3.11413 16.0964 2.43544 15.9502 1.96775C15.8772 1.73386 15.8158 1.5526 15.7719 1.42805C15.75 1.36577 15.7325 1.31766 15.7201 1.28423L15.7055 1.24514L15.7012 1.23396L15.6999 1.23049L15.6994 1.22929C15.6993 1.22909 15.6991 1.22844 15 1.50004C14.3009 1.77164 14.3008 1.77148 14.3008 1.77135L14.3031 1.77743L14.3136 1.80532C14.3231 1.83119 14.3379 1.87154 14.357 1.92585C14.3952 2.03448 14.451 2.19891 14.5185 2.41509C14.6536 2.84755 14.8356 3.48654 15.0182 4.29971C15.3836 5.92693 15.75 8.24606 15.75 11C15.75 13.9356 15.3833 16.1354 15.0206 17.6508C14.8391 18.4091 14.6576 19.0003 14.5194 19.4363C14.5028 19.4888 14.4864 19.5403 14.4704 19.5902C14.422 19.7422 14.3781 19.8801 14.345 19.9923L14.3443 19.9948Z" fill="#26C4F7"/>
<path fill-rule="evenodd" clip-rule="evenodd" d="M8.15572 2.00523C8.18969 1.88991 8.25 1.68515 8.25 1.49996H6.75C6.75 1.47081 6.75248 1.45212 6.7519 1.45203C6.75108 1.45189 6.74425 1.48837 6.7161 1.58394C6.68814 1.67886 6.65165 1.79337 6.60526 1.93891C6.58839 1.99183 6.57022 2.04886 6.55067 2.11053C6.40759 2.56201 6.21409 3.19169 6.0206 4.00008C5.6333 5.61826 5.25 7.93551 5.25 11C5.25 13.885 5.63359 16.3159 6.01822 18.0289C6.21064 18.8859 6.40363 19.5646 6.54975 20.0323C6.62283 20.2661 6.68424 20.4474 6.72805 20.5719C6.74996 20.6342 6.76748 20.6823 6.77987 20.7158L6.79451 20.7549L6.79877 20.766L6.80011 20.7695L6.80058 20.7707C6.80065 20.7709 6.80091 20.7716 7.5 20.5C8.19909 20.2284 8.19915 20.2285 8.19921 20.2287L8.19689 20.2226L8.18644 20.1947C8.17686 20.1688 8.16215 20.1285 8.14304 20.0742C8.10483 19.9655 8.04904 19.8011 7.9815 19.5849C7.84637 19.1524 7.66436 18.5135 7.48178 17.7003C7.11641 16.0731 6.75 13.7539 6.75 11C6.75 8.06442 7.1167 5.8646 7.4794 4.34924C7.66091 3.59086 7.84241 2.99966 7.98058 2.56371C7.99723 2.51116 8.01363 2.45971 8.02955 2.40977C8.07798 2.25785 8.12195 2.11992 8.15499 2.00771L8.15572 2.00523Z" fill="#26C4F7"/>
<path fill-rule="evenodd" clip-rule="evenodd" d="M29 7.5C29.8284 7.5 30.5 6.82843 30.5 6C30.5 5.17157 29.8284 4.5 29 4.5C28.1716 4.5 27.5 5.17157 27.5 6C27.5 6.82843 28.1716 7.5 29 7.5ZM29 9C30.6569 9 32 7.65685 32 6C32 4.34315 30.6569 3 29 3C27.3431 3 26 4.34315 26 6C26 7.65685 27.3431 9 29 9Z" fill="#26C4F7"/>
<path fill-rule="evenodd" clip-rule="evenodd" d="M29 18.5C29.8284 18.5 30.5 17.8284 30.5 17C30.5 16.1716 29.8284 15.5 29 15.5C28.1716 15.5 27.5 16.1716 27.5 17C27.5 17.8284 28.1716 18.5 29 18.5ZM29 20C30.6569 20 32 18.6569 32 17C32 15.3431 30.6569 14 29 14C27.3431 14 26 15.3431 26 17C26 18.6569 27.3431 20 29 20Z" fill="#26C4F7"/>
<path fill-rule="evenodd" clip-rule="evenodd" d="M29 29.5C29.8284 29.5 30.5 28.8284 30.5 28C30.5 27.1716 29.8284 26.5 29 26.5C28.1716 26.5 27.5 27.1716 27.5 28C27.5 28.8284 28.1716 29.5 29 29.5ZM29 31C30.6569 31 32 29.6569 32 28C32 26.3431 30.6569 25 29 25C27.3431 25 26 26.3431 26 28C26 29.6569 27.3431 31 29 31Z" fill="#26C4F7"/>
<path fill-rule="evenodd" clip-rule="evenodd" d="M11 20.5C16.2467 20.5 20.5 16.2467 20.5 11C20.5 5.75329 16.2467 1.5 11 1.5C5.75329 1.5 1.5 5.75329 1.5 11C1.5 16.2467 5.75329 20.5 11 20.5ZM11 22C17.0751 22 22 17.0751 22 11C22 4.92487 17.0751 0 11 0C4.92487 0 0 4.92487 0 11C0 17.0751 4.92487 22 11 22Z" fill="#26C4F7"/>
</svg>
