<svg width="32" height="32" viewBox="0 0 32 32" fill="none" xmlns="http://www.w3.org/2000/svg">
<path d="M6.75 27V4C6.75 3.30964 7.30964 2.75 8 2.75H17.2091C17.5267 2.75 17.8323 2.87088 18.064 3.08808L24.8549 9.45454C25.107 9.69085 25.25 10.021 25.25 10.3665V27C25.25 27.6904 24.6904 28.25 24 28.25H16H8C7.30964 28.25 6.75 27.6904 6.75 27Z" stroke="#26C4F7" stroke-width="1.5"/>
<path d="M16.5 8.00024C16.1012 8.00024 15.7777 8.3238 15.7777 8.72255V9.44461C12.5913 9.44461 10 12.0359 10 15.2223C10 18.4087 12.5913 21 15.7777 21C18.9641 21 21.5554 18.4087 21.5554 15.2223H22.2777C22.6764 15.2223 23 14.8988 23 14.5C23 10.9165 20.0837 8.00024 16.5 8.00024ZM15.7777 19.556C13.3885 19.556 11.4444 17.6118 11.4444 15.2227C11.4444 12.8335 13.3885 10.8893 15.7777 10.8893V14.5004C15.7777 14.8991 16.1012 15.2227 16.5 15.2227H20.111C20.111 17.6118 18.1668 19.556 15.7777 19.556Z" fill="#26C4F7"/>
<rect x="10" y="23" width="12" height="1.4" fill="#26C4F7"/>
</svg>
