<svg width="32" height="32" viewBox="0 0 32 32" fill="none" xmlns="http://www.w3.org/2000/svg">
<path d="M4 27.2143H29V29H4V27.2143ZM5.78571 16.5H9.35714C10.3433 16.5 11.1429 17.2268 11.1429 18.1233V25.4284H4V18.1233C4 17.2268 4.79959 16.5 5.78571 16.5ZM9.35714 23.6429V18.2857H5.78571V23.6429H9.35714ZM14.7143 10.25H18.2857C19.2718 10.25 20.0714 11.0052 20.0714 11.9365V25.4288H12.9286V11.9365C12.9286 11.0052 13.7282 10.25 14.7143 10.25ZM18.2857 23.6429V12.0357H14.7143V23.6429H18.2857ZM23.6429 4H27.2143C28.2004 4 29 4.73801 29 5.64842V25.4285H21.8571V5.64842C21.8571 4.73801 22.6567 4 23.6429 4V4ZM27.2143 23.6429V5.78571H23.6429V23.6429H27.2143Z" fill="#26C4F7"/>
</svg>
