<svg width="32" height="32" viewBox="0 0 32 32" fill="none" xmlns="http://www.w3.org/2000/svg">
<g clip-path="url(#clip0_3086_1178)">
<path d="M27.7208 19.7164L28.91 20.6419L28.901 20.6534L28.9118 20.6432C29.0617 20.7636 29.1549 20.95 29.1498 21.1531M27.7208 19.7164L28.9998 21.1493M27.7208 19.7164C27.6039 19.6126 27.3124 19.4006 26.7949 19.306C26.2723 19.2104 25.529 19.2362 24.5146 19.6005L21.0669 20.646C20.9402 20.1354 20.6221 19.7658 20.2641 19.511C19.8707 19.231 19.4222 19.084 19.1003 19.0327M27.7208 19.7164L11.265 17.9469C12.6618 17.6543 14.0407 18.0268 15.35 19.0266M29.1498 21.1531L28.9998 21.1493M29.1498 21.1531C29.1498 21.153 29.1498 21.153 29.1498 21.1529L28.9998 21.1493M29.1498 21.1531C29.1449 21.3563 29.0419 21.5388 28.881 21.6502L28.8813 21.6501L28.7955 21.527M28.9998 21.1493C28.9962 21.3034 28.9182 21.442 28.7955 21.527M28.7955 21.527L28.8809 21.6503M28.7955 21.527L28.8809 21.6503M28.8809 21.6503L20.8847 27.2202L20.7966 27.0988L20.8823 27.2219L20.8835 27.2211L28.8809 21.6503ZM19.1003 19.0327C19.1009 19.0328 19.1015 19.0329 19.1021 19.033L19.0754 19.1806L19.0989 19.0325C19.0994 19.0326 19.0998 19.0326 19.1003 19.0327ZM19.1003 19.0327C19.0651 19.0265 19.0319 19.0266 19.0116 19.0266L19.0085 19.0266H15.35M15.35 19.0266C15.3636 19.037 15.3772 19.0475 15.3908 19.058L15.299 19.1766M15.35 19.0266H15.299V19.1766M15.299 19.1766C14.0054 18.1748 12.6561 17.8088 11.2957 18.0937L15.299 19.1766ZM7.74592 32.15C7.55016 32.15 7.35361 32.0473 7.24026 31.8687L7.74592 32.15ZM7.74592 32.15C7.85679 32.15 7.97745 32.1203 8.08129 32.0456L7.74592 32.15ZM12.137 27.3297L12.1729 27.3078L12.0948 27.1797V27.3297H12.137ZM10.7037 28.2039L10.6229 28.0775L10.751 27.9993L10.8318 28.1257L10.7037 28.2039ZM11.495 29.4897C11.4952 29.489 11.4953 29.4883 11.4954 29.4876L11.3478 29.4609L11.4946 29.4917C11.4948 29.491 11.4949 29.4903 11.495 29.4897ZM1.9509 23.5457L1.95208 23.5475C1.95255 23.5482 1.95302 23.5489 1.95349 23.5496L2.0775 23.4652L1.9509 23.5457ZM1.86388 23.0796C1.86372 23.0803 1.86356 23.081 1.86341 23.0818C1.86327 23.0825 1.86314 23.0833 1.863 23.084L2.01061 23.1107L1.86388 23.0796ZM2.12171 22.6884C2.12124 22.6887 2.12076 22.689 2.12029 22.6893L2.11908 22.6902L2.20377 22.814L2.12171 22.6884ZM6.73288 21.6718L6.64517 21.5341C6.61318 21.5808 6.58267 21.6261 6.55368 21.6697L6.6419 21.8082C6.67059 21.7646 6.70093 21.719 6.73288 21.6718ZM27.5053 21.1082L20.359 26.0856H11.9684C11.8618 26.0856 11.7536 26.1168 11.6607 26.1725L11.6595 26.1732L10.1757 27.0826L7.36497 22.6624C7.60114 22.2827 8.08996 21.5541 8.76853 20.8524C9.49992 20.0962 10.4379 19.3858 11.5045 19.1617C12.5873 18.9379 13.6834 19.2562 14.7724 20.1361C14.8814 20.2272 15.0171 20.2665 15.1464 20.2665H18.9527C19.0479 20.2859 19.2888 20.3462 19.5074 20.4805C19.7351 20.6205 19.9177 20.8263 19.9177 21.1379C19.9177 21.1392 19.9177 21.1406 19.9177 21.1422C19.9177 21.1652 19.9175 21.2151 19.9293 21.2612C19.934 21.2845 19.9399 21.3285 19.9435 21.3894C19.9403 21.4281 19.9405 21.4687 19.9438 21.5087C19.9394 21.6675 19.9042 21.8628 19.7927 22.0401C19.6836 22.2135 19.4942 22.3815 19.1586 22.4791H15.8304C15.4933 22.4791 15.2269 22.7632 15.2269 23.0992C15.2269 23.4352 15.4933 23.7193 15.8304 23.7193H19.2352C19.2803 23.7193 19.3307 23.7149 19.3762 23.7031C19.9665 23.557 20.379 23.2755 20.6568 22.9327C20.9095 22.6208 21.0454 22.265 21.1075 21.9287L24.8728 20.7845L24.8729 20.7847L24.8795 20.7823C25.6633 20.5033 26.184 20.4802 26.5008 20.52C26.6593 20.54 26.7682 20.5758 26.8348 20.6043C26.8682 20.6186 26.8914 20.6313 26.9053 20.6396C26.9076 20.6409 26.9096 20.6421 26.9114 20.6433C26.9152 20.6456 26.9181 20.6475 26.9201 20.6488L26.9209 20.6494C26.925 20.653 26.9295 20.6571 26.9356 20.6626C26.9427 20.6691 26.9544 20.6799 26.9671 20.6898L26.9675 20.6901L27.5053 21.1082ZM7.91576 30.6636L3.28915 23.3839L5.44256 21.9119L10.0692 29.1916L7.91576 30.6636Z" fill="#26C4F7" stroke="#26C4F7" stroke-width="0.3"/>
<path d="M16.5 4H22V6.5H16.5V8.5L12 5.5L16.5 2V4Z" fill="#26C4F7"/>
<path d="M17.5 14.5L12 14.5L12 12L17.5 12L17.5 10L22 13L17.5 16.5L17.5 14.5Z" fill="#26C4F7"/>
</g>
<defs>
<clipPath id="clip0_3086_1178">
<rect width="32" height="32" fill="white"/>
</clipPath>
</defs>
</svg>
