<svg width="32" height="32" viewBox="0 0 32 32" fill="none" xmlns="http://www.w3.org/2000/svg">
<path d="M3.09265 31.215H28.9074C29.233 31.215 29.5 30.9479 29.5 30.6176V12.8138C29.5 12.4882 29.233 12.2212 28.9074 12.2212H3.09265C2.76701 12.2212 2.5 12.4882 2.5 12.8138V30.6176C2.5 30.9483 2.76227 31.2153 3.09265 31.2153V31.215ZM3.6853 30.0249V17.2637H28.3142V30.0249H3.6853ZM28.3142 13.4061V16.078H3.6853V13.4061H28.3142Z" fill="#26C4F7"/>
<path d="M11.7827 10.3367C11.5059 10.3367 11.2582 10.1375 11.1999 9.86065L9.82003 3.16667C9.76649 2.9044 9.89288 2.63231 10.1358 2.51574C10.3788 2.39917 10.6655 2.45745 10.8454 2.6567L13.3274 5.48878L15.4748 1.32055C15.5717 1.12639 15.776 1 15.9993 1C16.2226 1 16.4269 1.12639 16.5238 1.32055L18.6759 5.48878L21.1533 2.6567C21.3332 2.45746 21.6199 2.39918 21.8622 2.52048C22.1004 2.63704 22.2363 2.9044 22.178 3.17141L20.7986 9.86065C20.7403 10.1375 20.4973 10.3367 20.2157 10.3367H11.7827Z" fill="#26C4F7"/>
<path d="M15.8199 18.891H6.95971C6.63408 18.891 6.36707 19.158 6.36707 19.4884V27.5961C6.36707 27.9218 6.63408 28.1888 6.95971 28.1888H15.8199C16.1456 28.1888 16.4126 27.9218 16.4126 27.5961V19.4836C16.4126 19.1533 16.1452 18.891 15.8199 18.891V18.891ZM15.2273 26.9987H7.5567V20.0763H15.2273V26.9987Z" fill="#26C4F7"/>
<path d="M25.0394 22.9419H19.0015C18.6758 22.9419 18.4088 23.2089 18.4088 23.5345C18.4088 23.8602 18.6758 24.1272 19.0015 24.1272H25.0398C25.3654 24.1272 25.6324 23.8602 25.6324 23.5345C25.6321 23.2089 25.3698 22.9419 25.0394 22.9419H25.0394Z" fill="#26C4F7"/>
<path d="M25.0394 19.9397H19.0015C18.6758 19.9397 18.4088 20.2067 18.4088 20.5323C18.4088 20.858 18.6758 21.125 19.0015 21.125H25.0398C25.3654 21.125 25.6324 20.858 25.6324 20.5323C25.6321 20.207 25.3698 19.9397 25.0394 19.9397H25.0394Z" fill="#26C4F7"/>
<path d="M25.0394 25.9496H19.0015C18.6758 25.9496 18.4088 26.2119 18.4088 26.5422C18.4088 26.8679 18.6758 27.1349 19.0015 27.1349H25.0398C25.3654 27.1349 25.6324 26.8679 25.6324 26.5422C25.6321 26.2119 25.3698 25.9496 25.0394 25.9496H25.0394Z" fill="#26C4F7"/>
</svg>
