<svg width="32" height="32" viewBox="0 0 32 32" fill="none" xmlns="http://www.w3.org/2000/svg">
<g clip-path="url(#clip0_3086_1325)">
<path d="M0.287473 24.715L0.333016 24.7356L0.287472 24.715C-0.241411 25.8824 -0.143845 27.238 0.546356 28.3176L0.588484 28.2907L0.546358 28.3176C1.23656 29.3971 2.42617 30.0545 3.70758 30.0644H3.70797H28.2634C29.6163 30.0644 30.8663 29.3425 31.5427 28.1711C32.2191 26.9996 32.2191 25.5559 31.5427 24.3844C30.8663 23.2129 29.6163 22.491 28.2634 22.491H28.2634H24.5767V14.5338C24.5767 14.379 24.5152 14.2304 24.4057 14.121C24.2962 14.0115 24.1477 13.95 23.9928 13.95H14.918C14.5956 13.95 14.3342 14.2114 14.3342 14.5338V22.491H13.3666V14.5338C13.3666 14.379 13.3051 14.2304 13.1956 14.121C13.0861 14.0115 12.9376 13.95 12.7828 13.95H3.70794C3.38554 13.95 3.12412 14.2114 3.12412 14.5338V22.541C1.87552 22.7457 0.810393 23.5609 0.287473 24.715ZM1.43986 27.5872L1.43985 27.5872C0.971932 26.777 0.971932 25.7784 1.43985 24.9682L1.43986 24.9682C1.90755 24.1579 2.77232 23.6586 3.70794 23.6586H28.2634C29.199 23.6586 30.0637 24.1579 30.5314 24.9682L30.5706 24.9455L30.5314 24.9682C30.9994 25.7784 30.9994 26.777 30.5314 27.5872L30.5728 27.6111L30.5314 27.5872C30.0637 28.3975 29.199 28.8968 28.2634 28.8968H3.70794C2.77232 28.8968 1.90758 28.3975 1.43986 27.5872ZM15.5018 15.1176H23.409V22.491H15.5018V15.1176ZM4.29175 15.1176H12.199V22.491H4.29175V15.1176Z" fill="#26C4F7" stroke="#26C4F7" stroke-width="0.1"/>
<path d="M3.261 26.4628L3.26098 26.4628C3.18603 26.282 3.22729 26.074 3.36573 25.9356C3.50417 25.7971 3.71214 25.7559 3.89294 25.8308L3.89299 25.8309C4.07373 25.9056 4.19167 26.082 4.19167 26.2777C4.19167 26.406 4.14069 26.5291 4.04998 26.6198C3.95927 26.7105 3.83615 26.7615 3.70785 26.7615C3.51216 26.7615 3.33572 26.6436 3.261 26.4628ZM3.70785 24.6263C3.26994 24.6263 2.84968 24.8003 2.54008 25.1099C2.23049 25.4196 2.05645 25.8398 2.05645 26.2777C2.05645 26.7155 2.23043 27.1359 2.54009 27.4455C2.84973 27.755 3.26999 27.9291 3.70785 27.9291C4.14572 27.9291 4.56603 27.7551 4.87563 27.4454C5.18522 27.1358 5.35926 26.7155 5.35926 26.2777C5.35926 25.8398 5.18528 25.4195 4.87562 25.1099C4.56597 24.8003 4.14572 24.6263 3.70785 24.6263Z" fill="#26C4F7" stroke="#26C4F7" stroke-width="0.1"/>
<path d="M8.06532 26.4628L8.0653 26.4628C7.99035 26.282 8.03161 26.074 8.17005 25.9356C8.30849 25.7971 8.51647 25.7559 8.69726 25.8308L8.69731 25.8309C8.87806 25.9056 8.99599 26.082 8.99599 26.2777C8.99599 26.406 8.94501 26.5291 8.8543 26.6198C8.76359 26.7105 8.64048 26.7615 8.51218 26.7615C8.31648 26.7615 8.14004 26.6436 8.06532 26.4628ZM8.51218 24.6263C8.07426 24.6263 7.654 24.8003 7.3444 25.1099C7.03481 25.4196 6.86077 25.8398 6.86077 26.2777C6.86077 26.7155 7.03475 27.1359 7.34441 27.4455C7.65406 27.755 8.07431 27.9291 8.51218 27.9291C8.95004 27.9291 9.37035 27.7551 9.67995 27.4454C9.98954 27.1358 10.1636 26.7155 10.1636 26.2777C10.1636 25.8398 9.9896 25.4195 9.67994 25.1099C9.3703 24.8003 8.95005 24.6263 8.51218 24.6263Z" fill="#26C4F7" stroke="#26C4F7" stroke-width="0.1"/>
<path d="M12.8696 26.4628L12.8696 26.4628C12.7947 26.282 12.8359 26.074 12.9744 25.9356C13.1128 25.7971 13.3208 25.7559 13.5016 25.8308L13.5016 25.8309C13.6824 25.9056 13.8003 26.082 13.8003 26.2777C13.8003 26.406 13.7493 26.5291 13.6586 26.6198C13.5679 26.7105 13.4448 26.7615 13.3165 26.7615C13.1208 26.7615 12.9444 26.6436 12.8696 26.4628ZM13.3165 24.6263C12.8786 24.6263 12.4583 24.8003 12.1487 25.1099C11.8391 25.4196 11.6651 25.8398 11.6651 26.2777C11.6651 26.7155 11.8391 27.1359 12.1487 27.4455C12.4584 27.755 12.8786 27.9291 13.3165 27.9291C13.7544 27.9291 14.1747 27.7551 14.4843 27.4454C14.7939 27.1358 14.9679 26.7155 14.9679 26.2777C14.9679 25.8398 14.7939 25.4195 14.4843 25.1099C14.1746 24.8003 13.7544 24.6263 13.3165 24.6263Z" fill="#26C4F7" stroke="#26C4F7" stroke-width="0.1"/>
<path d="M18.2078 26.4628L18.2078 26.4628C18.1328 26.282 18.1741 26.074 18.3125 25.9356C18.4509 25.7971 18.6589 25.7559 18.8397 25.8308L18.8398 25.8309C19.0205 25.9056 19.1384 26.082 19.1384 26.2777C19.1384 26.406 19.0875 26.5291 18.9968 26.6198C18.9061 26.7105 18.7829 26.7615 18.6546 26.7615C18.4589 26.7615 18.2825 26.6436 18.2078 26.4628ZM18.6546 24.6263C18.2167 24.6263 17.7965 24.8003 17.4869 25.1099C17.1773 25.4196 17.0032 25.8398 17.0032 26.2777C17.0032 26.7155 17.1772 27.1359 17.4869 27.4455C17.7965 27.755 18.2168 27.9291 18.6546 27.9291C19.0925 27.9291 19.5128 27.7551 19.8224 27.4454C20.132 27.1358 20.306 26.7155 20.306 26.2777C20.306 25.8398 20.1321 25.4195 19.8224 25.1099C19.5128 24.8003 19.0925 24.6263 18.6546 24.6263Z" fill="#26C4F7" stroke="#26C4F7" stroke-width="0.1"/>
<path d="M23.0122 26.4628L23.0122 26.4628C22.9373 26.282 22.9785 26.074 23.117 25.9356C23.2554 25.7971 23.4634 25.7559 23.6442 25.8308L23.6442 25.8309C23.825 25.9056 23.9429 26.082 23.9429 26.2777C23.9429 26.406 23.8919 26.5291 23.8012 26.6198C23.7105 26.7105 23.5874 26.7615 23.4591 26.7615C23.2634 26.7615 23.0869 26.6436 23.0122 26.4628ZM23.4591 24.6263C23.0212 24.6263 22.6009 24.8003 22.2913 25.1099C21.9817 25.4196 21.8077 25.8398 21.8077 26.2777C21.8077 26.7155 21.9816 27.1359 22.2913 27.4455C22.601 27.755 23.0212 27.9291 23.4591 27.9291C23.8969 27.9291 24.3173 27.7551 24.6269 27.4454C24.9364 27.1358 25.1105 26.7155 25.1105 26.2777C25.1105 25.8398 24.9365 25.4195 24.6268 25.1099C24.3172 24.8003 23.8969 24.6263 23.4591 24.6263Z" fill="#26C4F7" stroke="#26C4F7" stroke-width="0.1"/>
<path d="M27.8165 26.4628L27.8165 26.4628C27.7416 26.282 27.7828 26.074 27.9213 25.9356C28.0597 25.7971 28.2677 25.7559 28.4485 25.8308L28.4485 25.8309C28.6293 25.9056 28.7472 26.082 28.7472 26.2777C28.7472 26.406 28.6962 26.5291 28.6055 26.6198C28.5148 26.7105 28.3917 26.7615 28.2634 26.7615C28.0677 26.7615 27.8913 26.6436 27.8165 26.4628ZM28.2634 24.6263C27.8255 24.6263 27.4052 24.8003 27.0956 25.1099C26.786 25.4196 26.612 25.8398 26.612 26.2777C26.612 26.7155 26.786 27.1359 27.0956 27.4455C27.4053 27.755 27.8255 27.9291 28.2634 27.9291C28.7013 27.9291 29.1216 27.7551 29.4312 27.4454C29.7408 27.1358 29.9148 26.7155 29.9148 26.2777C29.9148 25.8398 29.7408 25.4195 29.4312 25.1099C29.1215 24.8003 28.7013 24.6263 28.2634 24.6263Z" fill="#26C4F7" stroke="#26C4F7" stroke-width="0.1"/>
<path d="M5.48063 16.9108L5.48062 16.9109C5.18572 17.4218 5.18572 18.0514 5.48062 18.5623L5.48063 18.5623C5.77577 19.0732 6.32081 19.388 6.91087 19.388H9.57993C10.17 19.388 10.7151 19.0732 11.0102 18.5623L11.0102 18.5623C11.3051 18.0514 11.3051 17.4218 11.0102 16.9109L11.0102 16.9108C10.715 16.3999 10.17 16.0851 9.57993 16.0851H6.91087C6.32081 16.0851 5.77574 16.3999 5.48063 16.9108ZM9.57993 18.2204H6.91087C6.64369 18.2204 6.42705 18.0037 6.42705 17.7366C6.42705 17.4694 6.64369 17.2528 6.91087 17.2528H9.57993C9.8471 17.2528 10.0637 17.4694 10.0637 17.7366C10.0637 18.0037 9.8471 18.2204 9.57993 18.2204Z" fill="#26C4F7" stroke="#26C4F7" stroke-width="0.1"/>
<path d="M16.6907 16.9108L16.6907 16.9109C16.3958 17.4218 16.3958 18.0514 16.6907 18.5623L16.6907 18.5623C16.9859 19.0732 17.5309 19.388 18.1209 19.388H20.79C21.3801 19.388 21.9251 19.0732 22.2203 18.5623L22.2203 18.5623C22.5152 18.0514 22.5152 17.4218 22.2203 16.9109L22.2203 16.9108C21.9251 16.3999 21.3801 16.0851 20.79 16.0851H18.1209C17.5309 16.0851 16.9858 16.3999 16.6907 16.9108ZM20.79 18.2204H18.1209C17.8538 18.2204 17.6371 18.0037 17.6371 17.7366C17.6371 17.4694 17.8538 17.2528 18.1209 17.2528H20.79C21.0572 17.2528 21.2738 17.4694 21.2738 17.7366C21.2738 18.0037 21.0572 18.2204 20.79 18.2204Z" fill="#26C4F7" stroke="#26C4F7" stroke-width="0.1"/>
<path d="M7 7.5L7 2L9.5 2L9.5 7.5L11.5 7.5L8.5 12L5 7.5L7 7.5Z" fill="#26C4F7"/>
</g>
<defs>
<clipPath id="clip0_3086_1325">
<rect width="32" height="32" fill="white"/>
</clipPath>
</defs>
</svg>
