<svg width="32" height="32" viewBox="0 0 32 32" fill="none" xmlns="http://www.w3.org/2000/svg">
<path d="M16.5 3C9.05632 3 3 9.05603 3 16.5C3 23.9435 9.0558 30 16.5 30C23.9432 30 30 23.9435 30 16.5C30 9.05603 23.9437 3 16.5 3V3ZM18.4738 27.9207C18.0196 27.9988 17.5578 28.0536 17.0869 28.0773V22.2963H22.3629C22.0439 23.3065 21.6393 24.2428 21.1546 25.0766C20.3803 26.4065 19.4635 27.3697 18.4736 27.9209L18.4738 27.9207ZM11.8453 25.0763C11.3598 24.243 10.9556 23.3064 10.637 22.296H15.913V28.077C15.4423 28.0533 14.9803 27.9989 14.5265 27.9204C13.5361 27.3692 12.619 26.406 11.8453 25.0761L11.8453 25.0763ZM4.92237 17.0869H8.62078C8.65712 18.4847 8.82438 19.8424 9.10951 21.1227H5.87173C5.32716 19.8751 4.99428 18.515 4.92236 17.0869H4.92237ZM14.526 5.07923C14.98 5.00072 15.442 4.9459 15.9125 4.92221V10.3367H10.7573C11.0555 9.466 11.4193 8.65519 11.845 7.92349C12.6187 6.59359 13.5359 5.62995 14.5258 5.07914L14.526 5.07923ZM21.1544 7.92358C21.5799 8.65528 21.9436 9.46635 22.2421 10.3368H17.0869V4.92229C17.5578 4.94599 18.0192 5.0008 18.4738 5.07932C19.4637 5.63013 20.3805 6.59376 21.1546 7.92367L21.1544 7.92358ZM22.5944 11.5107C22.9534 12.8829 23.1624 14.3703 23.2046 15.9131H17.0866V11.5107H22.5944ZM15.913 11.5107V15.9131H9.79498C9.83735 14.3703 10.0462 12.8832 10.405 11.5107H15.913ZM8.62093 15.9131H4.92232C5.00103 14.3438 5.39379 12.8563 6.03772 11.5107H9.19377C8.85563 12.8964 8.66046 14.3813 8.62088 15.9131H8.62093ZM9.79477 17.0869H15.9128V21.1227H10.3119C10.0097 19.8532 9.834 18.4928 9.79523 17.0869H9.79477ZM17.0868 21.1222V17.0869H23.2048C23.1667 18.493 22.9906 19.8532 22.6882 21.1227H17.0873L17.0868 21.1222ZM24.3783 17.0869H28.0768C28.0053 18.5154 27.672 19.8751 27.1274 21.1227H23.8898C24.1749 19.8424 24.342 18.4845 24.3783 17.0869H24.3783ZM24.3783 15.9131C24.3384 14.3813 24.1438 12.8964 23.8057 11.5107H26.9617C27.6056 12.856 27.9982 14.344 28.0767 15.9131H24.3783ZM26.311 10.3366H23.4772C23.1324 9.24746 22.6945 8.23607 22.169 7.33304C21.8608 6.80331 21.5293 6.32642 21.1791 5.89729C23.2987 6.83682 25.0849 8.39244 26.311 10.3366V10.3366ZM11.8205 5.89755C11.4709 6.32626 11.1388 6.80356 10.8305 7.33329C10.3051 8.23628 9.86694 9.24772 9.52239 10.3369H6.68858C7.91445 8.39234 9.70091 6.83651 11.8205 5.8976V5.89755ZM6.46735 22.2958H9.41197C9.77199 23.5245 10.2467 24.663 10.8306 25.6666C11.1388 26.1963 11.4703 26.6732 11.8205 27.1019C9.5688 26.1042 7.69382 24.4112 6.4674 22.2958H6.46735ZM21.1789 27.1017C21.5289 26.673 21.8606 26.1957 22.1688 25.6664C22.7527 24.6628 23.2272 23.5247 23.5873 22.2956H26.5321C25.3055 24.4112 23.43 26.1042 21.179 27.1017H21.1789Z" fill="#26C4F7"/>
</svg>
