<svg width="32" height="32" viewBox="0 0 32 32" fill="none" xmlns="http://www.w3.org/2000/svg">
<path d="M16.5401 28.974C16.1033 28.7423 15.6666 28.5135 15.2298 28.2818C14.1781 27.7262 13.1233 27.1706 12.0715 26.615C10.8028 25.9435 9.53416 25.275 8.26253 24.6035C7.16322 24.0212 6.06093 23.4418 4.96158 22.8594C4.42974 22.5801 3.90384 22.2801 3.36608 22.0156C3.35717 22.0127 3.35123 22.0067 3.34529 22.0038C3.49384 22.2593 3.63943 22.5178 3.78798 22.7733V21.3828V18.061V14.0292V10.5589C3.78798 9.99732 3.80284 9.43279 3.78798 8.87129V8.84752C3.34231 9.10304 2.89367 9.36153 2.448 9.61704C2.88476 9.84879 3.32151 10.0776 3.75827 10.3093C4.81003 10.8649 5.86478 11.4205 6.9166 11.9791C8.1853 12.6505 9.45395 13.322 10.7256 13.9905C11.8249 14.5729 12.9272 15.1552 14.0265 15.7346C14.5584 16.0169 15.0843 16.314 15.622 16.5784C15.6309 16.5814 15.6369 16.5873 15.6428 16.5903C15.4943 16.3348 15.3487 16.0763 15.2001 15.8207V17.2083V20.527V24.5559V28.0232C15.2001 28.5847 15.1882 29.1493 15.2001 29.7108V29.7345C15.2001 30.201 15.6101 30.6467 16.0915 30.6259C16.5758 30.6051 16.9828 30.2337 16.9828 29.7345V28.347V25.0283V20.9994V17.5321C16.9828 16.9705 16.9947 16.406 16.9828 15.8445V15.8207C16.9828 15.5177 16.8164 15.1968 16.5401 15.0512C16.1033 14.8195 15.6666 14.5907 15.2298 14.359C14.1781 13.8033 13.1233 13.2478 12.0715 12.6892C10.8028 12.0177 9.53414 11.3462 8.2625 10.6778C7.1632 10.0954 6.06091 9.51304 4.96155 8.93367C4.42972 8.65142 3.90088 8.36322 3.36606 8.08988C3.35715 8.08691 3.35121 8.08097 3.34526 8.078C2.754 7.76603 2.00528 8.14931 2.00528 8.84752V10.238V13.5598V17.5916V21.0619C2.00528 21.6235 1.9934 22.188 2.00528 22.7495V22.7733C2.00528 23.0763 2.17167 23.3972 2.44798 23.5428C2.88474 23.7745 3.32149 24.0033 3.75824 24.2351C4.81001 24.7907 5.86476 25.3463 6.91658 25.9019C8.18528 26.5733 9.45393 27.2419 10.7256 27.9133C11.8249 28.4957 12.9272 29.0751 14.0265 29.6574C14.5583 29.9397 15.0872 30.2249 15.622 30.5012C15.6309 30.5042 15.6369 30.5101 15.6428 30.5131C16.0558 30.73 16.6322 30.6319 16.861 30.1922C17.0779 29.7822 16.9828 29.2058 16.5401 28.974L16.5401 28.974Z" fill="#26C4F7"/>
<path d="M28.8376 22.0063C28.4009 22.2381 27.9641 22.4669 27.5274 22.6986C26.4756 23.2542 25.4209 23.8098 24.3691 24.3654C23.1003 25.0369 21.8317 25.7054 20.5601 26.3769C19.4608 26.9592 18.3585 27.5386 17.2591 28.1209C16.7273 28.4002 16.1865 28.6706 15.6636 28.9647C15.6577 28.9677 15.6488 28.9737 15.6428 28.9766C16.0885 29.2321 16.5371 29.4906 16.9828 29.7461V28.3586V25.0399V21.011V17.5437C16.9828 16.9821 16.9977 16.4176 16.9828 15.8561V15.8323C16.8342 16.0879 16.6887 16.3463 16.5401 16.6019C16.9769 16.3701 17.4136 16.1413 17.8504 15.9096C18.9021 15.354 19.9569 14.7984 21.0087 14.2398C22.2774 13.5684 23.5461 12.8969 24.8177 12.2284C25.917 11.646 27.0193 11.0637 28.1186 10.4843C28.6505 10.2021 29.1912 9.93466 29.7141 9.64052C29.7201 9.63755 29.729 9.63161 29.7349 9.62864C29.2893 9.37312 28.8406 9.11463 28.395 8.85912V10.2496V13.5714V17.6032V21.0735C28.395 21.6351 28.3831 22.1996 28.395 22.7611V22.7849C28.395 23.2513 28.805 23.697 29.2863 23.6762C29.7706 23.6554 30.1776 23.284 30.1776 22.7849V21.3944V18.0726V14.0408V10.5705C30.1776 10.0089 30.1895 9.44438 30.1776 8.88289V8.85912C30.1776 8.16088 29.4259 7.77764 28.8376 8.08959C28.4009 8.32134 27.9641 8.55012 27.5274 8.78186C26.4756 9.33749 25.4208 9.89306 24.369 10.4516C23.1003 11.1231 21.8317 11.7946 20.56 12.4631C19.4607 13.0454 18.3585 13.6278 17.2591 14.2071C16.7273 14.4894 16.1865 14.7568 15.6636 15.0509C15.6577 15.0539 15.6487 15.0599 15.6428 15.0628C15.3695 15.2084 15.2001 15.5293 15.2001 15.8323V17.2199V20.5386V24.5675V28.0348C15.2001 28.5963 15.1882 29.1609 15.2001 29.7224V29.7461C15.2001 30.4444 15.9518 30.8276 16.5401 30.5157C16.9768 30.2839 17.4136 30.0551 17.8504 29.8234C18.9021 29.2678 19.9569 28.7122 21.0087 28.1566C22.2774 27.4851 23.546 26.8166 24.8177 26.1451C25.917 25.5628 27.0193 24.9834 28.1186 24.401C28.6505 24.1218 29.1912 23.8514 29.7141 23.5573C29.7201 23.5543 29.729 23.5483 29.7349 23.5454C30.1479 23.3285 30.3084 22.7194 30.0558 22.3272C29.7854 21.9053 29.2803 21.7716 28.8376 22.0063L28.8376 22.0063Z" fill="#26C4F7"/>
<path d="M28.8374 8.08057C28.4007 8.31232 27.9639 8.5411 27.5272 8.77284C26.4754 9.32846 25.4207 9.88404 24.3688 10.4426C23.1001 11.1141 21.8315 11.7856 20.5599 12.454C19.4606 13.0364 18.3583 13.6188 17.2589 14.1981C16.7271 14.4804 16.1863 14.7478 15.6634 15.0419C15.6575 15.0449 15.6486 15.0508 15.6426 15.0538H16.5429C16.1061 14.8221 15.6693 14.5933 15.2326 14.3615C14.1808 13.8059 13.1261 13.2503 12.0743 12.6918C10.8056 12.0203 9.5369 11.3488 8.26527 10.6803C7.16597 10.098 6.06368 9.51562 4.96432 8.93625C4.43248 8.65399 3.90658 8.35987 3.36883 8.09246C3.35991 8.08948 3.35397 8.08354 3.34803 8.08057V9.61962C3.78479 9.38787 4.22154 9.15909 4.65829 8.92735C5.71006 8.37172 6.76481 7.81615 7.81663 7.26052C9.08533 6.58907 10.354 5.92054 11.6256 5.24908C12.7249 4.66673 13.8272 4.08736 14.9266 3.505C15.4584 3.22274 15.9991 2.95535 16.5221 2.66121C16.528 2.65824 16.5369 2.65229 16.5429 2.64932H15.6426C16.0794 2.88107 16.5161 3.10985 16.9529 3.34159C18.0046 3.89722 19.0594 4.45279 20.1112 5.00842C21.3799 5.67988 22.6486 6.3484 23.9202 7.01986C25.0195 7.60221 26.1218 8.18158 27.2211 8.76394C27.753 9.0462 28.2818 9.3344 28.8166 9.60773C28.8255 9.6107 28.8315 9.61664 28.8374 9.61962C29.2504 9.83651 29.8268 9.73846 30.0556 9.29874C30.2725 8.88574 30.1774 8.31233 29.7347 8.08056C29.292 7.84584 28.8523 7.61409 28.4096 7.37938C27.3548 6.82082 26.3001 6.2652 25.2423 5.70664C23.9677 5.03518 22.6961 4.36073 21.4215 3.68922C20.3251 3.10985 19.2288 2.53048 18.1294 1.95111C17.6035 1.6748 17.0866 1.38364 16.5547 1.11922C16.2398 0.96175 15.9308 0.958778 15.6188 1.11922C15.5594 1.14893 15.5029 1.18161 15.4465 1.21132C15.1731 1.35691 14.8998 1.49952 14.6294 1.64511C13.637 2.16803 12.6476 2.69394 11.6553 3.21686C10.3837 3.88832 9.11203 4.55983 7.84034 5.23129C6.69644 5.83446 5.55258 6.44056 4.40868 7.04367C3.78177 7.37346 3.15785 7.70328 2.53094 8.03605C2.50123 8.0509 2.47152 8.06576 2.44478 8.08359C1.86541 8.38961 1.86541 9.31659 2.44478 9.62263C2.88748 9.85735 3.3272 10.0891 3.76993 10.3238C4.82468 10.8824 5.87944 11.438 6.93718 11.9966C8.2118 12.671 9.48343 13.3425 10.7581 14.017C11.8544 14.5963 12.9507 15.1757 14.0501 15.7551C14.576 16.0314 15.093 16.3225 15.6248 16.587C15.9397 16.7444 16.2487 16.7474 16.5607 16.587C16.6201 16.5573 16.6766 16.5246 16.733 16.4949C17.0064 16.3493 17.2797 16.2067 17.5501 16.0611C18.5425 15.5381 19.5319 15.0122 20.5242 14.4893C21.7958 13.8179 23.0675 13.1463 24.3392 12.4749C25.4831 11.8688 26.6269 11.2656 27.7708 10.6595C28.3977 10.3297 29.0217 9.99698 29.6486 9.66714C29.6783 9.65229 29.708 9.63743 29.7347 9.61961C30.1477 9.40271 30.3082 8.79363 30.0556 8.40143C29.7852 7.9825 29.2802 7.84879 28.8374 8.08055V8.08057Z" fill="#26C4F7"/>
<path d="M9.94404 13.1136C10.3808 12.8819 10.8176 12.6531 11.2543 12.4213C12.3061 11.8657 13.3608 11.3101 14.4126 10.7516C15.6813 10.0801 16.95 9.40862 18.2216 8.74015C19.3209 8.15779 20.4232 7.57543 21.5226 6.99606C22.0544 6.7138 22.5951 6.44641 23.1181 6.15227C23.124 6.1493 23.1329 6.14336 23.1389 6.14039C23.5519 5.92349 23.7123 5.31442 23.4597 4.92221C23.1894 4.50328 22.6813 4.36957 22.2416 4.60133C21.8048 4.83308 21.3681 5.06186 20.9313 5.2936C19.8795 5.84922 18.8248 6.4048 17.773 6.96336C16.5043 7.63482 15.2356 8.30633 13.964 8.9748C12.8647 9.55715 11.7624 10.1395 10.663 10.7189C10.1312 11.0011 9.59047 11.2685 9.06755 11.5627C9.0616 11.5656 9.05269 11.5716 9.04675 11.5746C8.63376 11.7915 8.4733 12.4005 8.72587 12.7927C8.99327 13.2117 9.50131 13.3454 9.94404 13.1136V13.1136Z" fill="#26C4F7"/>
</svg>
