<svg width="32" height="32" viewBox="0 0 32 32" fill="none" xmlns="http://www.w3.org/2000/svg">
<circle cx="16" cy="16" r="13.25" stroke="white" stroke-width="1.5"/>
<path d="M17.8 9.5H14.2C14.0895 9.5 14 9.58954 14 9.7V13.8C14 13.9105 13.9105 14 13.8 14H9.7C9.58954 14 9.5 14.0895 9.5 14.2V17.8C9.5 17.9105 9.58954 18 9.7 18H13.8C13.9105 18 14 18.0895 14 18.2V22.3C14 22.4105 14.0895 22.5 14.2 22.5H17.8C17.9105 22.5 18 22.4105 18 22.3V18.2C18 18.0895 18.0895 18 18.2 18H22.3C22.4105 18 22.5 17.9105 22.5 17.8V14.2C22.5 14.0895 22.4105 14 22.3 14H18.2C18.0895 14 18 13.9105 18 13.8V9.7C18 9.58954 17.9105 9.5 17.8 9.5Z" fill="white"/>
</svg>
