<svg width="32" height="32" viewBox="0 0 32 32" fill="none" xmlns="http://www.w3.org/2000/svg">
<path d="M1.61779 6.00073C1.26632 6.03305 0.998304 6.32229 1.00001 6.66732V23.3336C1.00001 23.7016 1.30511 24.0002 1.68177 24.0002H3.45031C3.77253 25.7026 5.30542 27 7.13623 27C8.9673 27 10.5002 25.7026 10.8224 24.0002H21.1776C21.4998 25.7026 23.0327 27 24.8638 27C26.6946 27 28.2275 25.7026 28.5497 24.0002H30.3182C30.6949 24.0002 31 23.7016 31 23.3336V16.6671C31.0007 16.546 30.9674 16.4272 30.9042 16.3232L27.8361 11.3234C27.7124 11.1225 27.4898 11 27.2501 11.0004H22.1365V6.66725C22.1365 6.29919 21.8311 6.00067 21.4547 6.00067H1.68182C1.66042 5.99974 1.63919 5.9998 1.61779 6.00073ZM2.36353 7.33391H20.7728V22.6669H10.8224C10.5002 20.9644 8.9673 19.6671 7.13623 19.6671C5.30542 19.6671 3.77253 20.9645 3.45031 22.6669H2.36353V7.33391ZM22.1364 12.334H26.8665L27.4843 13.334H23.4999C23.4788 13.3328 23.4574 13.3328 23.436 13.334C23.0847 13.3663 22.8167 13.6556 22.8182 14.0006V16.6672C22.8182 17.0353 23.1235 17.3338 23.4999 17.3338H29.6364V18.3339H27.9318C27.9104 18.3327 27.8892 18.3327 27.8678 18.3339C27.5166 18.3662 27.2483 18.6554 27.25 19.0004V20.5108C26.6011 19.9865 25.7662 19.667 24.8637 19.667C23.791 19.667 22.8215 20.1113 22.1364 20.8233L22.1364 12.334ZM24.1818 14.6672H28.2941L29.1145 16.0003H24.1818L24.1818 14.6672ZM28.6137 19.667H29.6365V20.3336H28.6137V19.667ZM7.13623 21.0002C8.46244 21.0002 9.5228 22.037 9.5228 23.3336C9.5228 24.6301 8.46244 25.6669 7.13623 25.6669C5.81027 25.6669 4.74991 24.6301 4.74991 23.3336C4.74991 22.037 5.81027 21.0002 7.13623 21.0002ZM24.8636 21.0002C26.1896 21.0002 27.25 22.037 27.25 23.3336C27.25 24.6301 26.1896 25.6669 24.8636 25.6669C23.5374 25.6669 22.4771 24.6301 22.4771 23.3336C22.4771 22.037 23.5374 21.0002 24.8636 21.0002ZM28.1874 21.667H29.6363V22.6668H28.5496C28.4823 22.3104 28.3529 21.9798 28.1874 21.667ZM7.13611 22.3336C6.57134 22.3336 6.11356 22.7812 6.11356 23.3336C6.11356 23.8859 6.57133 24.3334 7.13611 24.3334C7.70113 24.3334 8.15891 23.8859 8.15891 23.3336C8.15891 22.7812 7.70114 22.3336 7.13611 22.3336ZM24.8635 22.3336C24.2985 22.3336 23.8407 22.7812 23.8407 23.3336C23.8407 23.8859 24.2985 24.3334 24.8635 24.3334C25.4283 24.3334 25.8861 23.8859 25.8861 23.3336C25.8861 22.7812 25.4283 22.3336 24.8635 22.3336Z" fill="#26C4F7"/>
<path d="M23.5 14H28.5L30 16.5H23.5V14Z" fill="#26C4F7"/>
<path d="M2 17H21V19H2V17Z" fill="#26C4F7"/>
</svg>
