<?xml version="1.0" encoding="UTF-8"?><svg id="Layer_1" xmlns="http://www.w3.org/2000/svg" width="32" height="32" viewBox="0 0 32 32"><defs><style>.cls-1{fill-rule:evenodd;}.cls-1,.cls-2,.cls-3{fill:white;}.cls-3{stroke:white;stroke-miterlimit:10;}</style></defs><path class="cls-1" d="M15.14,27.62H4.77v-1.5H15.14v1.5Z"/><path class="cls-1" d="M11.25,4c0-.41,.34-.75,.75-.75h4c.41,0,.75,.34,.75,.75s-.34,.75-.75,.75h-4c-.41,0-.75-.34-.75-.75Z"/><path class="cls-1" d="M4.02,3.81C4.02,1.71,5.7,0,7.77,0h12C21.85,0,23.52,1.71,23.52,3.81v3.48h-1.5V3.81c0-1.26-1.01-2.29-2.25-2.29H7.77c-1.24,0-2.25,1.02-2.25,2.29V28.19c0,1.26,1.01,2.29,2.25,2.29h12v1.52H7.77c-2.07,0-3.75-1.71-3.75-3.81V3.81Z"/><path class="cls-1" d="M13.46,15.11c.15,.17,.16,.46,.01,.64l-1.9,2.38c-.15,.18-.39,.2-.54,.03l-2-2.2c-.15-.17-.16-.46-.01-.64s.39-.2,.54-.03l1.72,1.9,1.64-2.05c.15-.18,.39-.2,.54-.03Z"/><path class="cls-1" d="M13.46,10.42c.15,.17,.16,.46,.01,.64l-1.9,2.38c-.15,.18-.39,.2-.54,.03l-2-2.2c-.15-.17-.16-.46-.01-.64s.39-.2,.54-.03l1.72,1.9,1.64-2.05c.15-.18,.39-.2,.54-.03Z"/><path class="cls-3" d="M27.35,18.87s.07,0,.1,0c.52,0,1.05,0,1.57,0,.5,0,.86,.24,1.08,.66,.08,.15,.1,.32,.12,.48,.03,.28,.07,.57,.1,.85,.03,.27,.06,.55,.09,.82,.03,.28,.06,.55,.1,.83,.03,.27,.06,.54,.09,.81,.03,.28,.07,.56,.1,.84,.03,.27,.06,.54,.09,.81,.03,.28,.07,.57,.1,.85,.03,.22,.05,.45,.08,.67,.02,.19,.04,.37,.06,.56,.07,.62-.13,1.15-.59,1.59-.38,.36-.84,.54-1.38,.55-.02,0-.04,0-.07,0-2.87,0-5.74,0-8.61,0-.34,0-.67-.07-.97-.23-.59-.31-.93-.79-1.03-1.42-.03-.19-.02-.39,0-.58,.03-.28,.06-.55,.1-.83,.03-.28,.06-.56,.1-.84,.03-.23,.05-.46,.08-.69,.03-.28,.07-.56,.1-.84,.03-.23,.05-.46,.08-.69,.03-.28,.06-.55,.1-.83,.03-.27,.06-.54,.09-.81,.03-.28,.07-.57,.1-.85,.03-.22,.06-.45,.08-.67,.05-.53,.45-.95,1-1.04,.08-.01,.16-.02,.24-.02,.51,0,1.02,0,1.53,0h.1s0-.06,0-.08c0-.32,0-.65,0-.97,.02-.85,.38-1.54,1.09-2.06,.44-.32,.94-.48,1.49-.49,1.28-.01,2.33,.83,2.59,1.95,.04,.19,.06,.38,.06,.57,0,.33,0,.65,0,.98v.09Zm-5.24,.68s-.04,0-.06,0c-.53,0-1.07,0-1.6,0-.26,0-.47,.18-.5,.43-.02,.18-.04,.36-.06,.54-.03,.28-.06,.55-.1,.83-.03,.27-.06,.55-.09,.82-.03,.28-.07,.56-.1,.84-.03,.27-.06,.54-.09,.81-.03,.28-.07,.56-.1,.84-.03,.27-.06,.54-.09,.81-.03,.28-.06,.55-.1,.83-.03,.28-.07,.56-.1,.84-.05,.44,.09,.8,.44,1.09,.24,.2,.53,.28,.85,.28,1.21,0,2.42,0,3.64,0,1.65,0,3.3,0,4.95,0,.12,0,.24,0,.35-.03,.64-.14,1.06-.7,.99-1.33-.01-.13-.03-.27-.05-.4-.03-.28-.07-.57-.1-.85-.03-.27-.06-.54-.09-.81-.03-.28-.06-.55-.1-.83-.03-.27-.06-.55-.09-.82-.03-.28-.07-.55-.1-.83-.03-.27-.06-.55-.09-.82-.04-.32-.07-.64-.11-.95-.03-.29-.07-.58-.1-.87-.03-.25-.24-.42-.5-.42-.53,0-1.06,0-1.6,0-.02,0-.04,0-.06,0v.89c0,.07,0,.15,0,.22,0,.07,0,.15,0,.22-.18,.01-.65,0-.71,0v-.89c0-.07,0-.15,0-.22,0-.07,0-.15,0-.22-.21-.02-3.76,0-3.82,0v1.32c-.1,.01-.65,.01-.71,0v-1.33Zm4.53-.69s0-.04,0-.06c0-.34,0-.68,0-1.02,0-.39-.13-.74-.36-1.06-.45-.61-1.23-.9-1.97-.74-.86,.19-1.5,.93-1.49,1.79,0,.34,0,.67,0,1.01,0,.02,0,.05,0,.07h3.81Z"/><rect class="cls-2" x="22.02" y="7.25" width="1.5" height="6.55"/><path class="cls-1" d="M13.46,20.17c.15,.17,.16,.46,.01,.64l-1.9,2.38c-.15,.18-.39,.2-.54,.03l-2-2.2c-.15-.17-.16-.46-.01-.64s.39-.2,.54-.03l1.72,1.9,1.64-2.05c.15-.18,.39-.2,.54-.03Z"/><rect class="cls-2" x="14" y="11.49" width="6.8" height=".92" rx=".26" ry=".26"/><rect class="cls-2" x="14" y="16.18" width="5.1" height=".92" rx=".26" ry=".26"/></svg>