<svg width="32" height="32" viewBox="0 0 32 32" fill="none" xmlns="http://www.w3.org/2000/svg">
<path fill-rule="evenodd" clip-rule="evenodd" d="M4.25 4C4.25 1.92893 5.92893 0.25 8 0.25H20C22.0711 0.25 23.75 1.92893 23.75 4V7.42857H22.25V4C22.25 2.75736 21.2426 1.75 20 1.75H8C6.75736 1.75 5.75 2.75736 5.75 4V28C5.75 29.2426 6.75736 30.25 8 30.25H20C21.2426 30.25 22.25 29.2426 22.25 28V20.3571H23.75V28C23.75 30.0711 22.0711 31.75 20 31.75H8C5.92893 31.75 4.25 30.0711 4.25 28V4Z" fill="white"/>
<path fill-rule="evenodd" clip-rule="evenodd" d="M23 27.75L5 27.75L5 26.25L23 26.25L23 27.75Z" fill="white"/>
<path fill-rule="evenodd" clip-rule="evenodd" d="M11.25 4C11.25 3.58579 11.5858 3.25 12 3.25H16C16.4142 3.25 16.75 3.58579 16.75 4C16.75 4.41421 16.4142 4.75 16 4.75H12C11.5858 4.75 11.25 4.41421 11.25 4Z" fill="white"/>
<path fill-rule="evenodd" clip-rule="evenodd" d="M30.0624 10.0038C30.3364 10.3144 30.3068 10.7883 29.9962 11.0624L21.4962 18.5624C21.2296 18.7976 20.8345 18.8133 20.55 18.6L17.0459 15.9719L12.0045 20.555C11.698 20.8336 11.2237 20.811 10.9451 20.5045C10.6664 20.198 10.689 19.7237 10.9955 19.4451L16.4955 14.4451C16.7617 14.2031 17.1622 14.1842 17.45 14.4L20.9616 17.0337L29.0038 9.93763C29.3144 9.66358 29.7883 9.6932 30.0624 10.0038Z" fill="white"/>
<path fill-rule="evenodd" clip-rule="evenodd" d="M23.8816 10C23.8816 9.58579 24.2174 9.25 24.6316 9.25H30C30.4142 9.25 30.75 9.58579 30.75 10V15.3684C30.75 15.7826 30.4142 16.1184 30 16.1184C29.5858 16.1184 29.25 15.7826 29.25 15.3684V10.75H24.6316C24.2174 10.75 23.8816 10.4142 23.8816 10Z" fill="white"/>
</svg>
