<svg width="32" height="32" viewBox="0 0 32 32" fill="none" xmlns="http://www.w3.org/2000/svg">
<path d="M3.09265 31.215H28.9074C29.233 31.215 29.5 30.9479 29.5 30.6176V12.8138C29.5 12.4882 29.233 12.2212 28.9074 12.2212H3.09265C2.76701 12.2212 2.5 12.4882 2.5 12.8138V30.6176C2.5 30.9483 2.76227 31.2153 3.09265 31.2153V31.215ZM3.6853 30.0249V17.2637H28.3142V30.0249H3.6853ZM28.3142 13.4061V16.078H3.6853V13.4061H28.3142Z" fill="white"/>
<path d="M11.7825 10.3367C11.5056 10.3367 11.2579 10.1375 11.1997 9.86065L9.81978 3.16667C9.76624 2.9044 9.89263 2.63231 10.1356 2.51574C10.3785 2.39917 10.6652 2.45745 10.8451 2.6567L13.3272 5.48878L15.4745 1.32055C15.5714 1.12639 15.7758 1 15.9991 1C16.2224 1 16.4267 1.12639 16.5236 1.32055L18.6757 5.48878L21.1531 2.6567C21.333 2.45746 21.6197 2.39918 21.8619 2.52048C22.1001 2.63704 22.236 2.9044 22.1777 3.17141L20.7983 9.86065C20.74 10.1375 20.4971 10.3367 20.2155 10.3367H11.7825Z" fill="white"/>
<path d="M15.8201 18.8911H6.95984C6.6342 18.8911 6.36719 19.1582 6.36719 19.4885V27.5962C6.36719 27.9219 6.6342 28.1889 6.95984 28.1889H15.8201C16.1457 28.1889 16.4127 27.9219 16.4127 27.5962V19.4838C16.4127 19.1534 16.1454 18.8911 15.8201 18.8911V18.8911ZM15.2274 26.9988H7.55682V20.0764H15.2274V26.9988Z" fill="white"/>
<path d="M25.0398 22.9419H19.0018C18.6762 22.9419 18.4092 23.2089 18.4092 23.5345C18.4092 23.8602 18.6762 24.1272 19.0018 24.1272H25.0401C25.3658 24.1272 25.6328 23.8602 25.6328 23.5345C25.6324 23.2089 25.3702 22.9419 25.0398 22.9419H25.0398Z" fill="white"/>
<path d="M25.0398 19.9397H19.0018C18.6762 19.9397 18.4092 20.2067 18.4092 20.5323C18.4092 20.858 18.6762 21.125 19.0018 21.125H25.0401C25.3658 21.125 25.6328 20.858 25.6328 20.5323C25.6324 20.207 25.3702 19.9397 25.0398 19.9397H25.0398Z" fill="white"/>
<path d="M25.0398 25.9495H19.0018C18.6762 25.9495 18.4092 26.2117 18.4092 26.5421C18.4092 26.8677 18.6762 27.1348 19.0018 27.1348H25.0401C25.3658 27.1348 25.6328 26.8677 25.6328 26.5421C25.6324 26.2117 25.3702 25.9495 25.0398 25.9495H25.0398Z" fill="white"/>
</svg>
