<svg width="32" height="32" viewBox="0 0 32 32" fill="none" xmlns="http://www.w3.org/2000/svg">
<mask id="path-1-outside-1_3530_1970" maskUnits="userSpaceOnUse" x="3" y="3" width="20" height="27" fill="black">
<rect fill="white" x="3" y="3" width="20" height="27"/>
<path fill-rule="evenodd" clip-rule="evenodd" d="M6.62492 5.24375L5.52065 4.12336C5.44286 4.04441 5.33734 4.00004 5.2273 4C5.11726 3.99996 5.01171 4.04426 4.93387 4.12315C4.85603 4.20204 4.81228 4.30906 4.81224 4.42066C4.8122 4.53227 4.85588 4.63932 4.93366 4.71826L13.5534 13.4601L7.0999 20.0053L4.70302 17.5744C4.62478 17.4977 4.51999 17.4553 4.41122 17.4563C4.30246 17.4572 4.19841 17.5015 4.1215 17.5795C4.04459 17.6575 4.00096 17.763 4.00002 17.8733C3.99907 17.9836 4.04088 18.0899 4.11645 18.1693L5.76954 19.8459L6.5992 20.6873L6.80662 20.8977C6.88441 20.9765 6.9899 21.0209 7.0999 21.0209C7.2099 21.0209 7.31539 20.9765 7.39319 20.8977L7.97976 20.3028L8.08886 20.4134C8.34879 20.6779 8.53488 21.0076 8.62813 21.3689L8.70114 21.6546C8.83179 22.1609 9.09295 22.6228 9.45779 22.9929L12.7001 26.28L13.5298 27.1215L15.0202 28.6331C15.1326 28.7485 15.2663 28.8403 15.4136 28.9032C15.5609 28.9662 15.7191 28.999 15.8789 29H15.9113C16.0733 29.0004 16.2337 28.9682 16.3832 28.9051C16.5328 28.8421 16.6685 28.7495 16.7824 28.6327C16.8934 28.5204 16.9822 28.3878 17.0442 28.2418C17.2309 28.3495 17.4421 28.4058 17.6569 28.4051C17.9004 28.4073 18.1391 28.3366 18.3432 28.2019C18.5473 28.0672 18.7077 27.8745 18.8043 27.6478C18.9905 27.7561 19.2016 27.8122 19.4162 27.8106C19.7471 27.8085 20.0645 27.6771 20.3023 27.4437C20.4031 27.3414 20.4859 27.2223 20.547 27.0916C20.766 27.2781 21.0414 27.3828 21.3273 27.3882C21.6132 27.3936 21.8923 27.2995 22.118 27.1215C22.2476 27.0011 22.5209 26.6644 22.5776 26.28C22.5971 26.0833 22.5732 25.8846 22.5076 25.6984C22.442 25.5122 22.3364 25.3431 22.1985 25.2034L18.638 21.5923C18.5987 21.5523 18.5767 21.4981 18.5766 21.4417C18.5773 21.411 18.5841 21.3809 18.5966 21.353C18.609 21.3251 18.6269 21.3 18.6492 21.2793C18.6849 21.2431 18.7333 21.2227 18.7838 21.2227C18.8343 21.2227 18.8827 21.2431 18.9184 21.2793L19.9555 22.3311C20.1092 22.4879 20.292 22.6122 20.4934 22.6969C20.6947 22.7816 20.9106 22.825 21.1286 22.8246C21.3465 22.8252 21.5624 22.7819 21.7637 22.6973C21.965 22.6126 22.1478 22.4883 22.3013 22.3315L22.5946 22.034C22.6654 21.9623 22.7082 21.8671 22.7152 21.7659C22.7222 21.6647 22.693 21.5644 22.6328 21.4833L20.296 18.3363C19.2965 16.9911 17.8615 16.0462 16.2432 15.6676L14.169 15.1851C14.0928 15.1672 14.0231 15.128 13.9678 15.0719L13.5497 14.6478L14.4299 13.755C14.5077 13.6761 14.5514 13.5691 14.5514 13.4576C14.5514 13.346 14.5077 13.239 14.4299 13.1601L7.45458 6.0852L6.62492 5.24375ZM21.4005 26.6774C21.2934 26.675 21.191 26.6321 21.1134 26.557L20.3551 25.7875C20.2774 25.7086 20.1718 25.6642 20.0618 25.6642C19.9518 25.6641 19.8462 25.7084 19.7684 25.7873C19.6905 25.8662 19.6468 25.9732 19.6467 26.0848C19.6467 26.1964 19.6904 26.3035 19.7682 26.3824C19.8459 26.4613 19.8896 26.5683 19.8896 26.6799C19.8896 26.7914 19.8459 26.8984 19.7682 26.9773C19.7293 27.0175 19.6826 27.049 19.631 27.0698C19.5794 27.0906 19.5241 27.1002 19.4686 27.0981C19.3612 27.0965 19.2584 27.0535 19.1812 26.9778L18.5946 26.3829C18.516 26.3081 18.4118 26.2673 18.3041 26.2691C18.1964 26.2709 18.0936 26.3151 18.0174 26.3924C17.9413 26.4697 17.8977 26.574 17.8961 26.6832C17.8944 26.7925 17.9347 26.8981 18.0084 26.9778C18.0858 27.0566 18.1293 27.1633 18.1293 27.2746C18.1293 27.3858 18.0858 27.4926 18.0084 27.5714C17.9278 27.649 17.8209 27.6922 17.7098 27.6922C17.6559 27.6954 17.602 27.6863 17.5521 27.6654C17.5023 27.6445 17.4577 27.6123 17.4219 27.5714L16.8353 26.9778C16.7968 26.9387 16.7511 26.9077 16.7007 26.8865C16.6504 26.8653 16.5964 26.8544 16.542 26.8544C16.4875 26.8544 16.4335 26.8652 16.3832 26.8864C16.3328 26.9075 16.2871 26.9385 16.2485 26.9775C16.21 27.0166 16.1794 27.063 16.1585 27.114C16.1377 27.1651 16.1269 27.2198 16.1269 27.2751C16.1269 27.3303 16.1376 27.385 16.1584 27.4361C16.1793 27.4872 16.2098 27.5336 16.2483 27.5727C16.3261 27.6516 16.3698 27.7586 16.3698 27.8701C16.3698 27.9817 16.3261 28.0887 16.2483 28.1676C16.2101 28.2085 16.1637 28.2404 16.1121 28.2613C16.0605 28.2821 16.0051 28.2914 15.9496 28.2883C15.8417 28.2881 15.7383 28.2447 15.6618 28.1676L10.103 22.5273C9.84284 22.263 9.6567 21.9333 9.56376 21.5719L9.49034 21.2862C9.35966 20.7801 9.09867 20.3184 8.7341 19.9483L8.625 19.8376L13.0218 15.375L13.4399 15.7987C13.6051 15.9659 13.8134 16.0826 14.041 16.1353L16.1152 16.6182C17.5433 16.9528 18.8095 17.787 19.6914 18.9743L21.8112 21.8293L21.7726 21.8685C21.6959 21.9469 21.6046 22.0091 21.5039 22.0514C21.4033 22.0937 21.2954 22.1154 21.1865 22.115C21.0775 22.1151 20.9695 22.0934 20.8688 22.051C20.7682 22.0086 20.6768 21.9464 20.5999 21.8681L19.5628 20.8162C19.4685 20.7197 19.3562 20.6431 19.2324 20.5909C19.1086 20.5388 18.9759 20.5121 18.8418 20.5125C18.6361 20.5138 18.4354 20.5768 18.2649 20.6934C18.0943 20.8101 17.9616 20.9753 17.8833 21.1682C17.805 21.3611 17.7847 21.5732 17.8249 21.7778C17.8651 21.9825 17.964 22.1705 18.1092 22.3182L21.6697 25.9293C21.7499 26.0049 21.8002 26.1075 21.811 26.218C21.8219 26.3285 21.7926 26.4392 21.7286 26.5293C21.6874 26.5761 21.6368 26.6135 21.5803 26.6391C21.5237 26.6646 21.4624 26.6776 21.4005 26.6774Z"/>
</mask>
<path fill-rule="evenodd" clip-rule="evenodd" d="M6.62492 5.24375L5.52065 4.12336C5.44286 4.04441 5.33734 4.00004 5.2273 4C5.11726 3.99996 5.01171 4.04426 4.93387 4.12315C4.85603 4.20204 4.81228 4.30906 4.81224 4.42066C4.8122 4.53227 4.85588 4.63932 4.93366 4.71826L13.5534 13.4601L7.0999 20.0053L4.70302 17.5744C4.62478 17.4977 4.51999 17.4553 4.41122 17.4563C4.30246 17.4572 4.19841 17.5015 4.1215 17.5795C4.04459 17.6575 4.00096 17.763 4.00002 17.8733C3.99907 17.9836 4.04088 18.0899 4.11645 18.1693L5.76954 19.8459L6.5992 20.6873L6.80662 20.8977C6.88441 20.9765 6.9899 21.0209 7.0999 21.0209C7.2099 21.0209 7.31539 20.9765 7.39319 20.8977L7.97976 20.3028L8.08886 20.4134C8.34879 20.6779 8.53488 21.0076 8.62813 21.3689L8.70114 21.6546C8.83179 22.1609 9.09295 22.6228 9.45779 22.9929L12.7001 26.28L13.5298 27.1215L15.0202 28.6331C15.1326 28.7485 15.2663 28.8403 15.4136 28.9032C15.5609 28.9662 15.7191 28.999 15.8789 29H15.9113C16.0733 29.0004 16.2337 28.9682 16.3832 28.9051C16.5328 28.8421 16.6685 28.7495 16.7824 28.6327C16.8934 28.5204 16.9822 28.3878 17.0442 28.2418C17.2309 28.3495 17.4421 28.4058 17.6569 28.4051C17.9004 28.4073 18.1391 28.3366 18.3432 28.2019C18.5473 28.0672 18.7077 27.8745 18.8043 27.6478C18.9905 27.7561 19.2016 27.8122 19.4162 27.8106C19.7471 27.8085 20.0645 27.6771 20.3023 27.4437C20.4031 27.3414 20.4859 27.2223 20.547 27.0916C20.766 27.2781 21.0414 27.3828 21.3273 27.3882C21.6132 27.3936 21.8923 27.2995 22.118 27.1215C22.2476 27.0011 22.5209 26.6644 22.5776 26.28C22.5971 26.0833 22.5732 25.8846 22.5076 25.6984C22.442 25.5122 22.3364 25.3431 22.1985 25.2034L18.638 21.5923C18.5987 21.5523 18.5767 21.4981 18.5766 21.4417C18.5773 21.411 18.5841 21.3809 18.5966 21.353C18.609 21.3251 18.6269 21.3 18.6492 21.2793C18.6849 21.2431 18.7333 21.2227 18.7838 21.2227C18.8343 21.2227 18.8827 21.2431 18.9184 21.2793L19.9555 22.3311C20.1092 22.4879 20.292 22.6122 20.4934 22.6969C20.6947 22.7816 20.9106 22.825 21.1286 22.8246C21.3465 22.8252 21.5624 22.7819 21.7637 22.6973C21.965 22.6126 22.1478 22.4883 22.3013 22.3315L22.5946 22.034C22.6654 21.9623 22.7082 21.8671 22.7152 21.7659C22.7222 21.6647 22.693 21.5644 22.6328 21.4833L20.296 18.3363C19.2965 16.9911 17.8615 16.0462 16.2432 15.6676L14.169 15.1851C14.0928 15.1672 14.0231 15.128 13.9678 15.0719L13.5497 14.6478L14.4299 13.755C14.5077 13.6761 14.5514 13.5691 14.5514 13.4576C14.5514 13.346 14.5077 13.239 14.4299 13.1601L7.45458 6.0852L6.62492 5.24375ZM21.4005 26.6774C21.2934 26.675 21.191 26.6321 21.1134 26.557L20.3551 25.7875C20.2774 25.7086 20.1718 25.6642 20.0618 25.6642C19.9518 25.6641 19.8462 25.7084 19.7684 25.7873C19.6905 25.8662 19.6468 25.9732 19.6467 26.0848C19.6467 26.1964 19.6904 26.3035 19.7682 26.3824C19.8459 26.4613 19.8896 26.5683 19.8896 26.6799C19.8896 26.7914 19.8459 26.8984 19.7682 26.9773C19.7293 27.0175 19.6826 27.049 19.631 27.0698C19.5794 27.0906 19.5241 27.1002 19.4686 27.0981C19.3612 27.0965 19.2584 27.0535 19.1812 26.9778L18.5946 26.3829C18.516 26.3081 18.4118 26.2673 18.3041 26.2691C18.1964 26.2709 18.0936 26.3151 18.0174 26.3924C17.9413 26.4697 17.8977 26.574 17.8961 26.6832C17.8944 26.7925 17.9347 26.8981 18.0084 26.9778C18.0858 27.0566 18.1293 27.1633 18.1293 27.2746C18.1293 27.3858 18.0858 27.4926 18.0084 27.5714C17.9278 27.649 17.8209 27.6922 17.7098 27.6922C17.6559 27.6954 17.602 27.6863 17.5521 27.6654C17.5023 27.6445 17.4577 27.6123 17.4219 27.5714L16.8353 26.9778C16.7968 26.9387 16.7511 26.9077 16.7007 26.8865C16.6504 26.8653 16.5964 26.8544 16.542 26.8544C16.4875 26.8544 16.4335 26.8652 16.3832 26.8864C16.3328 26.9075 16.2871 26.9385 16.2485 26.9775C16.21 27.0166 16.1794 27.063 16.1585 27.114C16.1377 27.1651 16.1269 27.2198 16.1269 27.2751C16.1269 27.3303 16.1376 27.385 16.1584 27.4361C16.1793 27.4872 16.2098 27.5336 16.2483 27.5727C16.3261 27.6516 16.3698 27.7586 16.3698 27.8701C16.3698 27.9817 16.3261 28.0887 16.2483 28.1676C16.2101 28.2085 16.1637 28.2404 16.1121 28.2613C16.0605 28.2821 16.0051 28.2914 15.9496 28.2883C15.8417 28.2881 15.7383 28.2447 15.6618 28.1676L10.103 22.5273C9.84284 22.263 9.6567 21.9333 9.56376 21.5719L9.49034 21.2862C9.35966 20.7801 9.09867 20.3184 8.7341 19.9483L8.625 19.8376L13.0218 15.375L13.4399 15.7987C13.6051 15.9659 13.8134 16.0826 14.041 16.1353L16.1152 16.6182C17.5433 16.9528 18.8095 17.787 19.6914 18.9743L21.8112 21.8293L21.7726 21.8685C21.6959 21.9469 21.6046 22.0091 21.5039 22.0514C21.4033 22.0937 21.2954 22.1154 21.1865 22.115C21.0775 22.1151 20.9695 22.0934 20.8688 22.051C20.7682 22.0086 20.6768 21.9464 20.5999 21.8681L19.5628 20.8162C19.4685 20.7197 19.3562 20.6431 19.2324 20.5909C19.1086 20.5388 18.9759 20.5121 18.8418 20.5125C18.6361 20.5138 18.4354 20.5768 18.2649 20.6934C18.0943 20.8101 17.9616 20.9753 17.8833 21.1682C17.805 21.3611 17.7847 21.5732 17.8249 21.7778C17.8651 21.9825 17.964 22.1705 18.1092 22.3182L21.6697 25.9293C21.7499 26.0049 21.8002 26.1075 21.811 26.218C21.8219 26.3285 21.7926 26.4392 21.7286 26.5293C21.6874 26.5761 21.6368 26.6135 21.5803 26.6391C21.5237 26.6646 21.4624 26.6776 21.4005 26.6774Z" fill="white"/>
<path d="M5.52065 4.12336L5.37818 4.26373L5.3782 4.26375L5.52065 4.12336ZM6.62492 5.24375L6.48248 5.38414L6.48251 5.38417L6.62492 5.24375ZM5.2273 4L5.22737 3.8H5.22737L5.2273 4ZM4.93387 4.12315L4.7915 3.98268L4.7915 3.98268L4.93387 4.12315ZM4.81224 4.42066L4.61224 4.42059L4.81224 4.42066ZM4.93366 4.71826L4.7912 4.85863L4.79125 4.85869L4.93366 4.71826ZM13.5534 13.4601L13.6958 13.6005L13.8343 13.4601L13.6958 13.3197L13.5534 13.4601ZM7.0999 20.0053L6.95749 20.1457L7.0999 20.2902L7.24232 20.1457L7.0999 20.0053ZM4.70302 17.5744L4.84545 17.4339L4.84297 17.4315L4.70302 17.5744ZM4.00002 17.8733L4.20001 17.875L4.00002 17.8733ZM4.11645 18.1693L3.97159 18.3072L3.97403 18.3097L4.11645 18.1693ZM5.76954 19.8459L5.91196 19.7054L5.76954 19.8459ZM6.5992 20.6873L6.74162 20.5469H6.74162L6.5992 20.6873ZM6.80662 20.8977L6.6642 21.0381L6.66422 21.0381L6.80662 20.8977ZM7.39319 20.8977L7.53558 21.0381L7.5356 21.0381L7.39319 20.8977ZM7.97976 20.3028L8.12217 20.1623L7.97976 20.0179L7.83734 20.1623L7.97976 20.3028ZM8.08886 20.4134L8.2315 20.2732L8.23127 20.273L8.08886 20.4134ZM8.62813 21.3689L8.82191 21.3194L8.82179 21.3189L8.62813 21.3689ZM8.70114 21.6546L8.50737 21.7041L8.50749 21.7045L8.70114 21.6546ZM9.45779 22.9929L9.31536 23.1333L9.3154 23.1333L9.45779 22.9929ZM12.7001 26.28L12.8425 26.1396L12.8425 26.1396L12.7001 26.28ZM13.5298 27.1215L13.3873 27.2619V27.2619L13.5298 27.1215ZM15.0202 28.6331L15.1635 28.4936L15.1627 28.4927L15.0202 28.6331ZM15.8789 29L15.8777 29.2H15.8789V29ZM15.9113 29L15.9118 28.8H15.9113V29ZM16.7824 28.6327L16.6402 28.4921L16.6393 28.493L16.7824 28.6327ZM17.0442 28.2418L17.1441 28.0686L16.9484 27.9558L16.8601 28.1636L17.0442 28.2418ZM17.6569 28.4051L17.6587 28.2051L17.6563 28.2051L17.6569 28.4051ZM18.8043 27.6478L18.9049 27.4749L18.7092 27.3611L18.6203 27.5693L18.8043 27.6478ZM19.4162 27.8106L19.4149 27.6106L19.4147 27.6106L19.4162 27.8106ZM20.3023 27.4437L20.4424 27.5865L20.4447 27.5842L20.3023 27.4437ZM20.547 27.0916L20.6767 26.9393L20.4769 26.7692L20.3658 27.0069L20.547 27.0916ZM22.118 27.1215L22.2418 27.2785L22.2482 27.2735L22.2541 27.268L22.118 27.1215ZM22.5776 26.28L22.7757 26.3092L22.7766 26.2997L22.5776 26.28ZM22.1985 25.2034L22.056 25.3438L22.0562 25.3439L22.1985 25.2034ZM18.638 21.5923L18.4951 21.7323L18.4956 21.7327L18.638 21.5923ZM18.5766 21.4417L18.3766 21.4369L18.3766 21.442L18.5766 21.4417ZM18.6492 21.2793L18.7857 21.4257L18.7916 21.4197L18.6492 21.2793ZM18.9184 21.2793L19.0608 21.1388L19.0608 21.1388L18.9184 21.2793ZM19.9555 22.3311L20.0983 22.1911L20.0979 22.1907L19.9555 22.3311ZM21.1286 22.8246L21.1292 22.6246L21.1282 22.6246L21.1286 22.8246ZM22.3013 22.3315L22.1589 22.1911L22.1584 22.1916L22.3013 22.3315ZM22.5946 22.034L22.4523 21.8936L22.4522 21.8936L22.5946 22.034ZM22.6328 21.4833L22.4722 21.6026L22.4722 21.6026L22.6328 21.4833ZM20.296 18.3363L20.4566 18.2171L20.4566 18.217L20.296 18.3363ZM16.2432 15.6676L16.2887 15.4729L16.2885 15.4728L16.2432 15.6676ZM14.169 15.1851L14.1234 15.3798L14.1237 15.3799L14.169 15.1851ZM13.9678 15.0719L14.1103 14.9315L14.1102 14.9315L13.9678 15.0719ZM13.5497 14.6478L13.4073 14.5074L13.2688 14.6478L13.4073 14.7882L13.5497 14.6478ZM14.4299 13.755L14.5724 13.8954L14.5724 13.8954L14.4299 13.755ZM14.4299 13.1601L14.5724 13.0197L14.5724 13.0197L14.4299 13.1601ZM7.45458 6.0852L7.597 5.94478L7.597 5.94478L7.45458 6.0852ZM21.1134 26.557L20.971 26.6975L20.9743 26.7007L21.1134 26.557ZM21.4005 26.6774L21.3962 26.8773L21.3996 26.8774L21.4005 26.6774ZM20.3551 25.7875L20.2127 25.9279L20.2127 25.9279L20.3551 25.7875ZM20.0618 25.6642L20.0619 25.4642H20.0619L20.0618 25.6642ZM19.7684 25.7873L19.9107 25.9278L19.9107 25.9278L19.7684 25.7873ZM19.6467 26.0848L19.4467 26.0848L19.6467 26.0848ZM19.7682 26.3824L19.6257 26.5228L19.6257 26.5228L19.7682 26.3824ZM19.7682 26.9773L19.6257 26.8369L19.6244 26.8383L19.7682 26.9773ZM19.4686 27.0981L19.4764 26.8982L19.4716 26.8981L19.4686 27.0981ZM19.1812 26.9778L19.0387 27.1182L19.0412 27.1206L19.1812 26.9778ZM18.5946 26.3829L18.7371 26.2424L18.7324 26.2379L18.5946 26.3829ZM18.0174 26.3924L18.1599 26.5327L18.1599 26.5327L18.0174 26.3924ZM18.0084 26.9778L17.8616 27.1137L17.8657 27.1179L18.0084 26.9778ZM18.0084 27.5714L18.1471 27.7156L18.1512 27.7115L18.0084 27.5714ZM17.7098 27.6922L17.7098 27.4918L17.6975 27.4925L17.7098 27.6922ZM17.5521 27.6654L17.6295 27.4809L17.6295 27.4809L17.5521 27.6654ZM17.4219 27.5714L17.5726 27.4394L17.5641 27.4308L17.4219 27.5714ZM16.8353 26.9778L16.6928 27.1181L16.693 27.1183L16.8353 26.9778ZM16.7007 26.8865L16.7783 26.7021L16.7783 26.7021L16.7007 26.8865ZM16.1585 27.114L15.9734 27.0384L15.9734 27.0384L16.1585 27.114ZM16.1269 27.2751L15.9269 27.275L16.1269 27.2751ZM16.1584 27.4361L16.3436 27.3606L16.3436 27.3606L16.1584 27.4361ZM16.2483 27.5727L16.1059 27.713L16.1059 27.7131L16.2483 27.5727ZM16.2483 28.1676L16.1058 28.0271L16.1021 28.0311L16.2483 28.1676ZM16.1121 28.2613L16.0371 28.0759L16.0371 28.0759L16.1121 28.2613ZM15.9496 28.2883L15.9606 28.0883L15.95 28.0883L15.9496 28.2883ZM15.6618 28.1676L15.5193 28.308L15.5198 28.3084L15.6618 28.1676ZM10.103 22.5273L9.96052 22.6676L9.96059 22.6677L10.103 22.5273ZM9.56376 21.5719L9.37005 21.6216L9.37006 21.6217L9.56376 21.5719ZM9.49034 21.2862L9.68404 21.2364L9.68398 21.2362L9.49034 21.2862ZM8.7341 19.9483L8.87658 19.8079L8.87651 19.8079L8.7341 19.9483ZM8.625 19.8376L8.48253 19.6973L8.34418 19.8377L8.48259 19.9781L8.625 19.8376ZM13.0218 15.375L13.1641 15.2345L13.0217 15.0902L12.8793 15.2346L13.0218 15.375ZM13.4399 15.7987L13.2976 15.9392L13.2976 15.9392L13.4399 15.7987ZM14.041 16.1353L14.0864 15.9405L14.0861 15.9404L14.041 16.1353ZM16.1152 16.6182L16.1608 16.4235L16.1605 16.4235L16.1152 16.6182ZM19.6914 18.9743L19.852 18.8551L19.852 18.855L19.6914 18.9743ZM21.8112 21.8293L21.9536 21.9698L22.0739 21.8477L21.9718 21.7101L21.8112 21.8293ZM21.7726 21.8685L21.6302 21.7281L21.6296 21.7286L21.7726 21.8685ZM21.1865 22.115L21.1871 21.915H21.1862L21.1865 22.115ZM20.8688 22.051L20.9464 21.8667L20.9464 21.8667L20.8688 22.051ZM20.5999 21.8681L20.7427 21.728L20.7423 21.7276L20.5999 21.8681ZM19.5628 20.8162L19.4197 20.956L19.4204 20.9567L19.5628 20.8162ZM19.2324 20.5909L19.1547 20.7752L19.1548 20.7752L19.2324 20.5909ZM18.8418 20.5125L18.8413 20.3125L18.8405 20.3125L18.8418 20.5125ZM18.2649 20.6934L18.1519 20.5284H18.1519L18.2649 20.6934ZM17.8249 21.7778L17.6287 21.8164V21.8164L17.8249 21.7778ZM18.1092 22.3182L17.9666 22.4584L17.9668 22.4587L18.1092 22.3182ZM21.6697 25.9293L21.5272 26.0698L21.5326 26.0749L21.6697 25.9293ZM21.811 26.218L22.0101 26.1985L21.811 26.218ZM21.7286 26.5293L21.8788 26.6614L21.8857 26.6535L21.8918 26.645L21.7286 26.5293ZM21.5803 26.6391L21.498 26.4568L21.498 26.4568L21.5803 26.6391ZM5.3782 4.26375L6.48248 5.38414L6.76736 5.10336L5.66309 3.98296L5.3782 4.26375ZM5.22723 4.2C5.28331 4.20002 5.33767 4.22261 5.37818 4.26373L5.66311 3.98299C5.54806 3.86622 5.39138 3.80006 5.22737 3.8L5.22723 4.2ZM5.07624 4.26362C5.11678 4.22253 5.17115 4.19998 5.22723 4.2L5.22737 3.8C5.06337 3.79994 4.90664 3.86599 4.7915 3.98268L5.07624 4.26362ZM5.01224 4.42073C5.01226 4.36127 5.0356 4.3048 5.07624 4.26362L4.7915 3.98268C4.67646 4.09927 4.6123 4.25685 4.61224 4.42059L5.01224 4.42073ZM5.07613 4.57789C5.03552 4.53668 5.01222 4.4802 5.01224 4.42073L4.61224 4.42059C4.61218 4.58434 4.67624 4.74196 4.7912 4.85863L5.07613 4.57789ZM13.6958 13.3197L5.07607 4.57784L4.79125 4.85869L13.411 13.6005L13.6958 13.3197ZM7.24232 20.1457L13.6958 13.6005L13.411 13.3197L6.95749 19.8649L7.24232 20.1457ZM4.5606 17.7148L6.95749 20.1457L7.24232 19.8649L4.84543 17.4339L4.5606 17.7148ZM4.41299 17.6563C4.46841 17.6558 4.52235 17.6774 4.56306 17.7172L4.84297 17.4315C4.72721 17.3181 4.57157 17.2549 4.40946 17.2563L4.41299 17.6563ZM4.26392 17.7199C4.30397 17.6793 4.35756 17.6568 4.41299 17.6563L4.40946 17.2563C4.24735 17.2577 4.09286 17.3237 3.97909 17.4391L4.26392 17.7199ZM4.20001 17.875C4.20051 17.8163 4.22377 17.7606 4.26392 17.7199L3.97909 17.4391C3.8654 17.5544 3.80141 17.7098 3.80002 17.8716L4.20001 17.875ZM4.26128 18.0313C4.22181 17.9899 4.1995 17.9338 4.20001 17.875L3.80002 17.8716C3.79864 18.0335 3.85996 18.1899 3.97161 18.3072L4.26128 18.0313ZM5.91196 19.7054L4.25886 18.0288L3.97403 18.3097L5.62713 19.9863L5.91196 19.7054ZM6.74162 20.5469L5.91196 19.7054L5.62713 19.9863L6.45679 20.8277L6.74162 20.5469ZM6.94903 20.7573L6.74162 20.5469L6.45679 20.8277L6.6642 21.0381L6.94903 20.7573ZM7.0999 20.8209C7.04385 20.8209 6.98952 20.7983 6.94901 20.7572L6.66422 21.0381C6.7793 21.1548 6.93595 21.2209 7.0999 21.2209V20.8209ZM7.25079 20.7572C7.21028 20.7983 7.15595 20.8209 7.0999 20.8209V21.2209C7.26385 21.2209 7.42051 21.1548 7.53558 21.0381L7.25079 20.7572ZM7.83734 20.1623L7.25077 20.7573L7.5356 21.0381L8.12217 20.4432L7.83734 20.1623ZM8.23127 20.273L8.12217 20.1623L7.83734 20.4432L7.94644 20.5538L8.23127 20.273ZM8.82179 21.3189C8.7198 20.9238 8.51622 20.563 8.2315 20.2732L7.94621 20.5536C8.18135 20.7929 8.34995 21.0914 8.43448 21.4189L8.82179 21.3189ZM8.89492 21.605L8.82191 21.3194L8.43436 21.4184L8.50737 21.7041L8.89492 21.605ZM9.60022 22.8525C9.26028 22.5076 9.0167 22.077 8.8948 21.6046L8.50749 21.7045C8.64689 22.2447 8.92561 22.7379 9.31536 23.1333L9.60022 22.8525ZM12.8425 26.1396L9.60018 22.8524L9.3154 23.1333L12.5577 26.4205L12.8425 26.1396ZM13.6722 26.981L12.8425 26.1396L12.5577 26.4204L13.3873 27.2619L13.6722 26.981ZM15.1627 28.4927L13.6722 26.981L13.3873 27.2619L14.8778 28.7735L15.1627 28.4927ZM15.4922 28.7193C15.3693 28.6668 15.2575 28.5901 15.1635 28.4936L14.877 28.7727C15.0077 28.9068 15.1633 29.0137 15.335 29.0871L15.4922 28.7193ZM15.8801 28.8C15.7469 28.7992 15.6151 28.7718 15.4922 28.7193L15.335 29.0871C15.5068 29.1605 15.6912 29.1989 15.8777 29.2L15.8801 28.8ZM15.9113 28.8H15.8789V29.2H15.9113V28.8ZM16.3055 28.7208C16.1807 28.7735 16.0469 28.8004 15.9118 28.8L15.9108 29.2C16.0997 29.2005 16.2867 29.1629 16.4609 29.0894L16.3055 28.7208ZM16.6393 28.493C16.5439 28.5908 16.4304 28.6682 16.3055 28.7208L16.4609 29.0894C16.6352 29.0159 16.7931 28.9081 16.9256 28.7724L16.6393 28.493ZM16.8601 28.1636C16.8079 28.2865 16.7332 28.3979 16.6402 28.4921L16.9247 28.7733C17.0535 28.643 17.1564 28.4891 17.2283 28.3201L16.8601 28.1636ZM17.6563 28.2051C17.4769 28.2057 17.3004 28.1587 17.1441 28.0686L16.9443 28.4151C17.1615 28.5403 17.4073 28.6059 17.6575 28.6051L17.6563 28.2051ZM18.233 28.035C18.062 28.1478 17.8622 28.2069 17.6587 28.2051L17.6551 28.6051C17.9386 28.6076 18.2162 28.5253 18.4534 28.3688L18.233 28.035ZM18.6203 27.5693C18.539 27.7602 18.4041 27.9221 18.233 28.035L18.4534 28.3688C18.6904 28.2123 18.8764 27.9887 18.9883 27.7262L18.6203 27.5693ZM19.4147 27.6106C19.2361 27.612 19.0602 27.5652 18.9049 27.4749L18.7038 27.8207C18.9208 27.9469 19.1672 28.0125 19.4177 28.0106L19.4147 27.6106ZM20.1622 27.301C19.9612 27.4982 19.6935 27.6088 19.4149 27.6106L19.4175 28.0106C19.8007 28.0082 20.1677 27.8559 20.4423 27.5865L20.1622 27.301ZM20.3658 27.0069C20.3144 27.1171 20.2447 27.2173 20.1599 27.3033L20.4447 27.5842C20.5616 27.4656 20.6575 27.3276 20.7282 27.1762L20.3658 27.0069ZM21.3311 27.1882C21.0917 27.1837 20.8607 27.096 20.6767 26.9393L20.4174 27.2439C20.6713 27.4601 20.9911 27.5818 21.3235 27.5882L21.3311 27.1882ZM21.9941 26.9644C21.8045 27.114 21.5705 27.1928 21.3311 27.1882L21.3235 27.5882C21.6559 27.5945 21.98 27.485 22.2418 27.2785L21.9941 26.9644ZM22.3797 26.2508C22.3324 26.5721 22.0946 26.8702 21.9819 26.9749L22.2541 27.268C22.4006 27.132 22.7095 26.7567 22.7755 26.3092L22.3797 26.2508ZM22.319 25.7648C22.3748 25.9234 22.3952 26.0926 22.3786 26.2603L22.7766 26.2997C22.799 26.0739 22.7716 25.8458 22.6963 25.6319L22.319 25.7648ZM22.0562 25.3439C22.1733 25.4625 22.2631 25.6063 22.319 25.7648L22.6963 25.6319C22.621 25.4181 22.4996 25.2236 22.3407 25.0628L22.0562 25.3439ZM18.4956 21.7327L22.056 25.3438L22.3409 25.063L18.7804 21.4519L18.4956 21.7327ZM18.3766 21.442C18.3768 21.5503 18.419 21.6546 18.4951 21.7323L18.7808 21.4523C18.7784 21.4499 18.7766 21.446 18.7766 21.4413L18.3766 21.442ZM18.414 21.2714C18.3907 21.3235 18.378 21.3799 18.3766 21.4369L18.7765 21.4464C18.7766 21.4422 18.7775 21.4382 18.7792 21.4346L18.414 21.2714ZM18.5128 21.133C18.4709 21.1721 18.4373 21.2192 18.414 21.2714L18.7792 21.4346C18.7808 21.431 18.783 21.4279 18.7856 21.4255L18.5128 21.133ZM18.7838 21.0227C18.6794 21.0227 18.5798 21.0648 18.5068 21.1388L18.7916 21.4197C18.79 21.4213 18.7872 21.4227 18.7838 21.4227V21.0227ZM19.0608 21.1388C18.9878 21.0648 18.8882 21.0227 18.7838 21.0227V21.4227C18.7803 21.4227 18.7776 21.4213 18.776 21.4197L19.0608 21.1388ZM20.0979 22.1907L19.0608 21.1388L18.776 21.4197L19.8131 22.4715L20.0979 22.1907ZM20.5709 22.5125C20.3942 22.4382 20.2335 22.329 20.0983 22.1911L19.8127 22.4711C19.9849 22.6467 20.1898 22.7862 20.4158 22.8812L20.5709 22.5125ZM21.1282 22.6246C20.9371 22.6249 20.7476 22.5869 20.5709 22.5125L20.4158 22.8812C20.6418 22.9763 20.8842 23.025 21.129 23.0246L21.1282 22.6246ZM21.6862 22.5129C21.5095 22.5872 21.3202 22.6251 21.1292 22.6246L21.128 23.0246C21.3728 23.0253 21.6153 22.9767 21.8412 22.8817L21.6862 22.5129ZM22.1584 22.1916C22.0234 22.3295 21.8628 22.4387 21.6862 22.5129L21.8412 22.8817C22.0672 22.7866 22.2721 22.6472 22.4442 22.4714L22.1584 22.1916ZM22.4522 21.8936L22.1589 22.1911L22.4437 22.4719L22.737 22.1745L22.4522 21.8936ZM22.5157 21.7521C22.512 21.806 22.4892 21.8562 22.4523 21.8936L22.737 22.1745C22.8416 22.0685 22.9045 21.9283 22.9147 21.7797L22.5157 21.7521ZM22.4722 21.6026C22.5038 21.6451 22.5194 21.6982 22.5157 21.7521L22.9147 21.7797C22.925 21.6312 22.8821 21.4836 22.7934 21.3641L22.4722 21.6026ZM20.1355 18.4555L22.4722 21.6026L22.7934 21.3641L20.4566 18.2171L20.1355 18.4555ZM16.1976 15.8624C17.7695 16.2301 19.1639 17.148 20.1355 18.4556L20.4566 18.217C19.4291 16.8342 17.9535 15.8624 16.2887 15.4729L16.1976 15.8624ZM14.1237 15.3799L16.1978 15.8624L16.2885 15.4728L14.2143 14.9903L14.1237 15.3799ZM13.8254 15.2123C13.907 15.2951 14.0102 15.3533 14.1234 15.3798L14.2147 14.9903C14.1755 14.9812 14.1392 14.9609 14.1103 14.9315L13.8254 15.2123ZM13.4073 14.7882L13.8254 15.2123L14.1102 14.9315L13.6921 14.5074L13.4073 14.7882ZM14.2875 13.6146L13.4073 14.5074L13.6921 14.7882L14.5724 13.8954L14.2875 13.6146ZM14.3514 13.4576C14.3514 13.517 14.3281 13.5734 14.2875 13.6146L14.5724 13.8954C14.6873 13.7788 14.7514 13.6213 14.7514 13.4576H14.3514ZM14.2875 13.3005C14.3281 13.3417 14.3514 13.3981 14.3514 13.4576H14.7514C14.7514 13.2939 14.6873 13.1363 14.5724 13.0197L14.2875 13.3005ZM7.31216 6.22562L14.2875 13.3005L14.5724 13.0197L7.597 5.94478L7.31216 6.22562ZM6.48251 5.38417L7.31217 6.22562L7.597 5.94478L6.76734 5.10333L6.48251 5.38417ZM20.9743 26.7007C21.0878 26.8106 21.2382 26.8739 21.3962 26.8773L21.4048 26.4774C21.3485 26.4762 21.2941 26.4536 21.2526 26.4134L20.9743 26.7007ZM20.2127 25.9279L20.971 26.6974L21.2559 26.4167L20.4976 25.6471L20.2127 25.9279ZM20.0617 25.8642C20.1178 25.8642 20.1722 25.8868 20.2127 25.9279L20.4976 25.6472C20.3826 25.5304 20.2259 25.4642 20.0619 25.4642L20.0617 25.8642ZM19.9107 25.9278C19.9513 25.8867 20.0056 25.8641 20.0617 25.8642L20.0619 25.4642C19.8979 25.4641 19.7411 25.5302 19.626 25.6468L19.9107 25.9278ZM19.8467 26.0849C19.8468 26.0254 19.8701 25.969 19.9107 25.9278L19.626 25.6468C19.511 25.7634 19.4468 25.921 19.4467 26.0848L19.8467 26.0849ZM19.9106 26.2421C19.87 26.2009 19.8467 26.1444 19.8467 26.0849L19.4467 26.0848C19.4467 26.2485 19.5107 26.4061 19.6257 26.5228L19.9106 26.2421ZM20.0896 26.6799C20.0896 26.5162 20.0255 26.3586 19.9106 26.242L19.6257 26.5228C19.6663 26.564 19.6896 26.6205 19.6896 26.6799H20.0896ZM19.9106 27.1177C20.0255 27.0011 20.0896 26.8436 20.0896 26.6799H19.6896C19.6896 26.7393 19.6663 26.7958 19.6257 26.8369L19.9106 27.1177ZM19.7058 27.2553C19.7835 27.224 19.8537 27.1766 19.9119 27.1164L19.6244 26.8383C19.6049 26.8584 19.5816 26.8741 19.5562 26.8843L19.7058 27.2553ZM19.4609 27.2979C19.5446 27.3012 19.628 27.2866 19.7058 27.2553L19.5562 26.8843C19.5308 26.8946 19.5036 26.8993 19.4764 26.8982L19.4609 27.2979ZM19.0412 27.1206C19.1548 27.2319 19.3066 27.2957 19.4657 27.2981L19.4716 26.8981C19.4159 26.8973 19.362 26.875 19.3211 26.8349L19.0412 27.1206ZM18.4522 26.5233L19.0388 27.1182L19.3236 26.8373L18.737 26.2424L18.4522 26.5233ZM18.3074 26.4691C18.3623 26.4682 18.4159 26.4889 18.4568 26.5278L18.7324 26.2379C18.6161 26.1273 18.4614 26.0665 18.3008 26.0691L18.3074 26.4691ZM18.1599 26.5327C18.1995 26.4925 18.2525 26.47 18.3074 26.4691L18.3008 26.0691C18.1403 26.0718 17.9876 26.1377 17.8749 26.252L18.1599 26.5327ZM18.096 26.6863C18.0969 26.6281 18.1201 26.5731 18.1599 26.5327L17.8749 26.252C17.7624 26.3662 17.6985 26.5198 17.6961 26.6802L18.096 26.6863ZM18.1552 26.8419C18.1167 26.8002 18.0951 26.7445 18.096 26.6863L17.6961 26.6802C17.6936 26.8405 17.7527 26.996 17.8617 27.1136L18.1552 26.8419ZM18.3293 27.2746C18.3293 27.1113 18.2656 26.9542 18.1512 26.8377L17.8657 27.1179C17.9061 27.159 17.9293 27.2153 17.9293 27.2746H18.3293ZM18.1512 27.7115C18.2656 27.595 18.3293 27.4378 18.3293 27.2746H17.9293C17.9293 27.3338 17.9061 27.3902 17.8657 27.4313L18.1512 27.7115ZM17.7097 27.8922C17.873 27.8922 18.0295 27.8287 18.1471 27.7156L17.8698 27.4273C17.8262 27.4692 17.7688 27.4922 17.7098 27.4921L17.7097 27.8922ZM17.4748 27.8498C17.5529 27.8826 17.6374 27.897 17.722 27.8918L17.6975 27.4925C17.6744 27.4939 17.6511 27.49 17.6295 27.4809L17.4748 27.8498ZM17.2714 27.7032C17.3272 27.7668 17.3967 27.8171 17.4748 27.8498L17.6295 27.4809C17.6078 27.4719 17.5883 27.4578 17.5723 27.4396L17.2714 27.7032ZM16.693 27.1183L17.2796 27.712L17.5641 27.4308L16.9776 26.8372L16.693 27.1183ZM16.6232 27.0708C16.6491 27.0817 16.6728 27.0977 16.6928 27.1181L16.9778 26.8374C16.9208 26.7796 16.8531 26.7336 16.7783 26.7021L16.6232 27.0708ZM16.5419 27.0544C16.5697 27.0544 16.5973 27.06 16.6232 27.0709L16.7783 26.7021C16.7035 26.6707 16.6232 26.6544 16.542 26.6544L16.5419 27.0544ZM16.4606 27.0708C16.4864 27.0599 16.5141 27.0544 16.5419 27.0544L16.542 26.6544C16.4609 26.6544 16.3806 26.6706 16.3058 26.702L16.4606 27.0708ZM16.3909 27.118C16.411 27.0977 16.4347 27.0817 16.4606 27.0708L16.3058 26.702C16.231 26.7334 16.1632 26.7793 16.1062 26.8371L16.3909 27.118ZM16.3437 27.1897C16.3547 27.1627 16.3708 27.1384 16.3909 27.118L16.1062 26.8371C16.0492 26.8948 16.0041 26.9633 15.9734 27.0384L16.3437 27.1897ZM16.3269 27.2751C16.3269 27.2458 16.3326 27.2167 16.3437 27.1897L15.9734 27.0384C15.9427 27.1135 15.9269 27.1939 15.9269 27.275L16.3269 27.2751ZM16.3436 27.3606C16.3326 27.3336 16.3269 27.3045 16.3269 27.2751L15.9269 27.275C15.9269 27.3561 15.9426 27.4365 15.9732 27.5117L16.3436 27.3606ZM16.3908 27.4323C16.3707 27.4119 16.3546 27.3876 16.3436 27.3606L15.9732 27.5117C16.0039 27.5868 16.0489 27.6552 16.1059 27.713L16.3908 27.4323ZM16.5698 27.8701C16.5698 27.7064 16.5057 27.5489 16.3908 27.4323L16.1059 27.7131C16.1465 27.7542 16.1698 27.8107 16.1698 27.8701H16.5698ZM16.3908 28.308C16.5057 28.1914 16.5698 28.0338 16.5698 27.8701H16.1698C16.1698 27.9295 16.1465 27.986 16.1059 28.0272L16.3908 28.308ZM16.187 28.4467C16.2658 28.4149 16.3365 28.3661 16.3945 28.3041L16.1021 28.0311C16.0838 28.0508 16.0615 28.066 16.0371 28.0759L16.187 28.4467ZM15.9387 28.488C16.0235 28.4927 16.1083 28.4785 16.1871 28.4467L16.0371 28.0759C16.0127 28.0857 15.9866 28.09 15.9606 28.0886L15.9387 28.488ZM15.5198 28.3084C15.6334 28.423 15.7878 28.488 15.9493 28.4883L15.95 28.0883C15.8957 28.0882 15.8431 28.0664 15.8037 28.0267L15.5198 28.3084ZM9.96059 22.6677L15.5193 28.308L15.8042 28.0272L10.2455 22.3869L9.96059 22.6677ZM9.37006 21.6217C9.47173 22.017 9.67542 22.3781 9.96052 22.6676L10.2456 22.387C10.0103 22.148 9.84167 21.8495 9.75746 21.522L9.37006 21.6217ZM9.29663 21.336L9.37005 21.6216L9.75746 21.5221L9.68404 21.2364L9.29663 21.336ZM8.59162 20.0886C8.93131 20.4335 9.17476 20.864 9.29669 21.3362L9.68398 21.2362C9.54456 20.6962 9.26602 20.2033 8.87658 19.8079L8.59162 20.0886ZM8.48259 19.9781L8.59169 20.0887L8.87651 19.8079L8.76741 19.6972L8.48259 19.9781ZM12.8793 15.2346L8.48253 19.6973L8.76747 19.978L13.1642 15.5154L12.8793 15.2346ZM13.5823 15.6582L13.1641 15.2345L12.8794 15.5155L13.2976 15.9392L13.5823 15.6582ZM14.0861 15.9404C13.8957 15.8963 13.721 15.7986 13.5822 15.6581L13.2976 15.9392C13.4893 16.1332 13.7312 16.2688 13.9959 16.3301L14.0861 15.9404ZM16.1605 16.4235L14.0864 15.9405L13.9957 16.33L16.0698 16.813L16.1605 16.4235ZM19.852 18.855C18.9421 17.6301 17.6353 16.7689 16.1608 16.4235L16.0695 16.813C17.4512 17.1366 18.6769 17.9438 19.5309 19.0936L19.852 18.855ZM21.9718 21.7101L19.852 18.8551L19.5308 19.0935L21.6506 21.9486L21.9718 21.7101ZM21.915 22.0089L21.9536 21.9698L21.6688 21.6889L21.6302 21.7281L21.915 22.0089ZM21.5815 22.2358C21.7068 22.1831 21.8203 22.1057 21.9156 22.0083L21.6296 21.7286C21.5714 21.7881 21.5023 21.8351 21.4264 21.8671L21.5815 22.2358ZM21.1858 22.315C21.3217 22.3154 21.4562 22.2885 21.5815 22.2358L21.4264 21.8671C21.3505 21.899 21.2691 21.9153 21.1871 21.915L21.1858 22.315ZM20.7912 22.2353C20.9165 22.2881 21.0509 22.3152 21.1867 22.315L21.1862 21.915C21.104 21.9151 21.0225 21.8987 20.9464 21.8667L20.7912 22.2353ZM20.4571 22.0081C20.5524 22.1053 20.666 22.1826 20.7912 22.2353L20.9464 21.8667C20.8703 21.8346 20.8011 21.7876 20.7427 21.728L20.4571 22.0081ZM19.4204 20.9567L20.4575 22.0085L20.7423 21.7276L19.7052 20.6758L19.4204 20.9567ZM19.1548 20.7752C19.2538 20.817 19.3439 20.8784 19.4197 20.956L19.7059 20.6765C19.5931 20.561 19.4585 20.4692 19.3101 20.4066L19.1548 20.7752ZM18.8424 20.7125C18.9495 20.7122 19.0557 20.7335 19.1547 20.7752L19.3101 20.4066C19.1616 20.3441 19.0022 20.312 18.8413 20.3125L18.8424 20.7125ZM18.3778 20.8585C18.5156 20.7642 18.6775 20.7135 18.8431 20.7125L18.8405 20.3125C18.5948 20.3141 18.3552 20.3893 18.1519 20.5284L18.3778 20.8585ZM18.0686 21.2434C18.1323 21.0866 18.24 20.9528 18.3778 20.8585L18.1519 20.5284C17.9487 20.6674 17.7909 20.864 17.698 21.093L18.0686 21.2434ZM18.0212 21.7393C17.9885 21.5728 18.005 21.4002 18.0686 21.2434L17.698 21.093C17.6051 21.3221 17.581 21.5737 17.6287 21.8164L18.0212 21.7393ZM18.2519 22.1781C18.1343 22.0584 18.0539 21.9058 18.0212 21.7393L17.6287 21.8164C17.6764 22.0591 17.7938 22.2825 17.9666 22.4584L18.2519 22.1781ZM21.8121 25.7889L18.2517 22.1778L17.9668 22.4587L21.5273 26.0697L21.8121 25.7889ZM22.0101 26.1985C21.9945 26.0403 21.9225 25.8927 21.8069 25.7837L21.5326 26.0749C21.5773 26.117 21.6058 26.1748 21.612 26.2375L22.0101 26.1985ZM21.8918 26.645C21.9837 26.5154 22.0256 26.3566 22.0101 26.1985L21.612 26.2375C21.6181 26.3003 21.6014 26.3629 21.5655 26.4135L21.8918 26.645ZM21.6625 26.8214C21.7452 26.7841 21.8188 26.7295 21.8788 26.6614L21.5785 26.3971C21.556 26.4227 21.5285 26.443 21.498 26.4568L21.6625 26.8214ZM21.3996 26.8774C21.4902 26.8778 21.5799 26.8587 21.6625 26.8214L21.498 26.4568C21.4675 26.4705 21.4346 26.4775 21.4014 26.4774L21.3996 26.8774Z" fill="white" mask="url(#path-1-outside-1_3530_1970)"/>
<path d="M6.5 5.5H27.5C28.0523 5.5 28.5 5.94772 28.5 6.5V25.5C28.5 26.0523 28.0523 26.5 27.5 26.5H22M6.5 20V25.5C6.5 26.0523 6.94772 26.5 7.5 26.5H13.5" stroke="white" stroke-width="1.3"/>
<path d="M15 5.5V9H21V5.5" stroke="white" stroke-width="1.3"/>
</svg>
