<svg width="32" height="32" viewBox="0 0 32 32" fill="none" xmlns="http://www.w3.org/2000/svg">
<path d="M19.6517 4.59551L17.9663 1L14.0337 1.11236L12.236 4.48315L10.4382 5.38202L6.8427 4.03371L4.03371 6.8427L5.1573 10.5506L4.59551 12.3483L1 14.0337L1.11236 17.9663L4.48315 19.764L5.38202 21.5618L4.03371 25.1573L6.8427 27.9663L10.5506 26.8427L12.3483 27.5169L14.0337 31H17.9663L19.764 27.5169L21.5618 26.7303L25.1573 27.9663L27.9663 25.1573L26.8427 21.5618L27.5169 19.6517L31 17.9663V14.0337L27.5169 12.236L26.7303 10.4382L27.9663 6.8427L25.1573 4.03371L21.5618 5.1573L19.6517 4.59551Z" stroke="#26C4F7" stroke-width="1.5"/>
<path d="M9.04199 20.1575C9.01621 20.2454 9 20.3374 9 20.4333V21.7783C9 22.3314 9.45766 22.7891 10.0108 22.7891H22.1164C22.6694 22.7891 23.1238 22.3315 23.1238 21.7783V20.4333C23.1238 20.3374 23.108 20.2453 23.0824 20.1575H9.04199ZM14.9876 21.0651H17.1397C17.3245 21.0658 17.474 21.2153 17.4748 21.4001C17.4751 21.4892 17.44 21.5749 17.3772 21.6382C17.3144 21.7014 17.229 21.7372 17.1397 21.7376H14.9877C14.8981 21.7379 14.812 21.7025 14.7486 21.6391C14.6852 21.5757 14.6497 21.4897 14.6501 21.4C14.6504 21.3109 14.6862 21.2254 14.7495 21.1626C14.8129 21.0998 14.8985 21.0648 14.9877 21.0651L14.9876 21.0651Z" fill="#26C4F7"/>
<path d="M19.0385 16.5657V17.7452H20.1949V16.5657H19.0385Z" fill="#26C4F7"/>
<path d="M17.1667 16.5657V17.7451H18.3659V16.5657H17.1667Z" fill="#26C4F7"/>
<path d="M19.0385 14.7168V15.893H20.1949V14.7168H19.0385Z" fill="#26C4F7"/>
<path d="M17.1667 14.7168V15.893H18.3659V14.7168H17.1667Z" fill="#26C4F7"/>
<path d="M18.0801 9C17.9908 9.00034 17.9053 9.03614 17.8424 9.09964C17.7796 9.16302 17.7446 9.24892 17.7452 9.3382V10.6831C17.7458 10.8679 17.8955 11.0174 18.0801 11.0181H19.7607V12.3637L15.0046 12.3638V11.3557C15.0054 11.1699 14.8554 11.0188 14.6697 11.0181H11.9791C11.7934 11.0188 11.6434 11.1699 11.6441 11.3557V12.3638H10.7004C10.1418 12.3638 9.67333 12.8131 9.67333 13.3712L9.67322 19.4848H22.4515V13.3712C22.4515 12.8131 21.9824 12.3638 21.4238 12.3638H20.4334V11.0182L22.1166 11.0181C22.3012 11.0174 22.4508 10.8679 22.4515 10.6831V9.3382C22.452 9.24892 22.417 9.16302 22.3541 9.09964C22.2913 9.03614 22.2059 9.00034 22.1166 9H18.0801ZM12.3167 11.6906H14.3348L14.3347 12.7013V17.7451H12.3166L12.3167 11.6906ZM16.8319 14.0438H20.5299H20.5298C20.6192 14.0439 20.7049 14.0797 20.7678 14.1432C20.8309 14.2066 20.866 14.2926 20.8654 14.382V18.0801V18.0799C20.8647 18.2649 20.7148 18.4145 20.5298 18.4149H16.8317C16.646 18.4157 16.4949 18.2657 16.4941 18.0799V14.3819C16.4936 14.2921 16.529 14.2059 16.5924 14.1424C16.6558 14.0788 16.742 14.0433 16.8317 14.0437L16.8319 14.0438Z" fill="#26C4F7"/>
</svg>
