<svg width="32" height="32" viewBox="0 0 32 32" fill="none" xmlns="http://www.w3.org/2000/svg">
<path fill-rule="evenodd" clip-rule="evenodd" d="M3.66134 20.6338L8.29695 27.7114L10.2898 26.4061L5.65417 19.3286L3.66134 20.6338ZM2.41827 20.0135C2.18727 20.1648 2.12265 20.4747 2.27396 20.7057L7.67664 28.9545C7.82794 29.1855 8.13786 29.2501 8.36886 29.0988L11.5328 27.0264C11.7638 26.8751 11.8285 26.5652 11.6772 26.3342L6.27447 18.0855C6.12317 17.8545 5.81325 17.7899 5.58225 17.9412L2.41827 20.0135Z" fill="white"/>
<path fill-rule="evenodd" clip-rule="evenodd" d="M13.8419 16.4608C13.3354 16.2413 12.5853 16.0837 11.4481 16.3111C10.4047 16.5198 9.3919 17.3853 8.59637 18.3032C8.20988 18.7492 7.89636 19.182 7.67947 19.5036C7.62635 19.5823 7.5792 19.6542 7.53836 19.7176L10.4888 24.354L11.4371 23.6428C11.8872 23.3052 12.4346 23.1228 12.9971 23.1228H20.5351C20.6123 23.1228 20.6877 23.1005 20.7524 23.0586L28.1963 18.242L27.7049 17.9472C27.1042 17.5867 26.3759 17.5068 25.7112 17.7283L21.3925 19.1679C21.3411 19.4557 21.239 19.7073 21.0953 19.9228C20.8844 20.2392 20.6075 20.4426 20.3488 20.5719C20.0925 20.7001 19.8434 20.7612 19.6635 20.7912C19.5721 20.8064 19.4946 20.8143 19.4377 20.8183C19.4091 20.8204 19.3854 20.8215 19.3673 20.8221L19.3444 20.8227L19.3363 20.8228L19.3331 20.8228L19.3317 20.8228C19.3314 20.8228 19.3305 20.8228 19.3305 20.2285V20.8228H15.8305C15.4991 20.8228 15.2305 20.5542 15.2305 20.2228C15.2305 19.8914 15.4991 19.6228 15.8305 19.6228H19.3263C19.3266 19.6228 19.3269 19.6228 19.3273 19.6228C19.3312 19.6226 19.3397 19.6223 19.3522 19.6214C19.3772 19.6196 19.417 19.6157 19.4662 19.6075C19.5675 19.5906 19.6935 19.558 19.8121 19.4986C19.9285 19.4405 20.0265 19.3626 20.0969 19.2572C20.1647 19.1554 20.2305 18.9928 20.2305 18.7228C20.2305 18.3371 20.0946 18.0561 19.9184 17.8428C19.7515 17.6406 19.5102 17.5073 19.1799 17.4256C18.8426 17.3423 18.4527 17.3228 18.0323 17.3228H15.1488L14.9976 17.222C14.8768 17.1415 14.7726 17.0591 14.6677 16.9763C14.448 16.8028 14.2255 16.627 13.8419 16.4608ZM21.3107 17.9303L25.3317 16.5899C26.3287 16.2576 27.4212 16.3775 28.3223 16.9182L29.2264 17.4606C29.7976 17.8033 29.8115 18.6262 29.2523 18.988L21.4043 24.0661C21.1454 24.2336 20.8436 24.3228 20.5351 24.3228H12.9971C12.6942 24.3228 12.3995 24.421 12.1571 24.6028L10.1721 26.0915L6.12988 19.7395L6.30951 19.4251L6.83046 19.7228C6.30951 19.4251 6.30943 19.4252 6.30951 19.4251L6.31044 19.4235L6.3121 19.4206L6.31762 19.4111L6.33732 19.3775C6.35425 19.349 6.37876 19.3081 6.41046 19.2567C6.47384 19.1538 6.56619 19.0082 6.68458 18.8326C6.92081 18.4823 7.26354 18.0089 7.68955 17.5173C8.51902 16.5602 9.75624 15.4258 11.2128 15.1344C12.5756 14.8619 13.5756 15.0376 14.319 15.3598C14.8584 15.5935 15.3054 15.9441 15.5317 16.1228H18.0323C18.4716 16.1228 18.9825 16.1408 19.4677 16.2607C19.96 16.3823 20.4632 16.6179 20.8437 17.0787C21.0356 17.311 21.2041 17.5942 21.3107 17.9303Z" fill="white"/>
<path d="M14.6102 11.4726L9 8.17716V7.10123L14.6102 3.36936V5.1751L10.7458 7.56019L14.6102 9.67442V11.4726Z" fill="white"/>
<path d="M19.8362 2L16.7571 13H15.1921L18.2712 2H19.8362Z" fill="white"/>
<path d="M20.3898 9.67442L24.2542 7.56019L20.3898 5.1751V3.36936L26 7.10123V8.17716L20.3898 11.4726V9.67442Z" fill="white"/>
</svg>
