<svg width="32" height="32" viewBox="0 0 32 32" fill="none" xmlns="http://www.w3.org/2000/svg">
<path d="M9.35714 24.1429H9.85714V23.6429V18.2857V17.7857H9.35714H5.78571H5.28571V18.2857V23.6429V24.1429H5.78571H9.35714ZM18.2857 24.1429H18.7857V23.6429V12.0357V11.5357H18.2857H14.7143H14.2143V12.0357V23.6429V24.1429H14.7143H18.2857ZM27.2143 24.1429H27.7143V23.6429V5.78571V5.28571H27.2143H23.6429H23.1429V5.78571V23.6429V24.1429H23.6429H27.2143ZM4.5 27.7143H28.5V28.5H4.5V27.7143ZM5.78571 17H9.35714C10.1131 17 10.6429 17.5468 10.6429 18.1233V24.9284H4.5V18.1233C4.5 17.5468 5.02979 17 5.78571 17ZM14.7143 10.75H18.2857C19.023 10.75 19.5714 11.3078 19.5714 11.9365V24.9288H13.4286V11.9365C13.4286 11.3078 13.977 10.75 14.7143 10.75ZM23.6429 4.5H27.2143C27.9627 4.5 28.5 5.05108 28.5 5.64842V24.9285H22.3571V5.64842C22.3571 5.05108 22.8944 4.5 23.6429 4.5Z" fill="white" stroke="white"/>
</svg>
