<svg width="32" height="32" viewBox="0 0 32 32" fill="none" xmlns="http://www.w3.org/2000/svg">
<path d="M24.7728 21.6414H7.08861C6.73927 21.6414 6.45703 21.9236 6.45703 22.2729V24.7993C6.45703 25.1486 6.73927 25.4308 7.08861 25.4308H24.7728C25.1222 25.4308 25.4044 25.1486 25.4044 24.7993V22.2729C25.4044 21.9236 25.1222 21.6414 24.7728 21.6414Z" fill="#26C4F7"/>
<path d="M7.7207 16.5889H8.98386V17.852H7.7207V16.5889Z" fill="#26C4F7"/>
<path d="M10.2471 16.5889H11.5102V17.852H10.2471V16.5889Z" fill="#26C4F7"/>
<path d="M12.7734 16.5889H14.0366V17.852H12.7734V16.5889Z" fill="#26C4F7"/>
<path d="M7.7207 14.0625H8.98386V15.3257H7.7207V14.0625Z" fill="#26C4F7"/>
<path d="M10.2471 14.0625H11.5102V15.3257H10.2471V14.0625Z" fill="#26C4F7"/>
<path d="M12.7734 14.0625H14.0366V15.3257H12.7734V14.0625Z" fill="#26C4F7"/>
<path d="M23.5103 14.0625H15.9314C15.582 14.0625 15.2998 14.3447 15.2998 14.6941V17.2204C15.2998 17.5697 15.582 17.852 15.9314 17.852H23.5103C23.8597 17.852 24.1419 17.5697 24.1419 17.2204V14.6941C24.1419 14.3447 23.8597 14.0625 23.5103 14.0625ZM22.8788 16.5888H16.563V15.3257H22.8788V16.5888Z" fill="#26C4F7"/>
<path d="M11.5098 6.48364H14.0361V7.7468H11.5098V6.48364Z" fill="#26C4F7"/>
<path d="M11.5098 9.01001H14.0361V10.2732H11.5098V9.01001Z" fill="#26C4F7"/>
<path fill-rule="evenodd" clip-rule="evenodd" d="M28 27V20.0526C28 19.7033 27.7178 19.4211 27.3684 19.4211H26.7368V9.94737C26.7368 9.59803 26.4546 9.31579 26.1053 9.31579H24.2105V8.05263H27.3684C27.7178 8.05263 28 7.77039 28 7.42105V3.63158C28 3.28224 27.7178 3 27.3684 3H19.7895C19.4401 3 19.1579 3.28224 19.1579 3.63158V7.42105C19.1579 7.77039 19.4401 8.05263 19.7895 8.05263H22.9474V9.31579H16.6316V4.89474C16.6316 4.5454 16.3493 4.26316 16 4.26316H9.68421C9.33487 4.26316 9.05263 4.5454 9.05263 4.89474V9.31579H5.89474C5.5454 9.31579 5.26316 9.59803 5.26316 9.94737V19.4211H4.63158C4.28224 19.4211 4 19.7033 4 20.0526V27H5.26316V20.6842H26.7368V27H28ZM26.7369 4.26312H20.4211V6.78944H26.7369V4.26312ZM15.3685 11.8421V5.52628H10.3159V11.8421H15.3685ZM6.52639 10.5789H9.0527V11.8421H7.78955V13.1052H17.8948V11.8421H16.6317V10.5789H25.4738V19.421H6.52639V10.5789Z" fill="#26C4F7"/>
<path d="M4 27H28V27.4C28 27.9523 27.5523 28.4 27 28.4H5C4.44772 28.4 4 27.9523 4 27.4V27Z" fill="#26C4F7"/>
</svg>
