<svg width="32" height="32" viewBox="0 0 32 32" fill="none" xmlns="http://www.w3.org/2000/svg">
<g clip-path="url(#clip0_885_1045)">
<path d="M13 0C5.83201 0 0 5.83173 0 13C0 20.1678 5.83151 26 13 26C20.1675 26 26 20.1678 26 13C26 5.83173 20.168 0 13 0V0ZM14.9007 23.9977C14.4633 24.0729 14.0186 24.1257 13.5652 24.1485V18.5816H18.6458C18.3385 19.5544 17.9489 20.4561 17.4822 21.2589C16.7366 22.5396 15.8537 23.4671 14.9005 23.9979L14.9007 23.9977ZM8.51774 21.2587C8.0502 20.4562 7.66096 19.5544 7.35411 18.5814H12.4347V24.1483C11.9815 24.1254 11.5366 24.073 11.0996 23.9974C10.1459 23.4666 9.2627 22.5391 8.51769 21.2584L8.51774 21.2587ZM1.85117 13.5652H5.4126C5.4476 14.9112 5.60866 16.2186 5.88323 17.4514H2.76537C2.24097 16.25 1.92041 14.9404 1.85116 13.5652H1.85117ZM11.0991 2.00222C11.5363 1.92662 11.9812 1.87383 12.4343 1.85101V7.06497H7.46999C7.75712 6.22652 8.10749 5.44574 8.51739 4.74114C9.26241 3.46049 10.1457 2.53254 11.0989 2.00214L11.0991 2.00222ZM17.4821 4.74122C17.8918 5.44582 18.242 6.22685 18.5295 7.06506H13.5652V1.8511C14.0186 1.87391 14.463 1.9267 14.9007 2.00231C15.8539 2.53271 16.7368 3.46066 17.4822 4.74131L17.4821 4.74122ZM18.8686 8.19547C19.2144 9.5169 19.4157 10.9492 19.4562 12.4348H13.5648V8.19547H18.8686ZM12.4347 8.19547V12.4348H6.54331C6.58411 10.9492 6.7852 9.51715 7.13072 8.19547H12.4347ZM5.41275 12.4348H1.85112C1.92692 10.9237 2.30513 9.49121 2.92521 8.19547H5.96437C5.63876 9.52987 5.45081 10.9598 5.4127 12.4348H5.41275ZM6.54311 13.5652H12.4345V17.4514H7.04108C6.75008 16.229 6.58089 14.919 6.54356 13.5652H6.54311ZM13.5651 17.451V13.5652H19.4565C19.4198 14.9192 19.2502 16.229 18.959 17.4514H13.5655L13.5651 17.451ZM20.5866 13.5652H24.148C24.0792 14.9408 23.7582 16.25 23.2338 17.4514H20.1161C20.3907 16.2186 20.5516 14.911 20.5866 13.5652H20.5866ZM20.5866 12.4348C20.5481 10.9598 20.3607 9.52987 20.0351 8.19547H23.0742C23.6943 9.49101 24.0723 10.9238 24.1479 12.4348H20.5866ZM22.4476 7.06491H19.7188C19.3868 6.01608 18.9651 5.04214 18.4591 4.17255C18.1623 3.66244 17.8431 3.20322 17.5058 2.78999C19.5469 3.69472 21.267 5.19272 22.4476 7.06486V7.06491ZM8.49378 2.79023C8.15715 3.20306 7.83732 3.66269 7.54052 4.1728C7.03449 5.04234 6.61261 6.01632 6.28082 7.06516H3.55197C4.73243 5.19262 6.45273 3.69442 8.49378 2.79028V2.79023ZM3.33893 18.5811H6.17449C6.52118 19.7643 6.97826 20.8607 7.54057 21.8271C7.83738 22.3372 8.15659 22.7964 8.49383 23.2093C6.32552 22.2485 4.51998 20.6182 3.33897 18.5811H3.33893ZM17.5056 23.2091C17.8426 22.7962 18.1621 22.3366 18.4589 21.8269C19.0211 20.8605 19.4781 19.7645 19.8248 18.5809H22.6605C21.4793 20.6182 19.6733 22.2485 17.5057 23.2091H17.5056Z" fill="#26C4F7"/>
<path d="M24.8658 28.8043C23.9695 28.8043 23.2524 29.5214 23.2524 30.3282C23.2524 31.2245 23.9695 31.9416 24.8658 31.9416C25.7622 31.9416 26.4792 31.2245 26.4792 30.3282C26.4792 29.5214 25.7622 28.8043 24.8658 28.8043V28.8043Z" fill="#26C4F7"/>
<path d="M17.0675 28.8043C16.2607 28.8043 15.5436 29.5214 15.5436 30.3282C15.5436 31.2245 16.2607 31.9416 17.0675 31.9416C17.9638 31.9416 18.6809 31.2245 18.6809 30.3282C18.6809 29.5214 17.9638 28.8043 17.0675 28.8043V28.8043Z" fill="#26C4F7"/>
<path d="M31.7991 16.4664C32.6579 16.4664 32.6579 15 31.7991 15H28.7546L27.6617 18.1053H14L15.8736 25.3508H25.1634L24.8512 26.2133H16.1857C15.3269 26.2133 15.3269 27.6797 16.1857 27.6797H25.7098L29.6132 16.4666H31.7991L31.7991 16.4664Z" fill="#26C4F7"/>
</g>
<defs>
<clipPath id="clip0_885_1045">
<rect width="32" height="32" fill="white"/>
</clipPath>
</defs>
</svg>
