<svg width="32" height="32" viewBox="0 0 32 32" fill="none" xmlns="http://www.w3.org/2000/svg">
<path d="M14.6962 29.4474C14.6935 29.1552 14.6955 28.861 14.6975 28.5719C14.6976 28.57 14.6976 28.5681 14.6976 28.5661C14.2636 28.337 13.8332 28.11 13.4028 27.8829C12.8835 27.609 12.3641 27.335 11.838 27.0571L11.8376 27.0569C10.9733 26.5994 10.1092 26.1434 9.24378 25.6868C8.8392 25.4733 8.43434 25.2597 8.02906 25.0457L8.02846 25.0453C7.47923 24.7544 6.92919 24.4641 6.37873 24.1737L6.37255 24.1704C5.82455 23.8813 5.27613 23.5919 4.72838 23.3017C4.7281 23.3016 4.72781 23.3014 4.72752 23.3013L4.96158 22.8594C4.76836 22.758 4.57592 22.6537 4.38341 22.5495C4.3516 22.5323 4.3198 22.515 4.28798 22.4978L14.6962 29.4474ZM14.6962 29.4474C14.5517 29.3704 14.4068 29.2932 14.2609 29.2158L14.2606 29.2156C13.7118 28.9249 13.1623 28.6349 12.6133 28.3452L12.6094 28.3432C12.0589 28.0527 11.5089 27.7625 10.9596 27.4715L10.959 27.4712C10.5536 27.2571 10.1485 27.0434 9.74377 26.8298C8.87857 26.3732 8.01463 25.9173 7.15047 25.46L7.15012 25.4598C6.62372 25.1817 6.10404 24.9076 5.58452 24.6335C5.15349 24.4062 4.72256 24.1789 4.28798 23.9494M14.6962 29.4474L4.28798 23.9494M4.28798 23.9494V23.0665V23.9494ZM16.1014 30.1241C16.0491 30.1242 15.9963 30.1162 15.947 30.1003C15.8185 30.043 15.7001 29.8985 15.7001 29.7345V29.7108H15.7002L15.7 29.7002C15.6957 29.4971 15.6946 29.2953 15.6949 29.0929C15.8989 29.2005 16.1024 29.3078 16.3058 29.4157L16.3147 29.4045L16.3082 29.417C16.3825 29.4559 16.4368 29.5258 16.4608 29.6292C16.4806 29.7146 16.4752 29.8087 16.4473 29.8921C16.39 30.0135 16.2667 30.107 16.1014 30.1241ZM15.7001 17.2083V17.178L16.4828 17.5694V20.9994V25.0283V28.347V28.378C16.3611 28.3137 16.2395 28.2496 16.1182 28.1856L16.1173 28.1851C15.978 28.1117 15.839 28.0384 15.7001 27.965V24.5559V20.527V17.2083ZM16.4855 16.9569C16.4853 16.9858 16.4851 17.0148 16.4849 17.0438L16.0751 16.339C16.0018 16.2129 15.9291 16.0859 15.8554 15.9572L15.8549 15.9563C15.7817 15.8283 15.7075 15.6986 15.6324 15.5694L15.2699 14.9459C15.3969 15.013 15.5239 15.0799 15.6506 15.1468L15.6518 15.1474C15.8702 15.2626 16.088 15.3774 16.3057 15.4929L16.307 15.4936C16.3967 15.5409 16.4828 15.6764 16.4828 15.8207V15.8445H16.4827L16.4829 15.8551C16.4907 16.2228 16.4881 16.5861 16.4855 16.9569ZM3.35573 23.0246L3.71827 23.6482C3.59102 23.5809 3.46389 23.5139 3.33699 23.447L3.3363 23.4466C3.11783 23.3315 2.90003 23.2166 2.68234 23.1011L2.68107 23.1005C2.59134 23.0532 2.50528 22.9176 2.50528 22.7733V22.7495H2.50539L2.50517 22.7389C2.49739 22.3712 2.49996 22.008 2.50259 21.6371C2.50279 21.6082 2.503 21.5792 2.5032 21.5502L2.91303 22.2551C2.98631 22.3811 3.05899 22.5081 3.13267 22.6369L3.13336 22.6381C3.20653 22.7659 3.28068 22.8955 3.35573 23.0246ZM3.28798 21.4161L2.50528 21.0246V17.5916V13.5598V10.238V10.2131C2.62698 10.2774 2.74857 10.3415 2.86995 10.4055L2.87049 10.4058C3.00988 10.4792 3.149 10.5526 3.28798 10.6261V14.0292V18.061V21.3828V21.4161ZM14.7001 14.6447V15.5289C14.556 15.4509 14.4101 15.3721 14.2609 15.2929L14.2596 15.2923C13.1606 14.7131 12.0586 14.1309 10.9596 13.5487L10.9582 13.5479C9.70997 12.8918 8.4645 12.2326 7.21831 11.573L7.15111 11.5375C7.15102 11.5374 7.15093 11.5374 7.15084 11.5373C6.37669 11.1262 5.60073 10.7166 4.82618 10.3078C4.64773 10.2136 4.46935 10.1194 4.29109 10.0253C4.29113 10.0213 4.29116 10.0174 4.29119 10.0135C4.2937 9.72702 4.29625 9.4343 4.29305 9.14379C4.43677 9.22066 4.58128 9.29791 4.72716 9.37533L4.72844 9.37601C5.8275 9.95522 6.92947 10.5374 8.02844 11.1196L8.02985 11.1203C9.2785 11.7767 10.5244 12.4361 11.7709 13.0958L11.837 13.1308C11.8372 13.1309 11.8373 13.131 11.8375 13.1311C12.6115 13.5421 13.3874 13.9517 14.1618 14.3604C14.3413 14.4552 14.5208 14.55 14.7001 14.6447ZM3.23847 8.58639C3.11528 8.65714 2.99202 8.72798 2.86884 8.79878L2.86812 8.79919C2.74707 8.86877 2.62609 8.9383 2.50528 9.00768V8.84752C2.50528 8.69409 2.58121 8.58458 2.69515 8.52169C2.8113 8.45759 2.9611 8.44701 3.09735 8.51285C3.1109 8.52109 3.12932 8.53148 3.15182 8.54191C3.18073 8.5567 3.20961 8.57153 3.23847 8.58639ZM3.07067 8.49555L3.07254 8.4968L3.07241 8.49671C3.07179 8.4963 3.07119 8.4959 3.07067 8.49555ZM15.9157 16.1716C15.9182 16.1733 15.9203 16.1747 15.9189 16.1737L15.9157 16.1716Z" fill="#26C4F7" stroke="#26C4F7"/>
<path d="M28.8372 22.0063C28.4004 22.2381 27.9637 22.4669 27.5269 22.6986C26.4751 23.2542 25.4204 23.8098 24.3686 24.3654C23.0999 25.0369 21.8312 25.7054 20.5596 26.3769C19.4603 26.9592 18.358 27.5386 17.2586 28.1209C16.7268 28.4002 16.1861 28.6706 15.6631 28.9647C15.6572 28.9677 15.6483 28.9737 15.6423 28.9766C16.088 29.2321 16.5367 29.4906 16.9823 29.7461V28.3586V25.0399V21.011V17.5437C16.9823 16.9821 16.9972 16.4176 16.9823 15.8561V15.8323C16.8338 16.0879 16.6882 16.3463 16.5396 16.6019C16.9764 16.3701 17.4131 16.1413 17.8499 15.9096C18.9016 15.354 19.9564 14.7984 21.0082 14.2398C22.2769 13.5684 23.5456 12.8969 24.8172 12.2284C25.9165 11.646 27.0188 11.0637 28.1182 10.4843C28.65 10.2021 29.1907 9.93466 29.7136 9.64052C29.7196 9.63755 29.7285 9.63161 29.7344 9.62864C29.2888 9.37312 28.8401 9.11463 28.3945 8.85912V10.2496V13.5714V17.6032V21.0735C28.3945 21.6351 28.3826 22.1996 28.3945 22.7611V22.7849C28.3945 23.2513 28.8045 23.697 29.2858 23.6762C29.7701 23.6554 30.1771 23.284 30.1771 22.7849V21.3944V18.0726V14.0408V10.5705C30.1771 10.0089 30.189 9.44438 30.1771 8.88289V8.85912C30.1771 8.16088 29.4254 7.77764 28.8371 8.08959C28.4004 8.32134 27.9636 8.55012 27.5269 8.78186C26.4751 9.33749 25.4204 9.89306 24.3685 10.4516C23.0998 11.1231 21.8312 11.7946 20.5596 12.4631C19.4603 13.0454 18.358 13.6278 17.2586 14.2071C16.7268 14.4894 16.186 14.7568 15.6631 15.0509C15.6572 15.0539 15.6483 15.0599 15.6423 15.0628C15.369 15.2084 15.1996 15.5293 15.1996 15.8323V17.2199V20.5386V24.5675V28.0348C15.1996 28.5963 15.1877 29.1609 15.1996 29.7224V29.7461C15.1996 30.4444 15.9513 30.8276 16.5396 30.5157C16.9764 30.2839 17.4131 30.0551 17.8499 29.8234C18.9016 29.2678 19.9564 28.7122 21.0082 28.1566C22.2769 27.4851 23.5455 26.8166 24.8172 26.1451C25.9165 25.5628 27.0188 24.9834 28.1181 24.401C28.65 24.1218 29.1907 23.8514 29.7136 23.5573C29.7196 23.5543 29.7285 23.5483 29.7344 23.5454C30.1474 23.3285 30.3079 22.7194 30.0553 22.3272C29.7849 21.9053 29.2799 21.7716 28.8371 22.0063L28.8372 22.0063Z" fill="#26C4F7"/>
<path d="M28.8379 8.08057C28.4012 8.31232 27.9644 8.5411 27.5277 8.77284C26.4759 9.32846 25.4211 9.88404 24.3693 10.4426C23.1006 11.1141 21.832 11.7856 20.5603 12.454C19.461 13.0364 18.3587 13.6188 17.2594 14.1981C16.7276 14.4804 16.1868 14.7478 15.6639 15.0419C15.658 15.0449 15.649 15.0508 15.6431 15.0538H16.5433C16.1066 14.8221 15.6698 14.5933 15.2331 14.3615C14.1813 13.8059 13.1266 13.2503 12.0747 12.6918C10.806 12.0203 9.53739 11.3488 8.26576 10.6803C7.16646 10.098 6.06417 9.51562 4.96481 8.93625C4.43297 8.65399 3.90707 8.35987 3.36932 8.09246C3.3604 8.08948 3.35446 8.08354 3.34852 8.08057V9.61962C3.78528 9.38787 4.22203 9.15909 4.65878 8.92735C5.71055 8.37172 6.7653 7.81615 7.81712 7.26052C9.08582 6.58907 10.3545 5.92054 11.6261 5.24908C12.7254 4.66673 13.8277 4.08736 14.927 3.505C15.4589 3.22274 15.9996 2.95535 16.5225 2.66121C16.5285 2.65824 16.5374 2.65229 16.5433 2.64932H15.6431C16.0799 2.88107 16.5166 3.10985 16.9534 3.34159C18.0051 3.89722 19.0599 4.45279 20.1117 5.00842C21.3804 5.67988 22.649 6.3484 23.9207 7.01986C25.02 7.60221 26.1223 8.18158 27.2216 8.76394C27.7535 9.0462 28.2823 9.3344 28.8171 9.60773C28.826 9.6107 28.832 9.61664 28.8379 9.61962C29.2509 9.83651 29.8273 9.73846 30.0561 9.29874C30.273 8.88574 30.1779 8.31233 29.7352 8.08056C29.2925 7.84584 28.8528 7.61409 28.4101 7.37938C27.3553 6.82082 26.3006 6.2652 25.2428 5.70663C23.9682 5.03518 22.6966 4.36073 21.4219 3.68922C20.3256 3.10985 19.2293 2.53048 18.1299 1.95111C17.604 1.6748 17.087 1.38364 16.5552 1.11922C16.2403 0.96175 15.9313 0.958778 15.6193 1.11922C15.5599 1.14893 15.5034 1.18161 15.447 1.21132C15.1736 1.35691 14.9003 1.49952 14.6299 1.64511C13.6375 2.16803 12.6481 2.69394 11.6558 3.21686C10.3842 3.88832 9.11252 4.55983 7.84083 5.23129C6.69692 5.83446 5.55307 6.44056 4.40917 7.04367C3.78226 7.37346 3.15834 7.70328 2.53143 8.03605C2.50172 8.0509 2.472 8.06576 2.44527 8.08359C1.8659 8.38961 1.8659 9.31659 2.44527 9.62263C2.88797 9.85735 3.32769 10.0891 3.77042 10.3238C4.82517 10.8824 5.87992 11.438 6.93766 11.9966C8.21229 12.671 9.48392 13.3425 10.7585 14.017C11.8549 14.5963 12.9512 15.1757 14.0506 15.7551C14.5765 16.0314 15.0934 16.3225 15.6253 16.587C15.9402 16.7444 16.2492 16.7474 16.5612 16.587C16.6206 16.5573 16.6771 16.5246 16.7335 16.4949C17.0069 16.3493 17.2802 16.2067 17.5506 16.0611C18.543 15.5381 19.5324 15.0122 20.5247 14.4893C21.7963 13.8179 23.068 13.1463 24.3397 12.4749C25.4836 11.8688 26.6274 11.2656 27.7713 10.6595C28.3982 10.3297 29.0222 9.99698 29.6491 9.66714C29.6788 9.65229 29.7085 9.63743 29.7352 9.61961C30.1482 9.40271 30.3087 8.79363 30.0561 8.40143C29.7857 7.9825 29.2807 7.84879 28.8379 8.08055V8.08057Z" fill="#26C4F7"/>
<path d="M9.94356 13.1136C10.3803 12.8819 10.8171 12.6531 11.2538 12.4213C12.3056 11.8657 13.3603 11.3101 14.4122 10.7516C15.6809 10.0801 16.9495 9.40862 18.2211 8.74015C19.3204 8.15779 20.4227 7.57543 21.5221 6.99606C22.0539 6.7138 22.5947 6.44641 23.1176 6.15227C23.1235 6.1493 23.1324 6.14336 23.1384 6.14039C23.5514 5.92349 23.7118 5.31442 23.4593 4.92221C23.1889 4.50328 22.6808 4.36957 22.2411 4.60133C21.8043 4.83308 21.3676 5.06186 20.9308 5.2936C19.8791 5.84922 18.8243 6.4048 17.7725 6.96336C16.5038 7.63482 15.2351 8.30633 13.9635 8.9748C12.8642 9.55716 11.7619 10.1395 10.6626 10.7189C10.1307 11.0011 9.58998 11.2685 9.06706 11.5627C9.06112 11.5656 9.0522 11.5716 9.04626 11.5746C8.63327 11.7915 8.47281 12.4005 8.72538 12.7927C8.99278 13.2117 9.50082 13.3454 9.94356 13.1136Z" fill="#26C4F7"/>
</svg>
