<svg width="32" height="32" viewBox="0 0 32 32" fill="none" xmlns="http://www.w3.org/2000/svg">
<path d="M19.6517 4.59551L17.9663 1L14.0337 1.11236L12.236 4.48315L10.4382 5.38202L6.8427 4.03371L4.03371 6.8427L5.1573 10.5506L4.59551 12.3483L1 14.0337L1.11236 17.9663L4.48315 19.764L5.38202 21.5618L4.03371 25.1573L6.8427 27.9663L10.5506 26.8427L12.3483 27.5169L14.0337 31H17.9663L19.764 27.5169L21.5618 26.7303L25.1573 27.9663L27.9663 25.1573L26.8427 21.5618L27.5169 19.6517L31 17.9663V14.0337L27.5169 12.236L26.7303 10.4382L27.9663 6.8427L25.1573 4.03371L21.5618 5.1573L19.6517 4.59551Z" stroke="#26C4F7" stroke-width="1.5"/>
<path d="M13.7882 20.5449C14.4729 20.5449 15.0207 21.0927 15.0207 21.709C15.0207 22.3937 14.4729 22.9415 13.7882 22.9415C13.1034 22.9415 12.5557 22.3937 12.5557 21.709C12.5557 21.0927 13.1034 20.5449 13.7882 20.5449Z" fill="#26C4F7"/>
<path d="M19.7452 20.5449C20.3615 20.5449 20.9093 21.0927 20.9093 21.709C20.9093 22.3937 20.3615 22.9415 19.7452 22.9415C19.0605 22.9415 18.5127 22.3937 18.5127 21.709C18.5127 21.0927 19.0605 20.5449 19.7452 20.5449Z" fill="#26C4F7"/>
<path d="M8.49201 11.1201C7.836 11.1201 7.836 10 8.49201 10H10.8177L11.6525 12.3721H22.0886L20.6574 17.9069H13.561L13.7995 18.5658H20.419C21.075 18.5658 21.075 19.6859 20.419 19.6859H13.1436L10.1618 11.1203H8.49197L8.49201 11.1201Z" fill="#26C4F7"/>
</svg>
