<svg width="32" height="32" viewBox="0 0 32 32" fill="none" xmlns="http://www.w3.org/2000/svg">
<path d="M13.5 17.6667H1.83333C1.33333 17.6667 1 18 1 18.5V30.1667C1 30.6667 1.33333 31 1.83333 31H13.5C14 31 14.3333 30.6667 14.3333 30.1667V18.5C14.3333 18 14 17.6667 13.5 17.6667ZM12.6667 29.3333H2.66667V19.3333H12.6667V29.3333ZM13.5 1H1.83333C1.33333 1 1 1.33333 1 1.83333V13.5C1 14 1.33333 14.3333 1.83333 14.3333H13.5C14 14.3333 14.3333 14 14.3333 13.5V1.83333C14.3333 1.33333 14 1 13.5 1ZM30.1667 1H18.5C18 1 17.6667 1.33333 17.6667 1.83333V13.5C17.6667 14 18 14.3333 18.5 14.3333H30.1667C30.6667 14.3333 31 14 31 13.5V1.83333C31 1.33333 30.6667 1 30.1667 1ZM29.3333 12.6667H19.3333V2.66667H29.3333V12.6667ZM30.1667 23.5H25.1667V18.5C25.1667 18 24.8333 17.6667 24.3333 17.6667C23.8333 17.6667 23.5 18 23.5 18.5V23.5H18.5C18 23.5 17.6667 23.8333 17.6667 24.3333C17.6667 24.8333 18 25.1667 18.5 25.1667H23.5V30.1667C23.5 30.6667 23.8333 31 24.3333 31C24.8333 31 25.1667 30.6667 25.1667 30.1667V25.1667H30.1667C30.6667 25.1667 31 24.8333 31 24.3333C31 23.8333 30.6667 23.5 30.1667 23.5Z" fill="#26C4F7"/>
</svg>
