<svg width="32" height="32" viewBox="0 0 32 32" fill="none" xmlns="http://www.w3.org/2000/svg">
<path fill-rule="evenodd" clip-rule="evenodd" d="M6.37579 24.0104H9.2245V18.7727H6.37579V24.0104ZM5.7484 25.2612H9.85195C10.1986 25.2612 10.4793 24.9814 10.4793 24.6359V18.1476C10.4793 17.8021 10.1986 17.522 9.85195 17.522H5.7484C5.40198 17.522 5.121 17.8021 5.121 18.1476V24.6359C5.121 24.9814 5.40201 25.2612 5.7484 25.2612ZM22.7772 24.0104H25.6259V18.7727H22.7772V24.0104ZM22.1498 25.2612H26.2534C26.6 25.2612 26.8808 24.9814 26.8808 24.6359V18.1476C26.8808 17.8021 26.6 17.522 26.2534 17.522H22.1498C21.8032 17.522 21.5224 17.8021 21.5224 18.1476V24.6359C21.5224 24.9814 21.8032 25.2612 22.1498 25.2612ZM17.0903 22.2935C16.7439 22.2935 16.4629 22.5734 16.4629 22.9189V24.1751C16.4629 24.5206 16.7439 24.8005 17.0903 24.8005C17.4366 24.8005 17.7177 24.5206 17.7177 24.1751V22.9189C17.7177 22.5734 17.4366 22.2935 17.0903 22.2935ZM30.7456 14.7391H1.2568V12.2555H30.7456V14.7391ZM29.1843 27.6024H19.703V18.1474C19.703 17.8022 19.422 17.5221 19.0756 17.5221H12.9268C12.5804 17.5221 12.2994 17.8022 12.2994 18.1474V27.6024H2.8382V15.9904H29.1843V27.6024ZM13.5542 27.6024H18.4481V18.7731H13.5542V27.6024ZM4.17356 5.25098H27.7695L30.3979 11.0044H1.59713L4.17356 5.25098ZM31.9995 11.6112C31.9991 11.6025 31.9989 11.5938 31.9982 11.5851C31.9969 11.5681 31.9951 11.5514 31.9924 11.5349C31.9913 11.5282 31.9906 11.5213 31.9893 11.5146C31.9801 11.4661 31.9656 11.4197 31.946 11.3757C31.9453 11.3742 31.9446 11.3724 31.944 11.3708L28.7441 4.36605C28.6424 4.14307 28.4192 4 28.1732 4H3.76645C3.51892 4 3.29438 4.14508 3.19351 4.37052L0.0564141 11.3753C0.0559677 11.3762 0.0557445 11.3773 0.0552981 11.3786C0.0452541 11.4012 0.0363263 11.4246 0.0291838 11.4485C0.0287375 11.4498 0.0285143 11.451 0.0280678 11.4523C0.0218179 11.4735 0.0166844 11.4952 0.0126669 11.5175C0.0113276 11.5246 0.0104349 11.5318 0.00931881 11.5389C0.00708681 11.555 0.00530121 11.5713 0.00418515 11.588C0.00351559 11.5965 0.00306912 11.6052 0.00284594 11.6137C0.00262275 11.6193 0.00195312 11.6246 0.00195312 11.6302V15.365C0.00195312 15.7105 0.282967 15.9904 0.629349 15.9904H1.58307V28.2281C1.58307 28.5736 1.86408 28.8537 2.21047 28.8537H29.8113C30.158 28.8537 30.4387 28.5736 30.4387 28.2281V15.9904H31.3726C31.719 15.9904 32 15.7105 32 15.365V11.6302C32 11.6239 31.9991 11.6177 31.9991 11.6114L31.9995 11.6112Z" fill="white"/>
<rect x="1" y="12" width="30" height="3" fill="#26C4F7"/>
</svg>
