<?xml version="1.0" encoding="UTF-8"?><svg id="a" xmlns="http://www.w3.org/2000/svg" width="32" height="32" viewBox="0 0 32 32"><g><path d="M30.8,8.7s0,0,0,.1c-.2,.4-.6,.6-1,.5-.4,0-.7-.4-.7-.9,0-1.1,0-2.2,0-3.2,0-.4,0-.5-.5-.5-1.1,0-2.2,0-3.3,0-.5,0-.8-.3-.9-.8,0-.4,.3-.8,.7-.9,.1,0,.2,0,.3,0,1.1,0,2.1,0,3.2,0,1.1,0,1.8,.5,2.1,1.6,0,0,0,0,0,0v4.1Z" style="fill:#fff;"/><path d="M4.6,14.3c0-2.3,0-4.6,0-6.8,0-.7,.6-1.1,1.2-.9,.3,.1,.5,.4,.5,.8,0,0,0,.2,0,.3,0,4.5,0,8.9,0,13.4,0,.1,0,.3,0,.4,0,.4-.5,.7-.9,.7-.5,0-.8-.4-.8-.9,0-1.5,0-3,0-4.5,0-.8,0-1.5,0-2.3Z" style="fill:#fff;"/><path d="M13.3,14.3c0,2.2,0,4.5,0,6.7,0,.1,0,.3,0,.4-.1,.4-.5,.7-.9,.6-.4,0-.8-.4-.8-.8,0,0,0-.2,0-.2,0-4.5,0-8.9,0-13.4,0-.1,0-.3,0-.4,0-.4,.5-.7,.9-.7,.4,0,.8,.4,.8,.9,0,1.7,0,3.3,0,5,0,.6,0,1.3,0,1.9Z" style="fill:#fff;"/><path d="M25.5,10.6c0-1.2,0-2.4,0-3.5,0-.4,.6-.6,1.2-.4,.4,0,.5,.2,.5,.4,0,.2,0,.5,0,.7,0,2.1,0,4.2,0,6.4,0,0,0,.1,0,.2,0,.2-.5,.4-.9,.4-.4,0-.8-.2-.8-.5,0-1,0-2,0-3.1,0-.2,0-.3,0-.5Z" style="fill:#fff;"/><path d="M9.9,12c0,1.5,0,3,0,4.5,0,.7-.6,1.1-1.2,.8-.3-.2-.5-.5-.5-.8,0-1.1,0-2.3,0-3.4,0-1.9,0-3.7,0-5.6,0-.7,.7-1.1,1.2-.8,.3,.2,.5,.5,.5,.9,0,1.5,0,3,0,4.5Z" style="fill:#fff;"/><path d="M15.1,12c0-1.5,0-3,0-4.5,0-.7,.7-1.1,1.3-.8,.4,.2,.5,.5,.5,.9,0,2.1,0,4.2,0,6.2,0,.9,0,1.8,0,2.7,0,.6-.4,1-.9,1-.5,0-.9-.4-.9-1,0-1.5,0-3,0-4.5Z" style="fill:#fff;"/><path d="M20.3,10.9c0,1.2,0,2.4,0,3.6,0,.6-.6,.9-1.2,.7-.4-.1-.5-.4-.5-.7,0-1.6,0-3.1,0-4.7,0-.8,0-1.7,0-2.5,0-.5,.4-.8,.9-.8,.5,0,.9,.3,.9,.8,0,1.2,0,2.4,0,3.6Z" style="fill:#fff;"/><path d="M22,10.4c0-1.1,0-2.1,0-3.2,0-.4,.3-.7,.9-.7,.5,0,.9,.3,.9,.7,0,2.1,0,4.3,0,6.4,0,.5-.6,.8-1.2,.6-.4-.1-.5-.3-.5-.6,0-1.1,0-2.1,0-3.2Z" style="fill:#fff;"/><path d="M1.2,6.7c0-.6,0-1.1,0-1.7,0-1.1,.9-2,2-2,1.1,0,2.3,0,3.4,0,.5,0,.9,.4,.9,.9,0,.5-.4,.9-.9,.9-1.1,0-2.1,0-3.2,0-.4,0-.5,0-.5,.5,0,1.1,0,2.1,0,3.2,0,.6-.4,1-.9,1-.5,0-.9-.4-.9-1,0-.6,0-1.1,0-1.7Z" style="fill:#fff;"/><path d="M4.9,25.6c-.5,0-1.1,0-1.6,0-1.2,0-2.1-.9-2.1-2.1,0-1.1,0-2.2,0-3.4,0-.6,.4-1,.9-1,.5,0,.9,.4,.9,1,0,1.1,0,2.1,0,3.2,0,.5,0,.5,.5,.5,1,0,2.1,0,3.1,0,.6,0,1,.4,1,.9,0,.5-.4,.9-1,.9-.6,0-1.1,0-1.7,0Z" style="fill:#fff;"/><path d="M8.1,20.7c0-.2,0-.3,0-.5,0-.5,.4-.8,.9-.8,.5,0,.9,.4,.9,.8,0,.4,0,.7,0,1.1,0,.5-.4,.8-.9,.8-.5,0-.8-.4-.9-.8,0-.2,0-.4,0-.5Z" style="fill:#fff;"/></g><g><circle cx="23" cy="21.3" r="7.7" style="fill:none; stroke:#fff; stroke-width:2px;"/><path d="M20,20.5c-.3-.3-.7-.3-1,0-.3,.3-.3,.7,0,.9l2.7,2.6c.1,.1,.3,.2,.5,.2s.4,0,.5-.2l4.8-4.6c.3-.3,.3-.7,0-.9-.3-.3-.7-.3-1,0l-4.3,4.2-2.3-2.2Z" style="fill:#fff;"/></g></svg>