<svg width="32" height="32" viewBox="0 0 32 32" fill="none" xmlns="http://www.w3.org/2000/svg">
<g clip-path="url(#clip0_3530_5798)">
<path fill-rule="evenodd" clip-rule="evenodd" d="M3.66134 23.634L8.29695 30.7115L10.2898 29.4063L5.65417 22.3287L3.66134 23.634ZM2.41827 23.0136C2.18727 23.1649 2.12265 23.4749 2.27396 23.7059L7.67664 31.9546C7.82794 32.1856 8.13786 32.2502 8.36886 32.0989L11.5328 30.0266C11.7638 29.8753 11.8285 29.5653 11.6772 29.3343L6.27447 21.0856C6.12317 20.8546 5.81325 20.79 5.58225 20.9413L2.41827 23.0136Z" fill="#26C4F7"/>
<path fill-rule="evenodd" clip-rule="evenodd" d="M13.8419 19.4608C13.3354 19.2413 12.5853 19.0837 11.4481 19.3111C10.4047 19.5198 9.3919 20.3853 8.59637 21.3032C8.20988 21.7492 7.89636 22.182 7.67947 22.5036C7.62635 22.5823 7.5792 22.6542 7.53836 22.7176L10.4888 27.354L11.4371 26.6428C11.8872 26.3052 12.4346 26.1228 12.9971 26.1228H20.5351C20.6123 26.1228 20.6877 26.1005 20.7524 26.0586L28.1963 21.242L27.7049 20.9472C27.1042 20.5867 26.3759 20.5068 25.7112 20.7283L21.3925 22.1679C21.3411 22.4557 21.239 22.7073 21.0953 22.9228C20.8844 23.2392 20.6075 23.4426 20.3488 23.5719C20.0925 23.7001 19.8434 23.7612 19.6635 23.7912C19.5721 23.8064 19.4946 23.8143 19.4377 23.8183C19.4091 23.8204 19.3854 23.8215 19.3673 23.8221L19.3444 23.8227L19.3363 23.8228L19.3331 23.8228L19.3317 23.8228C19.3314 23.8228 19.3305 23.8228 19.3305 23.2285V23.8228H15.8305C15.4991 23.8228 15.2305 23.5542 15.2305 23.2228C15.2305 22.8914 15.4991 22.6228 15.8305 22.6228H19.3263C19.3266 22.6228 19.3269 22.6228 19.3273 22.6228C19.3312 22.6226 19.3397 22.6223 19.3522 22.6214C19.3772 22.6196 19.417 22.6157 19.4662 22.6075C19.5675 22.5906 19.6935 22.558 19.8121 22.4986C19.9285 22.4405 20.0265 22.3626 20.0969 22.2572C20.1647 22.1554 20.2305 21.9928 20.2305 21.7228C20.2305 21.3371 20.0946 21.0561 19.9184 20.8428C19.7515 20.6406 19.5102 20.5073 19.1799 20.4256C18.8426 20.3423 18.4527 20.3228 18.0323 20.3228H15.1488L14.9976 20.222C14.8768 20.1415 14.7726 20.0591 14.6677 19.9763C14.448 19.8028 14.2255 19.627 13.8419 19.4608ZM21.3107 20.9303L25.3317 19.5899C26.3287 19.2576 27.4212 19.3775 28.3223 19.9182L29.2264 20.4606C29.7976 20.8033 29.8115 21.6262 29.2523 21.988L21.4043 27.0661C21.1454 27.2336 20.8436 27.3228 20.5351 27.3228H12.9971C12.6942 27.3228 12.3995 27.421 12.1571 27.6028L10.1721 29.0915L6.12988 22.7395L6.30951 22.4251L6.83046 22.7228C6.30951 22.4251 6.30943 22.4252 6.30951 22.4251L6.31044 22.4235L6.3121 22.4206L6.31762 22.4111L6.33732 22.3775C6.35425 22.349 6.37876 22.3081 6.41046 22.2567C6.47384 22.1538 6.56619 22.0082 6.68458 21.8326C6.92081 21.4823 7.26354 21.0089 7.68955 20.5173C8.51902 19.5602 9.75624 18.4258 11.2128 18.1344C12.5756 17.8619 13.5756 18.0376 14.319 18.3598C14.8584 18.5935 15.3054 18.9441 15.5317 19.1228H18.0323C18.4716 19.1228 18.9825 19.1408 19.4677 19.2607C19.96 19.3823 20.4632 19.6179 20.8437 20.0787C21.0356 20.311 21.2041 20.5942 21.3107 20.9303Z" fill="#26C4F7"/>
<path d="M16.5 4H22V6.5H16.5V8.5L12 5.5L16.5 2V4Z" fill="#26C4F7"/>
<path d="M17.5 14.5L12 14.5L12 12L17.5 12L17.5 10L22 13L17.5 16.5L17.5 14.5Z" fill="#26C4F7"/>
</g>
<defs>
<clipPath id="clip0_3530_5798">
<rect width="32" height="32" fill="white"/>
</clipPath>
</defs>
</svg>
