<svg width="32" height="32" viewBox="0 0 32 32" fill="none" xmlns="http://www.w3.org/2000/svg">
<path d="M6.75 27V4C6.75 3.30964 7.30964 2.75 8 2.75H17.2091C17.5267 2.75 17.8323 2.87088 18.064 3.08808L24.8549 9.45454C25.107 9.69085 25.25 10.021 25.25 10.3665V27C25.25 27.6904 24.6904 28.25 24 28.25H16H8C7.30964 28.25 6.75 27.6904 6.75 27Z" stroke="white" stroke-width="1.5"/>
<path d="M15.7777 9.94461H16.2777V9.44461V8.72255C16.2777 8.59994 16.3774 8.50024 16.5 8.50024C19.8076 8.50024 22.5 11.1927 22.5 14.5C22.5 14.6226 22.4003 14.7223 22.2777 14.7223H21.5554H21.0554V15.2223C21.0554 18.1326 18.688 20.5 15.7777 20.5C12.8674 20.5 10.5 18.1326 10.5 15.2223C10.5 12.312 12.8674 9.94461 15.7777 9.94461ZM16.2777 10.8893V10.3893H15.7777C13.1124 10.3893 10.9444 12.5574 10.9444 15.2227C10.9444 17.888 13.1124 20.056 15.7777 20.056C18.443 20.056 20.611 17.888 20.611 15.2227V14.7227H20.111H16.5C16.3774 14.7227 16.2777 14.623 16.2777 14.5004V10.8893Z" fill="white" stroke="white"/>
<rect x="10" y="23" width="12" height="1.4" fill="white"/>
</svg>
