<svg width="32" height="32" viewBox="0 0 32 32" fill="none" xmlns="http://www.w3.org/2000/svg">
<path d="M22.1364 20.8233L22.1364 20.1431C22.0098 20.2473 21.8895 20.3587 21.7761 20.4766L22.1364 20.8233ZM22.1364 20.8233L22.6364 20.8233L22.6364 20.388C22.4568 20.5184 22.2895 20.6642 22.1364 20.8233ZM27.25 20.5108H26.75V20.169C26.9264 20.27 27.0936 20.3844 27.25 20.5108ZM27.25 20.5108L27.5643 20.1219C27.4634 20.0404 27.3585 19.9632 27.25 19.8908V20.5108ZM1.61779 6.00073L1.63949 6.50026C1.64409 6.50006 1.64826 6.49998 1.6521 6.5C1.65476 6.49961 1.65745 6.49927 1.66017 6.49897C1.6613 6.49885 1.66243 6.49874 1.66357 6.49863L1.66127 6.47358L1.61779 6.00073ZM30.477 16.5832C30.4771 16.5833 30.4772 16.5834 30.4773 16.5835L30.478 16.5847L30.9042 16.3232L30.477 16.5832ZM27.4103 11.5855L27.8361 11.3234L27.4099 11.5849L27.4103 11.5855ZM2.36353 6.83391H1.86353V7.33391V22.6669V23.1669H2.36353H3.45031H3.86455L3.94159 22.7599C4.21864 21.2961 5.54309 20.1671 7.13623 20.1671C8.72965 20.1671 10.0541 21.2961 10.3311 22.7599L10.4082 23.1669H10.8224H20.7728H21.2728V22.6669V7.33391V6.83391H20.7728H2.36353ZM22.1364 11.834H21.6364L21.6364 12.334L21.6364 20.8233L21.6364 22.064L22.4967 21.17C23.0907 20.5527 23.9315 20.167 24.8637 20.167C25.6471 20.167 26.3721 20.4443 26.9358 20.8997L27.4246 21.2947L27.7455 21.9009C27.8933 22.1802 28.0023 22.4631 28.0582 22.7596L28.1351 23.1668H28.5496H29.6363H30.1363V22.6668V21.667V21.167H29.6363H28.1874H27.75V20.5108L27.75 19.0004L27.75 18.998C27.7497 18.9244 27.8068 18.8469 27.9028 18.833C27.9034 18.8331 27.904 18.8331 27.9047 18.8331L27.9182 18.8339H27.9318H29.6364H30.1364V18.3339V17.3338V16.8338H29.6364H23.4999C23.389 16.8338 23.3182 16.7486 23.3182 16.6672L23.3182 14.0006L23.3182 13.9985C23.3179 13.9244 23.3753 13.847 23.4709 13.8332C23.4715 13.8332 23.472 13.8332 23.4725 13.8332L23.4862 13.834H23.4999H27.4843H28.3809L27.9097 13.0712L27.2919 12.0712L27.1453 11.834H26.8665H22.1364ZM24.1818 14.1672H23.6817L23.6818 14.6672L23.6818 16.0004L23.6818 16.5003H24.1818H29.1145H30.0093L29.5403 15.7383L28.7199 14.4051L28.5735 14.1672H28.2941H24.1818ZM28.6137 19.167H28.1137V19.667V20.3336V20.8336H28.6137H29.6365H30.1365V20.3336V19.667V19.167H29.6365H28.6137ZM10.0228 23.3336C10.0228 21.7503 8.72791 20.5002 7.13623 20.5002C5.54476 20.5002 4.24991 21.7503 4.24991 23.3336C4.24991 24.9168 5.5448 26.1669 7.13623 26.1669C8.72788 26.1669 10.0228 24.9168 10.0228 23.3336ZM27.75 23.3336C27.75 21.7503 26.4551 20.5002 24.8636 20.5002C23.272 20.5002 21.9771 21.7503 21.9771 23.3336C21.9771 24.9168 23.272 26.1669 24.8636 26.1669C26.4551 26.1669 27.75 24.9168 27.75 23.3336ZM6.61356 23.3336C6.61356 23.0678 6.83689 22.8336 7.13611 22.8336C7.43567 22.8336 7.65891 23.0679 7.65891 23.3336C7.65891 23.5991 7.43574 23.8334 7.13611 23.8334C6.8368 23.8334 6.61356 23.5992 6.61356 23.3336ZM25.3861 23.3336C25.3861 23.5992 25.1628 23.8334 24.8635 23.8334C24.5639 23.8334 24.3407 23.5991 24.3407 23.3336C24.3407 23.0679 24.564 22.8336 24.8635 22.8336C25.1627 22.8336 25.3861 23.0678 25.3861 23.3336Z" fill="#26C4F7" stroke="#26C4F7"/>
<path d="M23.5 14H28.5L30 16.5H23.5V14Z" fill="#26C4F7"/>
<rect x="2" y="17" width="19" height="2" fill="#26C4F7"/>
</svg>
