<?xml version="1.0" encoding="UTF-8"?><svg id="Layer_1" xmlns="http://www.w3.org/2000/svg" width="31.4" height="31.7" viewBox="0 0 31.4 31.7"><defs><style>.cls-1{fill:white;}</style></defs><path class="cls-1" d="M31.4,26.6c0-.9-.2-1.7-.4-2.6-.6-2.5-1.3-5-2.1-7.5-.8-2.5-1.6-5.1-2.6-7.6,0-.1,0-.2,0-.4,0,0,0-.1,0-.2,.1,0,.2-.1,.4-.2,.5-.3,1-.6,1.4-1,.5-.5,.8-1.1,.8-1.8,0-.9,0-1.8,0-2.7,0-.1,0-.3,0-.4-.1-.9-.6-1.6-1.5-2C26.7,0,26.1,0,25.5,0c-3.3,0-6.7,0-10,0S7,0,2.7,0C1.2,0,.1,1.2,0,2.5c0,.4,0,.8,0,1.2,0,1.3,.4,2.6,1,3.8,.8,1.6,1.9,2.9,3.4,3.8,.8,.5,1.7,.7,2.6,.5,.5,0,1-.2,1.5-.3,1.1-.3,2.3-.5,3.4-.8,.7-.1,1.4-.2,2.2-.1,.1,0,.3,0,.4,0,.8,.1,1.4,.4,2,.9,0,0,0,0,0,0-.1,0-.3,.2-.4,.3-.4,.4-.6,.9-.4,1.5,.2,.5,.3,1,.5,1.5,.1,.4,.4,.7,.8,.8,.1,0,.3,0,.5,.1,0,0,0,.2-.1,.2-.7,1.1-.5,2.5,.5,3.4,.4,.4,.9,.6,1.4,.8,.5,.2,.9,.4,1.3,.7,.6,.4,1,1,1.4,1.7,.3,.5,.3,1.1,0,1.6-.1,.3-.3,.5-.4,.8-.5,1-.8,2-.7,3.1,.1,1.3,.8,2.2,1.9,2.9,.8,.4,1.7,.6,2.6,.7,.7,0,1.3,0,2,0,1,0,1.9-.4,2.6-1.1,1-1.1,1.4-2.5,1.3-4ZM15.6,7.4c-1.3,.2-2.5,.4-3.8,.7-1.3,.3-2.7,.6-4,.9-.3,0-.6,.1-.9,.2-.4,.1-.8,0-1.2-.3-1.4-.8-2.2-2-2.6-3.5-.3-1-.4-2-.4-2.8h.2c7.3,0,14.7,0,22,0,.5,0,.9,0,1.4,0v.2c0,.8,0,1.6,0,2.4,0,.2,0,.2-.2,.2-.8,.1-1.6,.3-2.4,.4-1.1,.2-2.3,.4-3.4,.6-1.5,.3-3.1,.6-4.6,.8Zm13,20.7c-.2,.4-.4,.8-.9,.9,0,0-.2,0-.3,0-.7,0-1.4,0-2,0-.4,0-.8,0-1.2-.3,0,0,0,0,0,0-.5-.2-.7-.6-.6-1.2,0-.4,.2-.7,.3-1,.2-.5,.4-1,.6-1.4,.5-1.1,.5-2.3,0-3.4-.5-1.2-1.3-2.3-2.4-3-.5-.3-1.1-.6-1.7-.9-.2-.1-.5-.2-.7-.4,.2-.3,.4-.6,.6-.9,.4-.8,.7-1.6,.7-2.5,0-1-.4-1.9-.9-2.7-.4-.6-.9-1.2-1.5-1.6,0,0,0,0-.1-.1,1.7-.3,3.4-.6,5.2-.9,0,.2,0,.3,0,.5,0,.2,.1,.5,.2,.7,.9,2.4,1.7,4.9,2.5,7.4,.7,2.1,1.3,4.3,1.9,6.4,.2,.9,.4,1.9,.6,2.8,0,.5,0,1.1-.1,1.6Z"/><path class="cls-1" d="M1.3,30.4H3.9v-10.5H1.3v10.5Z"/><path class="cls-1" d="M7.8,30.4h2.6v-10.5h-2.6v10.5Z"/><path class="cls-1" d="M11.8,30.4h2.6v-10.5h-2.6v10.5Z"/><path class="cls-1" d="M5.2,30.4h1.3v-10.5h-1.3v10.5Z"/></svg>