<svg width="32" height="32" viewBox="0 0 32 32" fill="none" xmlns="http://www.w3.org/2000/svg">
<path d="M18.5585 28.4134L18.5054 28.1046L18.7168 28.3578C19.8065 27.751 20.7813 26.7114 21.5867 25.3281L21.5868 25.3279C22.0923 24.4585 22.511 23.4877 22.8397 22.4469L23.0452 21.7963H22.3629H17.0869H16.5869V22.2963V28.0773V28.6031L17.1121 28.5767C17.6052 28.5518 18.087 28.4945 18.5585 28.4134ZM11.4133 25.328L11.4134 25.328C12.2182 26.7112 13.1934 27.7506 14.2833 28.3573L14.3575 28.3986L14.4412 28.4131C14.913 28.4947 15.3952 28.5516 15.8878 28.5764L16.413 28.6028V28.077V22.296V21.796H15.913H10.637H9.95501L10.1601 22.4464C10.4884 23.4874 10.9068 24.4587 11.4133 25.328ZM9.12061 17.0739L9.10794 16.5869H8.62078H4.92237H4.92236H4.39655L4.423 17.1121C4.49803 18.6021 4.84541 20.0212 5.41348 21.3227L5.54442 21.6227H5.87173H9.10951H9.73311L9.59755 21.014C9.31964 19.7661 9.15614 18.4405 9.12061 17.0739ZM15.8874 4.42284C15.4386 4.44544 14.9987 4.495 14.5675 4.56526L14.4765 4.53434L14.2826 4.64223C13.1929 5.2486 12.2176 6.28867 11.4128 7.67206C10.9688 8.43519 10.5919 9.27643 10.2843 10.1747L10.0576 10.8367H10.7573H15.9125H16.4125V10.3367V4.92221V4.39639L15.8874 4.42284ZM21.5867 7.67224L21.5864 7.67243L21.5867 7.67215C20.7816 6.28891 19.8067 5.24881 18.7169 4.6424L18.6426 4.60108L18.5589 4.58662C18.0868 4.50508 17.6053 4.44774 17.1121 4.42292L16.5869 4.3965V4.92229V10.3368V10.8368H17.0869H22.2421H22.9422L22.7151 10.1746C22.4072 9.2768 22.0305 8.43539 21.5867 7.67224ZM23.0781 11.3841L22.9804 11.0107H22.5944H17.0866H16.5866V11.5107V15.9131V16.4131H17.0866H23.2046H23.7184L23.7044 15.8994C23.6612 14.3208 23.4473 12.7954 23.0781 11.3841ZM16.413 11.5107V11.0107H15.913H10.405H10.0189L9.92124 11.3842C9.55222 12.7958 9.33851 14.3208 9.29517 15.8993L9.28106 16.4131H9.79498H15.913H16.413V15.9131V11.5107ZM4.42295 15.888L4.39662 16.4131H4.92232H8.10779H8.62088H8.62093V15.9131L9.12071 15.926C9.15942 14.4279 9.35027 12.9785 9.67951 11.6292L9.83044 11.0107H9.19377H6.03772H5.72269L5.5867 11.2948C4.91489 12.6987 4.50506 14.2509 4.42295 15.888ZM16.4128 17.0869V16.5869H15.9128H10.2816H9.79523H9.79477V17.0869L9.29542 17.1007C9.33508 18.5389 9.51486 19.9336 9.82548 21.2384L9.91694 21.6227H10.3119H15.9128H16.4128V21.1227V17.0869ZM16.5868 21.1222V21.3472L16.7551 21.4964L16.7556 21.4968L16.8975 21.6227H17.0873H22.6882H23.083L23.1746 21.2385C23.4854 19.9337 23.6656 18.5391 23.7046 17.1005L23.7186 16.5869H23.2048H17.0868H16.5868V17.0869V21.1222ZM28.5761 17.1119L28.6024 16.5869H28.0768H24.3783H23.8912L23.8785 17.0739C23.843 18.4404 23.6797 19.7662 23.4018 21.014L23.2662 21.6227H23.8898H27.1274H27.4547L27.5856 21.3227C28.1537 20.0213 28.5015 18.6025 28.5761 17.1119ZM23.8785 15.9261L23.8912 16.4131H24.3783H28.0767H28.6023L28.5761 15.8881C28.4942 14.2512 28.0846 12.6985 27.4127 11.2948L27.2767 11.0107H26.9617H23.8057H23.169L23.3199 11.6292C23.6492 12.9784 23.8394 14.4278 23.8785 15.9261ZM26.311 10.8366H26.811V10.3366V10.3366V10.1921L26.7339 10.0699C25.4554 8.0426 23.5928 6.4203 21.3817 5.44019L20.7917 6.21343C21.1249 6.62162 21.4415 7.0768 21.7369 7.58449L22.169 7.33304L21.7369 7.5845C22.2417 8.45206 22.6655 9.4291 23.0005 10.4875L23.111 10.8366H23.4772H26.311ZM12.3205 5.89755V4.49319L11.5077 5.48997C9.34481 6.47417 7.5226 8.07633 6.26562 10.0702L5.78232 10.8369H6.68858H9.52239H9.88864L9.9991 10.4877C10.3339 9.42937 10.7578 8.45231 11.2627 7.58478L11.2627 7.58474C11.536 7.11508 11.828 6.68984 12.1337 6.3057L12.3205 6.22297V5.8976V5.89755ZM9.8918 22.1552L9.78649 21.7958H9.41197H6.75547H6.4674H6.46735V22.2958V22.2958L6.03484 22.5465C7.31383 24.7527 9.26901 26.5182 11.618 27.5591L12.2077 26.7856C11.8747 26.378 11.5582 25.9228 11.2628 25.4151L10.8424 25.6597L11.2628 25.4151C10.7019 24.4512 10.2421 23.3508 9.8918 22.1552ZM20.7916 26.7855L20.1253 27.6017H21.1789H21.179H21.2848L21.3815 27.5589C23.7298 26.5182 25.6854 24.7527 26.9646 22.5464L27.3999 21.7956H26.5321H23.5873H23.2127L23.1074 22.155C22.7571 23.3509 22.2975 24.4509 21.7368 25.4148C21.4413 25.9222 21.1244 26.3778 20.7916 26.7855ZM3.5 16.5C3.5 9.33218 9.33245 3.5 16.5 3.5C23.6675 3.5 29.5 9.33218 29.5 16.5C29.5 23.6673 23.667 29.5 16.5 29.5C9.33196 29.5 3.5 23.6673 3.5 16.5Z" fill="white" stroke="white"/>
</svg>
