<svg width="32" height="32" viewBox="0 0 32 32" fill="none" xmlns="http://www.w3.org/2000/svg">
<g clip-path="url(#clip0_3530_5827)">
<path d="M0.287473 24.715L0.333016 24.7356L0.287472 24.715C-0.241411 25.8824 -0.143845 27.238 0.546356 28.3176L0.588484 28.2907L0.546358 28.3176C1.23656 29.3971 2.42617 30.0545 3.70758 30.0644H3.70797H28.2634C29.6163 30.0644 30.8663 29.3425 31.5427 28.1711C32.2191 26.9996 32.2191 25.5559 31.5427 24.3844C30.8663 23.2129 29.6163 22.491 28.2634 22.491H28.2634H24.5767V14.5338C24.5767 14.379 24.5152 14.2304 24.4057 14.121C24.2962 14.0115 24.1477 13.95 23.9928 13.95H14.918C14.5956 13.95 14.3342 14.2114 14.3342 14.5338V22.491H13.3666V14.5338C13.3666 14.379 13.3051 14.2304 13.1956 14.121C13.0861 14.0115 12.9376 13.95 12.7828 13.95H3.70794C3.38554 13.95 3.12412 14.2114 3.12412 14.5338V22.541C1.87552 22.7457 0.810393 23.5609 0.287473 24.715ZM1.43986 27.5872L1.43985 27.5872C0.971932 26.777 0.971932 25.7784 1.43985 24.9682L1.43986 24.9682C1.90755 24.1579 2.77232 23.6586 3.70794 23.6586H28.2634C29.199 23.6586 30.0637 24.1579 30.5314 24.9682L30.5747 24.9432L30.5314 24.9682C30.9994 25.7784 30.9994 26.777 30.5314 27.5872L30.5747 27.6122L30.5314 27.5872C30.0637 28.3975 29.199 28.8968 28.2634 28.8968H3.70794C2.77232 28.8968 1.90758 28.3975 1.43986 27.5872ZM15.5018 15.1176H23.409V22.491H15.5018V15.1176ZM4.29175 15.1176H12.1989V22.491H4.29175V15.1176Z" fill="white" stroke="white" stroke-width="0.1"/>
<path d="M3.261 26.4628L3.26098 26.4628C3.18603 26.282 3.22728 26.074 3.36573 25.9356C3.50417 25.7971 3.71214 25.7559 3.89294 25.8308L3.89299 25.8309C4.07373 25.9056 4.19167 26.082 4.19167 26.2777C4.19167 26.406 4.14069 26.5291 4.04998 26.6198C3.95927 26.7105 3.83615 26.7615 3.70785 26.7615C3.51216 26.7615 3.33572 26.6436 3.261 26.4628ZM3.70785 24.6263C3.26994 24.6263 2.84968 24.8003 2.54008 25.1099C2.23049 25.4196 2.05645 25.8398 2.05645 26.2777C2.05645 26.7155 2.23043 27.1359 2.54009 27.4455C2.84973 27.755 3.26999 27.9291 3.70785 27.9291C4.14572 27.9291 4.56603 27.7551 4.87563 27.4454C5.18522 27.1358 5.35926 26.7155 5.35926 26.2777C5.35926 25.8398 5.18528 25.4195 4.87562 25.1099C4.56597 24.8003 4.14572 24.6263 3.70785 24.6263Z" fill="white" stroke="white" stroke-width="0.1"/>
<path d="M8.06569 26.4628L8.06567 26.4628C7.99072 26.282 8.03197 26.074 8.17042 25.9356C8.30886 25.7971 8.51683 25.7559 8.69763 25.8308L8.69767 25.8309C8.87842 25.9056 8.99636 26.082 8.99636 26.2777C8.99636 26.406 8.94538 26.5291 8.85467 26.6198C8.76396 26.7105 8.64084 26.7615 8.51254 26.7615C8.31685 26.7615 8.1404 26.6436 8.06569 26.4628ZM8.51254 24.6263C8.07462 24.6263 7.65437 24.8003 7.34477 25.1099C7.03518 25.4196 6.86113 25.8398 6.86113 26.2777C6.86113 26.7155 7.03512 27.1359 7.34477 27.4455C7.65442 27.755 8.07467 27.9291 8.51254 27.9291C8.9504 27.9291 9.37072 27.7551 9.68032 27.4454C9.98991 27.1358 10.164 26.7155 10.164 26.2777C10.164 25.8398 9.98997 25.4195 9.68031 25.1099C9.37066 24.8003 8.95041 24.6263 8.51254 24.6263Z" fill="white" stroke="white" stroke-width="0.1"/>
<path d="M12.8694 26.4628L12.8694 26.4628C12.7944 26.282 12.8357 26.074 12.9741 25.9356C13.1126 25.7971 13.3205 25.7559 13.5013 25.8308L13.5014 25.8309C13.6821 25.9056 13.8001 26.082 13.8001 26.2777C13.8001 26.406 13.7491 26.5291 13.6584 26.6198C13.5677 26.7105 13.4446 26.7615 13.3163 26.7615C13.1206 26.7615 12.9441 26.6436 12.8694 26.4628ZM13.3163 24.6263C12.8783 24.6263 12.4581 24.8003 12.1485 25.1099C11.8389 25.4196 11.6648 25.8398 11.6648 26.2777C11.6648 26.7155 11.8388 27.1359 12.1485 27.4455C12.4581 27.755 12.8784 27.9291 13.3163 27.9291C13.7541 27.9291 14.1744 27.7551 14.484 27.4454C14.7936 27.1358 14.9677 26.7155 14.9677 26.2777C14.9677 25.8398 14.7937 25.4195 14.484 25.1099C14.1744 24.8003 13.7541 24.6263 13.3163 24.6263Z" fill="white" stroke="white" stroke-width="0.1"/>
<path d="M18.2083 26.4628L18.2082 26.4628C18.1333 26.282 18.1746 26.074 18.313 25.9356C18.4514 25.7971 18.6594 25.7559 18.8402 25.8308L18.8403 25.8309C19.021 25.9056 19.1389 26.082 19.1389 26.2777C19.1389 26.406 19.088 26.5291 18.9972 26.6198C18.9065 26.7105 18.7834 26.7615 18.6551 26.7615C18.4594 26.7615 18.283 26.6436 18.2083 26.4628ZM18.6551 24.6263C18.2172 24.6263 17.7969 24.8003 17.4873 25.1099C17.1778 25.4196 17.0037 25.8398 17.0037 26.2777C17.0037 26.7155 17.1777 27.1359 17.4874 27.4455C17.797 27.755 18.2173 27.9291 18.6551 27.9291C19.093 27.9291 19.5133 27.7551 19.8229 27.4454C20.1325 27.1358 20.3065 26.7155 20.3065 26.2777C20.3065 25.8398 20.1325 25.4195 19.8229 25.1099C19.5132 24.8003 19.093 24.6263 18.6551 24.6263Z" fill="white" stroke="white" stroke-width="0.1"/>
<path d="M23.012 26.4628L23.012 26.4628C22.937 26.282 22.9783 26.074 23.1167 25.9356C23.2551 25.7971 23.4631 25.7559 23.6439 25.8308L23.644 25.8309C23.8247 25.9056 23.9426 26.082 23.9426 26.2777C23.9426 26.406 23.8917 26.5291 23.801 26.6198C23.7103 26.7105 23.5871 26.7615 23.4588 26.7615C23.2631 26.7615 23.0867 26.6436 23.012 26.4628ZM23.4588 24.6263C23.0209 24.6263 22.6007 24.8003 22.2911 25.1099C21.9815 25.4196 21.8074 25.8398 21.8074 26.2777C21.8074 26.7155 21.9814 27.1359 22.2911 27.4455C22.6007 27.755 23.021 27.9291 23.4588 27.9291C23.8967 27.9291 24.317 27.7551 24.6266 27.4454C24.9362 27.1358 25.1102 26.7155 25.1102 26.2777C25.1102 25.8398 24.9363 25.4195 24.6266 25.1099C24.317 24.8003 23.8967 24.6263 23.4588 24.6263Z" fill="white" stroke="white" stroke-width="0.1"/>
<path d="M27.8167 26.4628L27.8166 26.4628C27.7417 26.282 27.783 26.074 27.9214 25.9356C28.0598 25.7971 28.2678 25.7559 28.4486 25.8308L28.4487 25.8309C28.6294 25.9056 28.7473 26.082 28.7473 26.2777C28.7473 26.406 28.6964 26.5291 28.6056 26.6198C28.5149 26.7105 28.3918 26.7615 28.2635 26.7615C28.0678 26.7615 27.8914 26.6436 27.8167 26.4628ZM28.2635 24.6263C27.8256 24.6263 27.4053 24.8003 27.0957 25.1099C26.7862 25.4196 26.6121 25.8398 26.6121 26.2777C26.6121 26.7155 26.7861 27.1359 27.0958 27.4455C27.4054 27.755 27.8257 27.9291 28.2635 27.9291C28.7014 27.9291 29.1217 27.7551 29.4313 27.4454C29.7409 27.1358 29.9149 26.7155 29.9149 26.2777C29.9149 25.8398 29.7409 25.4195 29.4313 25.1099C29.1216 24.8003 28.7014 24.6263 28.2635 24.6263Z" fill="white" stroke="white" stroke-width="0.1"/>
<path d="M5.48075 16.9108L5.48074 16.9109C5.18585 17.4218 5.18585 18.0514 5.48074 18.5623L5.48075 18.5623C5.77589 19.0732 6.32093 19.388 6.91099 19.388H9.58005C10.1701 19.388 10.7152 19.0732 11.0103 18.5623L11.0103 18.5623C11.3052 18.0514 11.3052 17.4218 11.0103 16.9109L11.0103 16.9108C10.7152 16.3999 10.1701 16.0851 9.58005 16.0851H6.91099C6.32094 16.0851 5.77587 16.3999 5.48075 16.9108ZM9.58005 18.2204H6.91099C6.64381 18.2204 6.42717 18.0037 6.42717 17.7366C6.42717 17.4694 6.64381 17.2528 6.91099 17.2528H9.58005C9.84723 17.2528 10.0639 17.4694 10.0639 17.7366C10.0639 18.0037 9.84723 18.2204 9.58005 18.2204Z" fill="white" stroke="white" stroke-width="0.1"/>
<path d="M16.6907 16.9108L16.6907 16.9109C16.3958 17.4218 16.3958 18.0514 16.6907 18.5623L16.6907 18.5623C16.9859 19.0732 17.5309 19.388 18.1209 19.388H20.79C21.3801 19.388 21.9251 19.0732 22.2203 18.5623L22.2203 18.5623C22.5152 18.0514 22.5152 17.4218 22.2203 16.9109L22.2203 16.9108C21.9251 16.3999 21.3801 16.0851 20.79 16.0851H18.1209C17.5309 16.0851 16.9858 16.3999 16.6907 16.9108ZM20.79 18.2204H18.1209C17.8538 18.2204 17.6371 18.0037 17.6371 17.7366C17.6371 17.4694 17.8538 17.2528 18.1209 17.2528H20.79C21.0572 17.2528 21.2738 17.4694 21.2738 17.7366C21.2738 18.0037 21.0572 18.2204 20.79 18.2204Z" fill="white" stroke="white" stroke-width="0.1"/>
<path d="M7 7.5L7 2L9.5 2L9.5 7.5L11.5 7.5L8.5 12L5 7.5L7 7.5Z" fill="white"/>
</g>
<defs>
<clipPath id="clip0_3530_5827">
<rect width="32" height="32" fill="white"/>
</clipPath>
</defs>
</svg>
