<svg width="34" height="34" viewBox="0 0 34 34" fill="none" xmlns="http://www.w3.org/2000/svg">
<path d="M7.4 26.2066H26.6M7.4 19.4133H26.6M33 9.81767V29.6033C33 30.5042 32.6629 31.3681 32.0627 32.0051C31.4626 32.6421 30.6487 33 29.8 33H4.2C3.35131 33 2.53737 32.6421 1.93726 32.0051C1.33714 31.3681 1 30.5042 1 29.6033V9.81767C1.00258 9.14028 1.1959 8.47919 1.55514 7.91931C1.91438 7.35944 2.42312 6.92637 3.016 6.67574L15.816 1.24106C16.5763 0.919648 17.4237 0.919648 18.184 1.24106L30.984 6.67574C31.5769 6.92637 32.0856 7.35944 32.4449 7.91931C32.8041 8.47919 32.9974 9.14028 33 9.81767Z" stroke="#26C4F7" stroke-width="2" stroke-linecap="round" stroke-linejoin="round"/>
<path d="M7.39996 12.6199H26.6V33H7.39996V12.6199Z" stroke="#26C4F7" stroke-width="2" stroke-linecap="round" stroke-linejoin="round"/>
</svg>
