<svg width="32" height="32" viewBox="0 0 32 32" fill="none" xmlns="http://www.w3.org/2000/svg">
<path d="M2 31V1H5.11111V3.72727H26.8889V1H30V31H26.8889V28.2727H5.11111V31H2ZM5.11111 14.6364H8.22222H17.5556H26.8889V6.45455H5.11111V14.6364ZM5.11111 25.5455H14.4444H23.7778H26.8889V17.3636H5.11111V25.5455Z" fill="#26C4F7"/>
<path d="M17.5 19.5H25.5V25.5H17.5V19.5Z" stroke="#26C4F7"/>
<line x1="21.5" y1="19" x2="21.5" y2="21" stroke="#26C4F7"/>
<path d="M16.5 9.5H24.5V14.5H16.5V9.5Z" stroke="#26C4F7"/>
<line x1="20.5" y1="9" x2="20.5" y2="11" stroke="#26C4F7"/>
<line x1="11.5" y1="20" x2="11.5" y2="22" stroke="#26C4F7"/>
<path d="M8.5 20.5H14.5V25.5H8.5V20.5Z" stroke="#26C4F7"/>
</svg>
